<svg width="393" height="83" viewBox="0 0 393 83" fill="none" xmlns="http://www.w3.org/2000/svg">
<path d="M12.7334 66.3138V21.1292C12.7334 11.7552 20.4529 4.2206 29.8241 4.44779L344.65 12.0804C360.505 12.4648 366.932 32.6698 354.214 42.1436L303.8 79.6957C300.92 81.8412 297.424 83.0001 293.832 83.0001H29.4197C20.2041 83.0001 12.7334 75.5294 12.7334 66.3138Z" fill="black"/>
<path d="M2 63.2469V18.8249C2 9.45246 9.71712 1.91843 19.0868 2.14338L333.53 9.69272C349.425 10.0744 355.83 30.3636 343.034 39.8024L293.047 76.6751C290.178 78.7914 286.707 79.9332 283.142 79.9332H18.6863C9.4707 79.9332 2 72.4624 2 63.2469Z" fill="url(#paint0_linear_119_150)" stroke="black" stroke-width="2.78105"/>
<path d="M44.5908 58.0334V17.8713H71.1825V24.8722H53.0821V34.4421H69.4176V41.443H53.0821V58.0334H44.5908ZM88.2534 58.6218C85.155 58.6218 82.4879 57.9942 80.2523 56.7392C78.0298 55.471 76.3172 53.6799 75.1144 51.3659C73.9116 49.0388 73.3102 46.2868 73.3102 43.1099C73.3102 40.0115 73.9116 37.2921 75.1144 34.952C76.3172 32.6118 78.0102 30.788 80.1935 29.4806C82.3899 28.1733 84.9654 27.5196 87.92 27.5196C89.9072 27.5196 91.7571 27.8399 93.4698 28.4805C95.1955 29.108 96.699 30.0559 97.9802 31.324C99.2745 32.5922 100.281 34.1872 101 36.109C101.719 38.0177 102.079 40.2533 102.079 42.8157V45.1102H76.644V39.933H94.215C94.215 38.7302 93.9535 37.6647 93.4306 36.7365C92.9076 35.8083 92.182 35.0827 91.2538 34.5597C90.3386 34.0237 89.2731 33.7557 88.0573 33.7557C86.7892 33.7557 85.6648 34.0499 84.6843 34.6382C83.7169 35.2134 82.9586 35.9913 82.4095 36.9718C81.8604 37.9393 81.5793 39.0179 81.5662 40.2076V45.1298C81.5662 46.6202 81.8408 47.9079 82.3899 48.993C82.952 50.0781 83.743 50.9149 84.7627 51.5032C85.7825 52.0915 86.9918 52.3856 88.3907 52.3856C89.3189 52.3856 90.1687 52.2549 90.94 51.9934C91.7114 51.732 92.3716 51.3398 92.9207 50.8168C93.4698 50.2939 93.8881 49.6533 94.1758 48.895L101.902 49.4049C101.51 51.2613 100.706 52.8824 99.4902 54.2682C98.2874 55.641 96.7316 56.713 94.8229 57.4844C92.9272 58.2426 90.7374 58.6218 88.2534 58.6218ZM116.12 58.6022C114.198 58.6022 112.485 58.2688 110.982 57.602C109.478 56.9222 108.289 55.9221 107.413 54.6016C106.55 53.2681 106.119 51.6078 106.119 49.6206C106.119 47.9471 106.426 46.5417 107.04 45.4043C107.655 44.2669 108.491 43.3518 109.55 42.6589C110.609 41.966 111.812 41.443 113.159 41.09C114.518 40.737 115.943 40.4886 117.434 40.3448C119.186 40.1618 120.598 39.9918 121.67 39.835C122.742 39.665 123.52 39.4166 124.003 39.0898C124.487 38.7629 124.729 38.2792 124.729 37.6386V37.5209C124.729 36.2789 124.337 35.318 123.552 34.6382C122.781 33.9584 121.683 33.6184 120.258 33.6184C118.754 33.6184 117.558 33.9518 116.669 34.6186C115.78 35.2723 115.192 36.0959 114.904 37.0895L107.177 36.462C107.57 34.6317 108.341 33.0497 109.492 31.7162C110.642 30.3697 112.126 29.3368 113.943 28.6178C115.773 27.8857 117.891 27.5196 120.297 27.5196C121.97 27.5196 123.572 27.7157 125.101 28.1079C126.644 28.5001 128.01 29.108 129.2 29.9317C130.403 30.7553 131.351 31.8143 132.044 33.1086C132.736 34.3898 133.083 35.9259 133.083 37.717V58.0334H125.16V53.8564H124.925C124.441 54.7977 123.794 55.6279 122.983 56.3469C122.173 57.0529 121.199 57.6086 120.062 58.0138C118.924 58.406 117.61 58.6022 116.12 58.6022ZM118.512 52.8367C119.741 52.8367 120.826 52.5948 121.768 52.1111C122.709 51.6143 123.448 50.9475 123.984 50.1108C124.52 49.2741 124.788 48.3263 124.788 47.2673V44.0708C124.526 44.2408 124.167 44.3977 123.709 44.5415C123.265 44.6722 122.761 44.7964 122.199 44.9141C121.637 45.0187 121.075 45.1167 120.513 45.2082C119.95 45.2867 119.441 45.3586 118.983 45.4239C118.002 45.5677 117.146 45.7965 116.414 46.1103C115.682 46.4241 115.113 46.849 114.708 47.385C114.303 47.9079 114.1 48.5616 114.1 49.346C114.1 50.4834 114.512 51.3528 115.335 51.9542C116.172 52.5425 117.231 52.8367 118.512 52.8367ZM155.586 27.9118V34.1872H137.446V27.9118H155.586ZM141.564 20.6952H149.918V48.7773C149.918 49.5487 150.036 50.1501 150.271 50.5815C150.507 50.9998 150.834 51.294 151.252 51.4639C151.683 51.6339 152.18 51.7189 152.742 51.7189C153.135 51.7189 153.527 51.6862 153.919 51.6208C154.311 51.5424 154.612 51.4836 154.821 51.4443L156.135 57.6608C155.717 57.7916 155.128 57.9419 154.37 58.1119C153.612 58.2949 152.69 58.406 151.605 58.4453C149.592 58.5237 147.827 58.2557 146.31 57.6412C144.807 57.0268 143.637 56.0724 142.8 54.7781C141.963 53.4838 141.551 51.8496 141.564 49.8755V20.6952ZM180.344 45.2082V27.9118H188.698V58.0334H180.677V52.5621H180.364C179.684 54.3271 178.553 55.7456 176.971 56.8176C175.402 57.8896 173.487 58.4257 171.225 58.4257C169.212 58.4257 167.44 57.9681 165.911 57.0529C164.381 56.1378 163.185 54.8369 162.322 53.1504C161.472 51.4639 161.041 49.4441 161.028 47.0908V27.9118H169.382V45.6004C169.395 47.3784 169.872 48.7839 170.813 49.8167C171.755 50.8495 173.016 51.3659 174.598 51.3659C175.605 51.3659 176.546 51.1371 177.422 50.6795C178.298 50.2089 179.004 49.516 179.54 48.6008C180.089 47.6857 180.357 46.5548 180.344 45.2082ZM195.38 58.0334V27.9118H203.479V33.1674H203.793C204.342 31.2979 205.264 29.8859 206.558 28.9316C207.853 27.9641 209.343 27.4804 211.029 27.4804C211.448 27.4804 211.899 27.5065 212.383 27.5588C212.866 27.6111 213.291 27.683 213.657 27.7745V35.1873C213.265 35.0696 212.722 34.965 212.03 34.8735C211.337 34.782 210.703 34.7362 210.127 34.7362C208.898 34.7362 207.8 35.0043 206.833 35.5403C205.878 36.0632 205.12 36.7953 204.558 37.7366C204.009 38.6779 203.734 39.7631 203.734 40.992V58.0334H195.38ZM230.302 58.6218C227.203 58.6218 224.536 57.9942 222.301 56.7392C220.078 55.471 218.365 53.6799 217.163 51.3659C215.96 49.0388 215.358 46.2868 215.358 43.1099C215.358 40.0115 215.96 37.2921 217.163 34.952C218.365 32.6118 220.058 30.788 222.242 29.4806C224.438 28.1733 227.014 27.5196 229.968 27.5196C231.955 27.5196 233.805 27.8399 235.518 28.4805C237.244 29.108 238.747 30.0559 240.028 31.324C241.323 32.5922 242.329 34.1872 243.048 36.109C243.767 38.0177 244.127 40.2533 244.127 42.8157V45.1102H218.692V39.933H236.263C236.263 38.7302 236.002 37.6647 235.479 36.7365C234.956 35.8083 234.23 35.0827 233.302 34.5597C232.387 34.0237 231.321 33.7557 230.106 33.7557C228.837 33.7557 227.713 34.0499 226.733 34.6382C225.765 35.2134 225.007 35.9913 224.458 36.9718C223.909 37.9393 223.628 39.0179 223.614 40.2076V45.1298C223.614 46.6202 223.889 47.9079 224.438 48.993C225 50.0781 225.791 50.9149 226.811 51.5032C227.831 52.0915 229.04 52.3856 230.439 52.3856C231.367 52.3856 232.217 52.2549 232.988 51.9934C233.76 51.732 234.42 51.3398 234.969 50.8168C235.518 50.2939 235.936 49.6533 236.224 48.895L243.95 49.4049C243.558 51.2613 242.754 52.8824 241.538 54.2682C240.336 55.641 238.78 56.713 236.871 57.4844C234.975 58.2426 232.786 58.6218 230.302 58.6218ZM274.641 36.5012L266.993 36.9718C266.862 36.3182 266.581 35.7298 266.15 35.2069C265.718 34.6709 265.149 34.246 264.443 33.9322C263.751 33.6054 262.92 33.442 261.953 33.442C260.659 33.442 259.567 33.7165 258.678 34.2656C257.789 34.8016 257.344 35.5207 257.344 36.4227C257.344 37.1418 257.632 37.7497 258.207 38.2465C258.783 38.7433 259.77 39.1421 261.168 39.4427L266.62 40.5409C269.549 41.1423 271.732 42.1098 273.17 43.4433C274.608 44.7768 275.327 46.5287 275.327 48.6989C275.327 50.673 274.745 52.4053 273.582 53.8956C272.431 55.386 270.849 56.5496 268.836 57.3863C266.836 58.2099 264.528 58.6218 261.914 58.6218C257.926 58.6218 254.749 57.7916 252.383 56.1312C250.03 54.4578 248.65 52.183 248.245 49.3068L256.462 48.8754C256.71 50.0912 257.312 51.0194 258.266 51.6601C259.22 52.2876 260.443 52.6014 261.933 52.6014C263.398 52.6014 264.574 52.3203 265.463 51.7581C266.365 51.1829 266.823 50.4442 266.836 49.5421C266.823 48.7839 266.503 48.1629 265.875 47.6791C265.247 47.1823 264.28 46.8032 262.973 46.5417L257.756 45.5024C254.815 44.9141 252.625 43.8943 251.187 42.4431C249.762 40.992 249.049 39.1421 249.049 36.8934C249.049 34.9585 249.572 33.2916 250.618 31.8927C251.677 30.4939 253.161 29.4153 255.07 28.657C256.991 27.8987 259.24 27.5196 261.816 27.5196C265.62 27.5196 268.614 28.3236 270.797 29.9317C272.994 31.5397 274.275 33.7296 274.641 36.5012Z" fill="#EAF0FF"/>
<defs>
<linearGradient id="paint0_linear_119_150" x1="142.176" y1="-41.0629" x2="296.47" y2="140.33" gradientUnits="userSpaceOnUse">
<stop stop-color="#21792E"/>
<stop offset="0.984473" stop-color="#0E349F"/>
</linearGradient>
</defs>
</svg>
