<svg width="393" height="83" viewBox="0 0 393 83" fill="none" xmlns="http://www.w3.org/2000/svg">
<path d="M12.7334 65.5806V20.396C12.7334 11.022 20.4529 3.48738 29.8241 3.71458L344.65 11.3472C360.505 11.7316 366.932 31.9366 354.214 41.4104L303.8 78.9625C300.92 81.108 297.424 82.2669 293.832 82.2669H29.4197C20.2041 82.2669 12.7334 74.7962 12.7334 65.5806Z" fill="white"/>
<path d="M2 62.5137V18.0917C2 8.71931 9.71712 1.18528 19.0868 1.41023L333.53 8.95956C349.425 9.3412 355.83 29.6305 343.034 39.0693L293.047 75.942C290.178 78.0582 286.707 79.2 283.142 79.2H18.6863C9.4707 79.2 2 71.7293 2 62.5137Z" fill="url(#paint0_linear_465_2728)" stroke="white" stroke-width="2.78105"/>
<path d="M45.5132 57.3003H36.414L50.2786 17.1381H61.2212L75.0662 57.3003H65.9669L55.9068 26.3158H55.593L45.5132 57.3003ZM44.9445 41.5139H66.4376V48.1422H44.9445V41.5139ZM79.9001 57.3003V17.1381H88.2542V32.2381H88.5091C88.8752 31.4276 89.4047 30.6039 90.0976 29.7672C90.8036 28.9174 91.7187 28.2115 92.843 27.6493C93.9804 27.0741 95.3924 26.7864 97.0789 26.7864C99.2753 26.7864 101.302 27.3617 103.158 28.5122C105.015 29.6496 106.498 31.3688 107.61 33.6697C108.721 35.9576 109.277 38.8273 109.277 42.2787C109.277 45.6386 108.734 48.4756 107.649 50.7896C106.577 53.0906 105.113 54.8359 103.256 56.0256C101.413 57.2022 99.3472 57.7906 97.0593 57.7906C95.4382 57.7906 94.0589 57.5225 92.9215 56.9865C91.7971 56.4505 90.8755 55.7772 90.1564 54.9667C89.4374 54.143 88.8883 53.3128 88.5091 52.4761H88.1365V57.3003H79.9001ZM88.0777 42.2395C88.0777 44.0306 88.3261 45.5929 88.8229 46.9264C89.3197 48.2599 90.0387 49.2992 90.98 50.0444C91.9213 50.7766 93.0653 51.1426 94.4119 51.1426C95.7715 51.1426 96.922 50.77 97.8633 50.0248C98.8046 49.2665 99.5171 48.2207 100.001 46.8871C100.498 45.5406 100.746 43.9913 100.746 42.2395C100.746 40.5007 100.504 38.9711 100.02 37.6506C99.5367 36.3302 98.8242 35.2974 97.8829 34.5522C96.9416 33.807 95.7846 33.4344 94.4119 33.4344C93.0522 33.4344 91.9017 33.7939 90.9604 34.513C90.0322 35.232 89.3197 36.2518 88.8229 37.5722C88.3261 38.8926 88.0777 40.4484 88.0777 42.2395ZM128.46 57.8886C125.414 57.8886 122.78 57.2415 120.557 55.9472C118.348 54.6398 116.642 52.8226 115.439 50.4955C114.236 48.1553 113.635 45.4425 113.635 42.3571C113.635 39.2456 114.236 36.5263 115.439 34.1992C116.642 31.859 118.348 30.0418 120.557 28.7475C122.78 27.4401 125.414 26.7864 128.46 26.7864C131.507 26.7864 134.134 27.4401 136.344 28.7475C138.566 30.0418 140.279 31.859 141.482 34.1992C142.685 36.5263 143.286 39.2456 143.286 42.3571C143.286 45.4425 142.685 48.1553 141.482 50.4955C140.279 52.8226 138.566 54.6398 136.344 55.9472C134.134 57.2415 131.507 57.8886 128.46 57.8886ZM128.5 51.4172C129.886 51.4172 131.043 51.025 131.971 50.2405C132.899 49.443 133.598 48.3579 134.069 46.9852C134.553 45.6125 134.795 44.0502 134.795 42.2983C134.795 40.5464 134.553 38.9841 134.069 37.6114C133.598 36.2387 132.899 35.1536 131.971 34.3561C131.043 33.5586 129.886 33.1598 128.5 33.1598C127.101 33.1598 125.924 33.5586 124.97 34.3561C124.029 35.1536 123.316 36.2387 122.832 37.6114C122.362 38.9841 122.126 40.5464 122.126 42.2983C122.126 44.0502 122.362 45.6125 122.832 46.9852C123.316 48.3579 124.029 49.443 124.97 50.2405C125.924 51.025 127.101 51.4172 128.5 51.4172ZM168.034 44.4751V27.1787H176.388V57.3003H168.368V51.829H168.054C167.374 53.5939 166.243 55.0124 164.661 56.0844C163.093 57.1565 161.177 57.6925 158.916 57.6925C156.902 57.6925 155.131 57.2349 153.601 56.3198C152.071 55.4046 150.875 54.1038 150.012 52.4173C149.163 50.7308 148.731 48.7109 148.718 46.3577V27.1787H157.072V44.8673C157.085 46.6453 157.562 48.0507 158.504 49.0835C159.445 50.1163 160.707 50.6327 162.289 50.6327C163.295 50.6327 164.236 50.404 165.112 49.9464C165.988 49.4757 166.694 48.7828 167.23 47.8677C167.779 46.9525 168.047 45.8216 168.034 44.4751ZM199.092 27.1787V33.454H180.953V27.1787H199.092ZM185.071 19.962H193.425V48.0442C193.425 48.8155 193.543 49.4169 193.778 49.8483C194.013 50.2667 194.34 50.5608 194.758 50.7308C195.19 50.9008 195.687 50.9857 196.249 50.9857C196.641 50.9857 197.033 50.953 197.426 50.8877C197.818 50.8092 198.118 50.7504 198.328 50.7112L199.641 56.9277C199.223 57.0584 198.635 57.2088 197.877 57.3787C197.118 57.5618 196.197 57.6729 195.111 57.7121C193.098 57.7906 191.333 57.5225 189.817 56.9081C188.313 56.2936 187.143 55.3392 186.306 54.045C185.47 52.7507 185.058 51.1165 185.071 49.1423V19.962ZM242.279 17.1381H250.771V43.22C250.771 46.1485 250.071 48.7109 248.672 50.9073C247.287 53.1037 245.345 54.8163 242.848 56.0452C240.351 57.2611 237.442 57.869 234.122 57.869C230.788 57.869 227.872 57.2611 225.375 56.0452C222.878 54.8163 220.937 53.1037 219.551 50.9073C218.165 48.7109 217.472 46.1485 217.472 43.22V17.1381H225.964V42.4944C225.964 44.024 226.297 45.3837 226.964 46.5734C227.644 47.7631 228.598 48.6978 229.827 49.3777C231.056 50.0575 232.487 50.3974 234.122 50.3974C235.769 50.3974 237.2 50.0575 238.416 49.3777C239.645 48.6978 240.593 47.7631 241.26 46.5734C241.94 45.3837 242.279 44.024 242.279 42.4944V17.1381ZM282.662 35.768L275.014 36.2387C274.883 35.585 274.602 34.9967 274.171 34.4737C273.74 33.9377 273.171 33.5128 272.465 33.1991C271.772 32.8722 270.942 32.7088 269.974 32.7088C268.68 32.7088 267.588 32.9833 266.699 33.5324C265.81 34.0685 265.366 34.7875 265.366 35.6896C265.366 36.4086 265.654 37.0166 266.229 37.5134C266.804 38.0102 267.791 38.4089 269.19 38.7096L274.642 39.8078C277.57 40.4092 279.753 41.3766 281.192 42.7101C282.63 44.0436 283.349 45.7955 283.349 47.9657C283.349 49.9398 282.767 51.6721 281.603 53.1625C280.453 54.6529 278.871 55.8164 276.858 56.6531C274.857 57.4768 272.55 57.8886 269.935 57.8886C265.948 57.8886 262.771 57.0584 260.404 55.3981C258.051 53.7247 256.672 51.4498 256.267 48.5736L264.483 48.1422C264.732 49.3581 265.333 50.2863 266.288 50.9269C267.242 51.5544 268.464 51.8682 269.955 51.8682C271.419 51.8682 272.596 51.5871 273.485 51.025C274.387 50.4497 274.844 49.7111 274.857 48.809C274.844 48.0507 274.524 47.4297 273.896 46.946C273.269 46.4492 272.301 46.07 270.994 45.8086L265.778 44.7692C262.836 44.1809 260.646 43.1612 259.208 41.71C257.783 40.2588 257.071 38.4089 257.071 36.1602C257.071 34.2253 257.594 32.5585 258.64 31.1596C259.698 29.7607 261.182 28.6821 263.091 27.9239C265.013 27.1656 267.262 26.7864 269.837 26.7864C273.641 26.7864 276.635 27.5905 278.819 29.1985C281.015 30.8066 282.296 32.9964 282.662 35.768Z" fill="#EAF0FF"/>
<defs>
<linearGradient id="paint0_linear_465_2728" x1="142.176" y1="-41.7961" x2="296.47" y2="139.597" gradientUnits="userSpaceOnUse">
<stop stop-color="#21792E"/>
<stop offset="0.984473" stop-color="#0E349F"/>
</linearGradient>
</defs>
</svg>
