<svg width="341" height="44" viewBox="0 0 341 44" fill="none" xmlns="http://www.w3.org/2000/svg">
<path d="M0.0611417 10.139V3.13811H33.0459V10.139H20.7502V43.3003H12.3569V10.139H0.0611417ZM47.6802 43.8886C44.5817 43.8886 41.9147 43.2611 39.6791 42.006C37.4566 40.7379 35.744 38.9468 34.5412 36.6327C33.3384 34.3056 32.737 31.5536 32.737 28.3767C32.737 25.2783 33.3384 22.559 34.5412 20.2188C35.744 17.8786 37.437 16.0549 39.6203 14.7475C41.8167 13.4401 44.3922 12.7864 47.3468 12.7864C49.334 12.7864 51.1839 13.1068 52.8966 13.7474C54.6223 14.3749 56.1258 15.3227 57.407 16.5909C58.7013 17.859 59.7079 19.454 60.427 21.3758C61.146 23.2846 61.5056 25.5202 61.5056 28.0826V30.377H36.0708V25.1999H53.6418C53.6418 23.9971 53.3803 22.9316 52.8573 22.0034C52.3344 21.0751 51.6088 20.3495 50.6806 19.8266C49.7654 19.2906 48.6999 19.0226 47.4841 19.0226C46.2159 19.0226 45.0916 19.3167 44.1111 19.905C43.1436 20.4803 42.3854 21.2582 41.8363 22.2387C41.2872 23.2061 41.0061 24.2847 40.993 25.4744V30.3966C40.993 31.887 41.2676 33.1748 41.8167 34.2599C42.3788 35.345 43.1698 36.1817 44.1895 36.77C45.2093 37.3583 46.4186 37.6525 47.8175 37.6525C48.7457 37.6525 49.5955 37.5217 50.3668 37.2603C51.1382 36.9988 51.7984 36.6066 52.3475 36.0837C52.8966 35.5607 53.3149 34.9201 53.6025 34.1618L61.3291 34.6717C60.9369 36.5282 60.1328 38.1493 58.917 39.5351C57.7142 40.9078 56.1584 41.9799 54.2497 42.7512C52.354 43.5095 50.1642 43.8886 47.6802 43.8886ZM92.0194 21.768L84.3713 22.2387C84.2406 21.585 83.9595 20.9967 83.5281 20.4737C83.0966 19.9377 82.5279 19.5128 81.822 19.1991C81.1291 18.8722 80.2989 18.7088 79.3314 18.7088C78.0372 18.7088 76.9455 18.9833 76.0565 19.5324C75.1675 20.0685 74.723 20.7875 74.723 21.6896C74.723 22.4086 75.0106 23.0166 75.5859 23.5134C76.1611 24.0102 77.1481 24.4089 78.547 24.7096L83.9987 25.8078C86.9272 26.4092 89.1105 27.3766 90.5486 28.7101C91.9867 30.0436 92.7058 31.7955 92.7058 33.9657C92.7058 35.9398 92.124 37.6721 90.9604 39.1625C89.81 40.6529 88.228 41.8164 86.2147 42.6531C84.2144 43.4768 81.9069 43.8886 79.2922 43.8886C75.3048 43.8886 72.1279 43.0584 69.7615 41.3981C67.4083 39.7247 66.029 37.4498 65.6237 34.5736L73.8405 34.1422C74.0889 35.3581 74.6903 36.2863 75.6447 36.9269C76.5991 37.5544 77.8214 37.8682 79.3118 37.8682C80.7761 37.8682 81.9527 37.5871 82.8417 37.025C83.7438 36.4497 84.2014 35.7111 84.2144 34.809C84.2014 34.0507 83.8811 33.4297 83.2535 32.946C82.626 32.4492 81.6586 32.07 80.3512 31.8086L75.1348 30.7692C72.1932 30.1809 70.0034 29.1612 68.5653 27.71C67.1403 26.2588 66.4278 24.4089 66.4278 22.1602C66.4278 20.2253 66.9507 18.5585 67.9966 17.1596C69.0556 15.7607 70.5394 14.6821 72.4482 13.9239C74.37 13.1656 76.6187 12.7864 79.1942 12.7864C82.9986 12.7864 85.9925 13.5905 88.1758 15.1985C90.3721 16.8066 91.6533 18.9964 92.0194 21.768ZM113.988 13.1787V19.454H95.8483V13.1787H113.988ZM99.9665 5.96201H108.321V34.0442C108.321 34.8155 108.438 35.4169 108.674 35.8483C108.909 36.2667 109.236 36.5608 109.654 36.7308C110.086 36.9008 110.582 36.9857 111.144 36.9857C111.537 36.9857 111.929 36.953 112.321 36.8877C112.713 36.8092 113.014 36.7504 113.223 36.7112L114.537 42.9277C114.119 43.0584 113.53 43.2088 112.772 43.3787C112.014 43.5618 111.092 43.6729 110.007 43.7121C107.994 43.7906 106.229 43.5225 104.712 42.9081C103.209 42.2936 102.039 41.3392 101.202 40.045C100.365 38.7507 99.9535 37.1165 99.9665 35.1423V5.96201ZM119.43 43.3003V13.1787H127.784V43.3003H119.43ZM123.627 9.29579C122.385 9.29579 121.319 8.88397 120.43 8.06033C119.554 7.22362 119.116 6.22349 119.116 5.05993C119.116 3.90945 119.554 2.9224 120.43 2.09876C121.319 1.26204 122.385 0.843688 123.627 0.843688C124.869 0.843688 125.927 1.26204 126.803 2.09876C127.692 2.9224 128.137 3.90945 128.137 5.05993C128.137 6.22349 127.692 7.22362 126.803 8.06033C125.927 8.88397 124.869 9.29579 123.627 9.29579ZM134.476 43.3003V13.1787H142.438V18.4931H142.791C143.418 16.7281 144.464 15.3358 145.928 14.3161C147.393 13.2963 149.145 12.7864 151.184 12.7864C153.25 12.7864 155.008 13.3029 156.459 14.3357C157.91 15.3554 158.878 16.7412 159.362 18.4931H159.675C160.29 16.7674 161.401 15.3881 163.009 14.3553C164.63 13.3094 166.546 12.7864 168.755 12.7864C171.566 12.7864 173.847 13.682 175.599 15.4731C177.364 17.2511 178.247 19.7743 178.247 23.0427V43.3003H169.912V24.69C169.912 23.0166 169.468 21.7615 168.579 20.9248C167.69 20.0881 166.578 19.6697 165.245 19.6697C163.728 19.6697 162.545 20.1534 161.695 21.1209C160.846 22.0753 160.421 23.3369 160.421 24.9057V43.3003H152.322V24.5135C152.322 23.0362 151.897 21.8595 151.047 20.9836C150.21 20.1077 149.105 19.6697 147.733 19.6697C146.804 19.6697 145.968 19.905 145.223 20.3757C144.49 20.8333 143.909 21.4804 143.477 22.3171C143.046 23.1408 142.83 24.1082 142.83 25.2195V43.3003H134.476ZM198.455 43.8886C195.409 43.8886 192.775 43.2415 190.552 41.9472C188.343 40.6398 186.637 38.8226 185.434 36.4955C184.231 34.1553 183.63 31.4425 183.63 28.3571C183.63 25.2456 184.231 22.5263 185.434 20.1992C186.637 17.859 188.343 16.0418 190.552 14.7475C192.775 13.4401 195.409 12.7864 198.455 12.7864C201.501 12.7864 204.129 13.4401 206.338 14.7475C208.561 16.0418 210.274 17.859 211.476 20.1992C212.679 22.5263 213.281 25.2456 213.281 28.3571C213.281 31.4425 212.679 34.1553 211.476 36.4955C210.274 38.8226 208.561 40.6398 206.338 41.9472C204.129 43.2415 201.501 43.8886 198.455 43.8886ZM198.494 37.4172C199.88 37.4172 201.037 37.025 201.965 36.2405C202.894 35.443 203.593 34.3579 204.064 32.9852C204.547 31.6125 204.789 30.0502 204.789 28.2983C204.789 26.5464 204.547 24.9841 204.064 23.6114C203.593 22.2387 202.894 21.1536 201.965 20.3561C201.037 19.5586 199.88 19.1598 198.494 19.1598C197.095 19.1598 195.919 19.5586 194.964 20.3561C194.023 21.1536 193.311 22.2387 192.827 23.6114C192.356 24.9841 192.121 26.5464 192.121 28.2983C192.121 30.0502 192.356 31.6125 192.827 32.9852C193.311 34.3579 194.023 35.443 194.964 36.2405C195.919 37.025 197.095 37.4172 198.494 37.4172ZM227.067 25.8862V43.3003H218.713V13.1787H226.674V18.4931H227.027C227.694 16.7412 228.812 15.3554 230.381 14.3357C231.95 13.3029 233.852 12.7864 236.088 12.7864C238.179 12.7864 240.003 13.244 241.559 14.1592C243.115 15.0743 244.324 16.3817 245.187 18.0813C246.05 19.7678 246.481 21.7811 246.481 24.1213V43.3003H238.127V25.6117C238.14 23.7683 237.669 22.3302 236.715 21.2974C235.761 20.2515 234.447 19.7285 232.773 19.7285C231.649 19.7285 230.655 19.9704 229.793 20.4541C228.943 20.9379 228.276 21.6438 227.792 22.5721C227.322 23.4872 227.08 24.5919 227.067 25.8862ZM253.065 43.3003V13.1787H261.419V43.3003H253.065ZM257.262 9.29579C256.02 9.29579 254.954 8.88397 254.065 8.06033C253.189 7.22362 252.751 6.22349 252.751 5.05993C252.751 3.90945 253.189 2.9224 254.065 2.09876C254.954 1.26204 256.02 0.843688 257.262 0.843688C258.504 0.843688 259.563 1.26204 260.439 2.09876C261.328 2.9224 261.772 3.90945 261.772 5.05993C261.772 6.22349 261.328 7.22362 260.439 8.06033C259.563 8.88397 258.504 9.29579 257.262 9.29579ZM276.701 43.869C274.779 43.869 273.066 43.5356 271.563 42.8689C270.059 42.189 268.87 41.1889 267.994 39.8685C267.131 38.535 266.699 36.8746 266.699 34.8874C266.699 33.214 267.007 31.8086 267.621 30.6712C268.236 29.5338 269.072 28.6186 270.131 27.9257C271.19 27.2328 272.393 26.7099 273.74 26.3569C275.099 26.0039 276.524 25.7555 278.015 25.6117C279.766 25.4286 281.178 25.2587 282.25 25.1018C283.322 24.9318 284.1 24.6834 284.584 24.3566C285.068 24.0298 285.31 23.546 285.31 22.9054V22.7878C285.31 21.5458 284.917 20.5849 284.133 19.905C283.362 19.2252 282.264 18.8853 280.839 18.8853C279.335 18.8853 278.139 19.2187 277.25 19.8854C276.361 20.5391 275.772 21.3627 275.485 22.3563L267.758 21.7288C268.151 19.8985 268.922 18.3166 270.072 16.9831C271.223 15.6365 272.707 14.6037 274.524 13.8846C276.354 13.1525 278.472 12.7864 280.878 12.7864C282.551 12.7864 284.153 12.9826 285.682 13.3748C287.225 13.767 288.591 14.3749 289.781 15.1985C290.984 16.0222 291.931 17.0811 292.624 18.3754C293.317 19.6566 293.664 21.1928 293.664 22.9839V43.3003H285.741V39.1233H285.506C285.022 40.0646 284.375 40.8947 283.564 41.6138C282.754 42.3198 281.78 42.8754 280.642 43.2807C279.505 43.6729 278.191 43.869 276.701 43.869ZM279.093 38.1035C280.322 38.1035 281.407 37.8617 282.349 37.3779C283.29 36.8811 284.028 36.2144 284.564 35.3777C285.101 34.541 285.369 33.5931 285.369 32.5342V29.3377C285.107 29.5076 284.748 29.6645 284.29 29.8083C283.845 29.939 283.342 30.0632 282.78 30.1809C282.218 30.2855 281.656 30.3835 281.093 30.4751C280.531 30.5535 280.021 30.6254 279.564 30.6908C278.583 30.8346 277.727 31.0634 276.995 31.3771C276.263 31.6909 275.694 32.1158 275.289 32.6518C274.883 33.1748 274.681 33.8284 274.681 34.6129C274.681 35.7503 275.093 36.6197 275.916 37.2211C276.753 37.8094 277.812 38.1035 279.093 38.1035ZM308.499 3.13811V43.3003H300.145V3.13811H308.499ZM340.253 21.768L332.605 22.2387C332.474 21.585 332.193 20.9967 331.762 20.4737C331.33 19.9377 330.762 19.5128 330.056 19.1991C329.363 18.8722 328.533 18.7088 327.565 18.7088C326.271 18.7088 325.179 18.9833 324.29 19.5324C323.401 20.0685 322.957 20.7875 322.957 21.6896C322.957 22.4086 323.244 23.0166 323.82 23.5134C324.395 24.0102 325.382 24.4089 326.781 24.7096L332.233 25.8078C335.161 26.4092 337.344 27.3766 338.782 28.7101C340.221 30.0436 340.94 31.7955 340.94 33.9657C340.94 35.9398 340.358 37.6721 339.194 39.1625C338.044 40.6529 336.462 41.8164 334.449 42.6531C332.448 43.4768 330.141 43.8886 327.526 43.8886C323.539 43.8886 320.362 43.0584 317.995 41.3981C315.642 39.7247 314.263 37.4498 313.858 34.5736L322.074 34.1422C322.323 35.3581 322.924 36.2863 323.879 36.9269C324.833 37.5544 326.055 37.8682 327.546 37.8682C329.01 37.8682 330.187 37.5871 331.076 37.025C331.978 36.4497 332.435 35.7111 332.448 34.809C332.435 34.0507 332.115 33.4297 331.487 32.946C330.86 32.4492 329.892 32.07 328.585 31.8086L323.369 30.7692C320.427 30.1809 318.237 29.1612 316.799 27.71C315.374 26.2588 314.662 24.4089 314.662 22.1602C314.662 20.2253 315.185 18.5585 316.23 17.1596C317.289 15.7607 318.773 14.6821 320.682 13.9239C322.604 13.1656 324.853 12.7864 327.428 12.7864C331.232 12.7864 334.226 13.5905 336.41 15.1985C338.606 16.8066 339.887 18.9964 340.253 21.768Z" fill="#EAF0FF"/>
</svg>
