<svg width="357" height="29" viewBox="0 0 357 29" fill="none" xmlns="http://www.w3.org/2000/svg">
<mask id="path-1-outside-1_694_2032" maskUnits="userSpaceOnUse" x="-1" y="-1" width="359" height="31" fill="black">
<rect fill="white" x="-1" y="-1" width="359" height="31"/>
<path d="M7.05989 28H0.890795L10.2907 0.770909H17.7095L27.0961 28H20.927L14.1065 6.99318H13.8937L7.05989 28ZM6.67432 17.2972H21.2461V21.791H6.67432V17.2972ZM39.4625 28.3324C37.9114 28.3324 36.5065 27.9335 35.2478 27.1358C33.9981 26.3292 33.0053 25.1459 32.2697 23.5859C31.5428 22.017 31.1794 20.0936 31.1794 17.8157C31.1794 15.4757 31.5561 13.5301 32.3095 11.979C33.063 10.419 34.0645 9.25341 35.3143 8.48227C36.573 7.70227 37.9513 7.31227 39.4492 7.31227C40.5926 7.31227 41.5455 7.50727 42.3077 7.89727C43.0789 8.27841 43.6993 8.75705 44.1691 9.33318C44.6477 9.90045 45.0111 10.4589 45.2593 11.0084H45.4322V0.770909H51.0827V28H45.4986V24.7293H45.2593C44.9934 25.2966 44.6167 25.8594 44.1292 26.4178C43.6506 26.9674 43.0257 27.4239 42.2545 27.7873C41.4923 28.1507 40.5616 28.3324 39.4625 28.3324ZM41.2574 23.8252C42.1703 23.8252 42.9415 23.577 43.5708 23.0807C44.209 22.5755 44.6965 21.8708 45.0333 20.9667C45.379 20.0626 45.5518 19.0034 45.5518 17.7891C45.5518 16.5748 45.3834 15.52 45.0466 14.6248C44.7098 13.7295 44.2223 13.0382 43.5841 12.5507C42.9459 12.0632 42.1703 11.8194 41.2574 11.8194C40.3267 11.8194 39.5423 12.072 38.9041 12.5773C38.2659 13.0825 37.7828 13.7827 37.4549 14.678C37.1269 15.5732 36.963 16.6102 36.963 17.7891C36.963 18.9768 37.1269 20.0272 37.4549 20.9401C37.7917 21.8442 38.2748 22.5533 38.9041 23.0674C39.5423 23.5726 40.3267 23.8252 41.2574 23.8252ZM77.3994 7.57818L70.2597 28H63.8779L56.7382 7.57818H62.7212L66.9624 22.1899H67.1751L71.4031 7.57818H77.3994ZM88.1935 28.3856C86.8906 28.3856 85.7294 28.1595 84.7101 27.7075C83.6908 27.2466 82.8842 26.5685 82.2903 25.6733C81.7053 24.7692 81.4128 23.6435 81.4128 22.2963C81.4128 21.1617 81.6211 20.2089 82.0377 19.4377C82.4543 18.6666 83.0216 18.0461 83.7396 17.5764C84.4575 17.1066 85.273 16.752 86.1859 16.5127C87.1077 16.2734 88.0739 16.105 89.0843 16.0075C90.2721 15.8834 91.2293 15.7682 91.9561 15.6618C92.683 15.5466 93.2103 15.3782 93.5383 15.1566C93.8663 14.935 94.0302 14.607 94.0302 14.1727V14.093C94.0302 13.2509 93.7643 12.5994 93.2325 12.1385C92.7096 11.6776 91.965 11.4472 90.9989 11.4472C89.9796 11.4472 89.1685 11.6732 88.5658 12.1252C87.9631 12.5684 87.5642 13.1268 87.3692 13.8005L82.1308 13.375C82.3967 12.1341 82.9197 11.0616 83.6997 10.1575C84.4797 9.24455 85.4857 8.54432 86.7177 8.05682C87.9586 7.56045 89.3946 7.31227 91.0255 7.31227C92.16 7.31227 93.2458 7.44523 94.2828 7.71114C95.3288 7.97705 96.255 8.3892 97.0616 8.94761C97.8771 9.50602 98.5197 10.224 98.9894 11.1015C99.4592 11.9701 99.6941 13.0116 99.6941 14.2259V28H94.3227V25.1681H94.1632C93.8352 25.8063 93.3965 26.3691 92.8469 26.8566C92.2974 27.3352 91.6371 27.7119 90.8659 27.9867C90.0948 28.2526 89.204 28.3856 88.1935 28.3856ZM89.8156 24.4767C90.6488 24.4767 91.3844 24.3127 92.0226 23.9848C92.6608 23.648 93.1616 23.1959 93.525 22.6286C93.8884 22.0614 94.0701 21.4188 94.0701 20.7008V18.5336C93.8928 18.6489 93.6491 18.7552 93.3389 18.8527C93.0375 18.9414 92.6963 19.0256 92.3151 19.1053C91.934 19.1762 91.5528 19.2427 91.1717 19.3048C90.7906 19.358 90.4449 19.4067 90.1347 19.451C89.4699 19.5485 88.8893 19.7036 88.393 19.9164C87.8966 20.1291 87.511 20.4172 87.2363 20.7806C86.9615 21.1351 86.8241 21.5783 86.8241 22.1101C86.8241 22.8813 87.1033 23.4707 87.6617 23.8784C88.229 24.2773 88.9469 24.4767 89.8156 24.4767ZM112.373 16.1936V28H106.709V7.57818H112.107V11.1813H112.346C112.798 9.99352 113.556 9.05398 114.62 8.36261C115.683 7.66239 116.973 7.31227 118.489 7.31227C119.907 7.31227 121.143 7.6225 122.198 8.24295C123.253 8.86341 124.073 9.74977 124.658 10.902C125.243 12.0455 125.535 13.4105 125.535 14.997V28H119.872V16.0075C119.88 14.7577 119.561 13.7827 118.914 13.0825C118.267 12.3734 117.376 12.0189 116.242 12.0189C115.48 12.0189 114.806 12.1828 114.221 12.5108C113.645 12.8388 113.193 13.3174 112.865 13.9467C112.546 14.5672 112.382 15.3161 112.373 16.1936ZM141.847 28.3989C139.755 28.3989 137.956 27.9557 136.449 27.0693C134.951 26.1741 133.799 24.9332 132.992 23.3466C132.195 21.76 131.796 19.9341 131.796 17.8689C131.796 15.777 132.199 13.9423 133.006 12.3645C133.821 10.778 134.978 9.54148 136.476 8.65511C137.974 7.75989 139.755 7.31227 141.821 7.31227C143.602 7.31227 145.162 7.6358 146.501 8.28284C147.839 8.92989 148.898 9.83841 149.678 11.0084C150.458 12.1784 150.888 13.5523 150.968 15.13H145.623C145.472 14.1107 145.074 13.2908 144.427 12.6703C143.788 12.041 142.951 11.7264 141.914 11.7264C141.036 11.7264 140.269 11.9657 139.614 12.4443C138.967 12.9141 138.461 13.601 138.098 14.5051C137.734 15.4092 137.553 16.5039 137.553 17.7891C137.553 19.092 137.73 20.2 138.085 21.113C138.448 22.0259 138.958 22.7217 139.614 23.2003C140.269 23.679 141.036 23.9183 141.914 23.9183C142.561 23.9183 143.141 23.7853 143.655 23.5194C144.178 23.2535 144.608 22.868 144.945 22.3627C145.291 21.8486 145.517 21.2326 145.623 20.5147H150.968C150.879 22.0747 150.454 23.4485 149.692 24.6363C148.938 25.8151 147.897 26.7369 146.567 27.4017C145.238 28.0665 143.664 28.3989 141.847 28.3989ZM166.522 28.3989C164.421 28.3989 162.613 27.9734 161.097 27.1225C159.59 26.2627 158.429 25.0484 157.614 23.4795C156.798 21.9018 156.391 20.036 156.391 17.8822C156.391 15.7815 156.798 13.9378 157.614 12.3513C158.429 10.7647 159.577 9.52818 161.057 8.64182C162.547 7.75545 164.293 7.31227 166.296 7.31227C167.643 7.31227 168.897 7.52943 170.058 7.96375C171.228 8.3892 172.248 9.03182 173.116 9.89159C173.994 10.7514 174.676 11.8327 175.164 13.1357C175.651 14.4298 175.895 15.9455 175.895 17.6827V19.2383H158.651V15.7283H170.564C170.564 14.9128 170.386 14.1905 170.032 13.5611C169.677 12.9318 169.185 12.4399 168.556 12.0853C167.936 11.7219 167.213 11.5402 166.389 11.5402C165.529 11.5402 164.767 11.7397 164.102 12.1385C163.446 12.5285 162.932 13.0559 162.56 13.7207C162.188 14.3766 161.997 15.1078 161.988 15.9144V19.2516C161.988 20.262 162.174 21.1351 162.547 21.8708C162.928 22.6065 163.464 23.1738 164.155 23.5726C164.847 23.9715 165.667 24.1709 166.615 24.1709C167.244 24.1709 167.82 24.0823 168.343 23.905C168.866 23.7277 169.314 23.4618 169.686 23.1073C170.058 22.7527 170.342 22.3184 170.537 21.8043L175.775 22.15C175.51 23.4086 174.964 24.5077 174.14 25.4473C173.325 26.378 172.27 27.1048 170.976 27.6277C169.691 28.1418 168.206 28.3989 166.522 28.3989ZM189.737 28.3324C188.186 28.3324 186.781 27.9335 185.523 27.1358C184.273 26.3292 183.28 25.1459 182.544 23.5859C181.818 22.017 181.454 20.0936 181.454 17.8157C181.454 15.4757 181.831 13.5301 182.584 11.979C183.338 10.419 184.339 9.25341 185.589 8.48227C186.848 7.70227 188.226 7.31227 189.724 7.31227C190.867 7.31227 191.82 7.50727 192.583 7.89727C193.354 8.27841 193.974 8.75705 194.444 9.33318C194.923 9.90045 195.286 10.4589 195.534 11.0084H195.707V0.770909H201.358V28H195.773V24.7293H195.534C195.268 25.2966 194.892 25.8594 194.404 26.4178C193.925 26.9674 193.3 27.4239 192.529 27.7873C191.767 28.1507 190.836 28.3324 189.737 28.3324ZM191.532 23.8252C192.445 23.8252 193.216 23.577 193.846 23.0807C194.484 22.5755 194.971 21.8708 195.308 20.9667C195.654 20.0626 195.827 19.0034 195.827 17.7891C195.827 16.5748 195.658 15.52 195.321 14.6248C194.985 13.7295 194.497 13.0382 193.859 12.5507C193.221 12.0632 192.445 11.8194 191.532 11.8194C190.602 11.8194 189.817 12.072 189.179 12.5773C188.541 13.0825 188.058 13.7827 187.73 14.678C187.402 15.5732 187.238 16.6102 187.238 17.7891C187.238 18.9768 187.402 20.0272 187.73 20.9401C188.067 21.8442 188.55 22.5533 189.179 23.0674C189.817 23.5726 190.602 23.8252 191.532 23.8252ZM234.799 8.60193C234.692 7.52943 234.236 6.69625 233.429 6.10239C232.623 5.50852 231.528 5.21159 230.145 5.21159C229.206 5.21159 228.413 5.34455 227.765 5.61045C227.118 5.8675 226.622 6.22648 226.276 6.68739C225.94 7.1483 225.771 7.67125 225.771 8.25625C225.753 8.74375 225.855 9.16921 226.077 9.53261C226.307 9.89602 226.622 10.2107 227.021 10.4766C227.42 10.7336 227.881 10.9597 228.404 11.1547C228.927 11.3408 229.485 11.5003 230.079 11.6333L232.525 12.2183C233.713 12.4842 234.803 12.8387 235.796 13.2819C236.789 13.7251 237.648 14.2702 238.375 14.9173C239.102 15.5643 239.665 16.3266 240.064 17.2041C240.472 18.0816 240.68 19.0876 240.689 20.2222C240.68 21.8885 240.254 23.3333 239.412 24.5565C238.579 25.7708 237.374 26.7148 235.796 27.3884C234.227 28.0532 232.335 28.3856 230.119 28.3856C227.921 28.3856 226.006 28.0487 224.375 27.3751C222.753 26.7015 221.486 25.7043 220.573 24.3836C219.669 23.0541 219.194 21.4099 219.15 19.451H224.721C224.783 20.364 225.044 21.1262 225.505 21.7378C225.975 22.3406 226.6 22.797 227.38 23.1073C228.169 23.4086 229.06 23.5593 230.052 23.5593C231.027 23.5593 231.874 23.4175 232.592 23.1339C233.319 22.8502 233.881 22.4558 234.28 21.9506C234.679 21.4453 234.879 20.8648 234.879 20.2089C234.879 19.5973 234.697 19.0832 234.333 18.6666C233.979 18.25 233.456 17.8955 232.765 17.603C232.082 17.3105 231.244 17.0445 230.252 16.8052L227.287 16.0607C224.991 15.5023 223.179 14.6292 221.849 13.4415C220.519 12.2537 219.859 10.6539 219.868 8.64182C219.859 6.99318 220.298 5.55284 221.184 4.3208C222.079 3.08875 223.307 2.12705 224.867 1.43568C226.427 0.744318 228.2 0.398636 230.185 0.398636C232.206 0.398636 233.97 0.744318 235.477 1.43568C236.993 2.12705 238.171 3.08875 239.013 4.3208C239.855 5.55284 240.29 6.97989 240.316 8.60193H234.799ZM256.382 28.3989C254.282 28.3989 252.473 27.9734 250.958 27.1225C249.451 26.2627 248.29 25.0484 247.474 23.4795C246.659 21.9018 246.251 20.036 246.251 17.8822C246.251 15.7815 246.659 13.9378 247.474 12.3513C248.29 10.7647 249.438 9.52818 250.918 8.64182C252.407 7.75545 254.153 7.31227 256.156 7.31227C257.503 7.31227 258.758 7.52943 259.919 7.96375C261.089 8.3892 262.108 9.03182 262.977 9.89159C263.854 10.7514 264.537 11.8327 265.024 13.1357C265.512 14.4298 265.756 15.9455 265.756 17.6827V19.2383H248.511V15.7283H260.424C260.424 14.9128 260.247 14.1905 259.892 13.5611C259.538 12.9318 259.046 12.4399 258.416 12.0853C257.796 11.7219 257.074 11.5402 256.249 11.5402C255.39 11.5402 254.627 11.7397 253.962 12.1385C253.307 12.5285 252.792 13.0559 252.42 13.7207C252.048 14.3766 251.857 15.1078 251.848 15.9144V19.2516C251.848 20.262 252.035 21.1351 252.407 21.8708C252.788 22.6065 253.324 23.1738 254.016 23.5726C254.707 23.9715 255.527 24.1709 256.475 24.1709C257.105 24.1709 257.681 24.0823 258.204 23.905C258.727 23.7277 259.174 23.4618 259.547 23.1073C259.919 22.7527 260.202 22.3184 260.397 21.8043L265.636 22.15C265.37 23.4086 264.825 24.5077 264.001 25.4473C263.185 26.378 262.13 27.1048 260.836 27.6277C259.551 28.1418 258.066 28.3989 256.382 28.3989ZM277.896 28.3856C276.593 28.3856 275.432 28.1595 274.412 27.7075C273.393 27.2466 272.587 26.5685 271.993 25.6733C271.408 24.7692 271.115 23.6435 271.115 22.2963C271.115 21.1617 271.323 20.2089 271.74 19.4377C272.157 18.6666 272.724 18.0461 273.442 17.5764C274.16 17.1066 274.975 16.752 275.888 16.5127C276.81 16.2734 277.776 16.105 278.787 16.0075C279.974 15.8834 280.932 15.7682 281.658 15.6618C282.385 15.5466 282.913 15.3782 283.241 15.1566C283.569 14.935 283.733 14.607 283.733 14.1727V14.093C283.733 13.2509 283.467 12.5994 282.935 12.1385C282.412 11.6776 281.667 11.4472 280.701 11.4472C279.682 11.4472 278.871 11.6732 278.268 12.1252C277.665 12.5684 277.267 13.1268 277.072 13.8005L271.833 13.375C272.099 12.1341 272.622 11.0616 273.402 10.1575C274.182 9.24455 275.188 8.54432 276.42 8.05682C277.661 7.56045 279.097 7.31227 280.728 7.31227C281.862 7.31227 282.948 7.44523 283.985 7.71114C285.031 7.97705 285.957 8.3892 286.764 8.94761C287.579 9.50602 288.222 10.224 288.692 11.1015C289.162 11.9701 289.396 13.0116 289.396 14.2259V28H284.025V25.1681H283.866C283.538 25.8063 283.099 26.3691 282.549 26.8566C282 27.3352 281.339 27.7119 280.568 27.9867C279.797 28.2526 278.906 28.3856 277.896 28.3856ZM279.518 24.4767C280.351 24.4767 281.087 24.3127 281.725 23.9848C282.363 23.648 282.864 23.1959 283.227 22.6286C283.591 22.0614 283.772 21.4188 283.772 20.7008V18.5336C283.595 18.6489 283.351 18.7552 283.041 18.8527C282.74 18.9414 282.399 19.0256 282.017 19.1053C281.636 19.1762 281.255 19.2427 280.874 19.3048C280.493 19.358 280.147 19.4067 279.837 19.451C279.172 19.5485 278.592 19.7036 278.095 19.9164C277.599 20.1291 277.213 20.4172 276.939 20.7806C276.664 21.1351 276.526 21.5783 276.526 22.1101C276.526 22.8813 276.806 23.4707 277.364 23.8784C277.931 24.2773 278.649 24.4767 279.518 24.4767ZM296.411 28V7.57818H301.902V11.1414H302.115C302.487 9.87386 303.112 8.91659 303.99 8.26955C304.867 7.61364 305.878 7.28568 307.021 7.28568C307.305 7.28568 307.611 7.30341 307.939 7.33886C308.266 7.37432 308.555 7.42307 308.803 7.48511V12.5108C308.537 12.431 308.169 12.3601 307.699 12.2981C307.229 12.236 306.8 12.205 306.41 12.205C305.576 12.205 304.832 12.3867 304.176 12.7501C303.529 13.1047 303.015 13.601 302.634 14.2392C302.261 14.8774 302.075 15.6131 302.075 16.4463V28H296.411ZM322.628 28.3989C320.536 28.3989 318.737 27.9557 317.23 27.0693C315.732 26.1741 314.58 24.9332 313.774 23.3466C312.976 21.76 312.577 19.9341 312.577 17.8689C312.577 15.777 312.98 13.9423 313.787 12.3645C314.602 10.778 315.759 9.54148 317.257 8.65511C318.755 7.75989 320.536 7.31227 322.602 7.31227C324.383 7.31227 325.943 7.6358 327.282 8.28284C328.62 8.92989 329.679 9.83841 330.459 11.0084C331.239 12.1784 331.669 13.5523 331.749 15.13H326.404C326.254 14.1107 325.855 13.2908 325.208 12.6703C324.569 12.041 323.732 11.7264 322.695 11.7264C321.817 11.7264 321.051 11.9657 320.395 12.4443C319.748 12.9141 319.242 13.601 318.879 14.5051C318.516 15.4092 318.334 16.5039 318.334 17.7891C318.334 19.092 318.511 20.2 318.866 21.113C319.229 22.0259 319.739 22.7217 320.395 23.2003C321.051 23.679 321.817 23.9183 322.695 23.9183C323.342 23.9183 323.922 23.7853 324.436 23.5194C324.959 23.2535 325.389 22.868 325.726 22.3627C326.072 21.8486 326.298 21.2326 326.404 20.5147H331.749C331.66 22.0747 331.235 23.4485 330.473 24.6363C329.719 25.8151 328.678 26.7369 327.348 27.4017C326.019 28.0665 324.445 28.3989 322.628 28.3989ZM343.66 16.1936V28H337.996V0.770909H343.5V11.1813H343.74C344.201 9.9758 344.945 9.03182 345.973 8.34932C347.002 7.65795 348.291 7.31227 349.842 7.31227C351.261 7.31227 352.497 7.6225 353.552 8.24295C354.615 8.85455 355.44 9.73648 356.025 10.8888C356.619 12.0322 356.911 13.4016 356.902 14.997V28H351.238V16.0075C351.247 14.7489 350.928 13.7694 350.281 13.0692C349.643 12.369 348.748 12.0189 347.595 12.0189C346.824 12.0189 346.142 12.1828 345.548 12.5108C344.963 12.8388 344.502 13.3174 344.165 13.9467C343.837 14.5672 343.669 15.3161 343.66 16.1936Z"/>
</mask>
<path d="M7.05989 28V29H7.78615L8.01083 28.3094L7.05989 28ZM0.890795 28L-0.0544646 27.6737L-0.512329 29H0.890795V28ZM10.2907 0.770909V-0.229091H9.57799L9.34542 0.444592L10.2907 0.770909ZM17.7095 0.770909L18.6549 0.445004L18.4226 -0.229091H17.7095V0.770909ZM27.0961 28V29H28.4986L28.0415 27.6741L27.0961 28ZM20.927 28L19.9759 28.3088L20.2003 29H20.927V28ZM14.1065 6.99318L15.0576 6.68437L14.8332 5.99318H14.1065V6.99318ZM13.8937 6.99318V5.99318H13.1675L12.9428 6.68382L13.8937 6.99318ZM6.67432 17.2972V16.2972H5.67432V17.2972H6.67432ZM21.2461 17.2972H22.2461V16.2972H21.2461V17.2972ZM21.2461 21.791V22.791H22.2461V21.791H21.2461ZM6.67432 21.791H5.67432V22.791H6.67432V21.791ZM7.05989 27H0.890795V29H7.05989V27ZM1.83606 28.3263L11.2359 1.09723L9.34542 0.444592L-0.0544646 27.6737L1.83606 28.3263ZM10.2907 1.77091H17.7095V-0.229091H10.2907V1.77091ZM16.7641 1.09681L26.1507 28.3259L28.0415 27.6741L18.6549 0.445004L16.7641 1.09681ZM27.0961 27H20.927V29H27.0961V27ZM21.8782 27.6912L15.0576 6.68437L13.1554 7.302L19.9759 28.3088L21.8782 27.6912ZM14.1065 5.99318H13.8937V7.99318H14.1065V5.99318ZM12.9428 6.68382L6.10894 27.6906L8.01083 28.3094L14.8447 7.30254L12.9428 6.68382ZM6.67432 18.2972H21.2461V16.2972H6.67432V18.2972ZM20.2461 17.2972V21.791H22.2461V17.2972H20.2461ZM21.2461 20.791H6.67432V22.791H21.2461V20.791ZM7.67432 21.791V17.2972H5.67432V21.791H7.67432ZM35.2478 27.1358L34.7056 27.976L34.7125 27.9804L35.2478 27.1358ZM32.2697 23.5859L31.3623 24.0063L31.3652 24.0124L32.2697 23.5859ZM32.3096 11.979L33.2091 12.4159L33.21 12.4139L32.3096 11.979ZM35.3143 8.48227L35.8394 9.33331L35.8411 9.33228L35.3143 8.48227ZM42.3077 7.89727L41.8522 8.78761L41.8646 8.79375L42.3077 7.89727ZM44.1691 9.33318L43.3941 9.96512L43.3994 9.97163L43.4048 9.97805L44.1691 9.33318ZM45.2593 11.0084L44.3479 11.42L44.6137 12.0084H45.2593V11.0084ZM45.4322 11.0084V12.0084H46.4322V11.0084H45.4322ZM45.4322 0.770909V-0.229091H44.4322V0.770909H45.4322ZM51.0827 0.770909H52.0827V-0.229091H51.0827V0.770909ZM51.0827 28V29H52.0827V28H51.0827ZM45.4986 28H44.4986V29H45.4986V28ZM45.4986 24.7293H46.4986V23.7293H45.4986V24.7293ZM45.2593 24.7293V23.7293H44.6237L44.3539 24.3049L45.2593 24.7293ZM44.1292 26.4178L43.3759 25.7602L43.3751 25.7611L44.1292 26.4178ZM42.2546 27.7873L41.8282 26.8827L41.8242 26.8846L42.2546 27.7873ZM43.5708 23.0807L44.1901 23.8658L44.1915 23.8647L43.5708 23.0807ZM45.0333 20.9667L44.0992 20.6096L44.0962 20.6176L45.0333 20.9667ZM45.0466 14.6248L45.9825 14.2726L45.0466 14.6248ZM38.9041 12.5773L38.2834 11.7932H38.2834L38.9041 12.5773ZM37.4549 20.9401L36.5137 21.2782L36.5178 21.2892L37.4549 20.9401ZM38.9041 23.0674L38.2715 23.8418L38.2774 23.8467L38.2834 23.8514L38.9041 23.0674ZM39.4625 27.3324C38.0928 27.3324 36.8749 26.9831 35.7832 26.2912L34.7125 27.9804C36.138 28.8839 37.73 29.3324 39.4625 29.3324V27.3324ZM35.7901 26.2956C34.7211 25.6056 33.8431 24.5778 33.1741 23.1594L31.3652 24.0124C32.1676 25.714 33.2751 27.0528 34.7056 27.976L35.7901 26.2956ZM33.177 23.1656C32.5274 21.7632 32.1794 19.9925 32.1794 17.8157H30.1794C30.1794 20.1948 30.5583 22.2708 31.3623 24.0063L33.177 23.1656ZM32.1794 17.8157C32.1794 15.5758 32.541 13.7913 33.2091 12.4159L31.41 11.5421C30.5713 13.269 30.1794 15.3756 30.1794 17.8157H32.1794ZM33.21 12.4139C33.8957 10.9942 34.7792 9.98752 35.8394 9.33331L34.7892 7.63124C33.3499 8.5193 32.2302 9.84376 31.4091 11.5441L33.21 12.4139ZM35.8411 9.33228C36.9396 8.65153 38.1351 8.31227 39.4492 8.31227V6.31227C37.7674 6.31227 36.2063 6.75302 34.7876 7.63226L35.8411 9.33228ZM39.4492 8.31227C40.4851 8.31227 41.2702 8.48971 41.8523 8.78752L42.7632 7.00702C41.8207 6.52484 40.7002 6.31227 39.4492 6.31227V8.31227ZM41.8646 8.79375C42.5275 9.12139 43.0279 9.51602 43.3941 9.96512L44.9441 8.70124C44.3708 7.99808 43.6302 7.43543 42.7508 7.0008L41.8646 8.79375ZM43.4048 9.97805C43.837 10.4903 44.1454 10.9714 44.3479 11.42L46.1707 10.5968C45.8769 9.94633 45.4584 9.31059 44.9334 8.68831L43.4048 9.97805ZM45.2593 12.0084H45.4322V10.0084H45.2593V12.0084ZM46.4322 11.0084V0.770909H44.4322V11.0084H46.4322ZM45.4322 1.77091H51.0827V-0.229091H45.4322V1.77091ZM50.0827 0.770909V28H52.0827V0.770909H50.0827ZM51.0827 27H45.4986V29H51.0827V27ZM46.4986 28V24.7293H44.4986V28H46.4986ZM45.4986 23.7293H45.2593V25.7293H45.4986V23.7293ZM44.3539 24.3049C44.134 24.7739 43.8129 25.2596 43.3759 25.7602L44.8825 27.0755C45.4205 26.4593 45.8528 25.8193 46.1648 25.1538L44.3539 24.3049ZM43.3751 25.7611C43.0015 26.19 42.4952 26.5684 41.8283 26.8827L42.6808 28.6919C43.5562 28.2793 44.2996 27.7448 44.8833 27.0746L43.3751 25.7611ZM41.8242 26.8846C41.2305 27.1677 40.4558 27.3324 39.4625 27.3324V29.3324C40.6674 29.3324 41.7541 29.1337 42.6849 28.6899L41.8242 26.8846ZM41.2574 24.8252C42.3622 24.8252 43.3602 24.5204 44.1901 23.8658L42.9515 22.2955C42.5228 22.6337 41.9785 22.8252 41.2574 22.8252V24.8252ZM44.1915 23.8647C44.9975 23.2267 45.5817 22.3591 45.9704 21.3158L44.0962 20.6176C43.8112 21.3825 43.4205 21.9243 42.9501 22.2966L44.1915 23.8647ZM45.9674 21.3238C46.3662 20.2808 46.5518 19.0956 46.5518 17.7891H44.5518C44.5518 18.9112 44.3918 19.8444 44.0992 20.6096L45.9674 21.3238ZM46.5518 17.7891C46.5518 16.4855 46.3714 15.3062 45.9825 14.2726L44.1106 14.9769C44.3954 15.7338 44.5518 16.664 44.5518 17.7891H46.5518ZM45.9825 14.2726C45.5925 13.2359 45.0046 12.3774 44.1911 11.756L42.9771 13.3454C43.4399 13.6989 43.8271 14.2232 44.1106 14.9769L45.9825 14.2726ZM44.1911 11.756C43.3552 11.1174 42.3583 10.8194 41.2574 10.8194V12.8194C41.9824 12.8194 42.5367 13.0089 42.9771 13.3454L44.1911 11.756ZM41.2574 10.8194C40.1353 10.8194 39.1231 11.1284 38.2834 11.7932L39.5248 13.3613C39.9614 13.0157 40.5181 12.8194 41.2574 12.8194V10.8194ZM38.2834 11.7932C37.4773 12.4314 36.8963 13.2956 36.5159 14.334L38.3939 15.0219C38.6694 14.2699 39.0545 13.7336 39.5248 13.3613L38.2834 11.7932ZM36.5159 14.334C36.1393 15.362 35.963 16.5196 35.963 17.7891H37.963C37.963 16.7008 38.1146 15.7844 38.3939 15.0219L36.5159 14.334ZM35.963 17.7891C35.963 19.0671 36.1392 20.2355 36.5138 21.2782L38.396 20.602C38.1146 19.8188 37.963 18.8865 37.963 17.7891H35.963ZM36.5178 21.2892C36.9049 22.3283 37.481 23.1961 38.2715 23.8418L39.5367 22.2929C39.0686 21.9105 38.6785 21.3601 38.392 20.591L36.5178 21.2892ZM38.2834 23.8514C39.1231 24.5162 40.1353 24.8252 41.2574 24.8252V22.8252C40.5181 22.8252 39.9614 22.629 39.5248 22.2833L38.2834 23.8514ZM77.3994 7.57818L78.3433 7.9082L78.8083 6.57818H77.3994V7.57818ZM70.2597 28V29H70.9694L71.2037 28.33L70.2597 28ZM63.8779 28L62.9339 28.33L63.1681 29H63.8779V28ZM56.7382 7.57818V6.57818H55.3293L55.7942 7.9082L56.7382 7.57818ZM62.7212 7.57818L63.6815 7.29942L63.4722 6.57818H62.7212V7.57818ZM66.9624 22.1899L66.0021 22.4686L66.2114 23.1899H66.9624V22.1899ZM67.1751 22.1899V23.1899H67.9268L68.1357 22.4678L67.1751 22.1899ZM71.4031 7.57818V6.57818H70.6514L70.4425 7.30023L71.4031 7.57818ZM76.4554 7.24816L69.3157 27.67L71.2037 28.33L78.3433 7.9082L76.4554 7.24816ZM70.2597 27H63.8779V29H70.2597V27ZM64.8219 27.67L57.6822 7.24816L55.7942 7.9082L62.9339 28.33L64.8219 27.67ZM56.7382 8.57818H62.7212V6.57818H56.7382V8.57818ZM61.7608 7.85694L66.0021 22.4686L67.9228 21.9111L63.6815 7.29942L61.7608 7.85694ZM66.9624 23.1899H67.1751V21.1899H66.9624V23.1899ZM68.1357 22.4678L72.3637 7.85613L70.4425 7.30023L66.2146 21.9119L68.1357 22.4678ZM71.4031 8.57818H77.3994V6.57818H71.4031V8.57818ZM84.7101 27.7075L84.2981 28.6187L84.3047 28.6216L84.7101 27.7075ZM82.2904 25.6733L81.4507 26.2166L81.457 26.2261L82.2904 25.6733ZM82.0377 19.4377L81.1579 18.9624L82.0377 19.4377ZM83.7396 17.5764L83.192 16.7396L83.7396 17.5764ZM86.1859 16.5127L85.9346 15.5448L85.9324 15.5454L86.1859 16.5127ZM89.0843 16.0075L89.1804 17.0029L89.1882 17.0021L89.0843 16.0075ZM91.9561 15.6618L92.101 16.6514L92.1127 16.6495L91.9561 15.6618ZM93.5383 15.1566L92.9784 14.328V14.328L93.5383 15.1566ZM93.2325 12.1385L92.5713 12.8888L92.5776 12.8942L93.2325 12.1385ZM88.5658 12.1252L89.1582 12.9309L89.1658 12.9252L88.5658 12.1252ZM87.3692 13.8005L87.2883 14.7972L88.1026 14.8633L88.3298 14.0785L87.3692 13.8005ZM82.1308 13.375L81.153 13.1655L80.9143 14.2795L82.0499 14.3717L82.1308 13.375ZM83.6997 10.1575L84.4568 10.8107L84.46 10.8071L83.6997 10.1575ZM86.7177 8.05682L87.0857 8.98668L87.0891 8.98529L86.7177 8.05682ZM94.2829 7.71114L94.0345 8.6798L94.0364 8.6803L94.2829 7.71114ZM97.0616 8.94761L96.4924 9.76982L96.4966 9.7727L97.0616 8.94761ZM98.9894 11.1015L98.1078 11.5735L98.1098 11.5772L98.9894 11.1015ZM99.6941 28V29H100.694V28H99.6941ZM94.3227 28H93.3227V29H94.3227V28ZM94.3227 25.1681H95.3227V24.1681H94.3227V25.1681ZM94.1632 25.1681V24.1681H93.5528L93.2738 24.711L94.1632 25.1681ZM92.8469 26.8566L93.5037 27.6107L93.5106 27.6047L92.8469 26.8566ZM90.8659 27.9867L91.1919 28.9321L91.2016 28.9287L90.8659 27.9867ZM92.0226 23.9848L92.4797 24.8743L92.4894 24.8692L92.0226 23.9848ZM93.525 22.6286L92.683 22.0892L93.525 22.6286ZM94.0701 18.5336H95.0701V16.691L93.5251 17.6952L94.0701 18.5336ZM93.3389 18.8527L93.621 19.8121L93.6299 19.8095L93.6387 19.8067L93.3389 18.8527ZM92.3151 19.1053L92.498 20.0885L92.509 20.0864L92.52 20.0841L92.3151 19.1053ZM91.1717 19.3048L91.3099 20.2952L91.3212 20.2936L91.3324 20.2918L91.1717 19.3048ZM90.1347 19.451L89.9932 18.4611L89.9896 18.4616L90.1347 19.451ZM88.393 19.9164L88.7869 20.8355L88.393 19.9164ZM87.2363 20.7806L88.0267 21.3932L88.0339 21.3837L87.2363 20.7806ZM87.6617 23.8784L87.072 24.686L87.0792 24.6913L87.0865 24.6964L87.6617 23.8784ZM88.1935 27.3856C87.0069 27.3856 85.9875 27.1801 85.1155 26.7934L84.3047 28.6216C85.4714 29.139 86.7742 29.3856 88.1935 29.3856V27.3856ZM85.1221 26.7963C84.2667 26.4095 83.6092 25.8524 83.1237 25.1205L81.457 26.2261C82.1593 27.2847 83.1149 28.0837 84.2981 28.6187L85.1221 26.7963ZM83.1299 25.13C82.6731 24.4241 82.4128 23.4991 82.4128 22.2962H80.4128C80.4128 23.788 80.7376 25.1143 81.4508 26.2165L83.1299 25.13ZM82.4128 22.2962C82.4128 21.2802 82.5997 20.5014 82.9176 19.913L81.1579 18.9624C80.6426 19.9163 80.4128 21.0432 80.4128 22.2962H82.4128ZM82.9176 19.913C83.2569 19.2849 83.7113 18.7899 84.2871 18.4132L83.192 16.7396C82.3319 17.3024 81.6517 18.0483 81.1579 18.9624L82.9176 19.913ZM84.2871 18.4132C84.9062 18.0081 85.6205 17.6947 86.4395 17.48L85.9324 15.5454C84.9254 15.8094 84.0088 16.2051 83.192 16.7396L84.2871 18.4132ZM86.4372 17.4806C87.3049 17.2554 88.2189 17.0957 89.1804 17.0029L88.9883 15.0121C87.9288 15.1143 86.9106 15.2914 85.9346 15.5448L86.4372 17.4806ZM89.1882 17.0021C90.3823 16.8773 91.3548 16.7605 92.1009 16.6513L91.8113 14.6724C91.1038 14.7759 90.1618 14.8895 88.9804 15.0129L89.1882 17.0021ZM92.1127 16.6495C92.8807 16.5277 93.585 16.3319 94.0982 15.9852L92.9784 14.328C92.8357 14.4244 92.4852 14.5654 91.7996 14.6742L92.1127 16.6495ZM94.0982 15.9852C94.7314 15.5573 95.0302 14.9011 95.0302 14.1727H93.0302C93.0302 14.2631 93.0137 14.2955 93.0128 14.2972C93.0118 14.2992 93.0109 14.3007 93.0084 14.3035C93.0057 14.3066 92.9972 14.3153 92.9784 14.328L94.0982 15.9852ZM95.0302 14.1727V14.093H93.0302V14.1727H95.0302ZM95.0302 14.093C95.0302 13.0234 94.6816 12.0711 93.8874 11.3828L92.5776 12.8942C92.847 13.1277 93.0302 13.4784 93.0302 14.093H95.0302ZM93.8937 11.3883C93.1282 10.7136 92.1145 10.4472 90.9989 10.4472V12.4472C91.8155 12.4472 92.291 12.6416 92.5713 12.8887L93.8937 11.3883ZM90.9989 10.4472C89.8386 10.4472 88.7936 10.7044 87.9658 11.3252L89.1658 12.9252C89.5435 12.642 90.1205 12.4472 90.9989 12.4472V10.4472ZM87.9734 11.3196C87.2058 11.884 86.6691 12.6225 86.4086 13.5224L88.3298 14.0785C88.4593 13.6311 88.7203 13.2529 89.1582 12.9309L87.9734 11.3196ZM87.4502 12.8037L82.2118 12.3783L82.0499 14.3717L87.2883 14.7972L87.4502 12.8037ZM83.1086 13.5845C83.3416 12.497 83.7933 11.5798 84.4568 10.8107L82.9425 9.50427C82.046 10.5434 81.4518 11.7711 81.153 13.1655L83.1086 13.5845ZM84.46 10.8071C85.1234 10.0306 85.9893 9.42048 87.0857 8.98667L86.3498 7.12696C84.9821 7.66816 83.836 8.45849 82.9394 9.50793L84.46 10.8071ZM87.0891 8.98529C88.189 8.54534 89.4945 8.31227 91.0255 8.31227V6.31227C89.2946 6.31227 87.7283 6.57557 86.3463 7.12834L87.0891 8.98529ZM91.0255 8.31227C92.0812 8.31227 93.0833 8.4359 94.0345 8.6798L94.5312 6.74247C93.4083 6.45455 92.2388 6.31227 91.0255 6.31227V8.31227ZM94.0364 8.6803C94.9784 8.91978 95.7931 9.2857 96.4924 9.76981L97.6308 8.12542C96.7169 7.49271 95.6791 7.03431 94.5293 6.74197L94.0364 8.6803ZM96.4966 9.7727C97.1787 10.2398 97.7132 10.8363 98.1078 11.5735L99.871 10.6295C99.3261 9.61166 98.5754 8.77222 97.6266 8.12253L96.4966 9.7727ZM98.1098 11.5772C98.4844 12.2698 98.6941 13.14 98.6941 14.2259H100.694C100.694 12.8832 100.434 11.6704 99.869 10.6258L98.1098 11.5772ZM98.6941 14.2259V28H100.694V14.2259H98.6941ZM99.6941 27H94.3227V29H99.6941V27ZM95.3227 28V25.1681H93.3227V28H95.3227ZM94.3227 24.1681H94.1632V26.1681H94.3227V24.1681ZM93.2738 24.711C93.0038 25.2364 92.6425 25.7012 92.1833 26.1085L93.5106 27.6047C94.1505 27.037 94.6667 26.3761 95.0526 25.6251L93.2738 24.711ZM92.1902 26.1025C91.7459 26.4895 91.198 26.8068 90.5303 27.0447L91.2016 28.9287C92.0761 28.6171 92.8489 28.181 93.5037 27.6107L92.1902 26.1025ZM90.5399 27.0413C89.8953 27.2636 89.1185 27.3856 88.1935 27.3856V29.3856C89.2895 29.3856 90.2943 29.2416 91.1919 28.9321L90.5399 27.0413ZM89.8156 25.4767C90.7821 25.4767 91.6789 25.2857 92.4797 24.8742L91.5656 23.0953C91.09 23.3397 90.5154 23.4767 89.8156 23.4767V25.4767ZM92.4894 24.8692C93.2691 24.4576 93.9038 23.8911 94.367 23.1681L92.683 22.0892C92.4194 22.5007 92.0525 22.8383 91.5559 23.1004L92.4894 24.8692ZM94.367 23.1681C94.8405 22.4291 95.0701 21.5968 95.0701 20.7008H93.0701C93.0701 21.2407 92.9364 21.6937 92.683 22.0892L94.367 23.1681ZM95.0701 20.7008V18.5336H93.0701V20.7008H95.0701ZM93.5251 17.6952C93.4532 17.742 93.3038 17.8155 93.039 17.8987L93.6387 19.8067C93.9944 19.6949 94.3325 19.5558 94.6151 19.3721L93.5251 17.6952ZM93.0567 17.8934C92.786 17.973 92.4713 18.051 92.1103 18.1266L92.52 20.0841C92.9213 20.0001 93.289 19.9097 93.621 19.8121L93.0567 17.8934ZM92.1322 18.1222C91.7584 18.1917 91.3847 18.2569 91.011 18.3178L91.3324 20.2918C91.721 20.2285 92.1095 20.1608 92.498 20.0885L92.1322 18.1222ZM91.0335 18.3144C90.6515 18.3677 90.3048 18.4166 89.9932 18.4611L90.2761 20.441C90.585 20.3968 90.9296 20.3482 91.3099 20.2952L91.0335 18.3144ZM89.9896 18.4616C89.259 18.5687 88.5915 18.7433 87.999 18.9972L88.7869 20.8355C89.1871 20.664 89.6807 20.5283 90.2798 20.4404L89.9896 18.4616ZM87.999 18.9972C87.3726 19.2657 86.8361 19.6517 86.4386 20.1775L88.0339 21.3837C88.186 21.1826 88.4206 20.9925 88.7869 20.8355L87.999 18.9972ZM86.4458 20.168C86.0112 20.7288 85.8241 21.3992 85.8241 22.1101H87.8241C87.8241 21.7574 87.9118 21.5414 88.0267 21.3931L86.4458 20.168ZM85.8241 22.1101C85.8241 23.158 86.2232 24.0663 87.072 24.686L88.2514 23.0708C87.9834 22.8751 87.8241 22.6045 87.8241 22.1101H85.8241ZM87.0865 24.6964C87.8605 25.2406 88.7934 25.4767 89.8156 25.4767V23.4767C89.1005 23.4767 88.5975 23.3139 88.2369 23.0604L87.0865 24.6964ZM112.373 16.1936L111.373 16.1835V16.1936H112.373ZM112.373 28V29H113.373V28H112.373ZM106.709 28H105.709V29H106.709V28ZM106.709 7.57818V6.57818H105.709V7.57818H106.709ZM112.107 7.57818H113.107V6.57818H112.107V7.57818ZM112.107 11.1813H111.107V12.1813H112.107V11.1813ZM112.346 11.1813V12.1813H113.036L113.281 11.537L112.346 11.1813ZM114.62 8.36261L115.165 9.20107L115.17 9.19786L114.62 8.36261ZM124.658 10.902L123.766 11.3547L123.768 11.3575L124.658 10.902ZM125.535 28V29H126.535V28H125.535ZM119.872 28H118.872V29H119.872V28ZM119.872 16.0075L118.872 16.0004V16.0075H119.872ZM118.914 13.0825L118.176 13.7566L118.18 13.7612L118.914 13.0825ZM114.221 12.5108L113.732 11.6385L113.726 11.6417L114.221 12.5108ZM112.865 13.9467L111.978 13.4846L111.976 13.4894L112.865 13.9467ZM111.373 16.1936V28H113.373V16.1936H111.373ZM112.373 27H106.709V29H112.373V27ZM107.709 28V7.57818H105.709V28H107.709ZM106.709 8.57818H112.107V6.57818H106.709V8.57818ZM111.107 7.57818V11.1813H113.107V7.57818H111.107ZM112.107 12.1813H112.346V10.1813H112.107V12.1813ZM113.281 11.537C113.658 10.547 114.279 9.77666 115.165 9.20106L114.075 7.52417C112.833 8.3313 111.939 9.44005 111.412 10.8255L113.281 11.537ZM115.17 9.19786C116.041 8.62416 117.131 8.31227 118.489 8.31227V6.31227C116.815 6.31227 115.326 6.70062 114.07 7.52736L115.17 9.19786ZM118.489 8.31227C119.757 8.31227 120.813 8.58836 121.691 9.10489L122.705 7.38102C121.474 6.65664 120.057 6.31227 118.489 6.31227V8.31227ZM121.691 9.10489C122.572 9.62294 123.263 10.3628 123.766 11.3547L125.55 10.4494C124.883 9.13673 123.934 8.10388 122.705 7.38102L121.691 9.10489ZM123.768 11.3575C124.266 12.3306 124.535 13.5322 124.535 14.997H126.535C126.535 13.2887 126.22 11.7603 125.548 10.4466L123.768 11.3575ZM124.535 14.997V28H126.535V14.997H124.535ZM125.535 27H119.872V29H125.535V27ZM120.872 28V16.0075H118.872V28H120.872ZM120.872 16.0146C120.882 14.5921 120.516 13.3428 119.649 12.4038L118.18 13.7612C118.606 14.2227 118.879 14.9234 118.872 16.0004L120.872 16.0146ZM119.653 12.4084C118.782 11.4538 117.602 11.0189 116.242 11.0189V13.0189C117.151 13.0189 117.753 13.293 118.176 13.7566L119.653 12.4084ZM116.242 11.0189C115.332 11.0189 114.486 11.2159 113.732 11.6385L114.71 13.3831C115.126 13.1498 115.627 13.0189 116.242 13.0189V11.0189ZM113.726 11.6417C112.971 12.0716 112.388 12.6973 111.978 13.4846L113.752 14.4088C113.997 13.9375 114.319 13.6059 114.716 13.3799L113.726 11.6417ZM111.976 13.4894C111.569 14.2793 111.383 15.1895 111.373 16.1835L113.373 16.2037C113.381 15.4428 113.522 14.855 113.754 14.4041L111.976 13.4894ZM136.449 27.0693L135.936 27.9277L135.942 27.9313L136.449 27.0693ZM132.992 23.3466L132.099 23.7958L132.101 23.7998L132.992 23.3466ZM133.006 12.3645L132.116 11.9074L132.115 11.9093L133.006 12.3645ZM136.476 8.65511L136.985 9.51574L136.989 9.5135L136.476 8.65511ZM146.501 8.28284L146.936 7.38253L146.501 8.28284ZM150.968 15.13V16.13H152.02L151.967 15.0795L150.968 15.13ZM145.623 15.13L144.634 15.2762L144.76 16.13H145.623V15.13ZM144.427 12.6703L143.724 13.3824L143.734 13.3921L144.427 12.6703ZM139.614 12.4443L140.201 13.2535L140.203 13.2521L139.614 12.4443ZM138.085 21.113L137.152 21.475L137.156 21.4828L138.085 21.113ZM139.614 23.2003L140.203 22.3926L139.614 23.2003ZM143.655 23.5194L143.202 22.628L143.196 22.6312L143.655 23.5194ZM144.945 22.3627L144.115 21.8047L144.113 21.808L144.945 22.3627ZM145.623 20.5147V19.5147H144.76L144.634 20.3681L145.623 20.5147ZM150.968 20.5147L151.966 20.5714L152.026 19.5147H150.968V20.5147ZM149.692 24.6362L148.85 24.0961L148.849 24.0977L149.692 24.6362ZM146.567 27.4017L146.12 26.5073L146.567 27.4017ZM141.847 27.3989C139.899 27.3989 138.282 26.987 136.956 26.2074L135.942 27.9313C137.63 28.9243 139.612 29.3989 141.847 29.3989V27.3989ZM136.962 26.2109C135.629 25.4144 134.607 24.3155 133.884 22.8934L132.101 23.7998C132.991 25.5509 134.273 26.9338 135.936 27.9277L136.962 26.2109ZM133.886 22.8974C133.169 21.4712 132.796 19.8035 132.796 17.8689H130.796C130.796 20.0647 131.221 22.0488 132.099 23.7958L133.886 22.8974ZM132.796 17.8689C132.796 15.9069 133.174 14.2332 133.896 12.8197L132.115 11.9093C131.225 13.6513 130.796 15.6472 130.796 17.8689H132.796ZM133.895 12.8217C134.627 11.3983 135.654 10.3036 136.985 9.51574L135.967 7.79449C134.302 8.77933 133.016 10.1576 132.116 11.9074L133.895 12.8217ZM136.989 9.5135C138.305 8.72671 139.903 8.31227 141.821 8.31227V6.31227C139.608 6.31227 137.642 6.79306 135.963 7.79672L136.989 9.5135ZM141.821 8.31227C143.481 8.31227 144.887 8.61347 146.065 9.18315L146.936 7.38253C145.437 6.65812 143.723 6.31227 141.821 6.31227V8.31227ZM146.065 9.18315C147.253 9.75711 148.171 10.5503 148.846 11.5631L150.51 10.4537C149.626 9.12655 148.425 8.10266 146.936 7.38253L146.065 9.18315ZM148.846 11.5631C149.514 12.5652 149.897 13.76 149.969 15.1805L151.967 15.0795C151.879 13.3445 151.402 11.7916 150.51 10.4537L148.846 11.5631ZM150.968 14.13H145.623V16.13H150.968V14.13ZM146.612 14.9838C146.434 13.7793 145.949 12.745 145.119 11.9486L143.734 13.3921C144.198 13.8366 144.511 14.4421 144.634 15.2762L146.612 14.9838ZM145.129 11.9583C144.274 11.1154 143.169 10.7264 141.914 10.7264V12.7264C142.733 12.7264 143.303 12.9667 143.724 13.3824L145.129 11.9583ZM141.914 10.7264C140.842 10.7264 139.865 11.0227 139.024 11.6365L140.203 13.2521C140.674 12.9086 141.23 12.7264 141.914 12.7264V10.7264ZM139.026 11.6351C138.197 12.2374 137.588 13.0918 137.17 14.1322L139.026 14.8781C139.334 14.1102 139.737 13.5908 140.201 13.2535L139.026 11.6351ZM137.17 14.1322C136.746 15.186 136.553 16.4147 136.553 17.7891H138.553C138.553 16.593 138.723 15.6324 139.026 14.8781L137.17 14.1322ZM136.553 17.7891C136.553 19.1773 136.741 20.4154 137.152 21.475L139.017 20.7509C138.719 19.9846 138.553 19.0068 138.553 17.7891H136.553ZM137.156 21.4828C137.574 22.5338 138.187 23.3971 139.024 24.0081L140.203 22.3926C139.729 22.0463 139.322 21.518 139.014 20.7431L137.156 21.4828ZM139.024 24.0081C139.865 24.6219 140.842 24.9183 141.914 24.9183V22.9183C141.23 22.9183 140.674 22.736 140.203 22.3926L139.024 24.0081ZM141.914 24.9183C142.702 24.9183 143.443 24.7553 144.115 24.4076L143.196 22.6312C142.84 22.8154 142.42 22.9183 141.914 22.9183V24.9183ZM144.109 24.4108C144.79 24.0643 145.348 23.5603 145.777 22.9174L144.113 21.808C143.868 22.1756 143.567 22.4428 143.202 22.628L144.109 24.4108ZM145.775 22.9207C146.217 22.2636 146.488 21.5014 146.612 20.6612L144.634 20.3681C144.546 20.9639 144.365 21.4337 144.115 21.8047L145.775 22.9207ZM145.623 21.5147H150.968V19.5147H145.623V21.5147ZM149.969 20.4579C149.89 21.8648 149.51 23.0684 148.85 24.0961L150.533 25.1764C151.398 23.8286 151.869 22.2845 151.966 20.5714L149.969 20.4579ZM148.849 24.0977C148.199 25.1148 147.298 25.918 146.12 26.5073L147.014 28.2961C148.495 27.5558 149.677 26.5154 150.534 25.1748L148.849 24.0977ZM146.12 26.5073C144.957 27.0889 143.543 27.3989 141.847 27.3989V29.3989C143.786 29.3989 145.518 29.0441 147.014 28.2961L146.12 26.5073ZM161.097 27.1225L160.602 27.9911L160.608 27.9945L161.097 27.1225ZM157.614 23.4795L156.726 23.9387L156.727 23.9407L157.614 23.4795ZM157.614 12.3512L156.724 11.8941L157.614 12.3512ZM161.057 8.64182L160.546 7.78252L160.544 7.78387L161.057 8.64182ZM170.058 7.96375L169.708 8.90041L169.717 8.90354L170.058 7.96375ZM173.116 9.89159L172.413 10.6023L172.417 10.6059L173.116 9.89159ZM175.164 13.1357L174.227 13.4861L174.228 13.4882L175.164 13.1357ZM175.895 19.2383V20.2383H176.895V19.2383H175.895ZM158.651 19.2383H157.651V20.2383H158.651V19.2383ZM158.651 15.7283V14.7283H157.651V15.7283H158.651ZM170.564 15.7283V16.7283H171.564V15.7283H170.564ZM170.032 13.5611L169.161 14.052V14.052L170.032 13.5611ZM168.556 12.0853L168.051 12.9482L168.058 12.9525L168.065 12.9566L168.556 12.0853ZM164.102 12.1385L164.613 12.9981L164.617 12.996L164.102 12.1385ZM162.56 13.7207L163.43 14.2143L163.432 14.2093L162.56 13.7207ZM161.988 15.9144L160.988 15.9034V15.9144H161.988ZM162.547 21.8708L161.654 22.3223L161.659 22.3308L162.547 21.8708ZM168.343 23.905L168.022 22.9579L168.343 23.905ZM169.686 23.1073L168.997 22.3831V22.3831L169.686 23.1073ZM170.537 21.8043L170.603 20.8065L169.865 20.7578L169.602 21.4497L170.537 21.8043ZM175.775 22.15L176.754 22.3567L176.992 21.2281L175.841 21.1522L175.775 22.15ZM174.14 25.4473L173.388 24.7878L173.388 24.7883L174.14 25.4473ZM170.976 27.6277L171.347 28.5562L171.35 28.5549L170.976 27.6277ZM166.522 27.3989C164.557 27.3989 162.925 27.0016 161.587 26.2505L160.608 27.9945C162.301 28.9452 164.285 29.3989 166.522 29.3989V27.3989ZM161.593 26.2539C160.256 25.4914 159.23 24.4201 158.501 23.0183L156.727 23.9407C157.629 25.6768 158.925 27.0341 160.602 27.9911L161.593 26.2539ZM158.502 23.0204C157.774 21.6117 157.391 19.9099 157.391 17.8822H155.391C155.391 20.1622 155.823 22.1919 156.726 23.9387L158.502 23.0204ZM157.391 17.8822C157.391 15.9123 157.772 14.2305 158.503 12.8084L156.724 11.8941C155.824 13.6452 155.391 15.6506 155.391 17.8822H157.391ZM158.503 12.8084C159.236 11.3819 160.257 10.2868 161.571 9.49976L160.544 7.78387C158.898 8.76952 157.622 10.1474 156.724 11.8941L158.503 12.8084ZM161.569 9.50111C162.88 8.72041 164.444 8.31227 166.296 8.31227V6.31227C164.141 6.31227 162.213 6.7905 160.546 7.78252L161.569 9.50111ZM166.296 8.31227C167.534 8.31227 168.668 8.51146 169.708 8.90037L170.409 7.02713C169.126 6.5474 167.752 6.31227 166.296 6.31227V8.31227ZM169.717 8.90354C170.754 9.2806 171.649 9.84605 172.413 10.6023L173.82 9.18087C172.847 8.21758 171.703 7.49781 170.4 7.02396L169.717 8.90354ZM172.417 10.6059C173.176 11.3504 173.784 12.3021 174.227 13.4861L176.1 12.7853C175.568 11.3634 174.811 10.1524 173.816 9.17731L172.417 10.6059ZM174.228 13.4882C174.664 14.6449 174.895 16.0363 174.895 17.6827H176.895C176.895 15.8547 176.639 14.2147 176.1 12.7832L174.228 13.4882ZM174.895 17.6827V19.2383H176.895V17.6827H174.895ZM175.895 18.2383H158.651V20.2383H175.895V18.2383ZM159.651 19.2383V15.7283H157.651V19.2383H159.651ZM158.651 16.7283H170.564V14.7283H158.651V16.7283ZM171.564 15.7283C171.564 14.7634 171.352 13.8679 170.903 13.0703L169.161 14.052C169.42 14.513 169.564 15.0622 169.564 15.7283H171.564ZM170.903 13.0703C170.459 12.2818 169.835 11.6583 169.047 11.2141L168.065 12.9566C168.535 13.2215 168.896 13.5818 169.161 14.052L170.903 13.0703ZM169.061 11.2225C168.266 10.7568 167.364 10.5402 166.389 10.5402V12.5402C167.062 12.5402 167.605 12.6871 168.051 12.9482L169.061 11.2225ZM166.389 10.5402C165.368 10.5402 164.424 10.779 163.588 11.281L164.617 12.996C165.109 12.7003 165.69 12.5402 166.389 12.5402V10.5402ZM163.591 11.279C162.784 11.7586 162.146 12.4138 161.687 13.2321L163.432 14.2093C163.719 13.698 164.108 13.2984 164.613 12.9981L163.591 11.279ZM161.69 13.2271C161.228 14.0404 160.999 14.9397 160.988 15.9034L162.988 15.9254C162.995 15.276 163.147 14.7127 163.429 14.2143L161.69 13.2271ZM160.988 15.9144V19.2516H162.988V15.9144H160.988ZM160.988 19.2516C160.988 20.3841 161.197 21.4186 161.654 22.3223L163.439 21.4193C163.152 20.8516 162.988 20.14 162.988 19.2516H160.988ZM161.659 22.3308C162.124 23.2294 162.792 23.9407 163.656 24.4388L164.655 22.7064C164.136 22.4068 163.731 21.9836 163.434 21.4108L161.659 22.3308ZM163.656 24.4388C164.525 24.9405 165.524 25.1709 166.615 25.1709V23.1709C165.809 23.1709 165.168 23.0024 164.655 22.7064L163.656 24.4388ZM166.615 25.1709C167.338 25.1709 168.025 25.0689 168.664 24.8521L168.022 22.9579C167.616 23.0956 167.15 23.1709 166.615 23.1709V25.1709ZM168.664 24.8521C169.315 24.6317 169.891 24.2934 170.376 23.8314L168.997 22.3831C168.737 22.6302 168.418 22.8238 168.022 22.9579L168.664 24.8521ZM170.376 23.8314C170.864 23.3665 171.228 22.8031 171.472 22.159L169.602 21.4497C169.456 21.8337 169.253 22.1389 168.997 22.3831L170.376 23.8314ZM170.471 22.8021L175.71 23.1478L175.841 21.1522L170.603 20.8065L170.471 22.8021ZM174.797 21.9433C174.566 23.0392 174.096 23.9811 173.388 24.7878L174.892 26.1068C175.833 25.0344 176.454 23.7781 176.754 22.3567L174.797 21.9433ZM173.388 24.7883C172.688 25.587 171.769 26.2287 170.601 26.7006L171.35 28.5549C172.771 27.9809 173.961 27.169 174.892 26.1063L173.388 24.7883ZM170.604 26.6992C169.46 27.1571 168.106 27.3989 166.522 27.3989V29.3989C168.306 29.3989 169.921 29.1266 171.347 28.5562L170.604 26.6992ZM185.523 27.1358L184.98 27.976L184.987 27.9804L185.523 27.1358ZM182.544 23.5859L181.637 24.0063L181.64 24.0124L182.544 23.5859ZM182.584 11.979L183.484 12.4159L183.485 12.4139L182.584 11.979ZM185.589 8.48227L186.114 9.33331L186.116 9.33228L185.589 8.48227ZM192.583 7.89727L192.127 8.78761L192.139 8.79375L192.583 7.89727ZM194.444 9.33318L193.669 9.96512L193.674 9.97163L193.68 9.97805L194.444 9.33318ZM195.534 11.0084L194.623 11.42L194.888 12.0084H195.534V11.0084ZM195.707 11.0084V12.0084H196.707V11.0084H195.707ZM195.707 0.770909V-0.229091H194.707V0.770909H195.707ZM201.358 0.770909H202.358V-0.229091H201.358V0.770909ZM201.358 28V29H202.358V28H201.358ZM195.773 28H194.773V29H195.773V28ZM195.773 24.7293H196.773V23.7293H195.773V24.7293ZM195.534 24.7293V23.7293H194.898L194.629 24.3049L195.534 24.7293ZM194.404 26.4178L193.651 25.7602L193.65 25.7611L194.404 26.4178ZM192.529 27.7873L192.103 26.8827L192.099 26.8846L192.529 27.7873ZM193.846 23.0807L194.465 23.8658L194.466 23.8647L193.846 23.0807ZM195.308 20.9667L194.374 20.6096L194.371 20.6176L195.308 20.9667ZM195.321 14.6248L196.257 14.2726L195.321 14.6248ZM189.179 12.5773L188.558 11.7932L189.179 12.5773ZM187.73 20.9401L186.788 21.2782L186.793 21.2892L187.73 20.9401ZM189.179 23.0674L188.546 23.8418L188.552 23.8467L188.558 23.8514L189.179 23.0674ZM189.737 27.3324C188.368 27.3324 187.15 26.9831 186.058 26.2912L184.987 27.9804C186.413 28.8839 188.005 29.3324 189.737 29.3324V27.3324ZM186.065 26.2956C184.996 25.6056 184.118 24.5778 183.449 23.1594L181.64 24.0124C182.442 25.714 183.55 27.0528 184.98 27.976L186.065 26.2956ZM183.452 23.1656C182.802 21.7632 182.454 19.9925 182.454 17.8157H180.454C180.454 20.1948 180.833 22.2708 181.637 24.0063L183.452 23.1656ZM182.454 17.8157C182.454 15.5758 182.816 13.7913 183.484 12.4159L181.685 11.5421C180.846 13.269 180.454 15.3756 180.454 17.8157H182.454ZM183.485 12.4139C184.17 10.9942 185.054 9.98752 186.114 9.33331L185.064 7.63124C183.625 8.5193 182.505 9.84376 181.684 11.5441L183.485 12.4139ZM186.116 9.33228C187.214 8.65153 188.41 8.31227 189.724 8.31227V6.31227C188.042 6.31227 186.481 6.75302 185.062 7.63226L186.116 9.33228ZM189.724 8.31227C190.76 8.31227 191.545 8.48971 192.127 8.78752L193.038 7.00702C192.096 6.52484 190.975 6.31227 189.724 6.31227V8.31227ZM192.139 8.79375C192.802 9.12139 193.303 9.51602 193.669 9.96512L195.219 8.70124C194.646 7.99808 193.905 7.43543 193.026 7.0008L192.139 8.79375ZM193.68 9.97805C194.112 10.4903 194.42 10.9714 194.623 11.42L196.445 10.5968C196.152 9.94633 195.733 9.31059 195.208 8.68831L193.68 9.97805ZM195.534 12.0084H195.707V10.0084H195.534V12.0084ZM196.707 11.0084V0.770909H194.707V11.0084H196.707ZM195.707 1.77091H201.358V-0.229091H195.707V1.77091ZM200.358 0.770909V28H202.358V0.770909H200.358ZM201.358 27H195.773V29H201.358V27ZM196.773 28V24.7293H194.773V28H196.773ZM195.773 23.7293H195.534V25.7293H195.773V23.7293ZM194.629 24.3049C194.409 24.7739 194.088 25.2596 193.651 25.7602L195.157 27.0755C195.695 26.4593 196.128 25.8193 196.44 25.1538L194.629 24.3049ZM193.65 25.7611C193.276 26.19 192.77 26.5684 192.103 26.8827L192.956 28.6919C193.831 28.2793 194.574 27.7448 195.158 27.0746L193.65 25.7611ZM192.099 26.8846C191.505 27.1677 190.731 27.3324 189.737 27.3324V29.3324C190.942 29.3324 192.029 29.1337 192.96 28.6899L192.099 26.8846ZM191.532 24.8252C192.637 24.8252 193.635 24.5204 194.465 23.8658L193.226 22.2955C192.798 22.6337 192.253 22.8252 191.532 22.8252V24.8252ZM194.466 23.8647C195.272 23.2267 195.857 22.3591 196.245 21.3158L194.371 20.6176C194.086 21.3825 193.695 21.9243 193.225 22.2966L194.466 23.8647ZM196.242 21.3238C196.641 20.2808 196.827 19.0956 196.827 17.7891H194.827C194.827 18.9112 194.667 19.8444 194.374 20.6096L196.242 21.3238ZM196.827 17.7891C196.827 16.4855 196.646 15.3062 196.257 14.2726L194.385 14.9769C194.67 15.7338 194.827 16.664 194.827 17.7891H196.827ZM196.257 14.2726C195.867 13.2359 195.279 12.3774 194.466 11.756L193.252 13.3454C193.715 13.6989 194.102 14.2232 194.385 14.9769L196.257 14.2726ZM194.466 11.756C193.63 11.1174 192.633 10.8194 191.532 10.8194V12.8194C192.257 12.8194 192.811 13.0089 193.252 13.3454L194.466 11.756ZM191.532 10.8194C190.41 10.8194 189.398 11.1284 188.558 11.7932L189.8 13.3613C190.236 13.0157 190.793 12.8194 191.532 12.8194V10.8194ZM188.558 11.7932C187.752 12.4314 187.171 13.2956 186.791 14.334L188.669 15.0219C188.944 14.2699 189.329 13.7336 189.8 13.3613L188.558 11.7932ZM186.791 14.334C186.414 15.362 186.238 16.5196 186.238 17.7891H188.238C188.238 16.7008 188.389 15.7844 188.669 15.0219L186.791 14.334ZM186.238 17.7891C186.238 19.0671 186.414 20.2355 186.789 21.2782L188.671 20.602C188.389 19.8188 188.238 18.8865 188.238 17.7891H186.238ZM186.793 21.2892C187.18 22.3283 187.756 23.1961 188.546 23.8418L189.812 22.2929C189.343 21.9105 188.953 21.3601 188.667 20.591L186.793 21.2892ZM188.558 23.8514C189.398 24.5162 190.41 24.8252 191.532 24.8252V22.8252C190.793 22.8252 190.236 22.629 189.8 22.2833L188.558 23.8514ZM234.799 8.60193L233.804 8.70062L233.893 9.60193H234.799V8.60193ZM227.765 5.61045L228.135 6.53987L228.146 6.53539L227.765 5.61045ZM226.276 6.68739L225.476 6.08734L225.469 6.09737L226.276 6.68739ZM225.771 8.25625L226.771 8.29259L226.771 8.27443V8.25625H225.771ZM226.077 9.53261L225.223 10.0532L225.228 10.0607L225.232 10.0682L226.077 9.53261ZM227.021 10.4766L226.466 11.3086L226.473 11.313L226.479 11.3172L227.021 10.4766ZM228.404 11.1547L228.054 12.0916L228.061 12.0943L228.068 12.0968L228.404 11.1547ZM230.079 11.6333L230.311 10.6607L230.304 10.659L230.297 10.6575L230.079 11.6333ZM232.525 12.2183L232.293 13.1909L232.3 13.1926L232.307 13.1941L232.525 12.2183ZM235.796 13.2819L235.388 14.1951H235.388L235.796 13.2819ZM238.375 14.9173L239.04 14.1704L238.375 14.9173ZM240.064 17.2041L239.153 17.6179L239.157 17.6255L240.064 17.2041ZM240.689 20.2222L241.689 20.2275L241.689 20.2143L240.689 20.2222ZM239.412 24.5565L238.589 23.9894L238.588 23.9907L239.412 24.5565ZM235.796 27.3884L236.186 28.3092L236.189 28.3081L235.796 27.3884ZM224.375 27.3751L223.992 28.2986L223.993 28.2994L224.375 27.3751ZM220.573 24.3836L219.746 24.946L219.75 24.9523L220.573 24.3836ZM219.15 19.451V18.451H218.127L218.15 19.4736L219.15 19.451ZM224.721 19.451L225.719 19.3832L225.655 18.451H224.721V19.451ZM225.505 21.7378L224.707 22.3397L224.712 22.3462L224.717 22.3526L225.505 21.7378ZM227.38 23.1073L227.01 24.0366L227.023 24.0414L227.38 23.1073ZM232.592 23.1339L232.228 22.2023L232.224 22.2038L232.592 23.1339ZM234.28 21.9506L235.065 22.5702L234.28 21.9506ZM234.333 18.6666L233.572 19.3148L233.58 19.324L234.333 18.6666ZM232.765 17.603L232.371 18.5221L232.375 18.5239L232.765 17.603ZM230.252 16.8052L230.008 17.7752L230.017 17.7774L230.252 16.8052ZM227.287 16.0607L227.53 15.0908L227.523 15.089L227.287 16.0607ZM221.849 13.4415L221.183 14.1872L221.849 13.4415ZM219.868 8.64182L220.868 8.64622L220.868 8.63644L219.868 8.64182ZM221.184 4.3208L220.375 3.73297L220.372 3.7368L221.184 4.3208ZM235.477 1.43568L235.06 2.34458L235.062 2.3455L235.477 1.43568ZM239.013 4.3208L238.188 4.88505V4.88506L239.013 4.3208ZM240.316 8.60193V9.60193H241.333L241.316 8.58554L240.316 8.60193ZM235.794 8.50324C235.662 7.17297 235.076 6.07274 234.022 5.29711L232.836 6.90766C233.396 7.31976 233.723 7.8859 233.804 8.70062L235.794 8.50324ZM234.022 5.29711C232.989 4.53662 231.662 4.21159 230.145 4.21159V6.21159C231.394 6.21159 232.256 6.48042 232.836 6.90766L234.022 5.29711ZM230.145 4.21159C229.118 4.21159 228.187 4.35621 227.385 4.68551L228.146 6.53539C228.638 6.33288 229.294 6.21159 230.145 6.21159V4.21159ZM227.396 4.6811C226.614 4.99192 225.954 5.45105 225.476 6.08739L227.076 7.28739C227.291 7.00191 227.623 6.74308 228.135 6.53981L227.396 4.6811ZM225.469 6.09737C225.004 6.73404 224.771 7.46476 224.771 8.25625H226.771C226.771 7.87774 226.875 7.56255 227.084 7.2774L225.469 6.09737ZM224.772 8.21991C224.748 8.87388 224.885 9.49895 225.223 10.0532L226.931 9.01201C226.826 8.83945 226.759 8.61362 226.771 8.29259L224.772 8.21991ZM225.232 10.0682C225.546 10.5624 225.964 10.9741 226.466 11.3086L227.576 9.64454C227.28 9.44727 227.069 9.22969 226.921 8.99707L225.232 10.0682ZM226.479 11.3172C226.948 11.6193 227.475 11.8758 228.054 12.0916L228.753 10.2177C228.286 10.0435 227.892 9.848 227.563 9.63602L226.479 11.3172ZM228.068 12.0968C228.633 12.2977 229.231 12.4682 229.86 12.6091L230.297 10.6575C229.739 10.5325 229.22 10.3839 228.739 10.2126L228.068 12.0968ZM229.846 12.6059L232.293 13.1909L232.758 11.2457L230.311 10.6607L229.846 12.6059ZM232.307 13.1941C233.437 13.4472 234.463 13.782 235.388 14.1951L236.204 12.3688C235.143 11.8955 233.989 11.5212 232.744 11.2425L232.307 13.1941ZM235.388 14.1951C236.298 14.6012 237.069 15.0929 237.71 15.6642L239.04 14.1704C238.228 13.4475 237.279 12.849 236.204 12.3688L235.388 14.1951ZM237.71 15.6642C238.334 16.2194 238.813 16.8686 239.153 17.6179L240.974 16.7903C240.517 15.7846 239.87 14.9092 239.04 14.1704L237.71 15.6642ZM239.157 17.6255C239.495 18.3529 239.681 19.2139 239.689 20.23L241.689 20.2143C241.679 18.9613 241.448 17.8103 240.971 16.7827L239.157 17.6255ZM239.689 20.2168C239.681 21.708 239.303 22.9514 238.589 23.9894L240.236 25.1235C241.205 23.7152 241.679 22.0691 241.689 20.2275L239.689 20.2168ZM238.588 23.9907C237.879 25.0241 236.836 25.8571 235.403 26.4687L236.189 28.3081C237.912 27.5724 239.28 26.5175 240.237 25.1222L238.588 23.9907ZM235.406 26.4677C233.991 27.067 232.239 27.3856 230.119 27.3856V29.3856C232.43 29.3856 234.463 29.0394 236.186 28.3092L235.406 26.4677ZM230.119 27.3856C228.02 27.3856 226.241 27.0638 224.757 26.4509L223.993 28.2994C225.771 29.0337 227.821 29.3856 230.119 29.3856V27.3856ZM224.759 26.4516C223.297 25.8444 222.189 24.9629 221.395 23.815L219.75 24.9523C220.782 26.4457 222.21 27.5585 223.992 28.2986L224.759 26.4516ZM221.4 23.8213C220.626 22.6831 220.191 21.2369 220.15 19.4284L218.15 19.4736C218.198 21.5829 218.712 23.4251 219.746 24.9459L221.4 23.8213ZM219.15 20.451H224.721V18.451H219.15V20.451ZM223.723 19.5188C223.796 20.5871 224.108 21.5452 224.707 22.3397L226.304 21.136C225.981 20.7073 225.77 20.1409 225.719 19.3832L223.723 19.5188ZM224.717 22.3526C225.306 23.1091 226.082 23.6672 227.01 24.0365L227.749 22.1781C227.118 21.9269 226.644 21.5721 226.294 21.1231L224.717 22.3526ZM227.023 24.0414C227.944 24.3932 228.959 24.5593 230.052 24.5593V22.5593C229.161 22.5593 228.394 22.424 227.737 22.1731L227.023 24.0414ZM230.052 24.5593C231.121 24.5593 232.098 24.4042 232.959 24.0639L232.224 22.2038C231.65 22.4308 230.933 22.5593 230.052 22.5593V24.5593ZM232.955 24.0654C233.813 23.7308 234.535 23.2419 235.065 22.5702L233.495 21.3309C233.228 21.6697 232.824 21.9696 232.228 22.2023L232.955 24.0654ZM235.065 22.5702C235.606 21.8849 235.879 21.085 235.879 20.2089H233.879C233.879 20.6445 233.752 21.0058 233.495 21.3309L235.065 22.5702ZM235.879 20.2089C235.879 19.3832 235.627 18.6277 235.087 18.0092L233.58 19.324C233.767 19.5386 233.879 19.8114 233.879 20.2089H235.879ZM235.095 18.0185C234.609 17.4474 233.939 17.0138 233.154 16.682L232.375 18.5239C232.973 18.7771 233.349 19.0526 233.572 19.3147L235.095 18.0185ZM233.159 16.6838C232.409 16.3627 231.515 16.081 230.486 15.8331L230.017 17.7774C230.974 18.008 231.755 18.2582 232.371 18.5221L233.159 16.6838ZM230.495 15.8353L227.53 15.0908L227.043 17.0306L230.008 17.7751L230.495 15.8353ZM227.523 15.089C225.337 14.5573 223.689 13.7442 222.515 12.6957L221.183 14.1872C222.668 15.5142 224.645 16.4473 227.051 17.0323L227.523 15.089ZM222.515 12.6957C221.428 11.7244 220.86 10.4129 220.868 8.64622L218.868 8.63741C218.858 10.8948 219.611 12.7831 221.183 14.1872L222.515 12.6957ZM220.868 8.63644C220.86 7.17998 221.244 5.95023 221.996 4.90479L220.372 3.7368C219.352 5.15545 218.858 6.80639 218.868 8.64719L220.868 8.63644ZM221.993 4.90862C222.773 3.83561 223.853 2.97872 225.272 2.34992L224.462 0.521442C222.761 1.27538 221.386 2.3419 220.375 3.73297L221.993 4.90862ZM225.272 2.34992C226.685 1.72361 228.317 1.39864 230.185 1.39864V-0.601363C228.083 -0.601363 226.169 -0.23497 224.462 0.521442L225.272 2.34992ZM230.185 1.39864C232.093 1.39864 233.709 1.72491 235.06 2.34458L235.894 0.526786C234.231 -0.236268 232.319 -0.601363 230.185 -0.601363V1.39864ZM235.062 2.3455C236.432 2.97028 237.46 3.82047 238.188 4.88505L239.839 3.75654C238.883 2.35703 237.554 1.28382 235.892 0.525863L235.062 2.3455ZM238.188 4.88506C238.91 5.94138 239.293 7.17423 239.317 8.61832L241.316 8.58554C241.287 6.78555 240.801 5.1643 239.839 3.75654L238.188 4.88506ZM240.316 7.60193H234.799V9.60193H240.316V7.60193ZM250.958 27.1225L250.462 27.9911L250.468 27.9945L250.958 27.1225ZM247.474 23.4795L246.586 23.9387L246.587 23.9407L247.474 23.4795ZM247.474 12.3512L246.585 11.8941L247.474 12.3512ZM250.918 8.64182L250.406 7.78252L250.404 7.78387L250.918 8.64182ZM259.919 7.96375L259.568 8.90041L259.577 8.90354L259.919 7.96375ZM262.977 9.89159L262.273 10.6023L262.277 10.6059L262.977 9.89159ZM265.024 13.1357L264.088 13.4861L264.088 13.4882L265.024 13.1357ZM265.756 19.2383V20.2383H266.756V19.2383H265.756ZM248.511 19.2383H247.511V20.2383H248.511V19.2383ZM248.511 15.7283V14.7283H247.511V15.7283H248.511ZM260.424 15.7283V16.7283H261.424V15.7283H260.424ZM259.892 13.5611L259.021 14.052V14.052L259.892 13.5611ZM258.416 12.0853L257.911 12.9482L257.918 12.9525L257.926 12.9566L258.416 12.0853ZM253.962 12.1385L254.474 12.9981L254.477 12.996L253.962 12.1385ZM252.42 13.7207L253.29 14.2143L253.293 14.2093L252.42 13.7207ZM251.848 15.9144L250.848 15.9034V15.9144H251.848ZM252.407 21.8708L251.515 22.3223L251.519 22.3308L252.407 21.8708ZM258.204 23.905L257.883 22.9579L258.204 23.905ZM259.547 23.1073L258.857 22.3831V22.3831L259.547 23.1073ZM260.397 21.8043L260.463 20.8065L259.725 20.7578L259.462 21.4497L260.397 21.8043ZM265.636 22.15L266.614 22.3567L266.853 21.2281L265.702 21.1522L265.636 22.15ZM264.001 25.4473L263.249 24.7878L263.248 24.7883L264.001 25.4473ZM260.836 27.6277L261.208 28.5562L261.211 28.5549L260.836 27.6277ZM256.382 27.3989C254.417 27.3989 252.785 27.0016 251.447 26.2505L250.468 27.9945C252.162 28.9452 254.146 29.3989 256.382 29.3989V27.3989ZM251.453 26.2539C250.117 25.4914 249.09 24.4201 248.362 23.0183L246.587 23.9407C247.489 25.6768 248.785 27.0341 250.462 27.9911L251.453 26.2539ZM248.363 23.0204C247.635 21.6117 247.251 19.9099 247.251 17.8822H245.251C245.251 20.1622 245.683 22.1919 246.586 23.9387L248.363 23.0204ZM247.251 17.8822C247.251 15.9123 247.633 14.2305 248.364 12.8084L246.585 11.8941C245.685 13.6452 245.251 15.6506 245.251 17.8822H247.251ZM248.364 12.8084C249.097 11.3819 250.117 10.2868 251.432 9.49976L250.404 7.78387C248.758 8.76952 247.483 10.1474 246.585 11.8941L248.364 12.8084ZM251.429 9.50111C252.741 8.72041 254.305 8.31227 256.156 8.31227V6.31227C254.001 6.31227 252.073 6.7905 250.406 7.78252L251.429 9.50111ZM256.156 8.31227C257.394 8.31227 258.529 8.51146 259.568 8.90037L260.269 7.02713C258.987 6.5474 257.613 6.31227 256.156 6.31227V8.31227ZM259.577 8.90354C260.614 9.2806 261.509 9.84605 262.273 10.6023L263.68 9.18087C262.707 8.21758 261.564 7.49781 260.261 7.02396L259.577 8.90354ZM262.277 10.6059C263.037 11.3504 263.645 12.3021 264.088 13.4861L265.961 12.7853C265.429 11.3634 264.672 10.1524 263.677 9.17731L262.277 10.6059ZM264.088 13.4882C264.524 14.6449 264.756 16.0363 264.756 17.6827H266.756C266.756 15.8547 266.499 14.2147 265.96 12.7832L264.088 13.4882ZM264.756 17.6827V19.2383H266.756V17.6827H264.756ZM265.756 18.2383H248.511V20.2383H265.756V18.2383ZM249.511 19.2383V15.7283H247.511V19.2383H249.511ZM248.511 16.7283H260.424V14.7283H248.511V16.7283ZM261.424 15.7283C261.424 14.7634 261.213 13.8679 260.763 13.0703L259.021 14.052C259.281 14.513 259.424 15.0622 259.424 15.7283H261.424ZM260.763 13.0703C260.319 12.2818 259.696 11.6583 258.907 11.2141L257.926 12.9566C258.396 13.2215 258.756 13.5818 259.021 14.052L260.763 13.0703ZM258.922 11.2225C258.127 10.7568 257.225 10.5402 256.249 10.5402V12.5402C256.922 12.5402 257.465 12.6871 257.911 12.9482L258.922 11.2225ZM256.249 10.5402C255.229 10.5402 254.285 10.779 253.448 11.281L254.477 12.996C254.97 12.7003 255.55 12.5402 256.249 12.5402V10.5402ZM253.451 11.279C252.645 11.7586 252.006 12.4138 251.548 13.2321L253.293 14.2093C253.579 13.698 253.968 13.2984 254.474 12.9981L253.451 11.279ZM251.551 13.2271C251.089 14.0404 250.859 14.9397 250.849 15.9034L252.848 15.9254C252.856 15.276 253.007 14.7127 253.29 14.2143L251.551 13.2271ZM250.848 15.9144V19.2516H252.848V15.9144H250.848ZM250.848 19.2516C250.848 20.3841 251.057 21.4186 251.515 22.3223L253.299 21.4193C253.012 20.8516 252.848 20.14 252.848 19.2516H250.848ZM251.519 22.3308C251.985 23.2294 252.652 23.9407 253.516 24.4388L254.515 22.7064C253.996 22.4068 253.592 21.9836 253.295 21.4108L251.519 22.3308ZM253.516 24.4388C254.386 24.9405 255.385 25.1709 256.475 25.1709V23.1709C255.669 23.1709 255.028 23.0024 254.515 22.7064L253.516 24.4388ZM256.475 25.1709C257.199 25.1709 257.885 25.0689 258.525 24.8521L257.883 22.9579C257.476 23.0956 257.01 23.1709 256.475 23.1709V25.1709ZM258.525 24.8521C259.175 24.6317 259.751 24.2934 260.236 23.8314L258.857 22.3831C258.598 22.6302 258.278 22.8238 257.883 22.9579L258.525 24.8521ZM260.236 23.8314C260.724 23.3665 261.088 22.8031 261.332 22.159L259.462 21.4497C259.317 21.8337 259.113 22.1389 258.857 22.3831L260.236 23.8314ZM260.332 22.8021L265.57 23.1478L265.702 21.1522L260.463 20.8065L260.332 22.8021ZM264.657 21.9433C264.426 23.0392 263.957 23.9811 263.249 24.7878L264.752 26.1068C265.693 25.0344 266.314 23.7781 266.614 22.3567L264.657 21.9433ZM263.248 24.7883C262.549 25.587 261.629 26.2287 260.462 26.7006L261.211 28.5549C262.631 27.9809 263.822 27.169 264.753 26.1063L263.248 24.7883ZM260.465 26.6992C259.32 27.1571 257.966 27.3989 256.382 27.3989V29.3989C258.167 29.3989 259.782 29.1266 261.208 28.5562L260.465 26.6992ZM274.412 27.7075L274 28.6187L274.007 28.6216L274.412 27.7075ZM271.993 25.6733L271.153 26.2166L271.159 26.2261L271.993 25.6733ZM271.74 19.4377L270.86 18.9624L271.74 19.4377ZM273.442 17.5764L272.894 16.7396L273.442 17.5764ZM275.888 16.5127L275.637 15.5448L275.635 15.5454L275.888 16.5127ZM278.787 16.0075L278.883 17.0029L278.891 17.0021L278.787 16.0075ZM281.658 15.6618L281.803 16.6514L281.815 16.6495L281.658 15.6618ZM283.241 15.1566L282.681 14.328V14.328L283.241 15.1566ZM282.935 12.1385L282.274 12.8888L282.28 12.8942L282.935 12.1385ZM278.268 12.1252L278.861 12.9309L278.868 12.9252L278.268 12.1252ZM277.072 13.8005L276.991 14.7972L277.805 14.8633L278.032 14.0785L277.072 13.8005ZM271.833 13.375L270.855 13.1655L270.617 14.2795L271.752 14.3717L271.833 13.375ZM273.402 10.1575L274.159 10.8107L274.162 10.8071L273.402 10.1575ZM276.42 8.05682L276.788 8.98668L276.791 8.98529L276.42 8.05682ZM283.985 7.71114L283.737 8.6798L283.739 8.6803L283.985 7.71114ZM286.764 8.94761L286.195 9.76982L286.199 9.7727L286.764 8.94761ZM288.692 11.1015L287.81 11.5735L287.812 11.5772L288.692 11.1015ZM289.396 28V29H290.396V28H289.396ZM284.025 28H283.025V29H284.025V28ZM284.025 25.1681H285.025V24.1681H284.025V25.1681ZM283.866 25.1681V24.1681H283.255L282.976 24.711L283.866 25.1681ZM282.549 26.8566L283.206 27.6107L283.213 27.6047L282.549 26.8566ZM280.568 27.9867L280.894 28.9321L280.904 28.9287L280.568 27.9867ZM281.725 23.9848L282.182 24.8743L282.192 24.8692L281.725 23.9848ZM283.227 22.6286L282.385 22.0892L283.227 22.6286ZM283.772 18.5336H284.772V16.691L283.227 17.6952L283.772 18.5336ZM283.041 18.8527L283.323 19.8121L283.332 19.8095L283.341 19.8067L283.041 18.8527ZM282.017 19.1053L282.2 20.0885L282.211 20.0864L282.222 20.0841L282.017 19.1053ZM280.874 19.3048L281.012 20.2952L281.023 20.2936L281.035 20.2918L280.874 19.3048ZM279.837 19.451L279.696 18.4611L279.692 18.4616L279.837 19.451ZM278.095 19.9164L278.489 20.8355L278.095 19.9164ZM276.939 20.7806L277.729 21.3932L277.736 21.3837L276.939 20.7806ZM277.364 23.8784L276.774 24.686L276.782 24.6913L276.789 24.6964L277.364 23.8784ZM277.896 27.3856C276.709 27.3856 275.69 27.1801 274.818 26.7934L274.007 28.6216C275.174 29.139 276.477 29.3856 277.896 29.3856V27.3856ZM274.824 26.7963C273.969 26.4095 273.311 25.8524 272.826 25.1205L271.159 26.2261C271.862 27.2847 272.817 28.0837 274 28.6187L274.824 26.7963ZM272.832 25.13C272.375 24.4241 272.115 23.4991 272.115 22.2962H270.115C270.115 23.788 270.44 25.1143 271.153 26.2165L272.832 25.13ZM272.115 22.2962C272.115 21.2802 272.302 20.5014 272.62 19.913L270.86 18.9624C270.345 19.9163 270.115 21.0432 270.115 22.2962H272.115ZM272.62 19.913C272.959 19.2849 273.414 18.7899 273.989 18.4132L272.894 16.7396C272.034 17.3024 271.354 18.0483 270.86 18.9624L272.62 19.913ZM273.989 18.4132C274.608 18.0081 275.323 17.6947 276.142 17.48L275.635 15.5454C274.628 15.8094 273.711 16.2051 272.894 16.7396L273.989 18.4132ZM276.14 17.4806C277.007 17.2554 277.921 17.0957 278.883 17.0029L278.691 15.0121C277.631 15.1143 276.613 15.2914 275.637 15.5448L276.14 17.4806ZM278.891 17.0021C280.085 16.8773 281.057 16.7605 281.803 16.6513L281.514 14.6724C280.806 14.7759 279.864 14.8895 278.683 15.0129L278.891 17.0021ZM281.815 16.6495C282.583 16.5277 283.287 16.3319 283.801 15.9852L282.681 14.328C282.538 14.4244 282.188 14.5654 281.502 14.6742L281.815 16.6495ZM283.801 15.9852C284.434 15.5573 284.733 14.9011 284.733 14.1727H282.733C282.733 14.2631 282.716 14.2955 282.715 14.2972C282.714 14.2992 282.713 14.3007 282.711 14.3035C282.708 14.3066 282.7 14.3153 282.681 14.328L283.801 15.9852ZM284.733 14.1727V14.093H282.733V14.1727H284.733ZM284.733 14.093C284.733 13.0234 284.384 12.0711 283.59 11.3828L282.28 12.8942C282.549 13.1277 282.733 13.4784 282.733 14.093H284.733ZM283.596 11.3883C282.83 10.7136 281.817 10.4472 280.701 10.4472V12.4472C281.518 12.4472 281.993 12.6416 282.274 12.8887L283.596 11.3883ZM280.701 10.4472C279.541 10.4472 278.496 10.7044 277.668 11.3252L278.868 12.9252C279.246 12.642 279.823 12.4472 280.701 12.4472V10.4472ZM277.676 11.3196C276.908 11.884 276.371 12.6225 276.111 13.5224L278.032 14.0785C278.162 13.6311 278.423 13.2529 278.861 12.9309L277.676 11.3196ZM277.152 12.8037L271.914 12.3783L271.752 14.3717L276.991 14.7972L277.152 12.8037ZM272.811 13.5845C273.044 12.497 273.496 11.5798 274.159 10.8107L272.645 9.50427C271.748 10.5434 271.154 11.7711 270.855 13.1655L272.811 13.5845ZM274.162 10.8071C274.826 10.0306 275.692 9.42048 276.788 8.98667L276.052 7.12696C274.684 7.66816 273.538 8.45849 272.642 9.50793L274.162 10.8071ZM276.791 8.98529C277.891 8.54534 279.197 8.31227 280.728 8.31227V6.31227C278.997 6.31227 277.431 6.57557 276.049 7.12834L276.791 8.98529ZM280.728 8.31227C281.784 8.31227 282.786 8.4359 283.737 8.6798L284.234 6.74247C283.111 6.45455 281.941 6.31227 280.728 6.31227V8.31227ZM283.739 8.6803C284.681 8.91978 285.495 9.2857 286.195 9.76981L287.333 8.12542C286.419 7.49271 285.381 7.03431 284.232 6.74197L283.739 8.6803ZM286.199 9.7727C286.881 10.2398 287.416 10.8363 287.81 11.5735L289.573 10.6295C289.028 9.61166 288.278 8.77222 287.329 8.12253L286.199 9.7727ZM287.812 11.5772C288.187 12.2698 288.396 13.14 288.396 14.2259H290.396C290.396 12.8832 290.136 11.6704 289.571 10.6258L287.812 11.5772ZM288.396 14.2259V28H290.396V14.2259H288.396ZM289.396 27H284.025V29H289.396V27ZM285.025 28V25.1681H283.025V28H285.025ZM284.025 24.1681H283.866V26.1681H284.025V24.1681ZM282.976 24.711C282.706 25.2364 282.345 25.7012 281.886 26.1085L283.213 27.6047C283.853 27.037 284.369 26.3761 284.755 25.6251L282.976 24.711ZM281.892 26.1025C281.448 26.4895 280.9 26.8068 280.233 27.0447L280.904 28.9287C281.778 28.6171 282.551 28.181 283.206 27.6107L281.892 26.1025ZM280.242 27.0413C279.598 27.2636 278.821 27.3856 277.896 27.3856V29.3856C278.992 29.3856 279.997 29.2416 280.894 28.9321L280.242 27.0413ZM279.518 25.4767C280.484 25.4767 281.381 25.2857 282.182 24.8742L281.268 23.0953C280.792 23.3397 280.218 23.4767 279.518 23.4767V25.4767ZM282.192 24.8692C282.971 24.4576 283.606 23.8911 284.069 23.1681L282.385 22.0892C282.122 22.5007 281.755 22.8383 281.258 23.1004L282.192 24.8692ZM284.069 23.1681C284.543 22.4291 284.772 21.5968 284.772 20.7008H282.772C282.772 21.2407 282.639 21.6937 282.385 22.0892L284.069 23.1681ZM284.772 20.7008V18.5336H282.772V20.7008H284.772ZM283.227 17.6952C283.156 17.742 283.006 17.8155 282.741 17.8987L283.341 19.8067C283.697 19.6949 284.035 19.5558 284.317 19.3721L283.227 17.6952ZM282.759 17.8934C282.488 17.973 282.174 18.051 281.813 18.1266L282.222 20.0841C282.624 20.0001 282.991 19.9097 283.323 19.8121L282.759 17.8934ZM281.835 18.1222C281.461 18.1917 281.087 18.2569 280.713 18.3178L281.035 20.2918C281.423 20.2285 281.812 20.1608 282.2 20.0885L281.835 18.1222ZM280.736 18.3144C280.354 18.3677 280.007 18.4166 279.696 18.4611L279.978 20.441C280.287 20.3968 280.632 20.3482 281.012 20.2952L280.736 18.3144ZM279.692 18.4616C278.961 18.5687 278.294 18.7433 277.701 18.9972L278.489 20.8355C278.889 20.664 279.383 20.5283 279.982 20.4404L279.692 18.4616ZM277.701 18.9972C277.075 19.2657 276.538 19.6517 276.141 20.1775L277.736 21.3837C277.888 21.1826 278.123 20.9925 278.489 20.8355L277.701 18.9972ZM276.148 20.168C275.714 20.7288 275.526 21.3992 275.526 22.1101H277.526C277.526 21.7574 277.614 21.5414 277.729 21.3931L276.148 20.168ZM275.526 22.1101C275.526 23.158 275.926 24.0663 276.774 24.686L277.954 23.0708C277.686 22.8751 277.526 22.6045 277.526 22.1101H275.526ZM276.789 24.6964C277.563 25.2406 278.496 25.4767 279.518 25.4767V23.4767C278.803 23.4767 278.3 23.3139 277.939 23.0604L276.789 24.6964ZM296.411 28H295.411V29H296.411V28ZM296.411 7.57818V6.57818H295.411V7.57818H296.411ZM301.902 7.57818H302.902V6.57818H301.902V7.57818ZM301.902 11.1414H300.902V12.1414H301.902V11.1414ZM302.115 11.1414V12.1414H302.864L303.075 11.4232L302.115 11.1414ZM303.99 8.26955L304.583 9.07442L304.589 9.07052L303.99 8.26955ZM307.939 7.33886L308.046 6.34466L307.939 7.33886ZM308.803 7.48511H309.803V6.70433L309.045 6.51497L308.803 7.48511ZM308.803 12.5108L308.515 13.4686L309.803 13.8548V12.5108H308.803ZM304.176 12.7501L304.656 13.6271L304.661 13.6248L304.176 12.7501ZM302.634 14.2392L301.775 13.7264L301.77 13.7353L302.634 14.2392ZM302.075 28V29H303.075V28H302.075ZM297.411 28V7.57818H295.411V28H297.411ZM296.411 8.57818H301.902V6.57818H296.411V8.57818ZM300.902 7.57818V11.1414H302.902V7.57818H300.902ZM301.902 12.1414H302.115V10.1414H301.902V12.1414ZM303.075 11.4232C303.399 10.3197 303.916 9.56615 304.583 9.0744L303.396 7.46469C302.308 8.26703 301.576 9.42798 301.156 10.8596L303.075 11.4232ZM304.589 9.07052C305.285 8.54973 306.083 8.28568 307.021 8.28568V6.28568C305.672 6.28568 304.449 6.67754 303.391 7.46858L304.589 9.07052ZM307.021 8.28568C307.264 8.28568 307.533 8.30087 307.831 8.33307L308.046 6.34466C307.688 6.30595 307.346 6.28568 307.021 6.28568V8.28568ZM307.831 8.33307C308.126 8.36493 308.367 8.40695 308.56 8.45526L309.045 6.51497C308.742 6.43918 308.407 6.38371 308.046 6.34466L307.831 8.33307ZM307.803 7.48511V12.5108H309.803V7.48511H307.803ZM309.09 11.553C308.75 11.4508 308.321 11.3716 307.83 11.3067L307.568 13.2895C308.017 13.3487 308.324 13.4112 308.515 13.4686L309.09 11.553ZM307.83 11.3067C307.326 11.2401 306.851 11.205 306.41 11.205V13.205C306.748 13.205 307.133 13.232 307.568 13.2895L307.83 11.3067ZM306.41 11.205C305.426 11.205 304.511 11.421 303.691 11.8754L304.661 13.6248C305.152 13.3524 305.727 13.205 306.41 13.205V11.205ZM303.695 11.8731C302.891 12.3139 302.247 12.9366 301.775 13.7265L303.492 14.7519C303.783 14.2655 304.167 13.8954 304.656 13.6271L303.695 11.8731ZM301.77 13.7353C301.297 14.5452 301.075 15.4591 301.075 16.4463H303.075C303.075 15.767 303.225 15.2095 303.497 14.7431L301.77 13.7353ZM301.075 16.4463V28H303.075V16.4463H301.075ZM302.075 27H296.411V29H302.075V27ZM317.23 27.0693L316.717 27.9277L316.723 27.9313L317.23 27.0693ZM313.774 23.3466L312.88 23.7958L312.882 23.7998L313.774 23.3466ZM313.787 12.3645L312.897 11.9074L312.896 11.9093L313.787 12.3645ZM317.257 8.65511L317.766 9.51574L317.77 9.5135L317.257 8.65511ZM327.282 8.28284L327.717 7.38253L327.282 8.28284ZM331.749 15.13V16.13H332.801L332.748 15.0795L331.749 15.13ZM326.404 15.13L325.415 15.2762L325.541 16.13H326.404V15.13ZM325.208 12.6703L324.505 13.3824L324.516 13.3921L325.208 12.6703ZM320.395 12.4443L320.982 13.2535L320.984 13.2521L320.395 12.4443ZM318.866 21.113L317.933 21.475L317.937 21.4828L318.866 21.113ZM320.395 23.2003L320.984 22.3926L320.395 23.2003ZM324.436 23.5194L323.983 22.628L323.977 22.6312L324.436 23.5194ZM325.726 22.3627L324.896 21.8047L324.894 21.808L325.726 22.3627ZM326.404 20.5147V19.5147H325.541L325.415 20.3681L326.404 20.5147ZM331.749 20.5147L332.747 20.5714L332.807 19.5147H331.749V20.5147ZM330.473 24.6362L329.631 24.0961L329.63 24.0977L330.473 24.6362ZM327.348 27.4017L326.901 26.5073L327.348 27.4017ZM322.628 27.3989C320.68 27.3989 319.063 26.987 317.737 26.2074L316.723 27.9313C318.412 28.9243 320.393 29.3989 322.628 29.3989V27.3989ZM317.743 26.2109C316.411 25.4144 315.388 24.3155 314.665 22.8934L312.882 23.7998C313.772 25.5509 315.054 26.9338 316.717 27.9277L317.743 26.2109ZM314.667 22.8974C313.95 21.4712 313.577 19.8035 313.577 17.8689H311.577C311.577 20.0647 312.002 22.0488 312.88 23.7958L314.667 22.8974ZM313.577 17.8689C313.577 15.9069 313.955 14.2332 314.677 12.8197L312.896 11.9093C312.006 13.6513 311.577 15.6472 311.577 17.8689H313.577ZM314.676 12.8217C315.408 11.3983 316.435 10.3036 317.766 9.51574L316.748 7.79449C315.083 8.77933 313.797 10.1576 312.897 11.9074L314.676 12.8217ZM317.77 9.5135C319.086 8.72671 320.684 8.31227 322.602 8.31227V6.31227C320.389 6.31227 318.423 6.79306 316.744 7.79672L317.77 9.5135ZM322.602 8.31227C324.262 8.31227 325.668 8.61347 326.846 9.18315L327.717 7.38253C326.219 6.65812 324.504 6.31227 322.602 6.31227V8.31227ZM326.846 9.18315C328.034 9.75711 328.952 10.5503 329.627 11.5631L331.291 10.4537C330.407 9.12655 329.207 8.10266 327.717 7.38253L326.846 9.18315ZM329.627 11.5631C330.295 12.5652 330.678 13.76 330.75 15.1805L332.748 15.0795C332.66 13.3445 332.183 11.7916 331.291 10.4537L329.627 11.5631ZM331.749 14.13H326.404V16.13H331.749V14.13ZM327.393 14.9838C327.215 13.7793 326.73 12.745 325.9 11.9486L324.516 13.3921C324.979 13.8366 325.292 14.4421 325.415 15.2762L327.393 14.9838ZM325.91 11.9583C325.055 11.1154 323.95 10.7264 322.695 10.7264V12.7264C323.514 12.7264 324.084 12.9667 324.505 13.3824L325.91 11.9583ZM322.695 10.7264C321.623 10.7264 320.646 11.0227 319.805 11.6365L320.984 13.2521C321.455 12.9086 322.011 12.7264 322.695 12.7264V10.7264ZM319.807 11.6351C318.978 12.2374 318.369 13.0918 317.951 14.1322L319.807 14.8781C320.115 14.1102 320.518 13.5908 320.982 13.2535L319.807 11.6351ZM317.951 14.1322C317.528 15.186 317.334 16.4147 317.334 17.7891H319.334C319.334 16.593 319.504 15.6324 319.807 14.8781L317.951 14.1322ZM317.334 17.7891C317.334 19.1773 317.522 20.4154 317.934 21.475L319.798 20.7509C319.5 19.9846 319.334 19.0068 319.334 17.7891H317.334ZM317.937 21.4828C318.355 22.5338 318.968 23.3971 319.805 24.0081L320.984 22.3926C320.51 22.0463 320.103 21.518 319.795 20.7431L317.937 21.4828ZM319.805 24.0081C320.646 24.6219 321.623 24.9183 322.695 24.9183V22.9183C322.011 22.9183 321.455 22.736 320.984 22.3926L319.805 24.0081ZM322.695 24.9183C323.483 24.9183 324.224 24.7553 324.896 24.4076L323.977 22.6312C323.621 22.8154 323.201 22.9183 322.695 22.9183V24.9183ZM324.89 24.4108C325.571 24.0643 326.13 23.5603 326.558 22.9174L324.894 21.808C324.649 22.1756 324.348 22.4428 323.983 22.628L324.89 24.4108ZM326.556 22.9207C326.998 22.2636 327.269 21.5014 327.393 20.6612L325.415 20.3681C325.327 20.9639 325.146 21.4337 324.896 21.8047L326.556 22.9207ZM326.404 21.5147H331.749V19.5147H326.404V21.5147ZM330.751 20.4579C330.671 21.8648 330.291 23.0684 329.631 24.0961L331.314 25.1764C332.179 23.8286 332.65 22.2845 332.747 20.5714L330.751 20.4579ZM329.63 24.0977C328.98 25.1148 328.079 25.918 326.901 26.5073L327.795 28.2961C329.276 27.5558 330.458 26.5154 331.315 25.1748L329.63 24.0977ZM326.901 26.5073C325.738 27.0889 324.324 27.3989 322.628 27.3989V29.3989C324.567 29.3989 326.299 29.0441 327.795 28.2961L326.901 26.5073ZM343.66 16.1936L342.66 16.1835V16.1936H343.66ZM343.66 28V29H344.66V28H343.66ZM337.996 28H336.996V29H337.996V28ZM337.996 0.770909V-0.229091H336.996V0.770909H337.996ZM343.5 0.770909H344.5V-0.229091H343.5V0.770909ZM343.5 11.1813H342.5V12.1813H343.5V11.1813ZM343.74 11.1813V12.1813H344.428L344.674 11.5384L343.74 11.1813ZM345.973 8.34932L346.526 9.18249L346.531 9.17916L345.973 8.34932ZM353.552 8.24295L353.045 9.10493L353.053 9.10986L353.552 8.24295ZM356.025 10.8888L355.133 11.3415L355.137 11.3497L356.025 10.8888ZM356.902 14.997L355.902 14.9915V14.997H356.902ZM356.902 28V29H357.902V28H356.902ZM351.238 28H350.238V29H351.238V28ZM351.238 16.0075L350.238 16.0005V16.0075H351.238ZM350.281 13.0692L349.542 13.7428L349.547 13.7479L350.281 13.0692ZM345.548 12.5108L345.064 11.6354L345.059 11.6385L345.548 12.5108ZM344.165 13.9467L343.284 13.4748L343.281 13.4794L344.165 13.9467ZM342.66 16.1936V28H344.66V16.1936H342.66ZM343.66 27H337.996V29H343.66V27ZM338.996 28V0.770909H336.996V28H338.996ZM337.996 1.77091H343.5V-0.229091H337.996V1.77091ZM342.5 0.770909V11.1813H344.5V0.770909H342.5ZM343.5 12.1813H343.74V10.1813H343.5V12.1813ZM344.674 11.5384C345.064 10.5179 345.68 9.74435 346.526 9.18247L345.42 7.51616C344.21 8.31929 343.337 9.43366 342.806 10.8241L344.674 11.5384ZM346.531 9.17916C347.357 8.62375 348.44 8.31227 349.842 8.31227V6.31227C348.143 6.31227 346.646 6.69216 345.415 7.51947L346.531 9.17916ZM349.842 8.31227C351.111 8.31227 352.167 8.58836 353.045 9.10489L354.059 7.38102C352.827 6.65664 351.41 6.31227 349.842 6.31227V8.31227ZM353.053 9.10986C353.939 9.61925 354.631 10.3528 355.133 11.3414L356.916 10.4361C356.248 9.12014 355.292 8.08984 354.05 7.37605L353.053 9.10986ZM355.137 11.3497C355.641 12.3187 355.91 13.5203 355.902 14.9915L357.902 15.0026C357.912 13.2829 357.597 11.7456 356.912 10.4278L355.137 11.3497ZM355.902 14.997V28H357.902V14.997H355.902ZM356.902 27H351.238V29H356.902V27ZM352.238 28V16.0075H350.238V28H352.238ZM352.238 16.0145C352.248 14.5854 351.884 13.3307 351.016 12.3905L349.547 13.7479C349.972 14.2081 350.246 14.9123 350.238 16.0005L352.238 16.0145ZM351.02 12.3956C350.152 11.4433 348.963 11.0189 347.595 11.0189V13.0189C348.532 13.0189 349.134 13.2946 349.542 13.7428L351.02 12.3956ZM347.595 11.0189C346.679 11.0189 345.826 11.2151 345.064 11.6354L346.031 13.3862C346.458 13.1506 346.97 13.0189 347.595 13.0189V11.0189ZM345.059 11.6385C344.297 12.0658 343.704 12.6886 343.284 13.4748L345.047 14.4186C345.3 13.9461 345.629 13.6117 346.037 13.3831L345.059 11.6385ZM343.281 13.4794C342.862 14.2718 342.67 15.1857 342.66 16.1835L344.66 16.2037C344.668 15.4466 344.812 14.8626 345.049 14.414L343.281 13.4794Z" fill="white" mask="url(#path-1-outside-1_694_2032)"/>
</svg>
