<svg width="125" height="125" viewBox="0 0 125 125" fill="none" xmlns="http://www.w3.org/2000/svg">
<path d="M86.242 30.3282C89.0104 31.6787 91.6033 33.3256 93.9991 35.2028L94.9377 35.9679C95.2502 36.2233 95.568 36.4722 95.866 36.7448C96.4683 37.282 97.0933 37.7914 97.679 38.3428C98.613 39.1637 99.4971 40.0399 100.361 40.936C100.781 41.3959 101.211 41.8462 101.622 42.3154L102.824 43.7495L99.8246 45.0432C99.2888 42.0553 98.9988 39.0272 98.9517 36.0126C98.8871 32.9959 99.053 29.9965 99.3246 27.0289C99.5662 24.4575 99.8877 21.9089 100.23 19.3786L100.237 19.319L100.24 19.2862C100.241 19.265 100.241 19.247 100.24 19.2354C100.241 19.215 100.23 19.2214 100.265 19.333C100.283 19.3824 100.319 19.4817 100.397 19.5918C100.48 19.7201 100.612 19.8584 100.803 19.9849C100.898 20.04 100.994 20.0958 101.099 20.1274C101.191 20.1642 101.283 20.1832 101.385 20.1968C101.593 20.2238 101.75 20.2006 101.833 20.1824C101.914 20.1645 101.934 20.1528 101.907 20.164L101.722 20.2404L101.279 20.4245L100.391 20.7923L96.8346 22.2472C92.0893 24.172 87.3329 26.0455 82.5972 27.9454C81.1686 28.5188 79.6763 28.9728 78.2159 29.417C76.8172 29.8412 75.7672 29.7682 74.99 29.4251C73.8578 28.9258 74.2813 27.7146 76.1136 26.7174C77.2722 26.0866 78.6002 25.546 79.8773 25.0885C85.7562 22.9763 91.5168 20.6526 97.1388 18.0171C97.9136 17.6522 98.6996 17.2687 99.4878 16.9081C99.6857 16.8198 99.8832 16.7317 100.08 16.6439L100.393 16.5107C100.536 16.4543 100.757 16.3603 101.11 16.2975C101.287 16.2676 101.5 16.249 101.735 16.2648C101.976 16.2794 102.211 16.3352 102.434 16.4111C102.911 16.5772 103.338 16.9259 103.584 17.2625C103.836 17.5997 103.962 17.922 104.032 18.1764C104.102 18.4356 104.134 18.6678 104.144 18.8686C104.161 19.1964 104.139 19.4753 104.097 19.7535L104.08 19.8577L104.067 19.9231L104.042 20.0447L103.994 20.2882L103.807 21.2637C103.689 21.9142 103.578 22.5661 103.478 23.2185C103.279 24.523 103.111 25.8308 102.977 27.1374C102.699 29.7522 102.551 32.3602 102.434 34.9539C102.37 36.5555 102.379 38.1609 102.477 39.7584C102.578 41.3553 102.756 42.9444 102.994 44.5219L102.995 44.5264C103.12 45.3589 102.544 46.135 101.707 46.2599C101.144 46.344 100.605 46.1094 100.275 45.6945L99.074 44.1743L98.2387 43.205C98.0986 43.044 97.9624 42.8795 97.8193 42.7212L97.3789 42.2558L96.4966 41.3252L95.5728 40.4341L95.1095 39.9892L94.6271 39.5651L93.6613 38.7162L92.6573 37.9121L92.1549 37.5095L91.6343 37.1313L90.5928 36.3733L89.5165 35.6657L88.9778 35.3114L88.4236 34.9831L87.313 34.3279L86.1723 33.7274L85.601 33.4277C85.4085 33.3322 85.2114 33.2467 85.0168 33.1556L83.8449 32.616C83.4483 32.451 83.047 32.2973 82.6479 32.137C80.0874 31.1384 77.6616 30.2845 75.4024 29.271C74.3642 28.7932 74.4822 27.9786 75.8223 27.9638C76.771 27.9287 77.7301 28.0257 78.7067 28.121C79.1933 28.1758 79.6734 28.2729 80.1598 28.3558L80.888 28.4911C81.1289 28.5433 81.3659 28.6084 81.6048 28.6683C81.997 28.769 82.3894 28.8801 82.7816 28.9979C83.1734 29.1165 83.552 29.2746 83.9372 29.4177C84.3192 29.5686 84.7073 29.7077 85.083 29.873C85.4577 30.04 85.8323 30.2069 86.2057 30.3733C86.2175 30.3586 86.2286 30.3449 86.242 30.3282Z" fill="white"/>
<path d="M73.1053 56.5517C71.7296 57.3839 70.4544 58.2834 69.3658 59.3089C68.2897 60.3419 67.4277 61.5144 66.8089 62.8308L66.8655 62.6853C66.536 63.5935 66.3592 64.6838 66.1543 65.8843C65.9446 67.0798 65.7012 68.4212 65.09 69.7598L65.0734 69.7962C65.0563 69.8336 65.0367 69.871 65.0163 69.9057C64.1182 71.4301 62.9307 72.7548 61.6272 73.8498C60.8043 74.5293 59.9406 75.1294 59.0619 75.6771C58.1815 76.222 57.2844 76.7025 56.3887 77.1635C54.595 78.0742 52.8002 78.8714 51.0808 79.714C49.0421 80.7127 47.0824 81.764 45.4416 83.0753C44.6236 83.73 43.8934 84.4498 43.2916 85.243C42.6885 86.0354 42.216 86.9014 41.8783 87.828L41.9373 87.6298C41.7896 88.3076 41.7393 88.9774 41.797 89.6403C41.8551 90.3035 42.0263 90.9635 42.2864 91.6295C42.8057 92.9642 43.6869 94.3003 44.6079 95.7287C45.5273 97.1568 46.4997 98.7103 47.1725 100.497C47.5087 101.387 47.7646 102.33 47.9089 103.294C48.0546 104.258 48.0885 105.238 48.0265 106.202C47.9636 107.18 47.1156 107.922 46.1325 107.86C45.9319 107.847 45.7412 107.801 45.5652 107.729L45.5299 107.714C42.9392 106.636 40.2577 105.825 37.5572 105.392C36.2089 105.183 34.8536 105.061 33.5267 105.092C33.1982 105.111 32.8656 105.115 32.5406 105.143C32.2181 105.177 31.8893 105.197 31.577 105.252C31.2577 105.293 30.9524 105.356 30.652 105.42C30.5105 105.458 30.3547 105.489 30.2247 105.531L30.0288 105.59L29.949 105.618L29.9131 105.63C29.9149 105.629 29.9166 105.629 29.918 105.628L27.8369 105.221C26.4602 103.842 25.2924 102.308 24.3156 100.675C23.3475 99.0364 22.5595 97.3018 21.9627 95.497C21.2475 93.2898 20.8028 90.9741 20.7699 88.6047L20.7603 88.1612L20.7747 87.7157C20.7878 87.4186 20.7905 87.1217 20.814 86.8244C20.8712 86.2294 20.9215 85.6342 21.035 85.0417C21.1177 84.447 21.2812 83.861 21.4213 83.2736C21.6054 82.6944 21.7704 82.1096 22.0147 81.5478C22.2248 80.9744 22.5155 80.4325 22.7858 79.883C22.9368 79.6162 23.0978 79.3544 23.2549 79.0907C23.3357 78.9603 23.4095 78.8252 23.4968 78.699L23.7638 78.3236C24.4555 77.3058 25.305 76.4087 26.2014 75.5849C28.0286 73.9667 30.1483 72.7652 32.3381 71.9199L32.1791 71.989C33.7885 71.2076 35.4111 70.6739 36.9841 70.1935C38.5583 69.7156 40.093 69.2971 41.548 68.8131C43.0011 68.3306 44.3764 67.7824 45.5737 67.0748C46.7729 66.3695 47.7759 65.5027 48.5264 64.4452L48.4192 64.613C48.8614 63.8396 49.1037 62.7957 49.2753 61.5578C49.3655 60.9413 49.4435 60.283 49.5568 59.5826C49.5859 59.4069 49.6128 59.2366 49.6523 59.0351L49.709 58.746L49.782 58.4801L50.0789 57.4175C50.1676 57.0587 50.3124 56.7243 50.434 56.3796L50.6247 55.8662L50.7206 55.6098L50.8371 55.3583L51.311 54.3549C51.4752 54.023 51.6803 53.7065 51.8651 53.3827C52.6459 52.1105 53.6017 50.9135 54.7205 49.919C55.8346 48.9217 57.0592 48.0952 58.31 47.3993C59.5624 46.6963 60.8423 46.1488 62.1076 45.6361C64.6431 44.62 67.1393 43.8259 69.5098 42.8773C71.25 42.189 72.9475 41.4629 74.5579 40.6141C76.1686 39.7678 77.6908 38.7963 79.0839 37.6814C81.7312 35.5332 83.3884 33.9506 84.6981 33.0914C85.6575 32.4694 86.0654 32.6928 85.8579 33.6822C85.7485 34.1723 85.5188 34.8738 85.041 35.6866C84.8065 36.0954 84.5515 36.5607 84.1978 37.0204C83.8499 37.4838 83.4853 38.0063 83.0111 38.5017C81.8712 39.8097 80.4872 41.0183 78.9957 42.0809C77.5031 43.1454 75.8926 44.05 74.2906 44.7971C72.8995 45.4389 71.4915 46.0014 70.0876 46.5233C68.6826 47.0456 67.2854 47.516 65.915 48.0038C63.1796 48.9726 60.5225 49.9815 58.3575 51.5243C56.1938 53.0514 54.586 55.1433 53.7441 57.6774L53.5735 58.1442C53.5229 58.3012 53.4857 58.4613 53.4408 58.6195C53.357 58.9356 53.2618 59.2559 53.1844 59.5676C53.1322 59.8541 53.076 60.2015 53.0296 60.545L52.8906 61.6148C52.7967 62.3477 52.6917 63.1237 52.5011 63.9339C52.3177 64.74 52.0225 65.5892 51.5801 66.3967C51.5595 66.4344 51.537 66.4705 51.513 66.505L51.4913 66.5358C50.8538 67.4448 50.0866 68.2655 49.2447 68.9703C48.4028 69.678 47.4853 70.2566 46.5546 70.7562C44.685 71.7489 42.758 72.3994 40.9003 72.9992C38.4321 73.7907 35.9743 74.5097 33.9234 75.532C33.8872 75.5501 33.8506 75.5666 33.8136 75.5815L33.7647 75.601C32.2768 76.1965 30.9012 76.9245 29.6882 77.776C28.7605 78.4368 27.9171 79.2009 27.1987 80.0709C26.4869 80.9456 25.9128 81.9284 25.4738 82.978C24.5934 85.0793 24.2952 87.4599 24.5032 89.8286C24.7011 92.1992 25.348 94.5684 26.3603 96.7649C27.3679 98.9594 28.7175 101.017 30.3821 102.688L28.525 102.325L28.6515 102.276L28.7423 102.245L28.9178 102.185L29.2424 102.089C29.4586 102.026 29.6609 101.984 29.8712 101.932C30.2829 101.847 30.6926 101.769 31.0974 101.72C31.5049 101.655 31.9056 101.634 32.3094 101.596C32.7114 101.57 33.1104 101.564 33.5109 101.549C35.1064 101.534 36.6715 101.703 38.203 101.973C41.2068 102.515 44.0906 103.444 46.8481 104.627L44.6644 105.949C44.7769 104.485 44.5783 103.042 44.0594 101.642C43.5487 100.237 42.737 98.8802 41.8423 97.4675C40.9568 96.0517 39.9595 94.5628 39.2728 92.7638C38.9338 91.8683 38.6871 90.8938 38.6129 89.8917C38.5368 88.8902 38.6308 87.8787 38.8544 86.9267L38.8676 86.8708C38.8774 86.8289 38.8923 86.7847 38.9082 86.7463L39.2915 85.8395C39.8728 84.5863 40.669 83.4337 41.5945 82.4414C42.5197 81.4457 43.5631 80.6047 44.6416 79.8747C46.8072 78.417 49.096 77.3668 51.3145 76.3341C53.5338 75.3056 55.7171 74.3124 57.6735 73.0751C59.6272 71.8456 61.3274 70.3353 62.4143 68.4452L62.359 68.5549C62.7753 67.6504 62.9917 66.5758 63.1835 65.4168C63.3797 64.2592 63.5534 63.0001 63.9956 61.7201L63.9995 61.7088C64.0096 61.6795 64.0218 61.649 64.0341 61.6211C64.6527 60.2347 65.5161 58.9536 66.5313 57.8488C67.5457 56.7398 68.6972 55.8005 69.8864 54.9734C72.2747 53.3235 74.7936 52.0699 77.2153 50.7464C80.3063 49.0808 83.1951 47.3842 85.7175 45.3953C88.2551 43.4277 90.3887 41.1644 92.2189 38.8142C93.043 37.725 93.5954 37.2788 93.7959 37.4942C93.8931 37.6006 93.8957 37.8706 93.7843 38.3019C93.7287 38.5174 93.6446 38.7733 93.5298 39.0685C93.4137 39.3629 93.2437 39.6845 93.0504 40.049C91.935 42.0987 90.5291 44.0909 88.8436 45.8646L88.2089 46.5288L87.5453 47.1653C87.1076 47.5982 86.6328 47.9849 86.1724 48.3937C85.2254 49.1715 84.2521 49.9236 83.2457 50.6041C79.9519 52.8843 76.2673 54.5354 73.1037 56.4872C73.1049 56.5086 73.106 56.5285 73.1053 56.5517Z" fill="white"/>
</svg>
