<svg width="109" height="53" viewBox="0 0 109 53" fill="none" xmlns="http://www.w3.org/2000/svg">
<rect x="0.997327" y="0.778577" width="107.307" height="51.307" rx="7.76073" stroke="black" stroke-width="0.816919"/>
<path d="M17.2427 33.4321V20.2872H21.6842C22.7154 20.2872 23.5584 20.4733 24.2131 20.8456C24.872 21.2135 25.3598 21.712 25.6765 22.3411C25.9931 22.9701 26.1515 23.6718 26.1515 24.4463C26.1515 25.2208 25.9931 25.9247 25.6765 26.558C25.3641 27.1913 24.8806 27.6962 24.2259 28.0727C23.5712 28.445 22.7326 28.6311 21.7099 28.6311H18.5263V27.2191H21.6585C22.3646 27.2191 22.9315 27.0971 23.3594 26.8532C23.7873 26.6093 24.0976 26.2798 24.2901 25.8648C24.4869 25.4454 24.5854 24.9726 24.5854 24.4463C24.5854 23.92 24.4869 23.4493 24.2901 23.0342C24.0976 22.6192 23.7852 22.294 23.353 22.0586C22.9208 21.819 22.3475 21.6992 21.6329 21.6992H18.8344V33.4321H17.2427ZM28.5102 33.4321V23.5734H29.9736V25.0625H30.0763C30.2561 24.5747 30.5813 24.1789 31.0519 23.8751C31.5226 23.5713 32.0532 23.4194 32.6437 23.4194C32.755 23.4194 32.894 23.4215 33.0609 23.4258C33.2278 23.4301 33.354 23.4365 33.4396 23.445V24.9855C33.3883 24.9726 33.2706 24.9534 33.0866 24.9277C32.9069 24.8977 32.7165 24.8828 32.5153 24.8828C32.0361 24.8828 31.6082 24.9833 31.2317 25.1844C30.8594 25.3813 30.5641 25.6551 30.3459 26.006C30.132 26.3526 30.025 26.7484 30.025 27.1934V33.4321H28.5102ZM38.9402 33.6375C38.0502 33.6375 37.2693 33.4257 36.5975 33.0021C35.93 32.5785 35.4079 31.9858 35.0314 31.2242C34.6591 30.4625 34.473 29.5725 34.473 28.5541C34.473 27.5272 34.6591 26.6307 35.0314 25.8648C35.4079 25.0988 35.93 24.5041 36.5975 24.0805C37.2693 23.6568 38.0502 23.445 38.9402 23.445C39.8302 23.445 40.609 23.6568 41.2765 24.0805C41.9483 24.5041 42.4704 25.0988 42.8426 25.8648C43.2192 26.6307 43.4074 27.5272 43.4074 28.5541C43.4074 29.5725 43.2192 30.4625 42.8426 31.2242C42.4704 31.9858 41.9483 32.5785 41.2765 33.0021C40.609 33.4257 39.8302 33.6375 38.9402 33.6375ZM38.9402 32.2768C39.6163 32.2768 40.1725 32.1035 40.609 31.7569C41.0455 31.4103 41.3685 30.9546 41.5782 30.3898C41.7879 29.825 41.8927 29.2131 41.8927 28.5541C41.8927 27.8951 41.7879 27.2811 41.5782 26.712C41.3685 26.1429 41.0455 25.6829 40.609 25.3321C40.1725 24.9812 39.6163 24.8057 38.9402 24.8057C38.2641 24.8057 37.7079 24.9812 37.2714 25.3321C36.835 25.6829 36.5119 26.1429 36.3022 26.712C36.0926 27.2811 35.9877 27.8951 35.9877 28.5541C35.9877 29.2131 36.0926 29.825 36.3022 30.3898C36.5119 30.9546 36.835 31.4103 37.2714 31.7569C37.7079 32.1035 38.2641 32.2768 38.9402 32.2768ZM45.7197 37.1292V23.5734H47.1831V25.1395H47.3628C47.4741 24.9683 47.6281 24.7501 47.8249 24.4848C48.0261 24.2152 48.3127 23.9756 48.685 23.766C49.0616 23.552 49.5708 23.445 50.2126 23.445C51.0427 23.445 51.7744 23.6526 52.4077 24.0676C53.041 24.4827 53.5352 25.071 53.8904 25.8327C54.2455 26.5943 54.4231 27.4929 54.4231 28.5284C54.4231 29.5725 54.2455 30.4775 53.8904 31.2434C53.5352 32.0051 53.0431 32.5956 52.4141 33.0149C51.7851 33.43 51.0598 33.6375 50.2383 33.6375C49.605 33.6375 49.0979 33.5327 48.7171 33.323C48.3363 33.1091 48.0432 32.8673 47.8378 32.5977C47.6324 32.3239 47.4741 32.0971 47.3628 31.9174H47.2344V37.1292H45.7197ZM47.2088 28.5028C47.2088 29.2473 47.3179 29.9041 47.5361 30.4732C47.7543 31.038 48.0731 31.4809 48.4925 31.8018C48.9118 32.1185 49.4253 32.2768 50.0329 32.2768C50.6662 32.2768 51.1946 32.1099 51.6182 31.7762C52.0461 31.4381 52.3671 30.9846 52.581 30.4155C52.7992 29.8421 52.9084 29.2045 52.9084 28.5028C52.9084 27.8096 52.8014 27.1848 52.5874 26.6286C52.3778 26.068 52.059 25.6252 51.6311 25.3C51.2075 24.9705 50.6747 24.8057 50.0329 24.8057C49.4167 24.8057 48.899 24.9619 48.4796 25.2743C48.0603 25.5824 47.7436 26.0145 47.5297 26.5708C47.3157 27.1228 47.2088 27.7668 47.2088 28.5028ZM61.0213 23.5734V24.8571H55.9122V23.5734H61.0213ZM57.4013 21.2114H58.916V30.608C58.916 31.0359 58.9781 31.3568 59.1021 31.5708C59.2305 31.7804 59.3931 31.9217 59.59 31.9944C59.7911 32.0629 60.0029 32.0971 60.2254 32.0971C60.3923 32.0971 60.5292 32.0885 60.6362 32.0714C60.7431 32.05 60.8287 32.0329 60.8929 32.0201L61.201 33.3808C61.0983 33.4193 60.9549 33.4578 60.7709 33.4963C60.587 33.5391 60.3537 33.5605 60.0713 33.5605C59.6434 33.5605 59.2241 33.4685 58.8133 33.2845C58.4068 33.1005 58.0688 32.8202 57.7992 32.4437C57.5339 32.0671 57.4013 31.5922 57.4013 31.0188V21.2114ZM67.3274 33.6375C66.3775 33.6375 65.558 33.4278 64.8691 33.0085C64.1845 32.5849 63.656 31.9944 63.2838 31.237C62.9158 30.4754 62.7318 29.5896 62.7318 28.5798C62.7318 27.5699 62.9158 26.6799 63.2838 25.9097C63.656 25.1352 64.1738 24.5319 64.837 24.0997C65.5046 23.6633 66.2833 23.445 67.1733 23.445C67.6868 23.445 68.1939 23.5306 68.6945 23.7018C69.1952 23.8729 69.6509 24.1511 70.0616 24.5362C70.4724 24.917 70.7998 25.4219 71.0437 26.0509C71.2876 26.6799 71.4095 27.4544 71.4095 28.3744V29.0162H63.8101V27.7069H69.8691C69.8691 27.1506 69.7578 26.6543 69.5353 26.2178C69.3171 25.7813 69.0047 25.4369 68.5982 25.1844C68.196 24.932 67.7211 24.8057 67.1733 24.8057C66.57 24.8057 66.048 24.9555 65.6072 25.255C65.1708 25.5503 64.8349 25.9354 64.5995 26.4103C64.3642 26.8853 64.2465 27.3945 64.2465 27.9379V28.8108C64.2465 29.5554 64.3749 30.1865 64.6316 30.7043C64.8927 31.2178 65.2542 31.6093 65.7164 31.8789C66.1785 32.1442 66.7155 32.2768 67.3274 32.2768C67.7253 32.2768 68.0848 32.2212 68.4057 32.1099C68.7309 31.9944 69.0112 31.8232 69.2465 31.5965C69.4818 31.3654 69.6637 31.0787 69.7921 30.7364L71.2555 31.1472C71.1014 31.6435 70.8426 32.08 70.4788 32.4565C70.1151 32.8288 69.6658 33.1198 69.131 33.3294C68.5961 33.5348 67.9949 33.6375 67.3274 33.6375ZM77.7189 33.6375C76.7946 33.6375 75.9987 33.4193 75.3312 32.9828C74.6637 32.5464 74.1502 31.9452 73.7908 31.1793C73.4313 30.4133 73.2516 29.5383 73.2516 28.5541C73.2516 27.5528 73.4356 26.6692 73.8036 25.9033C74.1759 25.1331 74.6936 24.5319 75.3569 24.0997C76.0244 23.6633 76.8032 23.445 77.6932 23.445C78.3864 23.445 79.0111 23.5734 79.5674 23.8301C80.1236 24.0869 80.5793 24.4463 80.9345 24.9084C81.2896 25.3706 81.51 25.9097 81.5956 26.5259H80.0808C79.9653 26.0766 79.7086 25.6786 79.3106 25.3321C78.917 24.9812 78.3864 24.8057 77.7189 24.8057C77.1284 24.8057 76.6106 24.9598 76.1656 25.2679C75.7249 25.5717 75.3804 26.0017 75.1322 26.558C74.8883 27.11 74.7664 27.7582 74.7664 28.5028C74.7664 29.2644 74.8862 29.9277 75.1258 30.4925C75.3697 31.0573 75.712 31.4959 76.1528 31.8083C76.5978 32.1206 77.1198 32.2768 77.7189 32.2768C78.1125 32.2768 78.4698 32.2083 78.7907 32.0714C79.1117 31.9345 79.3834 31.7377 79.6059 31.4809C79.8284 31.2242 79.9867 30.9161 80.0808 30.5567H81.5956C81.51 31.1386 81.2982 31.6628 80.9602 32.1292C80.6264 32.5913 80.1835 32.9593 79.6315 33.2332C79.0838 33.5027 78.4463 33.6375 77.7189 33.6375ZM85.3247 27.5015V33.4321H83.81V20.2872H85.3247V25.1138H85.4531C85.6841 24.6046 86.0307 24.2003 86.4929 23.9007C86.9593 23.5969 87.5797 23.445 88.3542 23.445C89.026 23.445 89.6144 23.5798 90.1193 23.8494C90.6242 24.1147 91.0157 24.5233 91.2939 25.0753C91.5763 25.623 91.7175 26.3205 91.7175 27.1677V33.4321H90.2027V27.2704C90.2027 26.4874 89.9995 25.8819 89.593 25.454C89.1908 25.0218 88.6324 24.8057 87.9178 24.8057C87.4214 24.8057 86.9764 24.9106 86.5827 25.1202C86.1933 25.3299 85.8853 25.6359 85.6585 26.0381C85.436 26.4403 85.3247 26.9281 85.3247 27.5015Z" fill="#020202"/>
</svg>
