<svg width="124" height="53" viewBox="0 0 124 53" fill="none" xmlns="http://www.w3.org/2000/svg">
<rect x="0.40846" y="0.974866" width="122.307" height="51.307" rx="7.76073" stroke="black" stroke-width="0.816919"/>
<path d="M16.6538 33.6284V20.4834H21.2494C22.1651 20.4834 22.9203 20.6418 23.5151 20.9584C24.1099 21.2708 24.5528 21.6922 24.8437 22.2228C25.1347 22.7492 25.2802 23.3332 25.2802 23.9751C25.2802 24.5399 25.1796 25.0063 24.9785 25.3743C24.7817 25.7423 24.5207 26.0333 24.1955 26.2472C23.8745 26.4612 23.5258 26.6195 23.1493 26.7222V26.8505C23.5515 26.8762 23.9558 27.0174 24.3623 27.2742C24.7688 27.5309 25.109 27.8989 25.3829 28.3781C25.6567 28.8574 25.7937 29.4436 25.7937 30.1368C25.7937 30.7957 25.6439 31.3884 25.3444 31.9147C25.0448 32.441 24.572 32.8582 23.9259 33.1663C23.2798 33.4744 22.4389 33.6284 21.4034 33.6284H16.6538ZM18.2456 32.2164H21.4034C22.4432 32.2164 23.1813 32.0152 23.6178 31.613C24.0585 31.2065 24.2789 30.7144 24.2789 30.1368C24.2789 29.6918 24.1655 29.281 23.9387 28.9044C23.7119 28.5236 23.3889 28.2198 22.9695 27.993C22.5502 27.762 22.0538 27.6464 21.4805 27.6464H18.2456V32.2164ZM18.2456 26.26H21.198C21.6773 26.26 22.1095 26.1659 22.4946 25.9776C22.884 25.7894 23.192 25.5241 23.4188 25.1817C23.6499 24.8394 23.7654 24.4372 23.7654 23.9751C23.7654 23.3974 23.5643 22.9075 23.1621 22.5053C22.7599 22.0987 22.1223 21.8955 21.2494 21.8955H18.2456V26.26ZM29.7185 20.4834V33.6284H28.2038V20.4834H29.7185ZM36.498 33.8338C35.608 33.8338 34.8271 33.622 34.1553 33.1984C33.4878 32.7748 32.9657 32.1821 32.5892 31.4205C32.2169 30.6588 32.0308 29.7688 32.0308 28.7504C32.0308 27.7234 32.2169 26.827 32.5892 26.0611C32.9657 25.2951 33.4878 24.7004 34.1553 24.2767C34.8271 23.8531 35.608 23.6413 36.498 23.6413C37.388 23.6413 38.1668 23.8531 38.8343 24.2767C39.5061 24.7004 40.0282 25.2951 40.4004 26.0611C40.777 26.827 40.9653 27.7234 40.9653 28.7504C40.9653 29.7688 40.777 30.6588 40.4004 31.4205C40.0282 32.1821 39.5061 32.7748 38.8343 33.1984C38.1668 33.622 37.388 33.8338 36.498 33.8338ZM36.498 32.4731C37.1741 32.4731 37.7304 32.2998 38.1668 31.9532C38.6033 31.6066 38.9263 31.1509 39.136 30.5861C39.3457 30.0213 39.4505 29.4094 39.4505 28.7504C39.4505 28.0914 39.3457 27.4774 39.136 26.9083C38.9263 26.3392 38.6033 25.8792 38.1668 25.5283C37.7304 25.1775 37.1741 25.002 36.498 25.002C35.8219 25.002 35.2657 25.1775 34.8292 25.5283C34.3928 25.8792 34.0697 26.3392 33.86 26.9083C33.6504 27.4774 33.5455 28.0914 33.5455 28.7504C33.5455 29.4094 33.6504 30.0213 33.86 30.5861C34.0697 31.1509 34.3928 31.6066 34.8292 31.9532C35.2657 32.2998 35.8219 32.4731 36.498 32.4731ZM47.2826 33.8338C46.3584 33.8338 45.5625 33.6156 44.8949 33.1791C44.2274 32.7427 43.714 32.1415 43.3545 31.3755C42.9951 30.6096 42.8154 29.7346 42.8154 28.7504C42.8154 27.7491 42.9994 26.8655 43.3674 26.0996C43.7396 25.3294 44.2574 24.7282 44.9206 24.296C45.5881 23.8595 46.3669 23.6413 47.2569 23.6413C47.9501 23.6413 48.5749 23.7697 49.1311 24.0264C49.6874 24.2832 50.1431 24.6426 50.4983 25.1047C50.8534 25.5668 51.0738 26.106 51.1594 26.7222H49.6446C49.5291 26.2729 49.2723 25.8749 48.8744 25.5283C48.4807 25.1775 47.9501 25.002 47.2826 25.002C46.6921 25.002 46.1744 25.1561 45.7293 25.4642C45.2886 25.768 44.9442 26.198 44.696 26.7543C44.4521 27.3062 44.3301 27.9545 44.3301 28.6991C44.3301 29.4607 44.4499 30.1239 44.6896 30.6888C44.9335 31.2536 45.2758 31.6922 45.7165 32.0046C46.1615 32.3169 46.6836 32.4731 47.2826 32.4731C47.6763 32.4731 48.0336 32.4046 48.3545 32.2677C48.6754 32.1308 48.9471 31.9339 49.1696 31.6772C49.3921 31.4205 49.5505 31.1124 49.6446 30.753H51.1594C51.0738 31.3349 50.862 31.8591 50.5239 32.3255C50.1902 32.7876 49.7473 33.1556 49.1953 33.4294C48.6476 33.699 48.01 33.8338 47.2826 33.8338ZM54.7858 30.0341L54.7601 28.1599H55.0682L59.3814 23.7697H61.2556L56.66 28.4166H56.5316L54.7858 30.0341ZM53.3737 33.6284V20.4834H54.8885V33.6284H53.3737ZM59.6381 33.6284L55.7871 28.7504L56.8654 27.6978L61.5637 33.6284H59.6381ZM66.8043 33.8338C65.8801 33.8338 65.0842 33.6156 64.4167 33.1791C63.7491 32.7427 63.2357 32.1415 62.8762 31.3755C62.5168 30.6096 62.3371 29.7346 62.3371 28.7504C62.3371 27.7491 62.5211 26.8655 62.8891 26.0996C63.2613 25.3294 63.7791 24.7282 64.4423 24.296C65.1098 23.8595 65.8886 23.6413 66.7786 23.6413C67.4718 23.6413 68.0966 23.7697 68.6528 24.0264C69.2091 24.2832 69.6648 24.6426 70.02 25.1047C70.3751 25.5668 70.5955 26.106 70.6811 26.7222H69.1663C69.0508 26.2729 68.794 25.8749 68.3961 25.5283C68.0024 25.1775 67.4718 25.002 66.8043 25.002C66.2138 25.002 65.6961 25.1561 65.251 25.4642C64.8103 25.768 64.4659 26.198 64.2177 26.7543C63.9738 27.3062 63.8518 27.9545 63.8518 28.6991C63.8518 29.4607 63.9716 30.1239 64.2113 30.6888C64.4552 31.2536 64.7975 31.6922 65.2382 32.0046C65.6832 32.3169 66.2053 32.4731 66.8043 32.4731C67.198 32.4731 67.5553 32.4046 67.8762 32.2677C68.1971 32.1308 68.4688 31.9339 68.6913 31.6772C68.9138 31.4205 69.0722 31.1124 69.1663 30.753H70.6811C70.5955 31.3349 70.3837 31.8591 70.0456 32.3255C69.7119 32.7876 69.269 33.1556 68.717 33.4294C68.1693 33.699 67.5317 33.8338 66.8043 33.8338ZM74.4102 27.6978V33.6284H72.8954V20.4834H74.4102V25.3101H74.5385C74.7696 24.8009 75.1162 24.3966 75.5783 24.097C76.0447 23.7932 76.6652 23.6413 77.4397 23.6413C78.1115 23.6413 78.6998 23.7761 79.2047 24.0457C79.7097 24.311 80.1012 24.7196 80.3793 25.2716C80.6617 25.8193 80.8029 26.5168 80.8029 27.364V33.6284H79.2882V27.4667C79.2882 26.6837 79.0849 26.0782 78.6784 25.6503C78.2762 25.2181 77.7178 25.002 77.0032 25.002C76.5069 25.002 76.0619 25.1069 75.6682 25.3165C75.2788 25.5262 74.9707 25.8321 74.7439 26.2344C74.5214 26.6366 74.4102 27.1244 74.4102 27.6978ZM86.4752 33.8595C85.8505 33.8595 85.2836 33.7418 84.7744 33.5065C84.2652 33.2668 83.8608 32.9224 83.5613 32.4731C83.2617 32.0195 83.112 31.4718 83.112 30.83C83.112 30.2652 83.2232 29.8073 83.4457 29.4564C83.6682 29.1013 83.9656 28.8231 84.3379 28.622C84.7102 28.4209 85.121 28.2712 85.5702 28.1727C86.0238 28.07 86.4795 27.9887 86.9374 27.9288C87.5364 27.8518 88.0221 27.7941 88.3944 27.7555C88.7709 27.7128 89.0448 27.6421 89.2159 27.5437C89.3914 27.4453 89.4791 27.2742 89.4791 27.0303V26.9789C89.4791 26.3456 89.3058 25.8535 88.9592 25.5027C88.6169 25.1518 88.097 24.9764 87.3995 24.9764C86.6764 24.9764 86.1094 25.1347 85.6986 25.4513C85.2878 25.768 84.999 26.106 84.8321 26.4654L83.3944 25.952C83.6511 25.3529 83.9934 24.8865 84.4213 24.5527C84.8535 24.2147 85.3242 23.9794 85.8334 23.8467C86.3469 23.7098 86.8518 23.6413 87.3482 23.6413C87.6648 23.6413 88.0285 23.6798 88.4393 23.7568C88.8543 23.8296 89.2544 23.9815 89.6395 24.2126C90.0289 24.4436 90.352 24.7924 90.6087 25.2588C90.8655 25.7252 90.9938 26.3499 90.9938 27.133V33.6284H89.4791V32.2934H89.4021C89.2994 32.5073 89.1282 32.7363 88.8886 32.9802C88.649 33.2241 88.3302 33.4316 87.9322 33.6027C87.5343 33.7739 87.0486 33.8595 86.4752 33.8595ZM86.7063 32.4988C87.3054 32.4988 87.8103 32.3811 88.2211 32.1458C88.6361 31.9104 88.9485 31.6066 89.1582 31.2343C89.3721 30.8621 89.4791 30.4705 89.4791 30.0598V28.6734C89.4149 28.7504 89.2737 28.821 89.0555 28.8852C88.8415 28.9451 88.5933 28.9986 88.3109 29.0456C88.0328 29.0884 87.7611 29.1269 87.4958 29.1612C87.2348 29.1911 87.023 29.2168 86.8604 29.2382C86.4667 29.2895 86.0987 29.373 85.7564 29.4885C85.4183 29.5998 85.1445 29.7688 84.9348 29.9956C84.7294 30.2181 84.6267 30.5219 84.6267 30.907C84.6267 31.4333 84.8214 31.8313 85.2108 32.1008C85.6045 32.3661 86.103 32.4988 86.7063 32.4988ZM93.7586 33.6284V23.7697H95.2733V33.6284H93.7586ZM94.5288 22.1266C94.2335 22.1266 93.9789 22.026 93.765 21.8249C93.5553 21.6238 93.4505 21.382 93.4505 21.0996C93.4505 20.8172 93.5553 20.5754 93.765 20.3743C93.9789 20.1732 94.2335 20.0727 94.5288 20.0727C94.824 20.0727 95.0765 20.1732 95.2862 20.3743C95.5001 20.5754 95.6071 20.8172 95.6071 21.0996C95.6071 21.382 95.5001 21.6238 95.2862 21.8249C95.0765 22.026 94.824 22.1266 94.5288 22.1266ZM99.5625 27.6978V33.6284H98.0477V23.7697H99.5111V25.3101H99.6395C99.8705 24.8095 100.221 24.4073 100.692 24.1034C101.163 23.7954 101.77 23.6413 102.515 23.6413C103.182 23.6413 103.767 23.7782 104.267 24.0521C104.768 24.3217 105.157 24.7325 105.435 25.2844C105.713 25.8321 105.853 26.5253 105.853 27.364V33.6284H104.338V27.4667C104.338 26.6922 104.137 26.0889 103.734 25.6567C103.332 25.2203 102.78 25.002 102.078 25.002C101.595 25.002 101.163 25.1069 100.782 25.3165C100.405 25.5262 100.108 25.8321 99.8898 26.2344C99.6716 26.6366 99.5625 27.1244 99.5625 27.6978Z" fill="#020202"/>
</svg>
