<svg width="132" height="53" viewBox="0 0 132 53" fill="none" xmlns="http://www.w3.org/2000/svg">
<rect x="1.19362" y="0.778577" width="130.307" height="51.307" rx="7.76073" stroke="black" stroke-width="0.816919"/>
<path d="M17.4389 33.4321V20.2872H25.3721V21.6992H19.0307V26.1408H24.9614V27.5528H19.0307V32.0201H25.4748V33.4321H17.4389ZM32.0409 33.6375C31.1167 33.6375 30.3208 33.4193 29.6532 32.9828C28.9857 32.5464 28.4723 31.9452 28.1128 31.1793C27.7534 30.4133 27.5737 29.5383 27.5737 28.5541C27.5737 27.5528 27.7577 26.6692 28.1257 25.9033C28.4979 25.1331 29.0157 24.5319 29.6789 24.0997C30.3464 23.6633 31.1252 23.445 32.0152 23.445C32.7084 23.445 33.3332 23.5734 33.8894 23.8301C34.4457 24.0869 34.9014 24.4463 35.2565 24.9084C35.6117 25.3706 35.8321 25.9097 35.9176 26.5259H34.4029C34.2874 26.0766 34.0306 25.6786 33.6327 25.3321C33.239 24.9812 32.7084 24.8057 32.0409 24.8057C31.4504 24.8057 30.9327 24.9598 30.4876 25.2679C30.0469 25.5717 29.7025 26.0017 29.4543 26.558C29.2104 27.11 29.0884 27.7582 29.0884 28.5028C29.0884 29.2644 29.2082 29.9277 29.4479 30.4925C29.6918 31.0573 30.0341 31.4959 30.4748 31.8083C30.9198 32.1206 31.4419 32.2768 32.0409 32.2768C32.4346 32.2768 32.7919 32.2083 33.1128 32.0714C33.4337 31.9345 33.7054 31.7377 33.9279 31.4809C34.1504 31.2242 34.3088 30.9161 34.4029 30.5567H35.9176C35.8321 31.1386 35.6203 31.6628 35.2822 32.1292C34.9485 32.5913 34.5056 32.9593 33.9536 33.2332C33.4059 33.5027 32.7683 33.6375 32.0409 33.6375ZM42.1371 33.6375C41.2471 33.6375 40.4662 33.4257 39.7944 33.0021C39.1269 32.5785 38.6048 31.9858 38.2283 31.2242C37.856 30.4625 37.6699 29.5725 37.6699 28.5541C37.6699 27.5272 37.856 26.6307 38.2283 25.8648C38.6048 25.0988 39.1269 24.5041 39.7944 24.0805C40.4662 23.6568 41.2471 23.445 42.1371 23.445C43.0271 23.445 43.8059 23.6568 44.4734 24.0805C45.1452 24.5041 45.6673 25.0988 46.0395 25.8648C46.4161 26.6307 46.6044 27.5272 46.6044 28.5541C46.6044 29.5725 46.4161 30.4625 46.0395 31.2242C45.6673 31.9858 45.1452 32.5785 44.4734 33.0021C43.8059 33.4257 43.0271 33.6375 42.1371 33.6375ZM42.1371 32.2768C42.8132 32.2768 43.3695 32.1035 43.8059 31.7569C44.2424 31.4103 44.5654 30.9546 44.7751 30.3898C44.9848 29.825 45.0896 29.2131 45.0896 28.5541C45.0896 27.8951 44.9848 27.2811 44.7751 26.712C44.5654 26.1429 44.2424 25.6829 43.8059 25.3321C43.3695 24.9812 42.8132 24.8057 42.1371 24.8057C41.461 24.8057 40.9048 24.9812 40.4683 25.3321C40.0319 25.6829 39.7088 26.1429 39.4991 26.712C39.2895 27.2811 39.1846 27.8951 39.1846 28.5541C39.1846 29.2131 39.2895 29.825 39.4991 30.3898C39.7088 30.9546 40.0319 31.4103 40.4683 31.7569C40.9048 32.1035 41.461 32.2768 42.1371 32.2768ZM48.9166 33.4321V23.5734H50.38V25.1138H50.5084C50.7138 24.5875 51.0454 24.1789 51.5032 23.8879C51.9611 23.5927 52.5109 23.445 53.1528 23.445C53.8032 23.445 54.3445 23.5927 54.7766 23.8879C55.2131 24.1789 55.5533 24.5875 55.7972 25.1138H55.8999C56.1523 24.6046 56.531 24.2003 57.0359 23.9007C57.5409 23.5969 58.1463 23.445 58.8524 23.445C59.7338 23.445 60.4548 23.721 61.0154 24.273C61.5759 24.8207 61.8562 25.6744 61.8562 26.834V33.4321H60.3414V26.834C60.3414 26.1065 60.1425 25.5866 59.7445 25.2743C59.3466 24.9619 58.878 24.8057 58.3389 24.8057C57.6457 24.8057 57.1087 25.0154 56.7279 25.4347C56.347 25.8498 56.1566 26.3761 56.1566 27.0137V33.4321H54.6162V26.6799C54.6162 26.1194 54.4343 25.6679 54.0706 25.3256C53.7069 24.979 53.2384 24.8057 52.665 24.8057C52.2713 24.8057 51.9033 24.9106 51.561 25.1202C51.223 25.3299 50.9491 25.6209 50.7394 25.9932C50.5341 26.3611 50.4314 26.7869 50.4314 27.2704V33.4321H48.9166ZM64.6257 33.4321V23.5734H66.0892V25.1138H66.2175C66.4229 24.5875 66.7545 24.1789 67.2124 23.8879C67.6702 23.5927 68.2201 23.445 68.8619 23.445C69.5123 23.445 70.0536 23.5927 70.4858 23.8879C70.9222 24.1789 71.2624 24.5875 71.5063 25.1138H71.609C71.8615 24.6046 72.2402 24.2003 72.7451 23.9007C73.25 23.5969 73.8555 23.445 74.5615 23.445C75.443 23.445 76.164 23.721 76.7245 24.273C77.2851 24.8207 77.5653 25.6744 77.5653 26.834V33.4321H76.0506V26.834C76.0506 26.1065 75.8516 25.5866 75.4537 25.2743C75.0557 24.9619 74.5872 24.8057 74.048 24.8057C73.3548 24.8057 72.8178 25.0154 72.437 25.4347C72.0562 25.8498 71.8658 26.3761 71.8658 27.0137V33.4321H70.3253V26.6799C70.3253 26.1194 70.1435 25.6679 69.7798 25.3256C69.416 24.979 68.9475 24.8057 68.3741 24.8057C67.9805 24.8057 67.6125 24.9106 67.2701 25.1202C66.9321 25.3299 66.6583 25.6209 66.4486 25.9932C66.2432 26.3611 66.1405 26.7869 66.1405 27.2704V33.4321H64.6257ZM84.4684 33.6375C83.5184 33.6375 82.699 33.4278 82.0101 33.0085C81.3255 32.5849 80.797 31.9944 80.4248 31.237C80.0568 30.4754 79.8728 29.5896 79.8728 28.5798C79.8728 27.5699 80.0568 26.6799 80.4248 25.9097C80.797 25.1352 81.3148 24.5319 81.978 24.0997C82.6455 23.6633 83.4243 23.445 84.3143 23.445C84.8278 23.445 85.3349 23.5306 85.8355 23.7018C86.3361 23.8729 86.7919 24.1511 87.2026 24.5362C87.6134 24.917 87.9408 25.4219 88.1847 26.0509C88.4286 26.6799 88.5505 27.4544 88.5505 28.3744V29.0162H80.9511V27.7069H87.0101C87.0101 27.1506 86.8988 26.6543 86.6763 26.2178C86.4581 25.7813 86.1457 25.4369 85.7392 25.1844C85.337 24.932 84.862 24.8057 84.3143 24.8057C83.711 24.8057 83.189 24.9555 82.7482 25.255C82.3118 25.5503 81.9759 25.9354 81.7405 26.4103C81.5052 26.8853 81.3875 27.3945 81.3875 27.9379V28.8108C81.3875 29.5554 81.5159 30.1865 81.7726 30.7043C82.0336 31.2178 82.3952 31.6093 82.8573 31.8789C83.3195 32.1442 83.8565 32.2768 84.4684 32.2768C84.8663 32.2768 85.2258 32.2212 85.5467 32.1099C85.8719 31.9944 86.1521 31.8232 86.3875 31.5965C86.6228 31.3654 86.8047 31.0787 86.9331 30.7364L88.3965 31.1472C88.2424 31.6435 87.9835 32.08 87.6198 32.4565C87.2561 32.8288 86.8068 33.1198 86.272 33.3294C85.7371 33.5348 85.1359 33.6375 84.4684 33.6375ZM90.8547 33.4321V23.5734H92.3181V25.0625H92.4208C92.6005 24.5747 92.9257 24.1789 93.3964 23.8751C93.8671 23.5713 94.3977 23.4194 94.9882 23.4194C95.0995 23.4194 95.2385 23.4215 95.4054 23.4258C95.5723 23.4301 95.6985 23.4365 95.7841 23.445V24.9855C95.7327 24.9726 95.6151 24.9534 95.4311 24.9277C95.2514 24.8977 95.061 24.8828 94.8598 24.8828C94.3806 24.8828 93.9527 24.9833 93.5762 25.1844C93.2039 25.3813 92.9086 25.6551 92.6904 26.006C92.4765 26.3526 92.3695 26.7484 92.3695 27.1934V33.4321H90.8547ZM101.285 33.6375C100.36 33.6375 99.5646 33.4193 98.897 32.9828C98.2295 32.5464 97.7161 31.9452 97.3566 31.1793C96.9972 30.4133 96.8175 29.5383 96.8175 28.5541C96.8175 27.5528 97.0015 26.6692 97.3695 25.9033C97.7417 25.1331 98.2595 24.5319 98.9227 24.0997C99.5902 23.6633 100.369 23.445 101.259 23.445C101.952 23.445 102.577 23.5734 103.133 23.8301C103.689 24.0869 104.145 24.4463 104.5 24.9084C104.856 25.3706 105.076 25.9097 105.161 26.5259H103.647C103.531 26.0766 103.274 25.6786 102.876 25.3321C102.483 24.9812 101.952 24.8057 101.285 24.8057C100.694 24.8057 100.176 24.9598 99.7314 25.2679C99.2907 25.5717 98.9463 26.0017 98.6981 26.558C98.4542 27.11 98.3322 27.7582 98.3322 28.5028C98.3322 29.2644 98.452 29.9277 98.6917 30.4925C98.9356 31.0573 99.2779 31.4959 99.7186 31.8083C100.164 32.1206 100.686 32.2768 101.285 32.2768C101.678 32.2768 102.036 32.2083 102.357 32.0714C102.678 31.9345 102.949 31.7377 103.172 31.4809C103.394 31.2242 103.553 30.9161 103.647 30.5567H105.161C105.076 31.1386 104.864 31.6628 104.526 32.1292C104.192 32.5913 103.749 32.9593 103.197 33.2332C102.65 33.5027 102.012 33.6375 101.285 33.6375ZM111.509 33.6375C110.559 33.6375 109.74 33.4278 109.051 33.0085C108.366 32.5849 107.838 31.9944 107.466 31.237C107.098 30.4754 106.914 29.5896 106.914 28.5798C106.914 27.5699 107.098 26.6799 107.466 25.9097C107.838 25.1352 108.356 24.5319 109.019 24.0997C109.686 23.6633 110.465 23.445 111.355 23.445C111.869 23.445 112.376 23.5306 112.876 23.7018C113.377 23.8729 113.833 24.1511 114.244 24.5362C114.654 24.917 114.982 25.4219 115.226 26.0509C115.469 26.6799 115.591 27.4544 115.591 28.3744V29.0162H107.992V27.7069H114.051C114.051 27.1506 113.94 26.6543 113.717 26.2178C113.499 25.7813 113.187 25.4369 112.78 25.1844C112.378 24.932 111.903 24.8057 111.355 24.8057C110.752 24.8057 110.23 24.9555 109.789 25.255C109.353 25.5503 109.017 25.9354 108.781 26.4103C108.546 26.8853 108.428 27.3945 108.428 27.9379V28.8108C108.428 29.5554 108.557 30.1865 108.814 30.7043C109.075 31.2178 109.436 31.6093 109.898 31.8789C110.36 32.1442 110.897 32.2768 111.509 32.2768C111.907 32.2768 112.267 32.2212 112.588 32.1099C112.913 31.9944 113.193 31.8232 113.428 31.5965C113.664 31.3654 113.846 31.0787 113.974 30.7364L115.437 31.1472C115.283 31.6435 115.024 32.08 114.661 32.4565C114.297 32.8288 113.848 33.1198 113.313 33.3294C112.778 33.5348 112.177 33.6375 111.509 33.6375Z" fill="#020202"/>
</svg>
