<svg width="139" height="55" viewBox="0 0 139 55" fill="none" xmlns="http://www.w3.org/2000/svg">
<rect x="0.965332" y="0.689331" width="137.052" height="54.2712" rx="7.55312" fill="white"/>
<path d="M49.7207 16.3063C49.2075 16.3929 48.379 16.7391 47.8659 17.0854C46.9693 17.6851 46.2027 18.7176 45.8626 19.7563C45.739 20.1458 45.6462 20.8569 45.6895 21.1722L45.7142 21.4133L46.1532 21.37C47.1054 21.2835 47.8782 20.8878 48.7005 20.0655C49.1828 19.5832 49.3064 19.4163 49.5847 18.8598C49.9742 18.0808 50.1535 17.413 50.1535 16.7453C50.1535 16.2136 50.1659 16.2321 49.7207 16.3063Z" fill="black"/>
<path d="M48.9161 21.7287C48.6935 21.7781 48.2793 21.9018 47.9887 22.0069C47.6981 22.1058 47.1417 22.3037 46.7521 22.4459C45.8556 22.7674 45.7258 22.755 44.3965 22.2542C43.1537 21.7905 42.6406 21.6792 41.911 21.7348C39.6852 21.8894 37.8118 23.4166 37.0513 25.6918C36.7731 26.5327 36.668 27.2314 36.668 28.3195C36.6618 31.2625 37.7809 34.3168 39.7965 36.8332C40.3406 37.5195 40.9403 38.0513 41.4287 38.2924C41.8121 38.4779 41.8739 38.4902 42.5169 38.4902C43.197 38.484 43.197 38.484 44.0626 38.1378C45.1013 37.7236 45.4105 37.6556 46.1524 37.6556C46.8449 37.6556 47.2715 37.7545 48.0691 38.0883C49.3427 38.6201 50.0661 38.651 50.9503 38.2244C51.822 37.8039 53.1699 36.1284 54.0478 34.3725C54.3508 33.7728 54.8207 32.6475 54.7774 32.6228C53.6521 32.1096 52.632 31.1018 52.1868 30.0631C51.8035 29.1728 51.6984 27.8064 51.9395 26.8913C52.2115 25.8402 52.972 24.7397 53.8747 24.0719C54.221 23.8246 54.221 23.8185 53.7325 23.2806C53.1204 22.6128 52.1868 22.0687 51.2347 21.8276C50.5917 21.6607 49.4664 21.6112 48.9161 21.7287Z" fill="black"/>
<path d="M90.6504 28.2578V34.8116H91.4542H92.2579V28.2578V21.704H91.4542H90.6504V28.2578Z" fill="black"/>
<path d="M60.8312 28.5298C59.6873 31.9056 58.7476 34.7003 58.7476 34.7435C58.7476 34.793 58.9825 34.8116 59.539 34.8116H60.3242L60.9795 32.8454L61.6349 30.8855H63.8484H66.068L66.7295 32.8331L67.3911 34.7806L68.232 34.7992C68.6957 34.8054 69.0728 34.7992 69.0728 34.7745C69.0728 34.7497 66.3029 26.607 65.1158 23.1384L64.8562 22.3841H63.8855H62.9209L60.8312 28.5298ZM64.2812 25.2406C64.4543 25.8341 65.5486 29.1172 65.7032 29.5067C65.7465 29.6118 65.6352 29.618 63.8545 29.618H61.9688L62.55 27.9116C62.8715 26.978 63.2734 25.7043 63.4465 25.086C63.6196 24.4677 63.7804 23.9051 63.7989 23.8371C63.8298 23.7443 63.8731 23.8185 63.9535 24.1153C64.0215 24.3379 64.1699 24.8449 64.2812 25.2406Z" fill="black"/>
<path d="M74.4211 25.7042C73.5123 25.8216 72.6034 26.3595 72.1211 27.0458C71.9913 27.2375 71.8676 27.3859 71.8429 27.3921C71.812 27.3921 71.7934 27.2313 71.7934 27.0335C71.7934 26.8418 71.7749 26.4955 71.7502 26.2606L71.7131 25.8464H71.002H70.291L70.3281 27.0644C70.3528 27.7321 70.3714 30.57 70.3714 33.3708V38.4593H71.1752H71.9789V36.0109V33.5625L72.2324 33.884C72.7765 34.5703 73.673 34.9598 74.7303 34.9598C75.4537 34.966 75.8679 34.8732 76.4614 34.5888C77.9391 33.8902 78.78 32.3197 78.78 30.2547C78.78 28.6533 78.3534 27.5095 77.4321 26.6378C76.6222 25.8711 75.5773 25.5496 74.4211 25.7042ZM75.5835 27.1633C76.0039 27.355 76.5109 27.8434 76.752 28.2947C77.0488 28.845 77.191 29.5004 77.191 30.298C77.191 31.4974 76.8819 32.3878 76.2698 33.006C75.0456 34.224 72.9867 33.8593 72.2077 32.2765L72.0098 31.8808L71.9913 30.5886C71.9666 29.0985 72.0346 28.7461 72.4674 28.0907C72.9991 27.2993 73.6977 26.9469 74.6684 26.9778C75.1136 26.9902 75.2929 27.0273 75.5835 27.1633Z" fill="black"/>
<path d="M84.4248 25.7289C83.6148 25.8649 82.8481 26.3162 82.3102 26.9716C82.1186 27.2066 81.9578 27.3735 81.9516 27.3488C81.9454 27.324 81.9207 26.9716 81.9022 26.5697L81.8589 25.8464H81.1417H80.4307L80.4678 27.1571C80.4925 27.8743 80.511 30.7122 80.511 33.4636V38.4593H81.3148H82.1186V36.0047C82.1186 33.6985 82.1248 33.5563 82.2237 33.6985C82.5514 34.1931 83.1573 34.6259 83.8188 34.83C84.4618 35.0278 85.4325 35.0154 86.1127 34.7929C87.1143 34.4652 87.9118 33.748 88.3879 32.7525C88.8145 31.8684 88.8825 31.5036 88.8887 30.2361C88.8887 29.0058 88.8022 28.5606 88.3756 27.7012C88.0664 27.0644 87.3245 26.3162 86.7371 26.038C86.0261 25.698 85.2347 25.5929 84.4248 25.7289ZM85.7355 27.1757C86.7557 27.6703 87.3307 28.7955 87.3307 30.298C87.3245 31.1203 87.2194 31.6705 86.9288 32.2703C86.0075 34.2055 83.2995 34.2179 82.3535 32.2888L82.1495 31.8808L82.1309 30.5886C82.1124 29.4262 82.1248 29.2593 82.236 28.8821C82.4524 28.1649 82.9471 27.5466 83.5344 27.2375C83.9981 27.0025 84.1836 26.9593 84.7772 26.9778C85.2842 26.9902 85.4202 27.0211 85.7355 27.1757Z" fill="black"/>
<path d="M97.2971 25.7598C96.1532 25.9824 95.1269 26.7924 94.5828 27.8929C94.1377 28.7956 94.0325 29.284 94.0264 30.4217C94.0264 31.5469 94.1067 31.9674 94.4963 32.7711C94.9909 33.8036 96.0296 34.6012 97.2105 34.8485C98.1688 35.0526 99.8567 34.9351 100.865 34.595C101.112 34.5085 101.316 34.4405 101.322 34.4405C101.372 34.4405 101.062 33.3276 101.013 33.3276C100.976 33.3276 100.729 33.3956 100.469 33.4821C99.5229 33.7851 98.1441 33.8098 97.3898 33.544C96.4995 33.2286 95.8565 32.4929 95.6277 31.5222C95.5782 31.3058 95.535 31.0152 95.535 30.8668V30.6071H98.6573H101.773L101.817 30.3784C101.885 30.0198 101.798 28.944 101.656 28.4432C101.236 26.9346 100.308 26.0071 98.9602 25.7536C98.3914 25.6424 97.8721 25.6424 97.2971 25.7598ZM98.917 26.9655C99.7022 27.2622 100.296 28.2453 100.296 29.2469V29.4942H97.9092H95.5226L95.5597 29.2593C95.7699 28.0907 96.4748 27.1695 97.3898 26.8913C97.7299 26.7924 98.546 26.8295 98.917 26.9655Z" fill="black"/>
</svg>
