<svg width="1182" height="791" viewBox="0 0 1182 791" fill="none" xmlns="http://www.w3.org/2000/svg">
<path d="M259.627 306V278.851H275.906V281.767H262.914V290.941H274.686V293.857H262.914V306H259.627ZM293.228 297.675V285.638H296.357V306H293.228V302.553H293.016C292.539 303.587 291.797 304.467 290.789 305.191C289.782 305.907 288.509 306.265 286.971 306.265C285.699 306.265 284.568 305.987 283.578 305.43C282.588 304.864 281.81 304.016 281.245 302.885C280.679 301.745 280.396 300.309 280.396 298.576V285.638H283.525V298.364C283.525 299.849 283.94 301.033 284.771 301.917C285.61 302.801 286.68 303.243 287.979 303.243C288.757 303.243 289.548 303.044 290.352 302.646C291.165 302.248 291.845 301.639 292.393 300.817C292.95 299.995 293.228 298.948 293.228 297.675ZM305.775 293.751V306H302.647V285.638H305.669V288.82H305.935C306.412 287.786 307.136 286.955 308.109 286.328C309.081 285.691 310.336 285.373 311.873 285.373C313.252 285.373 314.458 285.656 315.492 286.221C316.526 286.778 317.331 287.627 317.905 288.767C318.479 289.898 318.767 291.33 318.767 293.062V306H315.638V293.274C315.638 291.674 315.223 290.428 314.392 289.536C313.561 288.634 312.421 288.183 310.972 288.183C309.973 288.183 309.081 288.4 308.294 288.833C307.516 289.266 306.902 289.898 306.452 290.729C306.001 291.559 305.775 292.567 305.775 293.751ZM332.732 306.424C331.035 306.424 329.537 305.996 328.238 305.138C326.939 304.272 325.923 303.053 325.189 301.48C324.456 299.898 324.089 298.028 324.089 295.872C324.089 293.733 324.456 291.878 325.189 290.304C325.923 288.731 326.944 287.516 328.252 286.659C329.559 285.802 331.071 285.373 332.785 285.373C334.111 285.373 335.158 285.594 335.927 286.036C336.705 286.469 337.297 286.964 337.703 287.521C338.119 288.069 338.441 288.519 338.671 288.873H338.936V278.851H342.065V306H339.042V302.871H338.671C338.441 303.243 338.114 303.711 337.69 304.277C337.266 304.833 336.66 305.333 335.874 305.775C335.087 306.208 334.04 306.424 332.732 306.424ZM333.156 303.614C334.411 303.614 335.472 303.287 336.338 302.633C337.204 301.97 337.862 301.055 338.313 299.889C338.764 298.713 338.989 297.357 338.989 295.819C338.989 294.299 338.768 292.969 338.326 291.829C337.884 290.68 337.231 289.787 336.364 289.151C335.498 288.506 334.429 288.183 333.156 288.183C331.831 288.183 330.726 288.524 329.842 289.204C328.967 289.876 328.309 290.79 327.867 291.948C327.434 293.097 327.218 294.387 327.218 295.819C327.218 297.268 327.438 298.585 327.88 299.769C328.331 300.945 328.994 301.882 329.869 302.58C330.753 303.269 331.848 303.614 333.156 303.614ZM358.28 278.851V306H354.993V282.298H354.834L348.206 286.699V283.358L354.993 278.851H358.28ZM375.504 306.371C373.506 306.371 371.805 305.828 370.4 304.741C368.995 303.645 367.921 302.058 367.179 299.982C366.436 297.896 366.065 295.377 366.065 292.425C366.065 289.491 366.436 286.986 367.179 284.909C367.93 282.823 369.008 281.233 370.413 280.137C371.827 279.032 373.524 278.48 375.504 278.48C377.483 278.48 379.176 279.032 380.581 280.137C381.995 281.233 383.073 282.823 383.815 284.909C384.567 286.986 384.942 289.491 384.942 292.425C384.942 295.377 384.571 297.896 383.829 299.982C383.086 302.058 382.013 303.645 380.607 304.741C379.202 305.828 377.501 306.371 375.504 306.371ZM375.504 303.455C377.483 303.455 379.021 302.5 380.117 300.591C381.213 298.682 381.761 295.96 381.761 292.425C381.761 290.075 381.509 288.073 381.005 286.42C380.51 284.768 379.794 283.508 378.858 282.642C377.93 281.776 376.812 281.343 375.504 281.343C373.542 281.343 372.008 282.311 370.904 284.246C369.799 286.173 369.247 288.899 369.247 292.425C369.247 294.776 369.494 296.774 369.989 298.417C370.484 300.061 371.195 301.312 372.123 302.169C373.06 303.026 374.187 303.455 375.504 303.455ZM392.608 278.851L399.607 290.145H399.819L406.818 278.851H410.689L402.152 292.425L410.689 306H406.818L399.819 294.918H399.607L392.608 306H388.737L397.486 292.425L388.737 278.851H392.608ZM426.163 306V285.638H429.291V306H426.163ZM427.753 282.245C427.144 282.245 426.618 282.037 426.176 281.621C425.743 281.206 425.526 280.707 425.526 280.124C425.526 279.54 425.743 279.041 426.176 278.626C426.618 278.21 427.144 278.002 427.753 278.002C428.363 278.002 428.885 278.21 429.318 278.626C429.759 279.041 429.98 279.54 429.98 280.124C429.98 280.707 429.759 281.206 429.318 281.621C428.885 282.037 428.363 282.245 427.753 282.245ZM450.004 290.198L447.194 290.994C447.017 290.525 446.756 290.07 446.412 289.628C446.076 289.178 445.616 288.806 445.033 288.515C444.45 288.223 443.703 288.077 442.793 288.077C441.546 288.077 440.508 288.365 439.677 288.939C438.855 289.505 438.444 290.225 438.444 291.1C438.444 291.878 438.727 292.492 439.293 292.942C439.859 293.393 440.742 293.769 441.944 294.069L444.967 294.812C446.787 295.253 448.144 295.93 449.036 296.84C449.929 297.741 450.375 298.903 450.375 300.326C450.375 301.493 450.039 302.536 449.368 303.455C448.705 304.374 447.777 305.099 446.584 305.629C445.391 306.159 444.003 306.424 442.421 306.424C440.345 306.424 438.626 305.973 437.265 305.072C435.904 304.171 435.042 302.854 434.68 301.122L437.649 300.379C437.932 301.475 438.467 302.297 439.253 302.845C440.049 303.393 441.087 303.667 442.368 303.667C443.827 303.667 444.984 303.358 445.842 302.739C446.708 302.111 447.141 301.36 447.141 300.485C447.141 299.778 446.893 299.186 446.398 298.709C445.903 298.223 445.143 297.861 444.118 297.622L440.725 296.827C438.86 296.385 437.49 295.7 436.615 294.772C435.749 293.835 435.316 292.664 435.316 291.259C435.316 290.11 435.639 289.094 436.284 288.21C436.938 287.326 437.826 286.632 438.948 286.129C440.079 285.625 441.361 285.373 442.793 285.373C444.808 285.373 446.389 285.815 447.538 286.699C448.696 287.582 449.518 288.749 450.004 290.198ZM468.719 313.636C468.188 313.636 467.715 313.591 467.3 313.503C466.885 313.424 466.597 313.344 466.438 313.265L467.234 310.507C467.994 310.702 468.665 310.772 469.249 310.719C469.832 310.666 470.349 310.406 470.8 309.937C471.259 309.478 471.679 308.731 472.059 307.697L472.642 306.106L465.113 285.638H468.506L474.127 301.864H474.339L479.96 285.638H483.354L474.71 308.969C474.322 310.021 473.84 310.892 473.265 311.581C472.691 312.279 472.024 312.796 471.264 313.132C470.513 313.468 469.664 313.636 468.719 313.636ZM495.586 306.424C493.748 306.424 492.135 305.987 490.747 305.112C489.369 304.237 488.29 303.013 487.513 301.44C486.744 299.867 486.359 298.028 486.359 295.925C486.359 293.804 486.744 291.953 487.513 290.371C488.29 288.789 489.369 287.56 490.747 286.685C492.135 285.811 493.748 285.373 495.586 285.373C497.424 285.373 499.032 285.811 500.411 286.685C501.799 287.56 502.877 288.789 503.646 290.371C504.423 291.953 504.812 293.804 504.812 295.925C504.812 298.028 504.423 299.867 503.646 301.44C502.877 303.013 501.799 304.237 500.411 305.112C499.032 305.987 497.424 306.424 495.586 306.424ZM495.586 303.614C496.982 303.614 498.131 303.256 499.032 302.54C499.934 301.824 500.601 300.883 501.034 299.716C501.467 298.55 501.684 297.286 501.684 295.925C501.684 294.564 501.467 293.296 501.034 292.121C500.601 290.945 499.934 289.995 499.032 289.27C498.131 288.546 496.982 288.183 495.586 288.183C494.189 288.183 493.041 288.546 492.139 289.27C491.238 289.995 490.57 290.945 490.137 292.121C489.704 293.296 489.488 294.564 489.488 295.925C489.488 297.286 489.704 298.55 490.137 299.716C490.57 300.883 491.238 301.824 492.139 302.54C493.041 303.256 494.189 303.614 495.586 303.614ZM522.98 297.675V285.638H526.108V306H522.98V302.553H522.768C522.291 303.587 521.548 304.467 520.541 305.191C519.533 305.907 518.261 306.265 516.723 306.265C515.45 306.265 514.319 305.987 513.329 305.43C512.339 304.864 511.562 304.016 510.996 302.885C510.431 301.745 510.148 300.309 510.148 298.576V285.638H513.276V298.364C513.276 299.849 513.692 301.033 514.522 301.917C515.362 302.801 516.431 303.243 517.73 303.243C518.508 303.243 519.299 303.044 520.103 302.646C520.916 302.248 521.597 301.639 522.145 300.817C522.702 299.995 522.98 298.948 522.98 297.675ZM532.399 306V285.638H535.421V288.714H535.633C536.004 287.706 536.676 286.889 537.648 286.261C538.62 285.634 539.716 285.32 540.936 285.32C541.165 285.32 541.453 285.324 541.797 285.333C542.142 285.342 542.403 285.355 542.579 285.373V288.555C542.473 288.528 542.23 288.488 541.85 288.435C541.479 288.373 541.086 288.342 540.67 288.342C539.681 288.342 538.797 288.55 538.019 288.966C537.25 289.372 536.641 289.938 536.19 290.662C535.748 291.378 535.527 292.196 535.527 293.115V306H532.399ZM566.126 314.06C564.615 314.06 563.315 313.865 562.228 313.477C561.141 313.097 560.236 312.593 559.511 311.965C558.795 311.347 558.225 310.684 557.801 309.977L560.293 308.227C560.576 308.598 560.934 309.022 561.367 309.5C561.8 309.986 562.392 310.406 563.143 310.759C563.903 311.121 564.897 311.303 566.126 311.303C567.77 311.303 569.126 310.905 570.196 310.109C571.265 309.314 571.8 308.068 571.8 306.371V302.235H571.534C571.305 302.606 570.978 303.066 570.553 303.614C570.138 304.153 569.537 304.635 568.751 305.059C567.973 305.474 566.921 305.682 565.596 305.682C563.952 305.682 562.476 305.293 561.168 304.515C559.869 303.738 558.839 302.606 558.079 301.122C557.328 299.637 556.952 297.834 556.952 295.713C556.952 293.627 557.319 291.811 558.053 290.265C558.786 288.709 559.807 287.507 561.115 286.659C562.423 285.802 563.934 285.373 565.649 285.373C566.974 285.373 568.026 285.594 568.804 286.036C569.59 286.469 570.191 286.964 570.606 287.521C571.031 288.069 571.358 288.519 571.587 288.873H571.906V285.638H574.928V306.583C574.928 308.333 574.53 309.756 573.735 310.852C572.948 311.957 571.888 312.765 570.553 313.278C569.228 313.799 567.752 314.06 566.126 314.06ZM566.02 302.871C567.275 302.871 568.335 302.584 569.201 302.01C570.067 301.435 570.726 300.609 571.176 299.531C571.627 298.453 571.853 297.162 571.853 295.66C571.853 294.193 571.632 292.898 571.19 291.776C570.748 290.654 570.094 289.774 569.228 289.138C568.362 288.502 567.292 288.183 566.02 288.183C564.694 288.183 563.589 288.519 562.706 289.191C561.831 289.863 561.172 290.764 560.73 291.895C560.297 293.026 560.081 294.281 560.081 295.66C560.081 297.074 560.302 298.325 560.744 299.412C561.194 300.49 561.857 301.338 562.732 301.957C563.616 302.567 564.712 302.871 566.02 302.871ZM587.207 306.477C585.916 306.477 584.745 306.234 583.694 305.748C582.642 305.253 581.807 304.542 581.188 303.614C580.57 302.677 580.26 301.546 580.26 300.22C580.26 299.054 580.49 298.108 580.95 297.383C581.409 296.65 582.023 296.075 582.792 295.66C583.561 295.245 584.41 294.935 585.337 294.732C586.274 294.52 587.215 294.352 588.161 294.228C589.398 294.069 590.401 293.95 591.17 293.87C591.948 293.782 592.514 293.636 592.867 293.433C593.229 293.23 593.411 292.876 593.411 292.372V292.266C593.411 290.958 593.053 289.942 592.337 289.217C591.63 288.493 590.556 288.13 589.116 288.13C587.622 288.13 586.451 288.457 585.603 289.111C584.754 289.765 584.158 290.464 583.813 291.206L580.844 290.145C581.374 288.908 582.081 287.945 582.965 287.255C583.857 286.557 584.829 286.071 585.881 285.797C586.942 285.514 587.984 285.373 589.01 285.373C589.664 285.373 590.415 285.453 591.263 285.612C592.12 285.762 592.947 286.076 593.742 286.553C594.546 287.03 595.214 287.75 595.744 288.714C596.274 289.677 596.539 290.967 596.539 292.585V306H593.411V303.243H593.252C593.039 303.685 592.686 304.157 592.191 304.661C591.696 305.165 591.038 305.593 590.216 305.947C589.394 306.3 588.391 306.477 587.207 306.477ZM587.684 303.667C588.921 303.667 589.964 303.424 590.812 302.938C591.67 302.452 592.315 301.824 592.748 301.055C593.19 300.286 593.411 299.478 593.411 298.629V295.766C593.278 295.925 592.986 296.071 592.536 296.204C592.094 296.327 591.581 296.438 590.998 296.535C590.424 296.623 589.862 296.703 589.314 296.774C588.775 296.835 588.338 296.888 588.002 296.933C587.189 297.039 586.429 297.211 585.722 297.45C585.024 297.679 584.458 298.028 584.025 298.497C583.601 298.956 583.389 299.584 583.389 300.379C583.389 301.466 583.791 302.288 584.595 302.845C585.408 303.393 586.438 303.667 587.684 303.667ZM611.665 285.638V288.289H601.112V285.638H611.665ZM604.188 280.76H607.316V300.167C607.316 301.051 607.445 301.714 607.701 302.156C607.966 302.589 608.302 302.88 608.708 303.031C609.124 303.172 609.561 303.243 610.021 303.243C610.365 303.243 610.648 303.225 610.869 303.19C611.09 303.145 611.267 303.11 611.399 303.084L612.036 305.894C611.824 305.973 611.528 306.053 611.148 306.133C610.768 306.221 610.286 306.265 609.703 306.265C608.819 306.265 607.953 306.075 607.104 305.695C606.265 305.315 605.567 304.736 605.01 303.959C604.462 303.181 604.188 302.2 604.188 301.016V280.76ZM625.249 306.424C623.287 306.424 621.595 305.991 620.172 305.125C618.758 304.25 617.666 303.031 616.897 301.466C616.137 299.893 615.757 298.064 615.757 295.978C615.757 293.892 616.137 292.054 616.897 290.464C617.666 288.864 618.736 287.618 620.105 286.725C621.484 285.824 623.093 285.373 624.931 285.373C625.991 285.373 627.039 285.55 628.073 285.903C629.107 286.257 630.048 286.831 630.896 287.627C631.745 288.413 632.421 289.456 632.924 290.755C633.428 292.054 633.68 293.654 633.68 295.554V296.88H617.984V294.175H630.498C630.498 293.026 630.269 292.001 629.809 291.1C629.358 290.198 628.713 289.487 627.874 288.966C627.043 288.444 626.062 288.183 624.931 288.183C623.685 288.183 622.606 288.493 621.696 289.111C620.795 289.721 620.101 290.517 619.615 291.498C619.129 292.478 618.886 293.53 618.886 294.653V296.455C618.886 297.993 619.151 299.297 619.681 300.366C620.22 301.427 620.967 302.235 621.922 302.792C622.876 303.34 623.985 303.614 625.249 303.614C626.071 303.614 626.813 303.499 627.476 303.269C628.148 303.031 628.727 302.677 629.213 302.209C629.699 301.731 630.074 301.139 630.339 300.432L633.362 301.281C633.044 302.306 632.509 303.207 631.758 303.985C631.007 304.754 630.079 305.355 628.974 305.788C627.869 306.212 626.628 306.424 625.249 306.424ZM643.612 306L637.408 285.638H640.696L645.097 301.228H645.309L649.657 285.638H652.998L657.293 301.175H657.505L661.906 285.638H665.194L658.99 306H655.914L651.46 290.357H651.142L646.688 306H643.612ZM675.881 306.477C674.591 306.477 673.42 306.234 672.369 305.748C671.317 305.253 670.482 304.542 669.863 303.614C669.244 302.677 668.935 301.546 668.935 300.22C668.935 299.054 669.165 298.108 669.624 297.383C670.084 296.65 670.698 296.075 671.467 295.66C672.236 295.245 673.084 294.935 674.012 294.732C674.949 294.52 675.89 294.352 676.836 294.228C678.073 294.069 679.076 293.95 679.845 293.87C680.623 293.782 681.188 293.636 681.542 293.433C681.904 293.23 682.085 292.876 682.085 292.372V292.266C682.085 290.958 681.728 289.942 681.012 289.217C680.305 288.493 679.231 288.13 677.79 288.13C676.297 288.13 675.126 288.457 674.277 289.111C673.429 289.765 672.832 290.464 672.488 291.206L669.518 290.145C670.049 288.908 670.756 287.945 671.639 287.255C672.532 286.557 673.504 286.071 674.556 285.797C675.616 285.514 676.659 285.373 677.684 285.373C678.338 285.373 679.09 285.453 679.938 285.612C680.795 285.762 681.621 286.076 682.417 286.553C683.221 287.03 683.888 287.75 684.419 288.714C684.949 289.677 685.214 290.967 685.214 292.585V306H682.085V303.243H681.926C681.714 303.685 681.361 304.157 680.866 304.661C680.371 305.165 679.713 305.593 678.891 305.947C678.069 306.3 677.066 306.477 675.881 306.477ZM676.359 303.667C677.596 303.667 678.639 303.424 679.487 302.938C680.344 302.452 680.99 301.824 681.423 301.055C681.865 300.286 682.085 299.478 682.085 298.629V295.766C681.953 295.925 681.661 296.071 681.211 296.204C680.769 296.327 680.256 296.438 679.673 296.535C679.098 296.623 678.537 296.703 677.989 296.774C677.45 296.835 677.013 296.888 676.677 296.933C675.864 297.039 675.104 297.211 674.397 297.45C673.699 297.679 673.133 298.028 672.7 298.497C672.276 298.956 672.064 299.584 672.064 300.379C672.064 301.466 672.466 302.288 673.27 302.845C674.083 303.393 675.113 303.667 676.359 303.667ZM692.77 313.636C692.24 313.636 691.767 313.591 691.352 313.503C690.936 313.424 690.649 313.344 690.49 313.265L691.285 310.507C692.045 310.702 692.717 310.772 693.3 310.719C693.884 310.666 694.401 310.406 694.851 309.937C695.311 309.478 695.731 308.731 696.111 307.697L696.694 306.106L689.164 285.638H692.558L698.179 301.864H698.391L704.011 285.638H707.405L698.762 308.969C698.373 310.021 697.891 310.892 697.317 311.581C696.742 312.279 696.075 312.796 695.315 313.132C694.564 313.468 693.716 313.636 692.77 313.636ZM732.009 285.638V288.289H721.457V285.638H732.009ZM724.532 280.76H727.661V300.167C727.661 301.051 727.789 301.714 728.045 302.156C728.31 302.589 728.646 302.88 729.052 303.031C729.468 303.172 729.905 303.243 730.365 303.243C730.71 303.243 730.992 303.225 731.213 303.19C731.434 303.145 731.611 303.11 731.744 303.084L732.38 305.894C732.168 305.973 731.872 306.053 731.492 306.133C731.112 306.221 730.63 306.265 730.047 306.265C729.163 306.265 728.297 306.075 727.448 305.695C726.609 305.315 725.911 304.736 725.354 303.959C724.806 303.181 724.532 302.2 724.532 301.016V280.76ZM745.328 306.424C743.49 306.424 741.877 305.987 740.489 305.112C739.111 304.237 738.032 303.013 737.255 301.44C736.486 299.867 736.101 298.028 736.101 295.925C736.101 293.804 736.486 291.953 737.255 290.371C738.032 288.789 739.111 287.56 740.489 286.685C741.877 285.811 743.49 285.373 745.328 285.373C747.166 285.373 748.775 285.811 750.153 286.685C751.541 287.56 752.619 288.789 753.388 290.371C754.165 291.953 754.554 293.804 754.554 295.925C754.554 298.028 754.165 299.867 753.388 301.44C752.619 303.013 751.541 304.237 750.153 305.112C748.775 305.987 747.166 306.424 745.328 306.424ZM745.328 303.614C746.724 303.614 747.873 303.256 748.775 302.54C749.676 301.824 750.343 300.883 750.776 299.716C751.209 298.55 751.426 297.286 751.426 295.925C751.426 294.564 751.209 293.296 750.776 292.121C750.343 290.945 749.676 289.995 748.775 289.27C747.873 288.546 746.724 288.183 745.328 288.183C743.932 288.183 742.783 288.546 741.881 289.27C740.98 289.995 740.313 290.945 739.879 292.121C739.446 293.296 739.23 294.564 739.23 295.925C739.23 297.286 739.446 298.55 739.879 299.716C740.313 300.883 740.98 301.824 741.881 302.54C742.783 303.256 743.932 303.614 745.328 303.614ZM785.372 290.198L782.561 290.994C782.385 290.525 782.124 290.07 781.779 289.628C781.444 289.178 780.984 288.806 780.401 288.515C779.817 288.223 779.071 288.077 778.16 288.077C776.914 288.077 775.876 288.365 775.045 288.939C774.223 289.505 773.812 290.225 773.812 291.1C773.812 291.878 774.095 292.492 774.661 292.942C775.226 293.393 776.11 293.769 777.312 294.069L780.334 294.812C782.155 295.253 783.512 295.93 784.404 296.84C785.297 297.741 785.743 298.903 785.743 300.326C785.743 301.493 785.407 302.536 784.736 303.455C784.073 304.374 783.145 305.099 781.952 305.629C780.759 306.159 779.371 306.424 777.789 306.424C775.712 306.424 773.993 305.973 772.632 305.072C771.271 304.171 770.41 302.854 770.047 301.122L773.017 300.379C773.3 301.475 773.834 302.297 774.621 302.845C775.416 303.393 776.455 303.667 777.736 303.667C779.194 303.667 780.352 303.358 781.209 302.739C782.075 302.111 782.508 301.36 782.508 300.485C782.508 299.778 782.261 299.186 781.766 298.709C781.271 298.223 780.511 297.861 779.486 297.622L776.092 296.827C774.228 296.385 772.858 295.7 771.983 294.772C771.117 293.835 770.684 292.664 770.684 291.259C770.684 290.11 771.006 289.094 771.651 288.21C772.305 287.326 773.194 286.632 774.316 286.129C775.447 285.625 776.729 285.373 778.16 285.373C780.175 285.373 781.757 285.815 782.906 286.699C784.064 287.582 784.886 288.749 785.372 290.198ZM803.844 297.675V285.638H806.973V306H803.844V302.553H803.632C803.155 303.587 802.413 304.467 801.405 305.191C800.398 305.907 799.125 306.265 797.587 306.265C796.315 306.265 795.184 305.987 794.194 305.43C793.204 304.864 792.426 304.016 791.861 302.885C791.295 301.745 791.012 300.309 791.012 298.576V285.638H794.141V298.364C794.141 299.849 794.556 301.033 795.387 301.917C796.226 302.801 797.296 303.243 798.595 303.243C799.373 303.243 800.164 303.044 800.968 302.646C801.781 302.248 802.461 301.639 803.009 300.817C803.566 299.995 803.844 298.948 803.844 297.675ZM821.535 306.424C819.626 306.424 817.982 305.973 816.604 305.072C815.225 304.171 814.164 302.929 813.422 301.347C812.68 299.765 812.309 297.958 812.309 295.925C812.309 293.857 812.689 292.032 813.449 290.45C814.217 288.859 815.287 287.618 816.657 286.725C818.035 285.824 819.644 285.373 821.482 285.373C822.914 285.373 824.204 285.638 825.353 286.168C826.502 286.699 827.443 287.441 828.176 288.396C828.91 289.35 829.365 290.464 829.542 291.736H826.413C826.175 290.808 825.645 289.986 824.823 289.27C824.01 288.546 822.914 288.183 821.535 288.183C820.315 288.183 819.246 288.502 818.327 289.138C817.417 289.765 816.705 290.654 816.193 291.802C815.689 292.942 815.437 294.281 815.437 295.819C815.437 297.392 815.685 298.762 816.179 299.929C816.683 301.095 817.39 302.001 818.3 302.646C819.22 303.291 820.298 303.614 821.535 303.614C822.348 303.614 823.086 303.472 823.749 303.19C824.412 302.907 824.973 302.5 825.432 301.97C825.892 301.44 826.219 300.803 826.413 300.061H829.542C829.365 301.263 828.928 302.346 828.23 303.309C827.54 304.263 826.625 305.023 825.485 305.589C824.354 306.146 823.037 306.424 821.535 306.424ZM842.947 306.424C841.038 306.424 839.395 305.973 838.016 305.072C836.637 304.171 835.577 302.929 834.834 301.347C834.092 299.765 833.721 297.958 833.721 295.925C833.721 293.857 834.101 292.032 834.861 290.45C835.63 288.859 836.699 287.618 838.069 286.725C839.448 285.824 841.056 285.373 842.894 285.373C844.326 285.373 845.616 285.638 846.765 286.168C847.914 286.699 848.855 287.441 849.589 288.396C850.322 289.35 850.777 290.464 850.954 291.736H847.826C847.587 290.808 847.057 289.986 846.235 289.27C845.422 288.546 844.326 288.183 842.947 288.183C841.728 288.183 840.658 288.502 839.739 289.138C838.829 289.765 838.118 290.654 837.605 291.802C837.101 292.942 836.849 294.281 836.849 295.819C836.849 297.392 837.097 298.762 837.592 299.929C838.095 301.095 838.802 302.001 839.713 302.646C840.632 303.291 841.71 303.614 842.947 303.614C843.76 303.614 844.498 303.472 845.161 303.19C845.824 302.907 846.385 302.5 846.845 301.97C847.304 301.44 847.631 300.803 847.826 300.061H850.954C850.777 301.263 850.34 302.346 849.642 303.309C848.952 304.263 848.038 305.023 846.898 305.589C845.766 306.146 844.45 306.424 842.947 306.424ZM864.625 306.424C862.663 306.424 860.97 305.991 859.547 305.125C858.133 304.25 857.042 303.031 856.273 301.466C855.513 299.893 855.133 298.064 855.133 295.978C855.133 293.892 855.513 292.054 856.273 290.464C857.042 288.864 858.111 287.618 859.481 286.725C860.86 285.824 862.468 285.373 864.307 285.373C865.367 285.373 866.414 285.55 867.448 285.903C868.482 286.257 869.423 286.831 870.272 287.627C871.12 288.413 871.796 289.456 872.3 290.755C872.804 292.054 873.056 293.654 873.056 295.554V296.88H857.36V294.175H869.874C869.874 293.026 869.644 292.001 869.185 291.1C868.734 290.198 868.089 289.487 867.249 288.966C866.419 288.444 865.438 288.183 864.307 288.183C863.06 288.183 861.982 288.493 861.072 289.111C860.171 289.721 859.477 290.517 858.991 291.498C858.505 292.478 858.262 293.53 858.262 294.653V296.455C858.262 297.993 858.527 299.297 859.057 300.366C859.596 301.427 860.343 302.235 861.297 302.792C862.252 303.34 863.361 303.614 864.625 303.614C865.447 303.614 866.189 303.499 866.852 303.269C867.523 303.031 868.102 302.677 868.588 302.209C869.074 301.731 869.45 301.139 869.715 300.432L872.738 301.281C872.419 302.306 871.885 303.207 871.134 303.985C870.382 304.754 869.454 305.355 868.35 305.788C867.245 306.212 866.003 306.424 864.625 306.424ZM892.798 290.198L889.987 290.994C889.811 290.525 889.55 290.07 889.205 289.628C888.869 289.178 888.41 288.806 887.827 288.515C887.243 288.223 886.496 288.077 885.586 288.077C884.34 288.077 883.302 288.365 882.471 288.939C881.649 289.505 881.238 290.225 881.238 291.1C881.238 291.878 881.521 292.492 882.087 292.942C882.652 293.393 883.536 293.769 884.738 294.069L887.76 294.812C889.581 295.253 890.937 295.93 891.83 296.84C892.723 297.741 893.169 298.903 893.169 300.326C893.169 301.493 892.833 302.536 892.161 303.455C891.499 304.374 890.571 305.099 889.378 305.629C888.184 306.159 886.797 306.424 885.215 306.424C883.138 306.424 881.419 305.973 880.058 305.072C878.697 304.171 877.836 302.854 877.473 301.122L880.443 300.379C880.726 301.475 881.26 302.297 882.047 302.845C882.842 303.393 883.881 303.667 885.162 303.667C886.62 303.667 887.778 303.358 888.635 302.739C889.501 302.111 889.934 301.36 889.934 300.485C889.934 299.778 889.687 299.186 889.192 298.709C888.697 298.223 887.937 297.861 886.912 297.622L883.518 296.827C881.653 296.385 880.284 295.7 879.409 294.772C878.543 293.835 878.11 292.664 878.11 291.259C878.11 290.11 878.432 289.094 879.077 288.21C879.731 287.326 880.619 286.632 881.742 286.129C882.873 285.625 884.155 285.373 885.586 285.373C887.601 285.373 889.183 285.815 890.332 286.699C891.49 287.582 892.312 288.749 892.798 290.198ZM912.861 290.198L910.051 290.994C909.874 290.525 909.613 290.07 909.269 289.628C908.933 289.178 908.473 288.806 907.89 288.515C907.307 288.223 906.56 288.077 905.65 288.077C904.404 288.077 903.365 288.365 902.534 288.939C901.712 289.505 901.302 290.225 901.302 291.1C901.302 291.878 901.584 292.492 902.15 292.942C902.716 293.393 903.599 293.769 904.801 294.069L907.824 294.812C909.644 295.253 911.001 295.93 911.893 296.84C912.786 297.741 913.232 298.903 913.232 300.326C913.232 301.493 912.896 302.536 912.225 303.455C911.562 304.374 910.634 305.099 909.441 305.629C908.248 306.159 906.86 306.424 905.278 306.424C903.202 306.424 901.483 305.973 900.122 305.072C898.761 304.171 897.899 302.854 897.537 301.122L900.506 300.379C900.789 301.475 901.324 302.297 902.11 302.845C902.906 303.393 903.944 303.667 905.225 303.667C906.684 303.667 907.841 303.358 908.699 302.739C909.565 302.111 909.998 301.36 909.998 300.485C909.998 299.778 909.75 299.186 909.255 298.709C908.76 298.223 908 297.861 906.975 297.622L903.582 296.827C901.717 296.385 900.347 295.7 899.472 294.772C898.606 293.835 898.173 292.664 898.173 291.259C898.173 290.11 898.496 289.094 899.141 288.21C899.795 287.326 900.683 286.632 901.805 286.129C902.936 285.625 904.218 285.373 905.65 285.373C907.665 285.373 909.247 285.815 910.395 286.699C911.553 287.582 912.375 288.749 912.861 290.198ZM923.168 302.288L922.956 303.72C922.805 304.727 922.576 305.806 922.266 306.954C921.966 308.103 921.652 309.186 921.325 310.202C920.998 311.219 920.729 312.027 920.517 312.628H918.13C918.245 312.063 918.396 311.316 918.581 310.388C918.767 309.46 918.952 308.422 919.138 307.273C919.332 306.133 919.491 304.966 919.615 303.773L919.774 302.288H923.168ZM215.261 356.424C213.353 356.424 211.709 355.973 210.33 355.072C208.951 354.171 207.891 352.929 207.149 351.347C206.406 349.765 206.035 347.958 206.035 345.925C206.035 343.857 206.415 342.032 207.175 340.45C207.944 338.859 209.013 337.618 210.383 336.725C211.762 335.824 213.37 335.373 215.208 335.373C216.64 335.373 217.93 335.638 219.079 336.168C220.228 336.699 221.169 337.441 221.903 338.396C222.636 339.35 223.092 340.464 223.268 341.736H220.14C219.901 340.808 219.371 339.986 218.549 339.27C217.736 338.546 216.64 338.183 215.261 338.183C214.042 338.183 212.973 338.502 212.053 339.138C211.143 339.765 210.432 340.654 209.919 341.802C209.415 342.942 209.164 344.281 209.164 345.819C209.164 347.392 209.411 348.762 209.906 349.929C210.41 351.095 211.117 352.001 212.027 352.646C212.946 353.291 214.024 353.614 215.261 353.614C216.075 353.614 216.812 353.472 217.475 353.19C218.138 352.907 218.699 352.5 219.159 351.97C219.618 351.44 219.945 350.803 220.14 350.061H223.268C223.092 351.263 222.654 352.346 221.956 353.309C221.267 354.263 220.352 355.023 219.212 355.589C218.081 356.146 216.764 356.424 215.261 356.424ZM236.674 356.424C234.836 356.424 233.223 355.987 231.835 355.112C230.457 354.237 229.378 353.013 228.601 351.44C227.832 349.867 227.447 348.028 227.447 345.925C227.447 343.804 227.832 341.953 228.601 340.371C229.378 338.789 230.457 337.56 231.835 336.685C233.223 335.811 234.836 335.373 236.674 335.373C238.512 335.373 240.12 335.811 241.499 336.685C242.887 337.56 243.965 338.789 244.734 340.371C245.511 341.953 245.9 343.804 245.9 345.925C245.9 348.028 245.511 349.867 244.734 351.44C243.965 353.013 242.887 354.237 241.499 355.112C240.12 355.987 238.512 356.424 236.674 356.424ZM236.674 353.614C238.07 353.614 239.219 353.256 240.12 352.54C241.022 351.824 241.689 350.883 242.122 349.716C242.555 348.55 242.772 347.286 242.772 345.925C242.772 344.564 242.555 343.296 242.122 342.121C241.689 340.945 241.022 339.995 240.12 339.27C239.219 338.546 238.07 338.183 236.674 338.183C235.277 338.183 234.129 338.546 233.227 339.27C232.326 339.995 231.658 340.945 231.225 342.121C230.792 343.296 230.576 344.564 230.576 345.925C230.576 347.286 230.792 348.55 231.225 349.716C231.658 350.883 232.326 351.824 233.227 352.54C234.129 353.256 235.277 353.614 236.674 353.614ZM254.364 343.751V356H251.236V335.638H254.258V338.82H254.523C255.001 337.786 255.725 336.955 256.697 336.328C257.67 335.691 258.924 335.373 260.462 335.373C261.841 335.373 263.047 335.656 264.081 336.221C265.115 336.778 265.919 337.627 266.494 338.767C267.068 339.898 267.356 341.33 267.356 343.062V356H264.227V343.274C264.227 341.674 263.812 340.428 262.981 339.536C262.15 338.634 261.01 338.183 259.561 338.183C258.562 338.183 257.67 338.4 256.883 338.833C256.105 339.266 255.491 339.898 255.04 340.729C254.59 341.559 254.364 342.567 254.364 343.751ZM276.761 343.751V356H273.632V335.638H276.655V338.82H276.92C277.397 337.786 278.122 336.955 279.094 336.328C280.066 335.691 281.321 335.373 282.859 335.373C284.237 335.373 285.444 335.656 286.478 336.221C287.512 336.778 288.316 337.627 288.89 338.767C289.465 339.898 289.752 341.33 289.752 343.062V356H286.624V343.274C286.624 341.674 286.208 340.428 285.377 339.536C284.547 338.634 283.407 338.183 281.957 338.183C280.959 338.183 280.066 338.4 279.28 338.833C278.502 339.266 277.888 339.898 277.437 340.729C276.986 341.559 276.761 342.567 276.761 343.751ZM304.566 356.424C302.604 356.424 300.912 355.991 299.489 355.125C298.075 354.25 296.983 353.031 296.214 351.466C295.454 349.893 295.074 348.064 295.074 345.978C295.074 343.892 295.454 342.054 296.214 340.464C296.983 338.864 298.053 337.618 299.422 336.725C300.801 335.824 302.41 335.373 304.248 335.373C305.308 335.373 306.356 335.55 307.39 335.903C308.424 336.257 309.365 336.831 310.213 337.627C311.062 338.413 311.738 339.456 312.241 340.755C312.745 342.054 312.997 343.654 312.997 345.554V346.88H297.301V344.175H309.816C309.816 343.026 309.586 342.001 309.126 341.1C308.675 340.198 308.03 339.487 307.191 338.966C306.36 338.444 305.379 338.183 304.248 338.183C303.002 338.183 301.924 338.493 301.013 339.111C300.112 339.721 299.418 340.517 298.932 341.498C298.446 342.478 298.203 343.53 298.203 344.653V346.455C298.203 347.993 298.468 349.297 298.998 350.366C299.537 351.427 300.284 352.235 301.239 352.792C302.193 353.34 303.302 353.614 304.566 353.614C305.388 353.614 306.13 353.499 306.793 353.269C307.465 353.031 308.044 352.677 308.53 352.209C309.016 351.731 309.391 351.139 309.656 350.432L312.679 351.281C312.361 352.306 311.826 353.207 311.075 353.985C310.324 354.754 309.396 355.355 308.291 355.788C307.186 356.212 305.945 356.424 304.566 356.424ZM326.588 356.424C324.679 356.424 323.035 355.973 321.657 355.072C320.278 354.171 319.217 352.929 318.475 351.347C317.733 349.765 317.362 347.958 317.362 345.925C317.362 343.857 317.742 342.032 318.502 340.45C319.27 338.859 320.34 337.618 321.71 336.725C323.088 335.824 324.697 335.373 326.535 335.373C327.967 335.373 329.257 335.638 330.406 336.168C331.555 336.699 332.496 337.441 333.229 338.396C333.963 339.35 334.418 340.464 334.595 341.736H331.466C331.228 340.808 330.698 339.986 329.876 339.27C329.063 338.546 327.967 338.183 326.588 338.183C325.368 338.183 324.299 338.502 323.38 339.138C322.47 339.765 321.758 340.654 321.246 341.802C320.742 342.942 320.49 344.281 320.49 345.819C320.49 347.392 320.738 348.762 321.232 349.929C321.736 351.095 322.443 352.001 323.353 352.646C324.273 353.291 325.351 353.614 326.588 353.614C327.401 353.614 328.139 353.472 328.802 353.19C329.465 352.907 330.026 352.5 330.485 351.97C330.945 351.44 331.272 350.803 331.466 350.061H334.595C334.418 351.263 333.981 352.346 333.283 353.309C332.593 354.263 331.678 355.023 330.538 355.589C329.407 356.146 328.09 356.424 326.588 356.424ZM348.584 335.638V338.289H338.031V335.638H348.584ZM341.107 330.76H344.235V350.167C344.235 351.051 344.364 351.714 344.62 352.156C344.885 352.589 345.221 352.88 345.627 353.031C346.043 353.172 346.48 353.243 346.94 353.243C347.284 353.243 347.567 353.225 347.788 353.19C348.009 353.145 348.186 353.11 348.318 353.084L348.955 355.894C348.743 355.973 348.447 356.053 348.067 356.133C347.687 356.221 347.205 356.265 346.622 356.265C345.738 356.265 344.872 356.075 344.023 355.695C343.184 355.315 342.486 354.736 341.929 353.959C341.381 353.181 341.107 352.2 341.107 351.016V330.76ZM353.85 356V335.638H356.978V356H353.85ZM355.44 332.245C354.83 332.245 354.305 332.037 353.863 331.621C353.43 331.206 353.213 330.707 353.213 330.124C353.213 329.54 353.43 329.041 353.863 328.626C354.305 328.21 354.83 328.002 355.44 328.002C356.05 328.002 356.572 328.21 357.005 328.626C357.446 329.041 357.667 329.54 357.667 330.124C357.667 330.707 357.446 331.206 357.005 331.621C356.572 332.037 356.05 332.245 355.44 332.245ZM366.397 343.751V356H363.268V335.638H366.291V338.82H366.556C367.033 337.786 367.758 336.955 368.73 336.328C369.702 335.691 370.957 335.373 372.495 335.373C373.873 335.373 375.08 335.656 376.114 336.221C377.148 336.778 377.952 337.627 378.526 338.767C379.101 339.898 379.388 341.33 379.388 343.062V356H376.259V343.274C376.259 341.674 375.844 340.428 375.013 339.536C374.182 338.634 373.042 338.183 371.593 338.183C370.594 338.183 369.702 338.4 368.915 338.833C368.138 339.266 367.523 339.898 367.073 340.729C366.622 341.559 366.397 342.567 366.397 343.751ZM393.884 364.06C392.372 364.06 391.073 363.865 389.986 363.477C388.899 363.097 387.993 362.593 387.269 361.965C386.553 361.347 385.983 360.684 385.559 359.977L388.051 358.227C388.334 358.598 388.691 359.022 389.125 359.5C389.558 359.986 390.15 360.406 390.901 360.759C391.661 361.121 392.655 361.303 393.884 361.303C395.527 361.303 396.884 360.905 397.953 360.109C399.023 359.314 399.557 358.068 399.557 356.371V352.235H399.292C399.062 352.606 398.735 353.066 398.311 353.614C397.896 354.153 397.295 354.635 396.508 355.059C395.731 355.474 394.679 355.682 393.353 355.682C391.71 355.682 390.234 355.293 388.926 354.515C387.627 353.738 386.597 352.606 385.837 351.122C385.086 349.637 384.71 347.834 384.71 345.713C384.71 343.627 385.077 341.811 385.81 340.265C386.544 338.709 387.565 337.507 388.873 336.659C390.181 335.802 391.692 335.373 393.406 335.373C394.732 335.373 395.784 335.594 396.561 336.036C397.348 336.469 397.949 336.964 398.364 337.521C398.788 338.069 399.115 338.519 399.345 338.873H399.663V335.638H402.686V356.583C402.686 358.333 402.288 359.756 401.493 360.852C400.706 361.957 399.646 362.765 398.311 363.278C396.986 363.799 395.51 364.06 393.884 364.06ZM393.778 352.871C395.032 352.871 396.093 352.584 396.959 352.01C397.825 351.435 398.484 350.609 398.934 349.531C399.385 348.453 399.61 347.162 399.61 345.66C399.61 344.193 399.389 342.898 398.948 341.776C398.506 340.654 397.852 339.774 396.986 339.138C396.119 338.502 395.05 338.183 393.778 338.183C392.452 338.183 391.347 338.519 390.463 339.191C389.588 339.863 388.93 340.764 388.488 341.895C388.055 343.026 387.839 344.281 387.839 345.66C387.839 347.074 388.06 348.325 388.501 349.412C388.952 350.49 389.615 351.338 390.49 351.957C391.374 352.567 392.47 352.871 393.778 352.871ZM420.456 356V328.851H423.584V338.873H423.849C424.079 338.519 424.397 338.069 424.804 337.521C425.219 336.964 425.811 336.469 426.58 336.036C427.358 335.594 428.41 335.373 429.735 335.373C431.45 335.373 432.961 335.802 434.269 336.659C435.577 337.516 436.598 338.731 437.331 340.304C438.065 341.878 438.431 343.733 438.431 345.872C438.431 348.028 438.065 349.898 437.331 351.48C436.598 353.053 435.581 354.272 434.282 355.138C432.983 355.996 431.485 356.424 429.788 356.424C428.48 356.424 427.433 356.208 426.646 355.775C425.86 355.333 425.255 354.833 424.83 354.277C424.406 353.711 424.079 353.243 423.849 352.871H423.478V356H420.456ZM423.531 345.819C423.531 347.357 423.757 348.713 424.207 349.889C424.658 351.055 425.316 351.97 426.183 352.633C427.049 353.287 428.109 353.614 429.364 353.614C430.672 353.614 431.763 353.269 432.638 352.58C433.522 351.882 434.185 350.945 434.627 349.769C435.078 348.585 435.303 347.268 435.303 345.819C435.303 344.387 435.082 343.097 434.64 341.948C434.207 340.79 433.549 339.876 432.665 339.204C431.79 338.524 430.69 338.183 429.364 338.183C428.091 338.183 427.022 338.506 426.156 339.151C425.29 339.787 424.636 340.68 424.194 341.829C423.752 342.969 423.531 344.299 423.531 345.819ZM456.609 347.675V335.638H459.738V356H456.609V352.553H456.397C455.92 353.587 455.177 354.467 454.17 355.191C453.162 355.907 451.89 356.265 450.352 356.265C449.079 356.265 447.948 355.987 446.958 355.43C445.969 354.864 445.191 354.016 444.625 352.885C444.06 351.745 443.777 350.309 443.777 348.576V335.638H446.905V348.364C446.905 349.849 447.321 351.033 448.152 351.917C448.991 352.801 450.06 353.243 451.36 353.243C452.137 353.243 452.928 353.044 453.732 352.646C454.546 352.248 455.226 351.639 455.774 350.817C456.331 349.995 456.609 348.948 456.609 347.675ZM480.451 340.198L477.64 340.994C477.464 340.525 477.203 340.07 476.858 339.628C476.522 339.178 476.063 338.806 475.479 338.515C474.896 338.223 474.149 338.077 473.239 338.077C471.993 338.077 470.955 338.365 470.124 338.939C469.302 339.505 468.891 340.225 468.891 341.1C468.891 341.878 469.174 342.492 469.739 342.942C470.305 343.393 471.189 343.769 472.391 344.069L475.413 344.812C477.234 345.253 478.59 345.93 479.483 346.84C480.375 347.741 480.822 348.903 480.822 350.326C480.822 351.493 480.486 352.536 479.814 353.455C479.151 354.374 478.224 355.099 477.03 355.629C475.837 356.159 474.45 356.424 472.868 356.424C470.791 356.424 469.072 355.973 467.711 355.072C466.35 354.171 465.489 352.854 465.126 351.122L468.096 350.379C468.378 351.475 468.913 352.297 469.7 352.845C470.495 353.393 471.533 353.667 472.815 353.667C474.273 353.667 475.431 353.358 476.288 352.739C477.154 352.111 477.587 351.36 477.587 350.485C477.587 349.778 477.34 349.186 476.845 348.709C476.35 348.223 475.59 347.861 474.565 347.622L471.171 346.827C469.306 346.385 467.937 345.7 467.062 344.772C466.196 343.835 465.763 342.664 465.763 341.259C465.763 340.11 466.085 339.094 466.73 338.21C467.384 337.326 468.272 336.632 469.395 336.129C470.526 335.625 471.807 335.373 473.239 335.373C475.254 335.373 476.836 335.815 477.985 336.699C479.143 337.582 479.965 338.749 480.451 340.198ZM486.091 356V335.638H489.22V356H486.091ZM487.682 332.245C487.072 332.245 486.546 332.037 486.104 331.621C485.671 331.206 485.455 330.707 485.455 330.124C485.455 329.54 485.671 329.041 486.104 328.626C486.546 328.21 487.072 328.002 487.682 328.002C488.292 328.002 488.813 328.21 489.246 328.626C489.688 329.041 489.909 329.54 489.909 330.124C489.909 330.707 489.688 331.206 489.246 331.621C488.813 332.037 488.292 332.245 487.682 332.245ZM498.638 343.751V356H495.51V335.638H498.532V338.82H498.797C499.274 337.786 499.999 336.955 500.971 336.328C501.943 335.691 503.198 335.373 504.736 335.373C506.115 335.373 507.321 335.656 508.355 336.221C509.389 336.778 510.193 337.627 510.768 338.767C511.342 339.898 511.629 341.33 511.629 343.062V356H508.501V343.274C508.501 341.674 508.085 340.428 507.255 339.536C506.424 338.634 505.284 338.183 503.835 338.183C502.836 338.183 501.943 338.4 501.157 338.833C500.379 339.266 499.765 339.898 499.314 340.729C498.863 341.559 498.638 342.567 498.638 343.751ZM526.443 356.424C524.481 356.424 522.789 355.991 521.366 355.125C519.952 354.25 518.861 353.031 518.092 351.466C517.332 349.893 516.952 348.064 516.952 345.978C516.952 343.892 517.332 342.054 518.092 340.464C518.861 338.864 519.93 337.618 521.3 336.725C522.678 335.824 524.287 335.373 526.125 335.373C527.186 335.373 528.233 335.55 529.267 335.903C530.301 336.257 531.242 336.831 532.09 337.627C532.939 338.413 533.615 339.456 534.119 340.755C534.622 342.054 534.874 343.654 534.874 345.554V346.88H519.179V344.175H531.693C531.693 343.026 531.463 342.001 531.003 341.1C530.553 340.198 529.908 339.487 529.068 338.966C528.237 338.444 527.256 338.183 526.125 338.183C524.879 338.183 523.801 338.493 522.891 339.111C521.989 339.721 521.295 340.517 520.809 341.498C520.323 342.478 520.08 343.53 520.08 344.653V346.455C520.08 347.993 520.345 349.297 520.876 350.366C521.415 351.427 522.161 352.235 523.116 352.792C524.07 353.34 525.179 353.614 526.443 353.614C527.265 353.614 528.008 353.499 528.67 353.269C529.342 353.031 529.921 352.677 530.407 352.209C530.893 351.731 531.269 351.139 531.534 350.432L534.556 351.281C534.238 352.306 533.703 353.207 532.952 353.985C532.201 354.754 531.273 355.355 530.168 355.788C529.064 356.212 527.822 356.424 526.443 356.424ZM554.616 340.198L551.806 340.994C551.629 340.525 551.368 340.07 551.024 339.628C550.688 339.178 550.228 338.806 549.645 338.515C549.062 338.223 548.315 338.077 547.405 338.077C546.159 338.077 545.12 338.365 544.29 338.939C543.468 339.505 543.057 340.225 543.057 341.1C543.057 341.878 543.34 342.492 543.905 342.942C544.471 343.393 545.354 343.769 546.556 344.069L549.579 344.812C551.399 345.253 552.756 345.93 553.649 346.84C554.541 347.741 554.987 348.903 554.987 350.326C554.987 351.493 554.652 352.536 553.98 353.455C553.317 354.374 552.389 355.099 551.196 355.629C550.003 356.159 548.616 356.424 547.034 356.424C544.957 356.424 543.238 355.973 541.877 355.072C540.516 354.171 539.654 352.854 539.292 351.122L542.261 350.379C542.544 351.475 543.079 352.297 543.865 352.845C544.661 353.393 545.699 353.667 546.981 353.667C548.439 353.667 549.597 353.358 550.454 352.739C551.32 352.111 551.753 351.36 551.753 350.485C551.753 349.778 551.505 349.186 551.011 348.709C550.516 348.223 549.756 347.861 548.73 347.622L545.337 346.827C543.472 346.385 542.102 345.7 541.227 344.772C540.361 343.835 539.928 342.664 539.928 341.259C539.928 340.11 540.251 339.094 540.896 338.21C541.55 337.326 542.438 336.632 543.56 336.129C544.692 335.625 545.973 335.373 547.405 335.373C549.42 335.373 551.002 335.815 552.151 336.699C553.308 337.582 554.13 338.749 554.616 340.198ZM574.68 340.198L571.869 340.994C571.693 340.525 571.432 340.07 571.087 339.628C570.751 339.178 570.292 338.806 569.709 338.515C569.125 338.223 568.379 338.077 567.468 338.077C566.222 338.077 565.184 338.365 564.353 338.939C563.531 339.505 563.12 340.225 563.12 341.1C563.12 341.878 563.403 342.492 563.969 342.942C564.534 343.393 565.418 343.769 566.62 344.069L569.642 344.812C571.463 345.253 572.819 345.93 573.712 346.84C574.605 347.741 575.051 348.903 575.051 350.326C575.051 351.493 574.715 352.536 574.043 353.455C573.381 354.374 572.453 355.099 571.26 355.629C570.066 356.159 568.679 356.424 567.097 356.424C565.02 356.424 563.301 355.973 561.94 355.072C560.579 354.171 559.718 352.854 559.355 351.122L562.325 350.379C562.608 351.475 563.142 352.297 563.929 352.845C564.724 353.393 565.763 353.667 567.044 353.667C568.502 353.667 569.66 353.358 570.517 352.739C571.383 352.111 571.816 351.36 571.816 350.485C571.816 349.778 571.569 349.186 571.074 348.709C570.579 348.223 569.819 347.861 568.794 347.622L565.4 346.827C563.536 346.385 562.166 345.7 561.291 344.772C560.425 343.835 559.992 342.664 559.992 341.259C559.992 340.11 560.314 339.094 560.959 338.21C561.613 337.326 562.502 336.632 563.624 336.129C564.755 335.625 566.037 335.373 567.468 335.373C569.483 335.373 571.065 335.815 572.214 336.699C573.372 337.582 574.194 338.749 574.68 340.198ZM588.857 356.424C586.895 356.424 585.203 355.991 583.78 355.125C582.366 354.25 581.275 353.031 580.506 351.466C579.746 349.893 579.366 348.064 579.366 345.978C579.366 343.892 579.746 342.054 580.506 340.464C581.275 338.864 582.344 337.618 583.714 336.725C585.092 335.824 586.701 335.373 588.539 335.373C589.6 335.373 590.647 335.55 591.681 335.903C592.715 336.257 593.656 336.831 594.505 337.627C595.353 338.413 596.029 339.456 596.533 340.755C597.036 342.054 597.288 343.654 597.288 345.554V346.88H581.593V344.175H594.107C594.107 343.026 593.877 342.001 593.417 341.1C592.967 340.198 592.322 339.487 591.482 338.966C590.651 338.444 589.67 338.183 588.539 338.183C587.293 338.183 586.215 338.493 585.305 339.111C584.403 339.721 583.709 340.517 583.223 341.498C582.737 342.478 582.494 343.53 582.494 344.653V346.455C582.494 347.993 582.759 349.297 583.29 350.366C583.829 351.427 584.575 352.235 585.53 352.792C586.484 353.34 587.594 353.614 588.857 353.614C589.679 353.614 590.422 353.499 591.084 353.269C591.756 353.031 592.335 352.677 592.821 352.209C593.307 351.731 593.683 351.139 593.948 350.432L596.97 351.281C596.652 352.306 596.117 353.207 595.366 353.985C594.615 354.754 593.687 355.355 592.582 355.788C591.478 356.212 590.236 356.424 588.857 356.424ZM617.03 340.198L614.22 340.994C614.043 340.525 613.782 340.07 613.438 339.628C613.102 339.178 612.642 338.806 612.059 338.515C611.476 338.223 610.729 338.077 609.819 338.077C608.573 338.077 607.534 338.365 606.704 338.939C605.882 339.505 605.471 340.225 605.471 341.1C605.471 341.878 605.754 342.492 606.319 342.942C606.885 343.393 607.768 343.769 608.97 344.069L611.993 344.812C613.813 345.253 615.17 345.93 616.063 346.84C616.955 347.741 617.401 348.903 617.401 350.326C617.401 351.493 617.066 352.536 616.394 353.455C615.731 354.374 614.803 355.099 613.61 355.629C612.417 356.159 611.03 356.424 609.448 356.424C607.371 356.424 605.652 355.973 604.291 355.072C602.93 354.171 602.068 352.854 601.706 351.122L604.675 350.379C604.958 351.475 605.493 352.297 606.279 352.845C607.075 353.393 608.113 353.667 609.395 353.667C610.853 353.667 612.011 353.358 612.868 352.739C613.734 352.111 614.167 351.36 614.167 350.485C614.167 349.778 613.919 349.186 613.425 348.709C612.93 348.223 612.17 347.861 611.144 347.622L607.751 346.827C605.886 346.385 604.516 345.7 603.641 344.772C602.775 343.835 602.342 342.664 602.342 341.259C602.342 340.11 602.665 339.094 603.31 338.21C603.964 337.326 604.852 336.632 605.974 336.129C607.106 335.625 608.387 335.373 609.819 335.373C611.834 335.373 613.416 335.815 614.565 336.699C615.722 337.582 616.544 338.749 617.03 340.198ZM638.343 356L632.139 335.638H635.427L639.828 351.228H640.04L644.388 335.638H647.729L652.024 351.175H652.236L656.637 335.638H659.924L653.72 356H650.645L646.191 340.357H645.873L641.418 356H638.343ZM664.62 356V335.638H667.749V356H664.62ZM666.211 332.245C665.601 332.245 665.075 332.037 664.634 331.621C664.201 331.206 663.984 330.707 663.984 330.124C663.984 329.54 664.201 329.041 664.634 328.626C665.075 328.21 665.601 328.002 666.211 328.002C666.821 328.002 667.342 328.21 667.775 328.626C668.217 329.041 668.438 329.54 668.438 330.124C668.438 330.707 668.217 331.206 667.775 331.621C667.342 332.037 666.821 332.245 666.211 332.245ZM682.894 335.638V338.289H672.342V335.638H682.894ZM675.418 330.76H678.546V350.167C678.546 351.051 678.674 351.714 678.93 352.156C679.196 352.589 679.531 352.88 679.938 353.031C680.353 353.172 680.791 353.243 681.25 353.243C681.595 353.243 681.878 353.225 682.099 353.19C682.32 353.145 682.496 353.11 682.629 353.084L683.265 355.894C683.053 355.973 682.757 356.053 682.377 356.133C681.997 356.221 681.515 356.265 680.932 356.265C680.048 356.265 679.182 356.075 678.334 355.695C677.494 355.315 676.796 354.736 676.239 353.959C675.692 353.181 675.418 352.2 675.418 351.016V330.76ZM691.726 343.751V356H688.598V328.851H691.726V338.82H691.991C692.468 337.768 693.184 336.933 694.139 336.314C695.102 335.687 696.383 335.373 697.983 335.373C699.371 335.373 700.586 335.651 701.629 336.208C702.671 336.756 703.48 337.6 704.055 338.74C704.638 339.871 704.929 341.312 704.929 343.062V356H701.801V343.274C701.801 341.657 701.381 340.406 700.542 339.522C699.711 338.63 698.558 338.183 697.082 338.183C696.057 338.183 695.137 338.4 694.324 338.833C693.52 339.266 692.884 339.898 692.415 340.729C691.956 341.559 691.726 342.567 691.726 343.751ZM722.272 356V335.638H725.4V356H722.272ZM723.863 332.245C723.253 332.245 722.727 332.037 722.285 331.621C721.852 331.206 721.636 330.707 721.636 330.124C721.636 329.54 721.852 329.041 722.285 328.626C722.727 328.21 723.253 328.002 723.863 328.002C724.472 328.002 724.994 328.21 725.427 328.626C725.869 329.041 726.09 329.54 726.09 330.124C726.09 330.707 725.869 331.206 725.427 331.621C724.994 332.037 724.472 332.245 723.863 332.245ZM734.819 343.751V356H731.69V335.638H734.713V338.82H734.978C735.455 337.786 736.18 336.955 737.152 336.328C738.124 335.691 739.379 335.373 740.917 335.373C742.296 335.373 743.502 335.656 744.536 336.221C745.57 336.778 746.374 337.627 746.949 338.767C747.523 339.898 747.81 341.33 747.81 343.062V356H744.682V343.274C744.682 341.674 744.266 340.428 743.436 339.536C742.605 338.634 741.465 338.183 740.015 338.183C739.017 338.183 738.124 338.4 737.338 338.833C736.56 339.266 735.946 339.898 735.495 340.729C735.044 341.559 734.819 342.567 734.819 343.751ZM770.008 335.638L762.478 356H759.297L751.767 335.638H755.161L760.781 351.864H760.994L766.614 335.638H770.008ZM782.505 356.424C780.543 356.424 778.851 355.991 777.428 355.125C776.014 354.25 774.923 353.031 774.154 351.466C773.394 349.893 773.014 348.064 773.014 345.978C773.014 343.892 773.394 342.054 774.154 340.464C774.923 338.864 775.992 337.618 777.362 336.725C778.74 335.824 780.349 335.373 782.187 335.373C783.248 335.373 784.295 335.55 785.329 335.903C786.363 336.257 787.304 336.831 788.152 337.627C789.001 338.413 789.677 339.456 790.181 340.755C790.684 342.054 790.936 343.654 790.936 345.554V346.88H775.241V344.175H787.755C787.755 343.026 787.525 342.001 787.065 341.1C786.615 340.198 785.97 339.487 785.13 338.966C784.299 338.444 783.318 338.183 782.187 338.183C780.941 338.183 779.863 338.493 778.953 339.111C778.051 339.721 777.357 340.517 776.871 341.498C776.385 342.478 776.142 343.53 776.142 344.653V346.455C776.142 347.993 776.407 349.297 776.938 350.366C777.477 351.427 778.223 352.235 779.178 352.792C780.132 353.34 781.241 353.614 782.505 353.614C783.327 353.614 784.069 353.499 784.732 353.269C785.404 353.031 785.983 352.677 786.469 352.209C786.955 351.731 787.331 351.139 787.596 350.432L790.618 351.281C790.3 352.306 789.765 353.207 789.014 353.985C788.263 354.754 787.335 355.355 786.23 355.788C785.126 356.212 783.884 356.424 782.505 356.424ZM810.678 340.198L807.868 340.994C807.691 340.525 807.43 340.07 807.086 339.628C806.75 339.178 806.29 338.806 805.707 338.515C805.124 338.223 804.377 338.077 803.467 338.077C802.221 338.077 801.182 338.365 800.351 338.939C799.53 339.505 799.119 340.225 799.119 341.1C799.119 341.878 799.401 342.492 799.967 342.942C800.533 343.393 801.416 343.769 802.618 344.069L805.641 344.812C807.461 345.253 808.818 345.93 809.71 346.84C810.603 347.741 811.049 348.903 811.049 350.326C811.049 351.493 810.714 352.536 810.042 353.455C809.379 354.374 808.451 355.099 807.258 355.629C806.065 356.159 804.677 356.424 803.096 356.424C801.019 356.424 799.3 355.973 797.939 355.072C796.578 354.171 795.716 352.854 795.354 351.122L798.323 350.379C798.606 351.475 799.141 352.297 799.927 352.845C800.723 353.393 801.761 353.667 803.043 353.667C804.501 353.667 805.658 353.358 806.516 352.739C807.382 352.111 807.815 351.36 807.815 350.485C807.815 349.778 807.567 349.186 807.072 348.709C806.578 348.223 805.818 347.861 804.792 347.622L801.399 346.827C799.534 346.385 798.164 345.7 797.289 344.772C796.423 343.835 795.99 342.664 795.99 341.259C795.99 340.11 796.313 339.094 796.958 338.21C797.612 337.326 798.5 336.632 799.622 336.129C800.754 335.625 802.035 335.373 803.467 335.373C805.482 335.373 807.064 335.815 808.212 336.699C809.37 337.582 810.192 338.749 810.678 340.198ZM825.174 335.638V338.289H814.622V335.638H825.174ZM817.697 330.76H820.826V350.167C820.826 351.051 820.954 351.714 821.21 352.156C821.475 352.589 821.811 352.88 822.218 353.031C822.633 353.172 823.071 353.243 823.53 353.243C823.875 353.243 824.158 353.225 824.379 353.19C824.6 353.145 824.776 353.11 824.909 353.084L825.545 355.894C825.333 355.973 825.037 356.053 824.657 356.133C824.277 356.221 823.795 356.265 823.212 356.265C822.328 356.265 821.462 356.075 820.614 355.695C819.774 355.315 819.076 354.736 818.519 353.959C817.971 353.181 817.697 352.2 817.697 351.016V330.76ZM838.493 356.424C836.655 356.424 835.042 355.987 833.655 355.112C832.276 354.237 831.198 353.013 830.42 351.44C829.651 349.867 829.267 348.028 829.267 345.925C829.267 343.804 829.651 341.953 830.42 340.371C831.198 338.789 832.276 337.56 833.655 336.685C835.042 335.811 836.655 335.373 838.493 335.373C840.331 335.373 841.94 335.811 843.318 336.685C844.706 337.56 845.784 338.789 846.553 340.371C847.331 341.953 847.72 343.804 847.72 345.925C847.72 348.028 847.331 349.867 846.553 351.44C845.784 353.013 844.706 354.237 843.318 355.112C841.94 355.987 840.331 356.424 838.493 356.424ZM838.493 353.614C839.889 353.614 841.038 353.256 841.94 352.54C842.841 351.824 843.508 350.883 843.942 349.716C844.375 348.55 844.591 347.286 844.591 345.925C844.591 344.564 844.375 343.296 843.942 342.121C843.508 340.945 842.841 339.995 841.94 339.27C841.038 338.546 839.889 338.183 838.493 338.183C837.097 338.183 835.948 338.546 835.046 339.27C834.145 339.995 833.478 340.945 833.045 342.121C832.612 343.296 832.395 344.564 832.395 345.925C832.395 347.286 832.612 348.55 833.045 349.716C833.478 350.883 834.145 351.824 835.046 352.54C835.948 353.256 837.097 353.614 838.493 353.614ZM853.055 356V335.638H856.078V338.714H856.29C856.661 337.706 857.333 336.889 858.305 336.261C859.277 335.634 860.373 335.32 861.592 335.32C861.822 335.32 862.109 335.324 862.454 335.333C862.799 335.342 863.059 335.355 863.236 335.373V338.555C863.13 338.528 862.887 338.488 862.507 338.435C862.136 338.373 861.743 338.342 861.327 338.342C860.337 338.342 859.454 338.55 858.676 338.966C857.907 339.372 857.297 339.938 856.846 340.662C856.405 341.378 856.184 342.196 856.184 343.115V356H853.055ZM881.927 340.198L879.117 340.994C878.94 340.525 878.68 340.07 878.335 339.628C877.999 339.178 877.54 338.806 876.956 338.515C876.373 338.223 875.626 338.077 874.716 338.077C873.47 338.077 872.431 338.365 871.601 338.939C870.779 339.505 870.368 340.225 870.368 341.1C870.368 341.878 870.651 342.492 871.216 342.942C871.782 343.393 872.666 343.769 873.868 344.069L876.89 344.812C878.711 345.253 880.067 345.93 880.96 346.84C881.852 347.741 882.299 348.903 882.299 350.326C882.299 351.493 881.963 352.536 881.291 353.455C880.628 354.374 879.7 355.099 878.507 355.629C877.314 356.159 875.927 356.424 874.345 356.424C872.268 356.424 870.549 355.973 869.188 355.072C867.827 354.171 866.965 352.854 866.603 351.122L869.572 350.379C869.855 351.475 870.39 352.297 871.177 352.845C871.972 353.393 873.01 353.667 874.292 353.667C875.75 353.667 876.908 353.358 877.765 352.739C878.631 352.111 879.064 351.36 879.064 350.485C879.064 349.778 878.817 349.186 878.322 348.709C877.827 348.223 877.067 347.861 876.042 347.622L872.648 346.827C870.783 346.385 869.413 345.7 868.538 344.772C867.672 343.835 867.239 342.664 867.239 341.259C867.239 340.11 867.562 339.094 868.207 338.21C868.861 337.326 869.749 336.632 870.872 336.129C872.003 335.625 873.284 335.373 874.716 335.373C876.731 335.373 878.313 335.815 879.462 336.699C880.619 337.582 881.441 338.749 881.927 340.198ZM907.694 335.638V338.289H896.718V335.638H907.694ZM900.006 356V332.828C900.006 331.661 900.28 330.689 900.827 329.911C901.375 329.134 902.087 328.55 902.962 328.162C903.837 327.773 904.76 327.578 905.732 327.578C906.501 327.578 907.129 327.64 907.615 327.764C908.101 327.888 908.463 328.002 908.702 328.109L907.8 330.813C907.641 330.76 907.42 330.694 907.138 330.614C906.864 330.534 906.501 330.495 906.051 330.495C905.017 330.495 904.27 330.755 903.81 331.277C903.359 331.798 903.134 332.563 903.134 333.57V356H900.006ZM920.072 356.424C918.234 356.424 916.621 355.987 915.234 355.112C913.855 354.237 912.777 353.013 911.999 351.44C911.23 349.867 910.846 348.028 910.846 345.925C910.846 343.804 911.23 341.953 911.999 340.371C912.777 338.789 913.855 337.56 915.234 336.685C916.621 335.811 918.234 335.373 920.072 335.373C921.911 335.373 923.519 335.811 924.898 336.685C926.285 337.56 927.363 338.789 928.132 340.371C928.91 341.953 929.299 343.804 929.299 345.925C929.299 348.028 928.91 349.867 928.132 351.44C927.363 353.013 926.285 354.237 924.898 355.112C923.519 355.987 921.911 356.424 920.072 356.424ZM920.072 353.614C921.469 353.614 922.618 353.256 923.519 352.54C924.42 351.824 925.088 350.883 925.521 349.716C925.954 348.55 926.17 347.286 926.17 345.925C926.17 344.564 925.954 343.296 925.521 342.121C925.088 340.945 924.42 339.995 923.519 339.27C922.618 338.546 921.469 338.183 920.072 338.183C918.676 338.183 917.527 338.546 916.626 339.27C915.724 339.995 915.057 340.945 914.624 342.121C914.191 343.296 913.974 344.564 913.974 345.925C913.974 347.286 914.191 348.55 914.624 349.716C915.057 350.883 915.724 351.824 916.626 352.54C917.527 353.256 918.676 353.614 920.072 353.614ZM934.634 356V335.638H937.657V338.714H937.869C938.24 337.706 938.912 336.889 939.884 336.261C940.856 335.634 941.952 335.32 943.171 335.32C943.401 335.32 943.688 335.324 944.033 335.333C944.378 335.342 944.639 335.355 944.815 335.373V338.555C944.709 338.528 944.466 338.488 944.086 338.435C943.715 338.373 943.322 338.342 942.906 338.342C941.917 338.342 941.033 338.55 940.255 338.966C939.486 339.372 938.876 339.938 938.426 340.662C937.984 341.378 937.763 342.196 937.763 343.115V356H934.634ZM966.135 356.477C964.844 356.477 963.673 356.234 962.622 355.748C961.57 355.253 960.735 354.542 960.116 353.614C959.498 352.677 959.188 351.546 959.188 350.22C959.188 349.054 959.418 348.108 959.878 347.383C960.337 346.65 960.951 346.075 961.72 345.66C962.489 345.245 963.337 344.935 964.265 344.732C965.202 344.52 966.143 344.352 967.089 344.228C968.326 344.069 969.329 343.95 970.098 343.87C970.876 343.782 971.442 343.636 971.795 343.433C972.157 343.23 972.339 342.876 972.339 342.372V342.266C972.339 340.958 971.981 339.942 971.265 339.217C970.558 338.493 969.484 338.13 968.043 338.13C966.55 338.13 965.379 338.457 964.531 339.111C963.682 339.765 963.086 340.464 962.741 341.206L959.771 340.145C960.302 338.908 961.009 337.945 961.893 337.255C962.785 336.557 963.757 336.071 964.809 335.797C965.869 335.514 966.912 335.373 967.937 335.373C968.591 335.373 969.343 335.453 970.191 335.612C971.048 335.762 971.875 336.076 972.67 336.553C973.474 337.03 974.141 337.75 974.672 338.714C975.202 339.677 975.467 340.967 975.467 342.585V356H972.339V353.243H972.179C971.967 353.685 971.614 354.157 971.119 354.661C970.624 355.165 969.966 355.593 969.144 355.947C968.322 356.3 967.319 356.477 966.135 356.477ZM966.612 353.667C967.849 353.667 968.892 353.424 969.74 352.938C970.598 352.452 971.243 351.824 971.676 351.055C972.118 350.286 972.339 349.478 972.339 348.629V345.766C972.206 345.925 971.914 346.071 971.464 346.204C971.022 346.327 970.509 346.438 969.926 346.535C969.351 346.623 968.79 346.703 968.242 346.774C967.703 346.835 967.266 346.888 966.93 346.933C966.117 347.039 965.357 347.211 964.65 347.45C963.952 347.679 963.386 348.028 962.953 348.497C962.529 348.956 962.317 349.584 962.317 350.379C962.317 351.466 962.719 352.288 963.523 352.845C964.336 353.393 965.366 353.667 966.612 353.667ZM457.375 406V378.851H460.503V388.873H460.768C460.998 388.519 461.316 388.069 461.723 387.521C462.138 386.964 462.73 386.469 463.499 386.036C464.277 385.594 465.328 385.373 466.654 385.373C468.368 385.373 469.88 385.802 471.188 386.659C472.496 387.516 473.516 388.731 474.25 390.304C474.983 391.878 475.35 393.733 475.35 395.872C475.35 398.028 474.983 399.898 474.25 401.48C473.516 403.053 472.5 404.272 471.201 405.138C469.902 405.996 468.404 406.424 466.707 406.424C465.399 406.424 464.352 406.208 463.565 405.775C462.779 405.333 462.173 404.833 461.749 404.277C461.325 403.711 460.998 403.243 460.768 402.871H460.397V406H457.375ZM460.45 395.819C460.45 397.357 460.675 398.713 461.126 399.889C461.577 401.055 462.235 401.97 463.101 402.633C463.967 403.287 465.028 403.614 466.283 403.614C467.591 403.614 468.682 403.269 469.557 402.58C470.441 401.882 471.104 400.945 471.546 399.769C471.996 398.585 472.222 397.268 472.222 395.819C472.222 394.387 472.001 393.097 471.559 391.948C471.126 390.79 470.467 389.876 469.584 389.204C468.709 388.524 467.608 388.183 466.283 388.183C465.01 388.183 463.941 388.506 463.075 389.151C462.209 389.787 461.555 390.68 461.113 391.829C460.671 392.969 460.45 394.299 460.45 395.819ZM480.696 406V385.638H483.718V388.714H483.93C484.301 387.706 484.973 386.889 485.945 386.261C486.917 385.634 488.013 385.32 489.233 385.32C489.463 385.32 489.75 385.324 490.095 385.333C490.439 385.342 490.7 385.355 490.877 385.373V388.555C490.771 388.528 490.528 388.488 490.148 388.435C489.776 388.373 489.383 388.342 488.968 388.342C487.978 388.342 487.094 388.55 486.316 388.966C485.548 389.372 484.938 389.938 484.487 390.662C484.045 391.378 483.824 392.196 483.824 393.115V406H480.696ZM495.145 406V385.638H498.274V406H495.145ZM496.736 382.245C496.126 382.245 495.6 382.037 495.158 381.621C494.725 381.206 494.509 380.707 494.509 380.124C494.509 379.54 494.725 379.041 495.158 378.626C495.6 378.21 496.126 378.002 496.736 378.002C497.346 378.002 497.867 378.21 498.3 378.626C498.742 379.041 498.963 379.54 498.963 380.124C498.963 380.707 498.742 381.206 498.3 381.621C497.867 382.037 497.346 382.245 496.736 382.245ZM512.783 414.06C511.271 414.06 509.972 413.865 508.885 413.477C507.798 413.097 506.892 412.593 506.168 411.965C505.452 411.347 504.882 410.684 504.458 409.977L506.95 408.227C507.233 408.598 507.59 409.022 508.023 409.5C508.457 409.986 509.049 410.406 509.8 410.759C510.56 411.121 511.554 411.303 512.783 411.303C514.426 411.303 515.783 410.905 516.852 410.109C517.922 409.314 518.456 408.068 518.456 406.371V402.235H518.191C517.961 402.606 517.634 403.066 517.21 403.614C516.795 404.153 516.194 404.635 515.407 405.059C514.63 405.474 513.578 405.682 512.252 405.682C510.608 405.682 509.133 405.293 507.825 404.515C506.526 403.738 505.496 402.606 504.736 401.122C503.985 399.637 503.609 397.834 503.609 395.713C503.609 393.627 503.976 391.811 504.709 390.265C505.443 388.709 506.464 387.507 507.772 386.659C509.08 385.802 510.591 385.373 512.305 385.373C513.631 385.373 514.683 385.594 515.46 386.036C516.247 386.469 516.848 386.964 517.263 387.521C517.687 388.069 518.014 388.519 518.244 388.873H518.562V385.638H521.585V406.583C521.585 408.333 521.187 409.756 520.392 410.852C519.605 411.957 518.545 412.765 517.21 413.278C515.885 413.799 514.409 414.06 512.783 414.06ZM512.676 402.871C513.931 402.871 514.992 402.584 515.858 402.01C516.724 401.435 517.383 400.609 517.833 399.531C518.284 398.453 518.509 397.162 518.509 395.66C518.509 394.193 518.288 392.898 517.846 391.776C517.405 390.654 516.751 389.774 515.885 389.138C515.018 388.502 513.949 388.183 512.676 388.183C511.351 388.183 510.246 388.519 509.362 389.191C508.487 389.863 507.829 390.764 507.387 391.895C506.954 393.026 506.738 394.281 506.738 395.66C506.738 397.074 506.959 398.325 507.4 399.412C507.851 400.49 508.514 401.338 509.389 401.957C510.273 402.567 511.369 402.871 512.676 402.871ZM531 393.751V406H527.871V378.851H531V388.82H531.265C531.742 387.768 532.458 386.933 533.413 386.314C534.376 385.687 535.657 385.373 537.257 385.373C538.645 385.373 539.86 385.651 540.903 386.208C541.945 386.756 542.754 387.6 543.328 388.74C543.912 389.871 544.203 391.312 544.203 393.062V406H541.075V393.274C541.075 391.657 540.655 390.406 539.816 389.522C538.985 388.63 537.831 388.183 536.356 388.183C535.33 388.183 534.411 388.4 533.598 388.833C532.794 389.266 532.158 389.898 531.689 390.729C531.23 391.559 531 392.567 531 393.751ZM559.342 385.638V388.289H548.79V385.638H559.342ZM551.865 380.76H554.994V400.167C554.994 401.051 555.122 401.714 555.378 402.156C555.644 402.589 555.979 402.88 556.386 403.031C556.801 403.172 557.239 403.243 557.698 403.243C558.043 403.243 558.326 403.225 558.547 403.19C558.768 403.145 558.944 403.11 559.077 403.084L559.713 405.894C559.501 405.973 559.205 406.053 558.825 406.133C558.445 406.221 557.963 406.265 557.38 406.265C556.496 406.265 555.63 406.075 554.782 405.695C553.942 405.315 553.244 404.736 552.687 403.959C552.139 403.181 551.865 402.2 551.865 401.016V380.76ZM572.926 406.424C570.964 406.424 569.272 405.991 567.849 405.125C566.435 404.25 565.344 403.031 564.575 401.466C563.815 399.893 563.435 398.064 563.435 395.978C563.435 393.892 563.815 392.054 564.575 390.464C565.344 388.864 566.413 387.618 567.783 386.725C569.162 385.824 570.77 385.373 572.608 385.373C573.669 385.373 574.716 385.55 575.75 385.903C576.784 386.257 577.725 386.831 578.574 387.627C579.422 388.413 580.098 389.456 580.602 390.755C581.106 392.054 581.357 393.654 581.357 395.554V396.88H565.662V394.175H578.176C578.176 393.026 577.946 392.001 577.487 391.1C577.036 390.198 576.391 389.487 575.551 388.966C574.72 388.444 573.739 388.183 572.608 388.183C571.362 388.183 570.284 388.493 569.374 389.111C568.472 389.721 567.778 390.517 567.292 391.498C566.806 392.478 566.563 393.53 566.563 394.653V396.455C566.563 397.993 566.828 399.297 567.359 400.366C567.898 401.427 568.645 402.235 569.599 402.792C570.553 403.34 571.663 403.614 572.926 403.614C573.748 403.614 574.491 403.499 575.153 403.269C575.825 403.031 576.404 402.677 576.89 402.209C577.376 401.731 577.752 401.139 578.017 400.432L581.039 401.281C580.721 402.306 580.186 403.207 579.435 403.985C578.684 404.754 577.756 405.355 576.651 405.788C575.547 406.212 574.305 406.424 572.926 406.424ZM586.676 406V385.638H589.699V388.714H589.911C590.282 387.706 590.954 386.889 591.926 386.261C592.898 385.634 593.994 385.32 595.214 385.32C595.443 385.32 595.731 385.324 596.075 385.333C596.42 385.342 596.681 385.355 596.857 385.373V388.555C596.751 388.528 596.508 388.488 596.128 388.435C595.757 388.373 595.364 388.342 594.948 388.342C593.959 388.342 593.075 388.55 592.297 388.966C591.528 389.372 590.919 389.938 590.468 390.662C590.026 391.378 589.805 392.196 589.805 393.115V406H586.676ZM621.252 385.638V388.289H610.276V385.638H621.252ZM613.563 406V382.828C613.563 381.661 613.837 380.689 614.385 379.911C614.933 379.134 615.645 378.55 616.52 378.162C617.395 377.773 618.318 377.578 619.29 377.578C620.059 377.578 620.687 377.64 621.173 377.764C621.659 377.888 622.021 378.002 622.26 378.109L621.358 380.813C621.199 380.76 620.978 380.694 620.695 380.614C620.421 380.534 620.059 380.495 619.608 380.495C618.574 380.495 617.828 380.755 617.368 381.277C616.917 381.798 616.692 382.563 616.692 383.57V406H613.563ZM639.029 397.675V385.638H642.157V406H639.029V402.553H638.817C638.34 403.587 637.597 404.467 636.59 405.191C635.582 405.907 634.31 406.265 632.772 406.265C631.499 406.265 630.368 405.987 629.378 405.43C628.388 404.864 627.611 404.016 627.045 402.885C626.479 401.745 626.197 400.309 626.197 398.576V385.638H629.325V398.364C629.325 399.849 629.741 401.033 630.571 401.917C631.411 402.801 632.48 403.243 633.779 403.243C634.557 403.243 635.348 403.044 636.152 402.646C636.965 402.248 637.646 401.639 638.194 400.817C638.75 399.995 639.029 398.948 639.029 397.675ZM657.303 385.638V388.289H646.751V385.638H657.303ZM649.826 380.76H652.955V400.167C652.955 401.051 653.083 401.714 653.339 402.156C653.604 402.589 653.94 402.88 654.346 403.031C654.762 403.172 655.199 403.243 655.659 403.243C656.004 403.243 656.286 403.225 656.507 403.19C656.728 403.145 656.905 403.11 657.038 403.084L657.674 405.894C657.462 405.973 657.166 406.053 656.786 406.133C656.406 406.221 655.924 406.265 655.341 406.265C654.457 406.265 653.591 406.075 652.742 405.695C651.903 405.315 651.205 404.736 650.648 403.959C650.1 403.181 649.826 402.2 649.826 401.016V380.76ZM675.401 397.675V385.638H678.529V406H675.401V402.553H675.189C674.711 403.587 673.969 404.467 672.962 405.191C671.954 405.907 670.682 406.265 669.144 406.265C667.871 406.265 666.74 405.987 665.75 405.43C664.76 404.864 663.983 404.016 663.417 402.885C662.851 401.745 662.569 400.309 662.569 398.576V385.638H665.697V398.364C665.697 399.849 666.113 401.033 666.943 401.917C667.783 402.801 668.852 403.243 670.151 403.243C670.929 403.243 671.72 403.044 672.524 402.646C673.337 402.248 674.018 401.639 674.566 400.817C675.122 399.995 675.401 398.948 675.401 397.675ZM684.819 406V385.638H687.842V388.714H688.054C688.425 387.706 689.097 386.889 690.069 386.261C691.041 385.634 692.137 385.32 693.356 385.32C693.586 385.32 693.873 385.324 694.218 385.333C694.563 385.342 694.824 385.355 695 385.373V388.555C694.894 388.528 694.651 388.488 694.271 388.435C693.9 388.373 693.507 388.342 693.091 388.342C692.102 388.342 691.218 388.55 690.44 388.966C689.671 389.372 689.061 389.938 688.611 390.662C688.169 391.378 687.948 392.196 687.948 393.115V406H684.819ZM707.186 406.424C705.224 406.424 703.532 405.991 702.109 405.125C700.695 404.25 699.603 403.031 698.835 401.466C698.075 399.893 697.695 398.064 697.695 395.978C697.695 393.892 698.075 392.054 698.835 390.464C699.603 388.864 700.673 387.618 702.043 386.725C703.421 385.824 705.03 385.373 706.868 385.373C707.928 385.373 708.976 385.55 710.01 385.903C711.044 386.257 711.985 386.831 712.833 387.627C713.682 388.413 714.358 389.456 714.862 390.755C715.365 392.054 715.617 393.654 715.617 395.554V396.88H699.922V394.175H712.436C712.436 393.026 712.206 392.001 711.746 391.1C711.296 390.198 710.65 389.487 709.811 388.966C708.98 388.444 707.999 388.183 706.868 388.183C705.622 388.183 704.544 388.493 703.633 389.111C702.732 389.721 702.038 390.517 701.552 391.498C701.066 392.478 700.823 393.53 700.823 394.653V396.455C700.823 397.993 701.088 399.297 701.618 400.366C702.157 401.427 702.904 402.235 703.859 402.792C704.813 403.34 705.922 403.614 707.186 403.614C708.008 403.614 708.75 403.499 709.413 403.269C710.085 403.031 710.664 402.677 711.15 402.209C711.636 401.731 712.011 401.139 712.277 400.432L715.299 401.281C714.981 402.306 714.446 403.207 713.695 403.985C712.944 404.754 712.016 405.355 710.911 405.788C709.806 406.212 708.565 406.424 707.186 406.424ZM723.216 406.212C722.562 406.212 722.001 405.978 721.533 405.51C721.064 405.041 720.83 404.48 720.83 403.826C720.83 403.172 721.064 402.611 721.533 402.142C722.001 401.674 722.562 401.44 723.216 401.44C723.87 401.44 724.431 401.674 724.9 402.142C725.368 402.611 725.602 403.172 725.602 403.826C725.602 404.259 725.492 404.657 725.271 405.019C725.059 405.381 724.772 405.673 724.409 405.894C724.056 406.106 723.658 406.212 723.216 406.212Z" fill="white"/>
<rect x="395" y="461" width="400" height="63.8077" rx="11.8464" fill="black"/>
<path d="M518.544 485.396V500.904H516.204V485.396H518.544ZM530.797 501.161C530.06 501.161 529.394 501.025 528.798 500.752C528.203 500.475 527.731 500.073 527.382 499.548C527.039 499.023 526.867 498.38 526.867 497.617C526.867 496.961 526.994 496.421 527.246 495.997C527.498 495.573 527.839 495.237 528.268 494.99C528.697 494.742 529.177 494.556 529.707 494.43C530.237 494.303 530.777 494.207 531.327 494.142C532.024 494.061 532.59 493.995 533.024 493.945C533.458 493.889 533.773 493.801 533.97 493.68C534.167 493.559 534.266 493.362 534.266 493.089V493.036C534.266 492.375 534.079 491.863 533.705 491.499C533.337 491.136 532.786 490.954 532.054 490.954C531.292 490.954 530.691 491.123 530.252 491.461C529.818 491.794 529.518 492.165 529.351 492.574L527.223 492.09C527.476 491.383 527.844 490.812 528.329 490.378C528.819 489.939 529.381 489.621 530.017 489.424C530.654 489.222 531.322 489.121 532.024 489.121C532.489 489.121 532.981 489.177 533.501 489.288C534.026 489.394 534.515 489.591 534.97 489.879C535.429 490.166 535.805 490.578 536.098 491.113C536.391 491.643 536.537 492.332 536.537 493.18V500.904H534.326V499.314H534.235C534.089 499.606 533.869 499.894 533.576 500.177C533.284 500.46 532.908 500.694 532.448 500.881C531.989 501.068 531.439 501.161 530.797 501.161ZM531.29 499.344C531.916 499.344 532.451 499.22 532.895 498.973C533.344 498.726 533.685 498.402 533.917 498.004C534.154 497.6 534.273 497.168 534.273 496.709V495.209C534.192 495.29 534.036 495.366 533.804 495.437C533.576 495.502 533.316 495.56 533.024 495.611C532.731 495.656 532.446 495.699 532.168 495.74C531.89 495.775 531.658 495.805 531.471 495.83C531.032 495.886 530.631 495.979 530.267 496.111C529.909 496.242 529.621 496.431 529.404 496.678C529.192 496.921 529.086 497.244 529.086 497.648C529.086 498.208 529.293 498.632 529.707 498.92C530.121 499.203 530.649 499.344 531.29 499.344ZM539.553 500.904V489.273H541.726V491.166H541.87C542.112 490.525 542.509 490.025 543.059 489.667C543.609 489.303 544.268 489.121 545.035 489.121C545.813 489.121 546.464 489.303 546.989 489.667C547.519 490.03 547.91 490.53 548.163 491.166H548.284C548.561 490.545 549.003 490.05 549.609 489.682C550.215 489.308 550.937 489.121 551.775 489.121C552.83 489.121 553.69 489.452 554.357 490.113C555.028 490.775 555.364 491.772 555.364 493.104V500.904H553.1V493.316C553.1 492.529 552.885 491.958 552.456 491.605C552.027 491.252 551.515 491.075 550.919 491.075C550.182 491.075 549.609 491.302 549.2 491.756C548.791 492.206 548.587 492.784 548.587 493.491V500.904H546.33V493.173C546.33 492.541 546.133 492.034 545.739 491.65C545.346 491.267 544.833 491.075 544.202 491.075C543.773 491.075 543.377 491.189 543.013 491.416C542.655 491.638 542.365 491.948 542.143 492.347C541.926 492.746 541.817 493.208 541.817 493.733V500.904H539.553ZM567.426 501.161C566.689 501.161 566.023 501.025 565.427 500.752C564.832 500.475 564.36 500.073 564.011 499.548C563.668 499.023 563.496 498.38 563.496 497.617C563.496 496.961 563.623 496.421 563.875 495.997C564.127 495.573 564.468 495.237 564.897 494.99C565.326 494.742 565.806 494.556 566.336 494.43C566.866 494.303 567.406 494.207 567.956 494.142C568.653 494.061 569.219 493.995 569.653 493.945C570.087 493.889 570.402 493.801 570.599 493.68C570.796 493.559 570.895 493.362 570.895 493.089V493.036C570.895 492.375 570.708 491.863 570.334 491.499C569.966 491.136 569.415 490.954 568.683 490.954C567.921 490.954 567.32 491.123 566.881 491.461C566.447 491.794 566.147 492.165 565.98 492.574L563.852 492.09C564.105 491.383 564.473 490.812 564.958 490.378C565.448 489.939 566.01 489.621 566.646 489.424C567.283 489.222 567.951 489.121 568.653 489.121C569.118 489.121 569.61 489.177 570.13 489.288C570.655 489.394 571.144 489.591 571.599 489.879C572.058 490.166 572.434 490.578 572.727 491.113C573.02 491.643 573.166 492.332 573.166 493.18V500.904H570.955V499.314H570.864C570.718 499.606 570.498 499.894 570.205 500.177C569.913 500.46 569.537 500.694 569.077 500.881C568.618 501.068 568.068 501.161 567.426 501.161ZM567.919 499.344C568.545 499.344 569.08 499.22 569.524 498.973C569.973 498.726 570.314 498.402 570.546 498.004C570.783 497.6 570.902 497.168 570.902 496.709V495.209C570.821 495.29 570.665 495.366 570.433 495.437C570.205 495.502 569.945 495.56 569.653 495.611C569.36 495.656 569.075 495.699 568.797 495.74C568.519 495.775 568.287 495.805 568.1 495.83C567.661 495.886 567.26 495.979 566.896 496.111C566.538 496.242 566.25 496.431 566.033 496.678C565.821 496.921 565.715 497.244 565.715 497.648C565.715 498.208 565.922 498.632 566.336 498.92C566.75 499.203 567.278 499.344 567.919 499.344ZM578.446 493.998V500.904H576.182V489.273H578.355V491.166H578.499C578.767 490.55 579.186 490.055 579.756 489.682C580.331 489.308 581.056 489.121 581.929 489.121C582.722 489.121 583.416 489.288 584.012 489.621C584.607 489.949 585.069 490.439 585.397 491.09C585.725 491.741 585.89 492.547 585.89 493.506V500.904H583.625V493.778C583.625 492.935 583.406 492.276 582.967 491.802C582.527 491.322 581.924 491.083 581.157 491.083C580.632 491.083 580.165 491.196 579.756 491.423C579.352 491.65 579.032 491.984 578.794 492.423C578.562 492.857 578.446 493.382 578.446 493.998ZM594.569 500.904V489.273H596.833V500.904H594.569ZM595.713 487.478C595.319 487.478 594.981 487.347 594.698 487.084C594.42 486.817 594.282 486.499 594.282 486.13C594.282 485.757 594.42 485.439 594.698 485.176C594.981 484.909 595.319 484.775 595.713 484.775C596.106 484.775 596.442 484.909 596.72 485.176C597.002 485.439 597.144 485.757 597.144 486.13C597.144 486.499 597.002 486.817 596.72 487.084C596.442 487.347 596.106 487.478 595.713 487.478ZM602.143 493.998V500.904H599.879V489.273H602.053V491.166H602.196C602.464 490.55 602.883 490.055 603.453 489.682C604.029 489.308 604.753 489.121 605.627 489.121C606.419 489.121 607.113 489.288 607.709 489.621C608.305 489.949 608.767 490.439 609.095 491.09C609.423 491.741 609.587 492.547 609.587 493.506V500.904H607.323V493.778C607.323 492.935 607.103 492.276 606.664 491.802C606.225 491.322 605.622 491.083 604.854 491.083C604.329 491.083 603.862 491.196 603.453 491.423C603.05 491.65 602.729 491.984 602.492 492.423C602.26 492.857 602.143 493.382 602.143 493.998ZM622.157 489.273L617.939 500.904H615.516L611.291 489.273H613.721L616.667 498.223H616.788L619.726 489.273H622.157ZM628.902 501.139C627.756 501.139 626.769 500.894 625.941 500.404C625.118 499.909 624.482 499.215 624.033 498.322C623.589 497.423 623.367 496.371 623.367 495.164C623.367 493.973 623.589 492.923 624.033 492.014C624.482 491.105 625.108 490.396 625.911 489.886C626.719 489.376 627.663 489.121 628.743 489.121C629.399 489.121 630.035 489.23 630.651 489.447C631.267 489.664 631.82 490.005 632.309 490.469C632.799 490.934 633.185 491.537 633.468 492.279C633.751 493.016 633.892 493.912 633.892 494.967V495.77H624.646V494.074H631.673C631.673 493.478 631.552 492.95 631.31 492.491C631.068 492.027 630.727 491.661 630.288 491.393C629.854 491.125 629.344 490.992 628.758 490.992C628.122 490.992 627.567 491.148 627.092 491.461C626.623 491.769 626.259 492.173 626.002 492.673C625.749 493.167 625.623 493.705 625.623 494.286V495.611C625.623 496.388 625.759 497.05 626.032 497.595C626.31 498.14 626.696 498.556 627.191 498.844C627.685 499.127 628.263 499.268 628.925 499.268C629.354 499.268 629.745 499.208 630.098 499.086C630.452 498.96 630.757 498.773 631.015 498.526C631.272 498.279 631.469 497.973 631.605 497.61L633.748 497.996C633.577 498.627 633.269 499.18 632.824 499.654C632.385 500.124 631.832 500.49 631.166 500.752C630.505 501.01 629.75 501.139 628.902 501.139ZM645.12 492.112L643.068 492.476C642.982 492.213 642.846 491.963 642.659 491.726C642.477 491.489 642.23 491.295 641.917 491.143C641.604 490.992 641.213 490.916 640.743 490.916C640.102 490.916 639.567 491.06 639.138 491.348C638.709 491.63 638.494 491.996 638.494 492.446C638.494 492.834 638.638 493.147 638.926 493.385C639.214 493.622 639.678 493.816 640.319 493.968L642.167 494.392C643.237 494.639 644.035 495.02 644.56 495.535C645.085 496.05 645.347 496.719 645.347 497.542C645.347 498.238 645.145 498.859 644.741 499.404C644.342 499.945 643.785 500.369 643.068 500.677C642.356 500.985 641.531 501.139 640.592 501.139C639.289 501.139 638.227 500.861 637.404 500.306C636.581 499.745 636.076 498.95 635.889 497.92L638.078 497.587C638.214 498.158 638.494 498.589 638.918 498.882C639.342 499.17 639.895 499.314 640.577 499.314C641.319 499.314 641.912 499.16 642.356 498.852C642.8 498.539 643.022 498.158 643.022 497.708C643.022 497.345 642.886 497.039 642.613 496.792C642.346 496.545 641.934 496.358 641.379 496.232L639.41 495.8C638.325 495.553 637.522 495.159 637.002 494.619C636.488 494.079 636.23 493.395 636.23 492.567C636.23 491.88 636.422 491.279 636.806 490.765C637.189 490.25 637.719 489.848 638.396 489.561C639.072 489.268 639.847 489.121 640.72 489.121C641.977 489.121 642.967 489.394 643.689 489.939C644.411 490.479 644.888 491.204 645.12 492.112ZM653.266 489.273V491.09H646.913V489.273H653.266ZM648.616 486.486H650.881V497.489C650.881 497.928 650.946 498.259 651.077 498.481C651.209 498.698 651.378 498.847 651.585 498.927C651.797 499.003 652.026 499.041 652.274 499.041C652.456 499.041 652.615 499.028 652.751 499.003C652.887 498.978 652.993 498.958 653.069 498.943L653.478 500.813C653.347 500.863 653.16 500.914 652.917 500.964C652.675 501.02 652.372 501.05 652.009 501.055C651.413 501.065 650.858 500.959 650.343 500.737C649.828 500.515 649.411 500.172 649.093 499.707C648.775 499.243 648.616 498.66 648.616 497.958V486.486ZM660.545 501.139C659.454 501.139 658.503 500.889 657.69 500.389C656.877 499.889 656.246 499.19 655.797 498.291C655.348 497.393 655.123 496.343 655.123 495.141C655.123 493.935 655.348 492.88 655.797 491.976C656.246 491.072 656.877 490.371 657.69 489.871C658.503 489.371 659.454 489.121 660.545 489.121C661.635 489.121 662.587 489.371 663.399 489.871C664.212 490.371 664.843 491.072 665.292 491.976C665.742 492.88 665.966 493.935 665.966 495.141C665.966 496.343 665.742 497.393 665.292 498.291C664.843 499.19 664.212 499.889 663.399 500.389C662.587 500.889 661.635 501.139 660.545 501.139ZM660.552 499.238C661.259 499.238 661.845 499.051 662.309 498.678C662.773 498.304 663.117 497.807 663.339 497.186C663.566 496.565 663.68 495.881 663.68 495.134C663.68 494.392 663.566 493.71 663.339 493.089C663.117 492.463 662.773 491.961 662.309 491.582C661.845 491.204 661.259 491.014 660.552 491.014C659.84 491.014 659.25 491.204 658.78 491.582C658.316 491.961 657.97 492.463 657.743 493.089C657.521 493.71 657.41 494.392 657.41 495.134C657.41 495.881 657.521 496.565 657.743 497.186C657.97 497.807 658.316 498.304 658.78 498.678C659.25 499.051 659.84 499.238 660.552 499.238ZM668.494 500.904V489.273H670.682V491.12H670.803C671.015 490.494 671.389 490.002 671.924 489.644C672.464 489.28 673.075 489.099 673.756 489.099C673.898 489.099 674.064 489.104 674.256 489.114C674.453 489.124 674.607 489.136 674.718 489.152V491.317C674.627 491.292 674.466 491.264 674.233 491.234C674.001 491.199 673.769 491.181 673.537 491.181C673.002 491.181 672.525 491.295 672.106 491.522C671.692 491.744 671.364 492.054 671.121 492.453C670.879 492.847 670.758 493.296 670.758 493.801V500.904H668.494Z" fill="white"/>
<rect x="388.449" y="454.449" width="400.102" height="62.9101" rx="11.3976" fill="#0E349F"/>
<rect x="388.449" y="454.449" width="400.102" height="62.9101" rx="11.3976" stroke="black" stroke-width="0.897566"/>
<path d="M511.731 478.396H514.064V489.391C514.064 490.385 513.867 491.236 513.473 491.943C513.084 492.649 512.536 493.189 511.83 493.563C511.123 493.932 510.295 494.116 509.346 494.116C508.473 494.116 507.688 493.957 506.991 493.639C506.299 493.321 505.752 492.859 505.348 492.253C504.949 491.642 504.75 490.9 504.75 490.027H507.074C507.074 490.456 507.173 490.827 507.37 491.14C507.572 491.453 507.847 491.698 508.195 491.874C508.548 492.046 508.952 492.132 509.407 492.132C509.901 492.132 510.32 492.028 510.664 491.821C511.012 491.609 511.277 491.299 511.459 490.89C511.64 490.481 511.731 489.981 511.731 489.391V478.396ZM522.187 494.139C521.096 494.139 520.145 493.889 519.332 493.389C518.519 492.889 517.888 492.19 517.439 491.291C516.99 490.393 516.765 489.343 516.765 488.141C516.765 486.935 516.99 485.88 517.439 484.976C517.888 484.072 518.519 483.371 519.332 482.871C520.145 482.371 521.096 482.121 522.187 482.121C523.277 482.121 524.229 482.371 525.041 482.871C525.854 483.371 526.485 484.072 526.935 484.976C527.384 485.88 527.608 486.935 527.608 488.141C527.608 489.343 527.384 490.393 526.935 491.291C526.485 492.19 525.854 492.889 525.041 493.389C524.229 493.889 523.277 494.139 522.187 494.139ZM522.194 492.238C522.901 492.238 523.487 492.051 523.951 491.678C524.415 491.304 524.759 490.807 524.981 490.186C525.208 489.565 525.322 488.881 525.322 488.134C525.322 487.392 525.208 486.71 524.981 486.089C524.759 485.463 524.415 484.961 523.951 484.582C523.487 484.204 522.901 484.014 522.194 484.014C521.482 484.014 520.892 484.204 520.422 484.582C519.958 484.961 519.612 485.463 519.385 486.089C519.163 486.71 519.052 487.392 519.052 488.134C519.052 488.881 519.163 489.565 519.385 490.186C519.612 490.807 519.958 491.304 520.422 491.678C520.892 492.051 521.482 492.238 522.194 492.238ZM530.136 493.904V482.273H532.4V493.904H530.136ZM531.279 480.478C530.885 480.478 530.547 480.347 530.264 480.084C529.987 479.817 529.848 479.499 529.848 479.13C529.848 478.757 529.987 478.439 530.264 478.176C530.547 477.909 530.885 477.775 531.279 477.775C531.673 477.775 532.009 477.909 532.286 478.176C532.569 478.439 532.71 478.757 532.71 479.13C532.71 479.499 532.569 479.817 532.286 480.084C532.009 480.347 531.673 480.478 531.279 480.478ZM537.71 486.998V493.904H535.446V482.273H537.619V484.166H537.763C538.03 483.55 538.449 483.055 539.02 482.682C539.595 482.308 540.32 482.121 541.193 482.121C541.986 482.121 542.68 482.288 543.276 482.621C543.871 482.949 544.333 483.439 544.661 484.09C544.989 484.741 545.153 485.547 545.153 486.506V493.904H542.889V486.778C542.889 485.935 542.67 485.276 542.231 484.802C541.791 484.322 541.188 484.083 540.421 484.083C539.896 484.083 539.429 484.196 539.02 484.423C538.616 484.65 538.295 484.984 538.058 485.423C537.826 485.857 537.71 486.382 537.71 486.998ZM553.25 480.41V478.396H565.252V480.41H560.413V493.904H558.081V480.41H553.25ZM569.987 486.998V493.904H567.723V478.396H569.956V484.166H570.1C570.373 483.54 570.789 483.043 571.35 482.674C571.91 482.306 572.642 482.121 573.546 482.121C574.343 482.121 575.04 482.285 575.636 482.614C576.236 482.942 576.701 483.431 577.029 484.083C577.362 484.729 577.529 485.536 577.529 486.506V493.904H575.265V486.778C575.265 485.925 575.045 485.264 574.606 484.794C574.167 484.32 573.556 484.083 572.773 484.083C572.238 484.083 571.759 484.196 571.335 484.423C570.916 484.65 570.585 484.984 570.343 485.423C570.105 485.857 569.987 486.382 569.987 486.998ZM585.563 494.139C584.417 494.139 583.43 493.894 582.602 493.404C581.779 492.909 581.143 492.215 580.694 491.322C580.25 490.423 580.028 489.371 580.028 488.164C580.028 486.973 580.25 485.923 580.694 485.014C581.143 484.105 581.769 483.396 582.572 482.886C583.38 482.376 584.324 482.121 585.404 482.121C586.06 482.121 586.696 482.23 587.312 482.447C587.928 482.664 588.481 483.005 588.97 483.469C589.46 483.934 589.846 484.537 590.129 485.279C590.412 486.016 590.553 486.912 590.553 487.967V488.77H581.307V487.074H588.334C588.334 486.478 588.213 485.95 587.971 485.491C587.729 485.027 587.388 484.661 586.949 484.393C586.514 484.125 586.005 483.992 585.419 483.992C584.783 483.992 584.228 484.148 583.753 484.461C583.284 484.769 582.92 485.173 582.663 485.673C582.41 486.167 582.284 486.705 582.284 487.286V488.611C582.284 489.388 582.42 490.05 582.693 490.595C582.971 491.14 583.357 491.556 583.852 491.844C584.346 492.127 584.924 492.268 585.586 492.268C586.015 492.268 586.406 492.208 586.759 492.086C587.113 491.96 587.418 491.773 587.676 491.526C587.933 491.279 588.13 490.973 588.266 490.61L590.409 490.996C590.238 491.627 589.93 492.18 589.485 492.654C589.046 493.124 588.493 493.49 587.827 493.752C587.166 494.01 586.411 494.139 585.563 494.139ZM601.927 493.904L597.626 478.396H600.087L603.108 490.405H603.252L606.394 478.396H608.833L611.975 490.413H612.119L615.133 478.396H617.601L613.293 493.904H610.938L607.674 482.288H607.553L604.289 493.904H601.927ZM621.792 494.161C621.055 494.161 620.389 494.025 619.793 493.752C619.198 493.475 618.726 493.073 618.377 492.548C618.034 492.023 617.862 491.38 617.862 490.617C617.862 489.961 617.989 489.421 618.241 488.997C618.493 488.573 618.834 488.237 619.263 487.99C619.692 487.742 620.172 487.556 620.702 487.43C621.232 487.303 621.772 487.207 622.323 487.142C623.019 487.061 623.585 486.995 624.019 486.945C624.453 486.889 624.768 486.801 624.965 486.68C625.162 486.559 625.261 486.362 625.261 486.089V486.036C625.261 485.375 625.074 484.863 624.7 484.499C624.332 484.136 623.781 483.954 623.049 483.954C622.287 483.954 621.686 484.123 621.247 484.461C620.813 484.794 620.513 485.165 620.346 485.574L618.218 485.09C618.471 484.383 618.839 483.812 619.324 483.378C619.814 482.939 620.376 482.621 621.013 482.424C621.649 482.222 622.317 482.121 623.019 482.121C623.484 482.121 623.976 482.177 624.496 482.288C625.021 482.394 625.51 482.591 625.965 482.879C626.424 483.166 626.8 483.578 627.093 484.113C627.386 484.643 627.532 485.332 627.532 486.18V493.904H625.321V492.314H625.23C625.084 492.606 624.864 492.894 624.571 493.177C624.279 493.46 623.903 493.694 623.443 493.881C622.984 494.068 622.434 494.161 621.792 494.161ZM622.285 492.344C622.911 492.344 623.446 492.22 623.89 491.973C624.339 491.726 624.68 491.402 624.912 491.004C625.149 490.6 625.268 490.168 625.268 489.709V488.209C625.187 488.29 625.031 488.366 624.799 488.437C624.571 488.502 624.312 488.56 624.019 488.611C623.726 488.656 623.441 488.699 623.163 488.74C622.885 488.775 622.653 488.805 622.466 488.83C622.027 488.886 621.626 488.979 621.262 489.111C620.904 489.242 620.616 489.431 620.399 489.678C620.187 489.921 620.081 490.244 620.081 490.648C620.081 491.208 620.288 491.632 620.702 491.92C621.116 492.203 621.644 492.344 622.285 492.344ZM630.548 493.904V482.273H632.812V493.904H630.548ZM631.691 480.478C631.298 480.478 630.959 480.347 630.677 480.084C630.399 479.817 630.26 479.499 630.26 479.13C630.26 478.757 630.399 478.439 630.677 478.176C630.959 477.909 631.298 477.775 631.691 477.775C632.085 477.775 632.421 477.909 632.698 478.176C632.981 478.439 633.122 478.757 633.122 479.13C633.122 479.499 632.981 479.817 632.698 480.084C632.421 480.347 632.085 480.478 631.691 480.478ZM641.287 482.273V484.09H634.934V482.273H641.287ZM636.638 479.486H638.902V490.489C638.902 490.928 638.968 491.259 639.099 491.481C639.23 491.698 639.399 491.847 639.606 491.927C639.818 492.003 640.048 492.041 640.295 492.041C640.477 492.041 640.636 492.028 640.772 492.003C640.909 491.978 641.015 491.958 641.09 491.943L641.499 493.813C641.368 493.863 641.181 493.914 640.939 493.964C640.697 494.02 640.394 494.05 640.03 494.055C639.435 494.065 638.879 493.959 638.364 493.737C637.849 493.515 637.433 493.172 637.115 492.707C636.797 492.243 636.638 491.66 636.638 490.958V479.486ZM646.306 478.396V493.904H644.042V478.396H646.306ZM649.352 493.904V482.273H651.616V493.904H649.352ZM650.495 480.478C650.101 480.478 649.763 480.347 649.48 480.084C649.203 479.817 649.064 479.499 649.064 479.13C649.064 478.757 649.203 478.439 649.48 478.176C649.763 477.909 650.101 477.775 650.495 477.775C650.889 477.775 651.225 477.909 651.502 478.176C651.785 478.439 651.926 478.757 651.926 479.13C651.926 479.499 651.785 479.817 651.502 480.084C651.225 480.347 650.889 480.478 650.495 480.478ZM663.378 485.112L661.325 485.476C661.24 485.213 661.103 484.963 660.917 484.726C660.735 484.489 660.487 484.295 660.174 484.143C659.861 483.992 659.47 483.916 659.001 483.916C658.36 483.916 657.825 484.06 657.395 484.348C656.966 484.63 656.752 484.996 656.752 485.446C656.752 485.834 656.896 486.147 657.183 486.385C657.471 486.622 657.936 486.816 658.577 486.968L660.424 487.392C661.495 487.639 662.292 488.02 662.817 488.535C663.342 489.05 663.605 489.719 663.605 490.542C663.605 491.238 663.403 491.859 662.999 492.404C662.6 492.945 662.042 493.369 661.325 493.677C660.614 493.985 659.788 494.139 658.849 494.139C657.547 494.139 656.484 493.861 655.661 493.306C654.839 492.745 654.334 491.95 654.147 490.92L656.335 490.587C656.472 491.158 656.752 491.589 657.176 491.882C657.6 492.17 658.153 492.314 658.834 492.314C659.576 492.314 660.169 492.16 660.614 491.852C661.058 491.539 661.28 491.158 661.28 490.708C661.28 490.345 661.144 490.039 660.871 489.792C660.604 489.545 660.192 489.358 659.637 489.232L657.668 488.8C656.583 488.553 655.78 488.159 655.26 487.619C654.745 487.079 654.488 486.395 654.488 485.567C654.488 484.88 654.679 484.279 655.063 483.765C655.447 483.25 655.977 482.848 656.653 482.561C657.33 482.268 658.105 482.121 658.978 482.121C660.235 482.121 661.224 482.394 661.946 482.939C662.668 483.479 663.145 484.204 663.378 485.112ZM671.523 482.273V484.09H665.17V482.273H671.523ZM666.874 479.486H669.138V490.489C669.138 490.928 669.204 491.259 669.335 491.481C669.466 491.698 669.635 491.847 669.842 491.927C670.054 492.003 670.284 492.041 670.531 492.041C670.713 492.041 670.872 492.028 671.008 492.003C671.145 491.978 671.251 491.958 671.327 491.943L671.735 493.813C671.604 493.863 671.417 493.914 671.175 493.964C670.933 494.02 670.63 494.05 670.266 494.055C669.671 494.065 669.115 493.959 668.6 493.737C668.086 493.515 667.669 493.172 667.351 492.707C667.033 492.243 666.874 491.66 666.874 490.958V479.486Z" fill="white"/>
<rect x="0.714489" y="57.7145" width="168.619" height="168.619" stroke="#4479FF" stroke-opacity="0.34" stroke-width="1.42898"/>
<rect x="169.334" y="57.7145" width="168.619" height="168.619" stroke="#4479FF" stroke-opacity="0.34" stroke-width="1.42898"/>
<rect x="337.953" y="57.7145" width="168.619" height="168.619" stroke="#4479FF" stroke-opacity="0.34" stroke-width="1.42898"/>
<rect x="506.573" y="57.7145" width="168.619" height="168.619" stroke="#4479FF" stroke-opacity="0.34" stroke-width="1.42898"/>
<rect x="675.192" y="57.7145" width="168.619" height="168.619" stroke="#4479FF" stroke-opacity="0.34" stroke-width="1.42898"/>
<rect x="843.812" y="57.7145" width="168.619" height="168.619" stroke="#4479FF" stroke-opacity="0.34" stroke-width="1.42898"/>
<rect x="1012.43" y="57.7145" width="168.619" height="168.619" stroke="#4479FF" stroke-opacity="0.34" stroke-width="1.42898"/>
<rect x="0.714489" y="226.334" width="168.619" height="168.619" stroke="#4479FF" stroke-opacity="0.34" stroke-width="1.42898"/>
<rect x="1012.43" y="226.334" width="168.619" height="168.619" stroke="#4479FF" stroke-opacity="0.34" stroke-width="1.42898"/>
<rect x="0.714489" y="394.953" width="168.619" height="168.619" stroke="#4479FF" stroke-opacity="0.34" stroke-width="1.42898"/>
<rect x="1012.43" y="394.953" width="168.619" height="168.619" stroke="#4479FF" stroke-opacity="0.34" stroke-width="1.42898"/>
<rect x="0.714489" y="563.573" width="168.619" height="168.619" stroke="#4479FF" stroke-opacity="0.34" stroke-width="1.42898"/>
<rect x="169.334" y="563.573" width="168.619" height="168.619" stroke="#4479FF" stroke-opacity="0.34" stroke-width="1.42898"/>
<rect x="337.953" y="563.573" width="168.619" height="168.619" stroke="#4479FF" stroke-opacity="0.34" stroke-width="1.42898"/>
<rect x="506.573" y="563.573" width="168.619" height="168.619" stroke="#4479FF" stroke-opacity="0.34" stroke-width="1.42898"/>
<rect x="675.193" y="563.573" width="168.619" height="168.619" stroke="#4479FF" stroke-opacity="0.34" stroke-width="1.42898"/>
<rect x="843.812" y="563.573" width="168.619" height="168.619" stroke="#4479FF" stroke-opacity="0.34" stroke-width="1.42898"/>
<rect x="1012.43" y="563.573" width="168.619" height="168.619" stroke="#4479FF" stroke-opacity="0.34" stroke-width="1.42898"/>
<path d="M72.0002 420.5C72.0002 420.5 113.5 473.5 41.5002 540.5C-30.4997 607.5 113.5 501.5 178.5 540.5C243.5 579.5 110.838 711.631 178.5 771C259.013 841.645 279.5 540.5 432.5 667.5" stroke="#2DB441" stroke-width="7"/>
<path d="M402.5 670.5C411 668.5 429.2 665.7 434 670.5C440 676.5 397.5 606 428.5 631" stroke="#2DB441" stroke-width="7"/>
<path d="M147 281.935L0.999985 226V395.077L147 454V281.935Z" fill="#0E349F"/>
<path d="M146.364 453.058V282.373L1.63567 226.924V394.648L146.364 453.058Z" stroke="#4479FF" stroke-opacity="0.34" stroke-width="1.27138"/>
<path d="M1036 618.935L1182 563V732.077L1036 791V618.935Z" fill="#0E349F"/>
<path d="M1036.64 790.058V619.373L1181.36 563.924V731.648L1036.64 790.058Z" stroke="#4479FF" stroke-opacity="0.34" stroke-width="1.27138"/>
<path d="M674 55.9353L820 0V169.077L674 228V55.9353Z" fill="#0E349F"/>
<path d="M674.636 227.058V56.3725L819.364 0.924282V168.648L674.636 227.058Z" stroke="#4479FF" stroke-opacity="0.34" stroke-width="1.27138"/>
</svg>
