<svg width="91" height="53" viewBox="0 0 91 53" fill="none" xmlns="http://www.w3.org/2000/svg">
<rect x="0.801038" y="0.778577" width="89.307" height="51.307" rx="7.76073" stroke="black" stroke-width="0.816919"/>
<path d="M17.0464 33.4321V20.2872H24.9796V21.6992H18.6381V26.1408H24.5688V27.5528H18.6381V32.0201H25.0823V33.4321H17.0464ZM29.158 27.5015V33.4321H27.6432V23.5734H29.1066V25.1138H29.235C29.4661 24.6132 29.8169 24.211 30.2876 23.9072C30.7583 23.5991 31.3659 23.445 32.1105 23.445C32.778 23.445 33.3621 23.582 33.8627 23.8558C34.3633 24.1254 34.7527 24.5362 35.0308 25.0881C35.309 25.6359 35.448 26.329 35.448 27.1677V33.4321H33.9333V27.2704C33.9333 26.4959 33.7322 25.8926 33.33 25.4604C32.9277 25.024 32.3758 24.8057 31.674 24.8057C31.1905 24.8057 30.7583 24.9106 30.3775 25.1202C30.0009 25.3299 29.7035 25.6359 29.4853 26.0381C29.2671 26.4403 29.158 26.9281 29.158 27.5015ZM42.3495 33.6375C41.3996 33.6375 40.5801 33.4278 39.8912 33.0085C39.2066 32.5849 38.6781 31.9944 38.3059 31.237C37.9379 30.4754 37.7539 29.5896 37.7539 28.5798C37.7539 27.5699 37.9379 26.6799 38.3059 25.9097C38.6781 25.1352 39.1959 24.5319 39.8591 24.0997C40.5266 23.6633 41.3054 23.445 42.1954 23.445C42.7089 23.445 43.216 23.5306 43.7166 23.7018C44.2172 23.8729 44.673 24.1511 45.0837 24.5362C45.4945 24.917 45.8219 25.4219 46.0658 26.0509C46.3097 26.6799 46.4316 27.4544 46.4316 28.3744V29.0162H38.8322V27.7069H44.8912C44.8912 27.1506 44.7799 26.6543 44.5574 26.2178C44.3392 25.7813 44.0268 25.4369 43.6203 25.1844C43.2181 24.932 42.7431 24.8057 42.1954 24.8057C41.5921 24.8057 41.0701 24.9555 40.6293 25.255C40.1929 25.5503 39.857 25.9354 39.6216 26.4103C39.3863 26.8853 39.2686 27.3945 39.2686 27.9379V28.8108C39.2686 29.5554 39.397 30.1865 39.6537 30.7043C39.9148 31.2178 40.2763 31.6093 40.7385 31.8789C41.2006 32.1442 41.7376 32.2768 42.3495 32.2768C42.7474 32.2768 43.1069 32.2212 43.4278 32.1099C43.753 31.9944 44.0333 31.8232 44.2686 31.5965C44.5039 31.3654 44.6858 31.0787 44.8142 30.7364L46.2776 31.1472C46.1235 31.6435 45.8647 32.08 45.5009 32.4565C45.1372 32.8288 44.6879 33.1198 44.1531 33.3294C43.6182 33.5348 43.017 33.6375 42.3495 33.6375ZM48.7358 33.4321V23.5734H50.1992V25.0625H50.3019C50.4817 24.5747 50.8069 24.1789 51.2775 23.8751C51.7482 23.5713 52.2788 23.4194 52.8693 23.4194C52.9806 23.4194 53.1196 23.4215 53.2865 23.4258C53.4534 23.4301 53.5796 23.4365 53.6652 23.445V24.9855C53.6139 24.9726 53.4962 24.9534 53.3122 24.9277C53.1325 24.8977 52.9421 24.8828 52.7409 24.8828C52.2617 24.8828 51.8338 24.9833 51.4573 25.1844C51.085 25.3813 50.7897 25.6551 50.5715 26.006C50.3576 26.3526 50.2506 26.7484 50.2506 27.1934V33.4321H48.7358ZM59.1401 37.3345C58.4084 37.3345 57.7794 37.2404 57.2531 37.0521C56.7268 36.8681 56.2882 36.6242 55.9373 36.3204C55.5907 36.0209 55.3147 35.7 55.1094 35.3577L56.316 34.5104C56.4529 34.6901 56.6262 34.8955 56.8359 35.1266C57.0456 35.3619 57.3323 35.5652 57.696 35.7364C58.064 35.9118 58.5454 35.9995 59.1401 35.9995C59.936 35.9995 60.5928 35.807 61.1106 35.4218C61.6284 35.0367 61.8872 34.4334 61.8872 33.6118V31.6093H61.7589C61.6476 31.789 61.4893 32.0115 61.2839 32.2768C61.0828 32.5378 60.7918 32.771 60.411 32.9764C60.0344 33.1775 59.5252 33.2781 58.8834 33.2781C58.0875 33.2781 57.3729 33.0898 56.7396 32.7133C56.1106 32.3367 55.6121 31.789 55.2441 31.0701C54.8804 30.3513 54.6986 29.4784 54.6986 28.4514C54.6986 27.4416 54.8761 26.5623 55.2313 25.8134C55.5865 25.0603 56.0807 24.4784 56.714 24.0676C57.3472 23.6526 58.079 23.445 58.9091 23.445C59.5509 23.445 60.0601 23.552 60.4367 23.766C60.8175 23.9756 61.1085 24.2152 61.3096 24.4848C61.515 24.7501 61.6733 24.9683 61.7845 25.1395H61.9386V23.5734H63.402V33.7145C63.402 34.5618 63.2094 35.2507 62.8243 35.7813C62.4435 36.3162 61.93 36.7077 61.2839 36.9559C60.6421 37.2083 59.9275 37.3345 59.1401 37.3345ZM59.0888 31.9174C59.6964 31.9174 60.2099 31.7783 60.6292 31.5002C61.0486 31.222 61.3673 30.822 61.5856 30.2999C61.8038 29.7779 61.9129 29.1532 61.9129 28.4257C61.9129 27.7154 61.8059 27.0886 61.592 26.5451C61.378 26.0017 61.0614 25.576 60.6421 25.2679C60.2227 24.9598 59.705 24.8057 59.0888 24.8057C58.4469 24.8057 57.9121 24.9683 57.4842 25.2935C57.0606 25.6187 56.7418 26.0552 56.5278 26.6029C56.3182 27.1506 56.2133 27.7582 56.2133 28.4257C56.2133 29.1104 56.3203 29.7158 56.5342 30.2422C56.7525 30.7642 57.0734 31.175 57.497 31.4745C57.9249 31.7698 58.4555 31.9174 59.0888 31.9174ZM67.1504 37.1292C66.8936 37.1292 66.6647 37.1078 66.4636 37.065C66.2625 37.0265 66.1234 36.9879 66.0464 36.9494L66.4315 35.6144C66.7995 35.7085 67.1247 35.7428 67.4071 35.7171C67.6895 35.6914 67.9398 35.5652 68.1581 35.3384C68.3806 35.1159 68.5838 34.7543 68.7678 34.2537L69.0502 33.4835L65.4045 23.5734H67.0477L69.7691 31.4296H69.8718L72.5932 23.5734H74.2363L70.0515 34.8699C69.8632 35.3791 69.63 35.8005 69.3519 36.1343C69.0738 36.4723 68.7507 36.7227 68.3827 36.8853C68.019 37.0479 67.6082 37.1292 67.1504 37.1292Z" fill="#020202"/>
</svg>
