<svg width="95" height="53" viewBox="0 0 95 53" fill="none" xmlns="http://www.w3.org/2000/svg">
<rect x="1.42167" y="1.5955" width="91.6731" height="49.6731" rx="6.94382" stroke="url(#paint0_linear_940_444)" stroke-width="2.45076"/>
<path d="M16.8501 33.4321V20.2872H24.7319V21.6992H18.4418V26.1408H24.1414V27.5528H18.4418V33.4321H16.8501ZM27.2528 33.4321V23.5734H28.7675V33.4321H27.2528ZM28.023 21.9303C27.7277 21.9303 27.4731 21.8297 27.2592 21.6286C27.0495 21.4275 26.9447 21.1857 26.9447 20.9033C26.9447 20.6209 27.0495 20.3791 27.2592 20.178C27.4731 19.9769 27.7277 19.8764 28.023 19.8764C28.3182 19.8764 28.5707 19.9769 28.7804 20.178C28.9943 20.3791 29.1013 20.6209 29.1013 20.9033C29.1013 21.1857 28.9943 21.4275 28.7804 21.6286C28.5707 21.8297 28.3182 21.9303 28.023 21.9303ZM33.0567 27.5015V33.4321H31.5419V23.5734H33.0053V25.1138H33.1337C33.3647 24.6132 33.7156 24.211 34.1863 23.9072C34.657 23.5991 35.2646 23.445 36.0091 23.445C36.6767 23.445 37.2607 23.582 37.7614 23.8558C38.262 24.1254 38.6514 24.5362 38.9295 25.0881C39.2077 25.6359 39.3467 26.329 39.3467 27.1677V33.4321H37.832V27.2704C37.832 26.4959 37.6309 25.8926 37.2286 25.4604C36.8264 25.024 36.2744 24.8057 35.5727 24.8057C35.0892 24.8057 34.657 24.9106 34.2762 25.1202C33.8996 25.3299 33.6022 25.6359 33.384 26.0381C33.1658 26.4403 33.0567 26.9281 33.0567 27.5015ZM46.4022 23.5734V24.8571H41.2931V23.5734H46.4022ZM42.7822 21.2114H44.297V30.608C44.297 31.0359 44.359 31.3568 44.4831 31.5708C44.6115 31.7804 44.7741 31.9217 44.9709 31.9944C45.172 32.0629 45.3838 32.0971 45.6063 32.0971C45.7732 32.0971 45.9101 32.0885 46.0171 32.0714C46.1241 32.05 46.2097 32.0329 46.2738 32.0201L46.5819 33.3808C46.4792 33.4193 46.3359 33.4578 46.1519 33.4963C45.9679 33.5391 45.7347 33.5605 45.4523 33.5605C45.0244 33.5605 44.605 33.4685 44.1943 33.2845C43.7878 33.1005 43.4497 32.8202 43.1801 32.4437C42.9148 32.0671 42.7822 31.5922 42.7822 31.0188V21.2114ZM52.7083 33.6375C51.7584 33.6375 50.939 33.4278 50.2501 33.0085C49.5654 32.5849 49.037 31.9944 48.6647 31.237C48.2967 30.4754 48.1127 29.5896 48.1127 28.5798C48.1127 27.5699 48.2967 26.6799 48.6647 25.9097C49.037 25.1352 49.5547 24.5319 50.218 24.0997C50.8855 23.6633 51.6643 23.445 52.5543 23.445C53.0678 23.445 53.5748 23.5306 54.0755 23.7018C54.5761 23.8729 55.0318 24.1511 55.4426 24.5362C55.8534 24.917 56.1807 25.4219 56.4246 26.0509C56.6685 26.6799 56.7905 27.4544 56.7905 28.3744V29.0162H49.191V27.7069H55.25C55.25 27.1506 55.1388 26.6543 54.9163 26.2178C54.698 25.7813 54.3857 25.4369 53.9792 25.1844C53.577 24.932 53.102 24.8057 52.5543 24.8057C51.9509 24.8057 51.4289 24.9555 50.9882 25.255C50.5517 25.5503 50.2158 25.9354 49.9805 26.4103C49.7451 26.8853 49.6275 27.3945 49.6275 27.9379V28.8108C49.6275 29.5554 49.7558 30.1865 50.0126 30.7043C50.2736 31.2178 50.6352 31.6093 51.0973 31.8789C51.5594 32.1442 52.0964 32.2768 52.7083 32.2768C53.1063 32.2768 53.4657 32.2212 53.7866 32.1099C54.1118 31.9944 54.3921 31.8232 54.6274 31.5965C54.8628 31.3654 55.0446 31.0787 55.173 30.7364L56.6364 31.1472C56.4824 31.6435 56.2235 32.08 55.8598 32.4565C55.4961 32.8288 55.0468 33.1198 54.5119 33.3294C53.977 33.5348 53.3758 33.6375 52.7083 33.6375ZM63.0998 33.6375C62.1755 33.6375 61.3796 33.4193 60.7121 32.9828C60.0446 32.5464 59.5311 31.9452 59.1717 31.1793C58.8123 30.4133 58.6326 29.5383 58.6326 28.5541C58.6326 27.5528 58.8165 26.6692 59.1845 25.9033C59.5568 25.1331 60.0746 24.5319 60.7378 24.0997C61.4053 23.6633 62.1841 23.445 63.0741 23.445C63.7673 23.445 64.392 23.5734 64.9483 23.8301C65.5046 24.0869 65.9603 24.4463 66.3154 24.9084C66.6706 25.3706 66.891 25.9097 66.9765 26.5259H65.4618C65.3462 26.0766 65.0895 25.6786 64.6916 25.3321C64.2979 24.9812 63.7673 24.8057 63.0998 24.8057C62.5093 24.8057 61.9915 24.9598 61.5465 25.2679C61.1058 25.5717 60.7613 26.0017 60.5132 26.558C60.2693 27.11 60.1473 27.7582 60.1473 28.5028C60.1473 29.2644 60.2671 29.9277 60.5067 30.4925C60.7506 31.0573 61.093 31.4959 61.5337 31.8083C61.9787 32.1206 62.5007 32.2768 63.0998 32.2768C63.4935 32.2768 63.8507 32.2083 64.1717 32.0714C64.4926 31.9345 64.7643 31.7377 64.9868 31.4809C65.2093 31.2242 65.3676 30.9161 65.4618 30.5567H66.9765C66.891 31.1386 66.6791 31.6628 66.3411 32.1292C66.0073 32.5913 65.5645 32.9593 65.0125 33.2332C64.4648 33.5027 63.8272 33.6375 63.0998 33.6375ZM70.7056 27.5015V33.4321H69.1909V20.2872H70.7056V25.1138H70.834C71.0651 24.6046 71.4117 24.2003 71.8738 23.9007C72.3402 23.5969 72.9607 23.445 73.7352 23.445C74.407 23.445 74.9953 23.5798 75.5002 23.8494C76.0051 24.1147 76.3967 24.5233 76.6748 25.0753C76.9572 25.623 77.0984 26.3205 77.0984 27.1677V33.4321H75.5837V27.2704C75.5837 26.4874 75.3804 25.8819 74.9739 25.454C74.5717 25.0218 74.0133 24.8057 73.2987 24.8057C72.8023 24.8057 72.3573 24.9106 71.9637 25.1202C71.5743 25.3299 71.2662 25.6359 71.0394 26.0381C70.8169 26.4403 70.7056 26.9281 70.7056 27.5015Z" fill="url(#paint1_linear_940_444)"/>
<defs>
<linearGradient id="paint0_linear_940_444" x1="5.07528" y1="0.472122" x2="18.1244" y2="45.9839" gradientUnits="userSpaceOnUse">
<stop stop-color="#0E349F"/>
<stop offset="1" stop-color="#21792E"/>
</linearGradient>
<linearGradient id="paint1_linear_940_444" x1="38.8503" y1="3.39231" x2="80.2374" y2="32.5003" gradientUnits="userSpaceOnUse">
<stop stop-color="#21792E"/>
<stop offset="0.984473" stop-color="#0E349F"/>
</linearGradient>
</defs>
</svg>
