<svg width="138" height="55" viewBox="0 0 138 55" fill="none" xmlns="http://www.w3.org/2000/svg">
<rect y="0.689392" width="137.052" height="54.2712" rx="7.55312" fill="white"/>
<path d="M48.7554 16.3064C48.2422 16.3929 47.4137 16.7392 46.9005 17.0854C46.004 17.6851 45.2373 18.7177 44.8973 19.7564C44.7736 20.1459 44.6809 20.8569 44.7242 21.1722L44.7489 21.4134L45.1879 21.3701C46.14 21.2835 46.9129 20.8878 47.7352 20.0655C48.2175 19.5833 48.3411 19.4163 48.6193 18.8599C49.0089 18.0808 49.1882 17.4131 49.1882 16.7454C49.1882 16.2136 49.2005 16.2322 48.7554 16.3064Z" fill="black"/>
<path d="M47.9513 21.7287C47.7287 21.7782 47.3144 21.9018 47.0238 22.007C46.7333 22.1059 46.1768 22.3037 45.7873 22.4459C44.8908 22.7674 44.7609 22.7551 43.4316 22.2543C42.1889 21.7906 41.6757 21.6793 40.9462 21.7349C38.7204 21.8895 36.847 23.4166 36.0865 25.6919C35.8083 26.5328 35.7032 27.2314 35.7032 28.3196C35.697 31.2626 36.8161 34.3169 38.8316 36.8333C39.3757 37.5196 39.9755 38.0513 40.4639 38.2924C40.8472 38.4779 40.9091 38.4903 41.5521 38.4903C42.2322 38.4841 42.2322 38.4841 43.0978 38.1379C44.1365 37.7236 44.4456 37.6556 45.1876 37.6556C45.88 37.6556 46.3066 37.7545 47.1042 38.0884C48.3779 38.6201 49.1013 38.651 49.9854 38.2244C50.8572 37.804 52.205 36.1285 53.083 34.3725C53.3859 33.7728 53.8558 32.6475 53.8126 32.6228C52.6873 32.1096 51.6671 31.1018 51.222 30.0631C50.8386 29.1728 50.7335 27.8064 50.9747 26.8914C51.2467 25.8403 52.0072 24.7398 52.9099 24.072C53.2561 23.8247 53.2561 23.8185 52.7677 23.2806C52.1556 22.6129 51.222 22.0688 50.2698 21.8277C49.6268 21.6607 48.5015 21.6113 47.9513 21.7287Z" fill="black"/>
<path d="M89.6851 28.2579V34.8116H90.4888H91.2926V28.2579V21.7041H90.4888H89.6851V28.2579Z" fill="black"/>
<path d="M59.8658 28.5299C58.722 31.9057 57.7822 34.7003 57.7822 34.7436C57.7822 34.7931 58.0172 34.8116 58.5736 34.8116H59.3588L60.0142 32.8455L60.6696 30.8855H62.883H65.1027L65.7642 32.8331L66.4258 34.7807L67.2666 34.7992C67.7303 34.8054 68.1075 34.7992 68.1075 34.7745C68.1075 34.7498 65.3376 26.607 64.1505 23.1385L63.8908 22.3842H62.9201H61.9556L59.8658 28.5299ZM63.3158 25.2406C63.4889 25.8342 64.5833 29.1173 64.7379 29.5068C64.7812 29.6119 64.6699 29.6181 62.8892 29.6181H61.0035L61.5846 27.9116C61.9062 26.978 62.308 25.7044 62.4812 25.0861C62.6543 24.4678 62.815 23.9052 62.8336 23.8372C62.8645 23.7444 62.9078 23.8186 62.9881 24.1154C63.0562 24.338 63.2045 24.8449 63.3158 25.2406Z" fill="black"/>
<path d="M73.4563 25.7042C72.5474 25.8217 71.6385 26.3596 71.1563 27.0459C71.0264 27.2375 70.9028 27.3859 70.8781 27.3921C70.8471 27.3921 70.8286 27.2314 70.8286 27.0335C70.8286 26.8418 70.81 26.4956 70.7853 26.2607L70.7482 25.8464H70.0372H69.3262L69.3633 27.0644C69.388 27.7322 69.4065 30.5701 69.4065 33.3709V38.4593H70.2103H71.0141V36.0109V33.5625L71.2676 33.8841C71.8117 34.5703 72.7082 34.9599 73.7654 34.9599C74.4888 34.966 74.9031 34.8733 75.4966 34.5889C76.9743 33.8902 77.8152 32.3198 77.8152 30.2548C77.8152 28.6534 77.3885 27.5096 76.4673 26.6378C75.6574 25.8711 74.6125 25.5496 73.4563 25.7042ZM74.6186 27.1634C75.0391 27.355 75.5461 27.8435 75.7872 28.2948C76.084 28.8451 76.2262 29.5004 76.2262 30.298C76.2262 31.4975 75.917 32.3878 75.3049 33.0061C74.0807 34.2241 72.0219 33.8593 71.2428 32.2765L71.045 31.8808L71.0264 30.5886C71.0017 29.0986 71.0697 28.7461 71.5025 28.0908C72.0342 27.2994 72.7329 26.947 73.7036 26.9779C74.1488 26.9902 74.3281 27.0273 74.6186 27.1634Z" fill="black"/>
<path d="M83.4594 25.7289C82.6495 25.865 81.8828 26.3163 81.3449 26.9717C81.1532 27.2066 80.9925 27.3736 80.9863 27.3488C80.9801 27.3241 80.9554 26.9717 80.9368 26.5698L80.8936 25.8464H80.1764H79.4653L79.5024 27.1572C79.5272 27.8744 79.5457 30.7123 79.5457 33.4636V38.4593H80.3495H81.1532V36.0048C81.1532 33.6986 81.1594 33.5564 81.2583 33.6986C81.586 34.1932 82.1919 34.626 82.8535 34.83C83.4965 35.0279 84.4672 35.0155 85.1473 34.7929C86.1489 34.4652 86.9465 33.748 87.4226 32.7526C87.8492 31.8685 87.9172 31.5037 87.9234 30.2362C87.9234 29.0058 87.8368 28.5607 87.4102 27.7013C87.1011 27.0644 86.3592 26.3163 85.7718 26.0381C85.0608 25.698 84.2694 25.5929 83.4594 25.7289ZM84.7702 27.1757C85.7903 27.6703 86.3653 28.7956 86.3653 30.298C86.3592 31.1203 86.254 31.6706 85.9635 32.2703C85.0422 34.2056 82.3341 34.2179 81.3882 32.2889L81.1841 31.8808L81.1656 30.5886C81.1471 29.4263 81.1594 29.2593 81.2707 28.8822C81.4871 28.165 81.9817 27.5467 82.5691 27.2375C83.0328 27.0026 83.2183 26.9593 83.8118 26.9779C84.3188 26.9902 84.4548 27.0211 84.7702 27.1757Z" fill="black"/>
<path d="M96.3322 25.7599C95.1884 25.9825 94.1621 26.7924 93.618 27.893C93.1728 28.7956 93.0677 29.2841 93.0615 30.4217C93.0615 31.547 93.1419 31.9674 93.5314 32.7712C94.026 33.8037 95.0647 34.6013 96.2457 34.8486C97.204 35.0526 98.8919 34.9352 99.8997 34.5951C100.147 34.5085 100.351 34.4405 100.357 34.4405C100.407 34.4405 100.098 33.3276 100.048 33.3276C100.011 33.3276 99.7637 33.3956 99.504 33.4822C98.558 33.7852 97.1793 33.8099 96.425 33.544C95.5346 33.2287 94.8916 32.493 94.6629 31.5223C94.6134 31.3059 94.5701 31.0153 94.5701 30.8669V30.6072H97.6924H100.809L100.852 30.3784C100.92 30.0198 100.833 28.944 100.691 28.4432C100.271 26.9346 99.3432 26.0072 97.9954 25.7537C97.4266 25.6424 96.9072 25.6424 96.3322 25.7599ZM97.9521 26.9655C98.7373 27.2623 99.3309 28.2454 99.3309 29.247V29.4943H96.9443H94.5578L94.5949 29.2594C94.8051 28.0908 95.5099 27.1696 96.425 26.8913C96.765 26.7924 97.5811 26.8295 97.9521 26.9655Z" fill="black"/>
</svg>
