<svg width="54" height="54" viewBox="0 0 54 54" fill="none" xmlns="http://www.w3.org/2000/svg">
<path d="M20.077 0.138485C19.591 0.351841 19.0932 0.956352 19.0102 1.43047C18.9747 1.64383 18.9628 13.0702 18.9747 26.8435L19.0102 51.8772L19.2591 52.1973C19.3895 52.3751 19.6503 52.6358 19.8281 52.7662C20.1481 53.0151 20.2785 53.0151 26.5369 53.0151C32.7954 53.0151 32.9258 53.0151 33.2458 52.7662C33.4236 52.6358 33.6843 52.3751 33.8147 52.1973L34.0636 51.8772V26.5235V1.16971L33.8147 0.849674C33.6843 0.671879 33.4236 0.411106 33.2458 0.28072C32.9258 0.0318069 32.7717 0.0318108 26.6792 0.00810242C21.6653 -0.0156021 20.3615 0.00810242 20.077 0.138485Z" fill="white"/>
<path d="M39.0418 15.3104C38.5559 15.5238 38.058 16.1283 37.9751 16.6024C37.9395 16.8158 37.9277 24.8285 37.9395 34.4295C37.9751 51.8298 37.9751 51.8772 38.224 52.1973C38.3544 52.3751 38.6151 52.6358 38.7929 52.7662C39.113 53.0151 39.2433 53.0151 45.5018 53.0151C51.7602 53.0151 51.8906 53.0151 52.2106 52.7662C52.3884 52.6358 52.6492 52.3751 52.7796 52.1973C53.0285 51.8772 53.0285 51.8654 53.0285 34.1095C53.0285 16.3535 53.0285 16.3417 52.7796 16.0216C52.6492 15.8438 52.3884 15.5831 52.2106 15.4527C51.8906 15.2038 51.7365 15.2038 45.644 15.1801C40.6302 15.1564 39.3263 15.1801 39.0418 15.3104Z" fill="white"/>
<path d="M1.11188 30.4824C0.625903 30.6958 0.128073 31.3003 0.0451018 31.7744C0.00954247 31.9878 -0.0141637 36.5868 0.00954247 42.0155C0.0451018 51.7587 0.0451018 51.8772 0.294017 52.1973C0.424401 52.3751 0.685169 52.6358 0.862965 52.7662C1.183 53.0151 1.31338 53.0151 7.57182 53.0151C13.8302 53.0151 13.9606 53.0151 14.2807 52.7662C14.4585 52.6358 14.7192 52.3751 14.8496 52.1973C15.0985 51.8772 15.0985 51.7943 15.0985 41.6954C15.0985 31.5966 15.0985 31.5136 14.8496 31.1936C14.7192 31.0158 14.4585 30.755 14.2807 30.6246C13.9606 30.3757 13.8065 30.3757 7.71405 30.352C2.70019 30.3283 1.39635 30.352 1.11188 30.4824Z" fill="white"/>
</svg>
