<svg width="51" height="61" viewBox="0 0 51 61" fill="none" xmlns="http://www.w3.org/2000/svg">
<path d="M22.687 1.55273C21.8217 2.40615 21.0868 3.23587 21.0513 3.38996C20.9683 3.72184 21.2409 4.32635 21.5135 4.43303C22.0232 4.62268 22.3551 4.50415 22.9359 3.91149L23.5286 3.30698L23.5878 6.75623L23.6471 10.2173L23.979 10.5018C24.382 10.8456 24.7613 10.8693 25.1762 10.5374L25.4843 10.3003V6.80365C25.4843 4.88345 25.5317 3.31884 25.5792 3.31884C25.6266 3.31884 25.9347 3.57961 26.2548 3.91149C26.8593 4.52785 27.2504 4.64638 27.7364 4.38562C28.0209 4.23153 28.2342 3.61516 28.1039 3.28328C28.0446 3.14104 27.3097 2.34688 26.4681 1.50531C25.2236 0.296299 24.868 -2.86102e-05 24.5953 -2.86102e-05C24.3227 -2.86102e-05 23.9553 0.296299 22.687 1.55273Z" fill="white"/>
<path d="M39.2688 1.56458C37.8228 2.9988 37.6924 3.16475 37.6924 3.5559C37.6924 4.10114 38.0835 4.50415 38.6051 4.50415C38.8895 4.50415 39.1385 4.35006 39.6363 3.89964L40.3001 3.29513V6.79179V10.3003L40.6082 10.5374C41.0231 10.8693 41.4024 10.8456 41.8054 10.5018L42.1373 10.2173L42.1966 6.75623L42.2558 3.30698L42.8485 3.91149C43.4293 4.50415 43.7612 4.62268 44.2708 4.43303C44.5316 4.32635 44.8398 3.69814 44.7568 3.38996C44.7213 3.25957 43.9864 2.42986 43.1092 1.56458C41.8291 0.296299 41.4617 -2.86102e-05 41.189 -2.86102e-05C40.9164 -2.86102e-05 40.549 0.296299 39.2688 1.56458Z" fill="white"/>
<path d="M26.0168 12.3865C22.4965 13.3229 19.4858 14.1645 19.3317 14.2475C19.0235 14.4134 18.8102 14.7453 16.8188 18.1234C16.0484 19.4273 15.5269 20.4348 15.5269 20.6244C15.5269 21.2289 15.8706 21.4067 18.3479 22.0468L18.8457 22.1772V27.3688C18.8457 32.3827 18.8576 32.5723 19.0828 32.7738C19.3198 32.9872 32.3938 36.5076 32.9509 36.5076C33.1168 36.4957 36.2224 35.7134 39.8613 34.7415C44.9936 33.3784 46.5345 32.9279 46.736 32.7264C46.9968 32.4775 46.9968 32.442 47.0324 27.3214L47.0679 22.1772L47.4472 22.0586C47.6606 21.9994 48.0399 21.8927 48.3007 21.8216C49.5808 21.5134 49.7941 21.4304 50.0194 21.1934C50.1497 21.0511 50.2564 20.7785 50.2564 20.6007C50.2564 20.1859 46.9375 14.5438 46.5345 14.283C46.1671 14.0341 33.3421 10.6678 32.8324 10.6797C32.6072 10.6797 29.5372 11.4501 26.0168 12.3865ZM37.4906 13.7733C40.0153 14.4371 42.0422 15.0179 41.9948 15.0653C41.8644 15.172 33.1998 17.4478 32.8916 17.4478C32.6072 17.4478 23.9188 15.172 23.8003 15.0653C23.741 15.0061 32.1567 12.6947 32.8324 12.5762C32.8679 12.5643 34.9541 13.1096 37.4906 13.7733ZM25.922 17.673C28.909 18.4672 31.3626 19.1191 31.3744 19.1309C31.3981 19.1546 29.3239 22.6395 29.1935 22.7698C29.1105 22.8528 27.3325 22.4379 23.5751 21.4423C20.5526 20.6481 18.0516 19.9725 18.0279 19.9607C17.933 19.8777 20.1851 16.2388 20.3392 16.2388C20.4222 16.2388 22.935 16.8907 25.922 17.673ZM46.6294 17.9338C47.1865 18.8583 47.6606 19.6999 47.708 19.7947C47.7554 19.9488 46.7598 20.2451 42.2437 21.4423C39.2093 22.2364 36.6728 22.8528 36.6254 22.7935C36.5661 22.7461 36.0446 21.8927 35.4638 20.9208L34.4088 19.1428L34.717 19.0598C36.6846 18.5027 45.2663 16.2506 45.4204 16.2506C45.5626 16.2388 45.9419 16.7722 46.6294 17.9338ZM31.8249 34.2318C31.7893 34.2673 29.4898 33.6865 26.7043 32.9516C23.907 32.2167 21.4297 31.5648 21.1926 31.4937L20.7422 31.387V27.0607V22.7343L21.0148 22.7817C21.1571 22.8172 23.1602 23.3388 25.4597 23.9433C28.8497 24.8441 29.6913 25.0338 29.9639 24.939C30.201 24.856 30.4855 24.4885 31.0544 23.5047L31.8249 22.189L31.8604 28.1867C31.8723 31.4819 31.8604 34.1962 31.8249 34.2318ZM35.6534 24.856C35.7601 24.939 35.9734 25.0101 36.1275 25.0101C36.2698 25.0101 38.3085 24.5004 40.6554 23.884C43.0023 23.2677 44.9462 22.758 44.9818 22.758C45.0173 22.758 45.0411 24.7019 45.0411 27.0844V31.3989L44.6025 31.5174C43.4646 31.8137 38.8182 33.0346 36.6254 33.6154C35.286 33.971 34.1244 34.2555 34.0532 34.2555C33.9347 34.2555 33.8991 32.9635 33.8991 28.1748V22.1061L34.6815 23.398C35.1082 24.1211 35.5467 24.773 35.6534 24.856Z" fill="white"/>
<path d="M17.8982 37.3965C16.3099 37.7165 15.7646 37.9655 10.8574 40.6443C9.17429 41.5688 7.76378 42.3155 7.71636 42.3155C7.68081 42.3155 7.44374 41.9599 7.19483 41.5332C6.61403 40.5494 6.18731 40.265 5.39316 40.3361C4.89533 40.3716 4.44491 40.5968 2.66695 41.6281C0.34374 42.9793 0 43.2875 0 44.1172C0 44.3661 0.106678 44.7691 0.225209 45.018C1.11419 46.7604 8.85426 59.9885 9.12688 60.2374C9.49433 60.5812 10.1344 60.7589 10.573 60.6523C10.976 60.5456 14.8282 58.3291 15.2075 57.9853C15.5868 57.6297 15.812 56.9304 15.6935 56.4563C15.6461 56.2785 15.4327 55.8162 15.2194 55.4369L14.8164 54.7494L15.575 54.4057C16.6536 53.9197 17.8033 53.7419 18.8346 53.9079C19.2731 53.9908 20.6244 54.3583 21.8215 54.7494C23.0187 55.1406 24.3344 55.5199 24.7493 55.591C25.8516 55.8162 27.6059 55.6858 28.6371 55.3302C29.6801 54.9628 47.1398 45.4922 47.768 44.9469C48.0287 44.7217 48.3962 44.2239 48.6214 43.7735C48.9533 43.086 49.0125 42.8608 49.0125 42.0785C49.0007 40.988 48.6332 40.0872 47.8865 39.376C47.1161 38.6174 46.4523 38.3566 45.267 38.3092L44.2476 38.2618L42.683 39.0678C41.1539 39.8619 41.1065 39.8738 40.9406 39.6486C40.502 39.0441 39.8264 38.4633 39.2337 38.1788C38.6885 37.918 38.4159 37.8706 37.5743 37.8706H36.5668L34.9074 38.7596C33.9947 39.2456 32.8923 39.8264 32.4656 40.0516L31.6715 40.4665L27.1673 39.0204C24.6781 38.2144 22.2483 37.4913 21.7504 37.3965C20.6481 37.1831 18.9412 37.1831 17.8982 37.3965ZM22.4023 39.5182C25.5316 40.4427 32.999 42.92 33.2835 43.1334C34.0065 43.6431 34.2317 44.8047 33.7695 45.6344C33.4494 46.1915 32.7738 46.5827 32.1337 46.5827C31.8374 46.5827 30.2017 46.1204 27.997 45.4092C22.2838 43.5601 22.6868 43.6786 22.3549 43.8327C21.6675 44.1409 21.5134 45.0773 22.0823 45.4566C22.2246 45.5396 24.37 46.2626 26.8473 47.0686C31.7663 48.6451 32.1812 48.7281 33.402 48.3132C34.5873 47.9102 35.6778 46.6301 35.8912 45.3855L35.9741 44.8758L40.3005 42.5289C44.9825 39.9805 45.1247 39.9331 46.0611 40.3716C47.199 40.9169 47.4716 42.4459 46.6064 43.3823C46.2508 43.7735 29.1823 53.09 28.1037 53.493C27.594 53.6827 27.1436 53.7419 26.1953 53.7419C24.9982 53.7538 24.8678 53.7301 22.995 53.1137C19.9606 52.1299 19.5695 52.0232 18.4316 51.964C17.1159 51.881 15.9424 52.1062 14.7334 52.6751L13.88 53.09L11.782 49.4511C10.6322 47.4479 9.45877 45.421 9.17429 44.9351C8.88982 44.4491 8.67647 44.0342 8.68832 44.0224C8.75944 43.9513 14.9586 40.5968 15.7646 40.182C17.4596 39.3404 18.479 39.1033 20.2095 39.1745C21.0155 39.21 21.7149 39.3167 22.4023 39.5182ZM38.487 39.9331C38.9374 40.1464 39.459 40.7035 39.3286 40.8339C39.3049 40.8695 38.4514 41.3436 37.4439 41.8888L35.6185 42.8963L35.3933 42.5763C35.263 42.3985 34.9311 42.0429 34.6466 41.7821L34.1488 41.308L35.6897 40.502C37.361 39.6367 37.681 39.5775 38.487 39.9331Z" fill="white"/>
</svg>
