<svg width="448" height="29" viewBox="0 0 448 29" fill="none" xmlns="http://www.w3.org/2000/svg">
<mask id="path-1-outside-1_694_2076" maskUnits="userSpaceOnUse" x="-1" y="-1" width="450" height="31" fill="black">
<rect fill="white" x="-1" y="-1" width="450" height="31"/>
<path d="M6.12352 0.770909V28H0.366591V0.770909H6.12352ZM19.0383 16.1936V28H13.3745V7.57818H18.7724V11.1813H19.0117C19.4638 9.99352 20.2216 9.05398 21.2853 8.36261C22.3489 7.66239 23.6386 7.31227 25.1542 7.31227C26.5724 7.31227 27.8089 7.6225 28.8637 8.24295C29.9184 8.86341 30.7383 9.74977 31.3233 10.902C31.9083 12.0455 32.2008 13.4105 32.2008 14.997V28H26.537V16.0075C26.5458 14.7577 26.2267 13.7827 25.5797 13.0825C24.9326 12.3734 24.0419 12.0189 22.9073 12.0189C22.145 12.0189 21.4714 12.1828 20.8864 12.5108C20.3103 12.8388 19.8582 13.3174 19.5303 13.9467C19.2112 14.5672 19.0472 15.3161 19.0383 16.1936ZM57.5934 7.57818L50.4538 28H44.0719L36.9323 7.57818H42.9152L47.1565 22.1899H47.3692L51.5972 7.57818H57.5934ZM71.7613 28.3989C69.6606 28.3989 67.8525 27.9734 66.3368 27.1225C64.83 26.2627 63.6688 25.0484 62.8534 23.4795C62.0379 21.9018 61.6302 20.036 61.6302 17.8822C61.6302 15.7815 62.0379 13.9378 62.8534 12.3513C63.6688 10.7647 64.8167 9.52818 66.2969 8.64182C67.786 7.75545 69.5321 7.31227 71.5353 7.31227C72.8826 7.31227 74.1368 7.52943 75.2979 7.96375C76.4679 8.3892 77.4872 9.03182 78.3559 9.89159C79.2334 10.7514 79.9159 11.8327 80.4034 13.1357C80.8909 14.4298 81.1346 15.9455 81.1346 17.6827V19.2383H63.8904V15.7283H75.8031C75.8031 14.9128 75.6259 14.1905 75.2713 13.5611C74.9168 12.9318 74.4248 12.4399 73.7955 12.0853C73.1751 11.7219 72.4527 11.5402 71.6284 11.5402C70.7686 11.5402 70.0063 11.7397 69.3415 12.1385C68.6856 12.5285 68.1715 13.0559 67.7993 13.7207C67.427 14.3766 67.2364 15.1078 67.2276 15.9144V19.2516C67.2276 20.262 67.4137 21.1351 67.786 21.8708C68.1671 22.6065 68.7034 23.1738 69.3947 23.5726C70.0861 23.9715 70.906 24.1709 71.8544 24.1709C72.4837 24.1709 73.0598 24.0823 73.5828 23.905C74.1058 23.7277 74.5534 23.4618 74.9256 23.1073C75.2979 22.7527 75.5815 22.3184 75.7765 21.8043L81.015 22.15C80.749 23.4086 80.2039 24.5077 79.3796 25.4473C78.5642 26.378 77.5094 27.1048 76.2153 27.6277C74.9301 28.1418 73.4454 28.3989 71.7613 28.3989ZM104.443 13.4016L99.2579 13.7207C99.1693 13.2775 98.9787 12.8786 98.6862 12.5241C98.3937 12.1607 98.0081 11.8726 97.5295 11.6599C97.0597 11.4383 96.4969 11.3275 95.841 11.3275C94.9635 11.3275 94.2234 11.5136 93.6206 11.8859C93.0179 12.2493 92.7165 12.7368 92.7165 13.3484C92.7165 13.8359 92.9115 14.2481 93.3015 14.5849C93.6915 14.9217 94.3608 15.192 95.3092 15.3959L99.0053 16.1405C100.991 16.5482 102.471 17.2041 103.446 18.1082C104.421 19.0123 104.908 20.2 104.908 21.6714C104.908 23.0098 104.514 24.1842 103.725 25.1947C102.945 26.2051 101.873 26.994 100.508 27.5613C99.1515 28.1197 97.5871 28.3989 95.8144 28.3989C93.111 28.3989 90.9571 27.836 89.3528 26.7103C87.7573 25.5758 86.8222 24.0335 86.5475 22.0835L92.1183 21.791C92.2867 22.6153 92.6944 23.2447 93.3414 23.679C93.9885 24.1044 94.8172 24.3172 95.8277 24.3172C96.8204 24.3172 97.6181 24.1266 98.2209 23.7455C98.8325 23.3555 99.1427 22.8547 99.1516 22.2431C99.1427 21.729 98.9255 21.308 98.5001 20.98C98.0746 20.6432 97.4187 20.3861 96.5323 20.2089L92.9958 19.5042C91.0014 19.1053 89.5168 18.414 88.5418 17.4301C87.5756 16.4463 87.0926 15.192 87.0926 13.6675C87.0926 12.3557 87.4471 11.2256 88.1562 10.2772C88.8742 9.32875 89.8802 8.5975 91.1743 8.08341C92.4772 7.56932 94.0018 7.31227 95.7479 7.31227C98.3272 7.31227 100.357 7.85739 101.837 8.94761C103.326 10.0378 104.195 11.5225 104.443 13.4016ZM121.958 7.57818V11.8327H109.66V7.57818H121.958ZM112.452 2.68546H118.116V21.7245C118.116 22.2475 118.196 22.6552 118.355 22.9477C118.515 23.2314 118.736 23.4308 119.02 23.546C119.312 23.6613 119.649 23.7189 120.03 23.7189C120.296 23.7189 120.562 23.6967 120.828 23.6524C121.094 23.5992 121.298 23.5593 121.44 23.5327L122.33 27.7474C122.047 27.836 121.648 27.938 121.134 28.0532C120.62 28.1773 119.995 28.2526 119.259 28.2792C117.894 28.3324 116.698 28.1507 115.669 27.7341C114.65 27.3175 113.857 26.6705 113.29 25.793C112.722 24.9155 112.443 23.8075 112.452 22.4691V2.68546ZM128.268 28V7.57818H133.666V11.1813H133.906C134.331 9.98466 135.04 9.04068 136.033 8.34932C137.026 7.65795 138.213 7.31227 139.596 7.31227C140.997 7.31227 142.189 7.66239 143.173 8.36261C144.157 9.05398 144.812 9.99352 145.14 11.1813H145.353C145.77 10.0113 146.523 9.07614 147.613 8.37591C148.712 7.66682 150.011 7.31227 151.509 7.31227C153.415 7.31227 154.961 7.91943 156.149 9.13375C157.346 10.3392 157.944 12.0499 157.944 14.2658V28H152.293V15.3826C152.293 14.2481 151.992 13.3972 151.389 12.8299C150.787 12.2626 150.033 11.979 149.129 11.979C148.101 11.979 147.299 12.3069 146.723 12.9628C146.146 13.6099 145.858 14.4652 145.858 15.5289V28H140.367V15.263C140.367 14.2614 140.079 13.4636 139.503 12.8698C138.936 12.2759 138.187 11.979 137.256 11.979C136.627 11.979 136.06 12.1385 135.554 12.4576C135.058 12.7678 134.664 13.2066 134.371 13.7739C134.079 14.3323 133.932 14.9882 133.932 15.7416V28H128.268ZM174.345 28.3989C172.245 28.3989 170.437 27.9734 168.921 27.1225C167.414 26.2627 166.253 25.0484 165.438 23.4795C164.622 21.9018 164.214 20.036 164.214 17.8822C164.214 15.7815 164.622 13.9378 165.438 12.3513C166.253 10.7647 167.401 9.52818 168.881 8.64182C170.37 7.75545 172.116 7.31227 174.119 7.31227C175.467 7.31227 176.721 7.52943 177.882 7.96375C179.052 8.3892 180.071 9.03182 180.94 9.89159C181.818 10.7514 182.5 11.8327 182.988 13.1357C183.475 14.4298 183.719 15.9455 183.719 17.6827V19.2383H166.475V15.7283H178.387C178.387 14.9128 178.21 14.1905 177.855 13.5611C177.501 12.9318 177.009 12.4399 176.38 12.0853C175.759 11.7219 175.037 11.5402 174.213 11.5402C173.353 11.5402 172.59 11.7397 171.926 12.1385C171.27 12.5285 170.756 13.0559 170.383 13.7207C170.011 14.3766 169.821 15.1078 169.812 15.9144V19.2516C169.812 20.262 169.998 21.1351 170.37 21.8708C170.751 22.6065 171.288 23.1738 171.979 23.5726C172.67 23.9715 173.49 24.1709 174.439 24.1709C175.068 24.1709 175.644 24.0823 176.167 23.905C176.69 23.7277 177.138 23.4618 177.51 23.1073C177.882 22.7527 178.166 22.3184 178.361 21.8043L183.599 22.15C183.333 23.4086 182.788 24.5077 181.964 25.4473C181.148 26.378 180.094 27.1048 178.799 27.6277C177.514 28.1418 176.03 28.3989 174.345 28.3989ZM195.7 16.1936V28H190.036V7.57818H195.434V11.1813H195.673C196.125 9.99352 196.883 9.05398 197.946 8.36261C199.01 7.66239 200.3 7.31227 201.815 7.31227C203.234 7.31227 204.47 7.6225 205.525 8.24295C206.58 8.86341 207.4 9.74977 207.985 10.902C208.57 12.0455 208.862 13.4105 208.862 14.997V28H203.198V16.0075C203.207 14.7577 202.888 13.7827 202.241 13.0825C201.594 12.3734 200.703 12.0189 199.569 12.0189C198.806 12.0189 198.133 12.1828 197.548 12.5108C196.971 12.8388 196.519 13.3174 196.191 13.9467C195.872 14.5672 195.708 15.3161 195.7 16.1936ZM226.809 7.57818V11.8327H214.511V7.57818H226.809ZM217.303 2.68546H222.967V21.7245C222.967 22.2475 223.047 22.6552 223.206 22.9477C223.366 23.2314 223.587 23.4308 223.871 23.546C224.163 23.6613 224.5 23.7189 224.881 23.7189C225.147 23.7189 225.413 23.6967 225.679 23.6524C225.945 23.5992 226.149 23.5593 226.291 23.5327L227.181 27.7474C226.898 27.836 226.499 27.938 225.985 28.0532C225.471 28.1773 224.846 28.2526 224.11 28.2792C222.745 28.3324 221.549 28.1507 220.52 27.7341C219.501 27.3175 218.708 26.6705 218.141 25.793C217.573 24.9155 217.294 23.8075 217.303 22.4691V2.68546ZM259.283 8.60193C259.177 7.52943 258.72 6.69625 257.914 6.10239C257.107 5.50852 256.013 5.21159 254.63 5.21159C253.69 5.21159 252.897 5.34455 252.25 5.61045C251.603 5.8675 251.106 6.22648 250.761 6.68739C250.424 7.1483 250.256 7.67125 250.256 8.25625C250.238 8.74375 250.34 9.16921 250.561 9.53261C250.792 9.89602 251.106 10.2107 251.505 10.4766C251.904 10.7336 252.365 10.9597 252.888 11.1547C253.411 11.3408 253.969 11.5003 254.563 11.6333L257.01 12.2183C258.197 12.4842 259.288 12.8387 260.28 13.2819C261.273 13.7251 262.133 14.2702 262.86 14.9173C263.586 15.5643 264.149 16.3266 264.548 17.2041C264.956 18.0816 265.164 19.0876 265.173 20.2222C265.164 21.8885 264.739 23.3333 263.897 24.5565C263.064 25.7708 261.858 26.7148 260.28 27.3884C258.711 28.0532 256.819 28.3856 254.603 28.3856C252.405 28.3856 250.49 28.0487 248.86 27.3751C247.238 26.7015 245.97 25.7043 245.057 24.3836C244.153 23.0541 243.679 21.4099 243.634 19.451H249.205C249.267 20.364 249.529 21.1262 249.99 21.7378C250.459 22.3406 251.084 22.797 251.864 23.1073C252.653 23.4086 253.544 23.5593 254.537 23.5593C255.512 23.5593 256.358 23.4175 257.076 23.1339C257.803 22.8502 258.366 22.4558 258.765 21.9506C259.164 21.4453 259.363 20.8648 259.363 20.2089C259.363 19.5973 259.181 19.0832 258.818 18.6666C258.463 18.25 257.94 17.8955 257.249 17.603C256.566 17.3105 255.729 17.0445 254.736 16.8052L251.771 16.0607C249.476 15.5023 247.663 14.6292 246.333 13.4415C245.004 12.2537 244.344 10.6539 244.352 8.64182C244.344 6.99318 244.782 5.55284 245.669 4.3208C246.564 3.08875 247.791 2.12705 249.351 1.43568C250.911 0.744318 252.684 0.398636 254.67 0.398636C256.691 0.398636 258.454 0.744318 259.961 1.43568C261.477 2.12705 262.656 3.08875 263.498 4.3208C264.34 5.55284 264.774 6.97989 264.801 8.60193H259.283ZM277.224 16.1936V28H271.56V0.770909H277.064V11.1813H277.303C277.764 9.9758 278.509 9.03182 279.537 8.34932C280.565 7.65795 281.855 7.31227 283.406 7.31227C284.824 7.31227 286.061 7.6225 287.115 8.24295C288.179 8.85455 289.003 9.73648 289.588 10.8888C290.182 12.0322 290.475 13.4016 290.466 14.997V28H284.802V16.0075C284.811 14.7489 284.492 13.7694 283.845 13.0692C283.207 12.369 282.311 12.0189 281.159 12.0189C280.388 12.0189 279.706 12.1828 279.112 12.5108C278.527 12.8388 278.066 13.3174 277.729 13.9467C277.401 14.5672 277.233 15.3161 277.224 16.1936ZM306.771 28.3989C304.706 28.3989 302.92 27.9601 301.413 27.0826C299.915 26.1962 298.758 24.9642 297.943 23.3865C297.127 21.7999 296.72 19.9607 296.72 17.8689C296.72 15.7593 297.127 13.9157 297.943 12.338C298.758 10.7514 299.915 9.51932 301.413 8.64182C302.92 7.75545 304.706 7.31227 306.771 7.31227C308.836 7.31227 310.618 7.75545 312.116 8.64182C313.623 9.51932 314.784 10.7514 315.599 12.338C316.415 13.9157 316.822 15.7593 316.822 17.8689C316.822 19.9607 316.415 21.7999 315.599 23.3865C314.784 24.9642 313.623 26.1962 312.116 27.0826C310.618 27.9601 308.836 28.3989 306.771 28.3989ZM306.798 24.0114C307.737 24.0114 308.522 23.7455 309.151 23.2136C309.78 22.673 310.254 21.9373 310.574 21.0066C310.902 20.0759 311.066 19.0167 311.066 17.829C311.066 16.6413 310.902 15.582 310.574 14.6514C310.254 13.7207 309.78 12.985 309.151 12.4443C308.522 11.9036 307.737 11.6333 306.798 11.6333C305.849 11.6333 305.052 11.9036 304.404 12.4443C303.766 12.985 303.283 13.7207 302.955 14.6514C302.636 15.582 302.477 16.6413 302.477 17.829C302.477 19.0167 302.636 20.0759 302.955 21.0066C303.283 21.9373 303.766 22.673 304.404 23.2136C305.052 23.7455 305.849 24.0114 306.798 24.0114ZM326.643 28L321.085 7.57818H326.816L329.98 21.2991H330.166L333.463 7.57818H339.087L342.438 21.2193H342.611L345.722 7.57818H351.439L345.895 28H339.898L336.388 15.1566H336.136L332.626 28H326.643ZM365.796 28.3989C363.704 28.3989 361.905 27.9557 360.398 27.0693C358.9 26.1741 357.748 24.9332 356.941 23.3466C356.144 21.76 355.745 19.9341 355.745 17.8689C355.745 15.777 356.148 13.9423 356.955 12.3645C357.77 10.778 358.927 9.54148 360.425 8.65511C361.923 7.75989 363.704 7.31227 365.77 7.31227C367.551 7.31227 369.111 7.6358 370.45 8.28284C371.788 8.92989 372.847 9.83841 373.627 11.0084C374.407 12.1784 374.837 13.5523 374.917 15.13H369.572C369.421 14.1107 369.023 13.2908 368.375 12.6703C367.737 12.041 366.9 11.7264 365.863 11.7264C364.985 11.7264 364.218 11.9657 363.563 12.4443C362.915 12.9141 362.41 13.601 362.047 14.5051C361.683 15.4092 361.502 16.5039 361.502 17.7891C361.502 19.092 361.679 20.2 362.034 21.113C362.397 22.0259 362.907 22.7217 363.563 23.2003C364.218 23.679 364.985 23.9183 365.863 23.9183C366.51 23.9183 367.09 23.7853 367.604 23.5194C368.127 23.2535 368.557 22.868 368.894 22.3627C369.24 21.8486 369.466 21.2326 369.572 20.5147H374.917C374.828 22.0747 374.403 23.4485 373.64 24.6363C372.887 25.8151 371.846 26.7369 370.516 27.4017C369.186 28.0665 367.613 28.3989 365.796 28.3989ZM386.987 28.3856C385.684 28.3856 384.523 28.1595 383.504 27.7075C382.485 27.2466 381.678 26.5685 381.084 25.6733C380.499 24.7692 380.207 23.6435 380.207 22.2963C380.207 21.1617 380.415 20.2089 380.832 19.4377C381.248 18.6666 381.815 18.0461 382.533 17.5764C383.251 17.1066 384.067 16.752 384.98 16.5127C385.902 16.2734 386.868 16.105 387.878 16.0075C389.066 15.8834 390.023 15.7682 390.75 15.6618C391.477 15.5466 392.004 15.3782 392.332 15.1566C392.66 14.935 392.824 14.607 392.824 14.1727V14.093C392.824 13.2509 392.558 12.5994 392.026 12.1385C391.503 11.6776 390.759 11.4472 389.793 11.4472C388.773 11.4472 387.962 11.6732 387.36 12.1252C386.757 12.5684 386.358 13.1268 386.163 13.8005L380.925 13.375C381.191 12.1341 381.713 11.0616 382.493 10.1575C383.273 9.24455 384.28 8.54432 385.512 8.05682C386.752 7.56045 388.188 7.31227 389.819 7.31227C390.954 7.31227 392.04 7.44523 393.077 7.71114C394.123 7.97705 395.049 8.3892 395.855 8.94761C396.671 9.50602 397.313 10.224 397.783 11.1015C398.253 11.9701 398.488 13.0116 398.488 14.2259V28H393.117V25.1681H392.957C392.629 25.8063 392.19 26.3691 391.641 26.8566C391.091 27.3352 390.431 27.7119 389.66 27.9867C388.889 28.2526 387.998 28.3856 386.987 28.3856ZM388.609 24.4767C389.443 24.4767 390.178 24.3127 390.816 23.9848C391.455 23.648 391.955 23.1959 392.319 22.6286C392.682 22.0614 392.864 21.4188 392.864 20.7008V18.5336C392.687 18.6489 392.443 18.7552 392.133 18.8527C391.831 18.9414 391.49 19.0256 391.109 19.1053C390.728 19.1762 390.347 19.2427 389.966 19.3048C389.584 19.358 389.239 19.4067 388.928 19.451C388.264 19.5485 387.683 19.7036 387.187 19.9164C386.69 20.1291 386.305 20.4172 386.03 20.7806C385.755 21.1351 385.618 21.5783 385.618 22.1101C385.618 22.8813 385.897 23.4707 386.456 23.8784C387.023 24.2773 387.741 24.4767 388.609 24.4767ZM422.494 13.4016L417.309 13.7207C417.221 13.2775 417.03 12.8786 416.738 12.5241C416.445 12.1607 416.059 11.8726 415.581 11.6599C415.111 11.4383 414.548 11.3275 413.892 11.3275C413.015 11.3275 412.275 11.5136 411.672 11.8859C411.069 12.2493 410.768 12.7368 410.768 13.3484C410.768 13.8359 410.963 14.2481 411.353 14.5849C411.743 14.9217 412.412 15.192 413.36 15.3959L417.057 16.1405C419.042 16.5482 420.522 17.2041 421.497 18.1082C422.472 19.0123 422.96 20.2 422.96 21.6714C422.96 23.0098 422.565 24.1842 421.777 25.1947C420.997 26.2051 419.924 26.994 418.559 27.5613C417.203 28.1197 415.638 28.3989 413.866 28.3989C411.162 28.3989 409.008 27.836 407.404 26.7103C405.809 25.5758 404.874 24.0335 404.599 22.0835L410.17 21.791C410.338 22.6153 410.746 23.2447 411.393 23.679C412.04 24.1044 412.869 24.3172 413.879 24.3172C414.872 24.3172 415.669 24.1266 416.272 23.7455C416.884 23.3555 417.194 22.8547 417.203 22.2431C417.194 21.729 416.977 21.308 416.551 20.98C416.126 20.6432 415.47 20.3861 414.584 20.2089L411.047 19.5042C409.053 19.1053 407.568 18.414 406.593 17.4301C405.627 16.4463 405.144 15.192 405.144 13.6675C405.144 12.3557 405.498 11.2256 406.208 10.2772C406.925 9.32875 407.932 8.5975 409.226 8.08341C410.529 7.56932 412.053 7.31227 413.799 7.31227C416.379 7.31227 418.408 7.85739 419.889 8.94761C421.378 10.0378 422.246 11.5225 422.494 13.4016ZM438.454 28.3989C436.353 28.3989 434.545 27.9734 433.029 27.1225C431.523 26.2627 430.361 25.0484 429.546 23.4795C428.731 21.9018 428.323 20.036 428.323 17.8822C428.323 15.7815 428.731 13.9378 429.546 12.3513C430.361 10.7647 431.509 9.52818 432.989 8.64182C434.479 7.75545 436.225 7.31227 438.228 7.31227C439.575 7.31227 440.829 7.52943 441.991 7.96375C443.161 8.3892 444.18 9.03182 445.048 9.89159C445.926 10.7514 446.608 11.8327 447.096 13.1357C447.583 14.4298 447.827 15.9455 447.827 17.6827V19.2383H430.583V15.7283H442.496C442.496 14.9128 442.318 14.1905 441.964 13.5611C441.609 12.9318 441.117 12.4399 440.488 12.0853C439.868 11.7219 439.145 11.5402 438.321 11.5402C437.461 11.5402 436.699 11.7397 436.034 12.1385C435.378 12.5285 434.864 13.0559 434.492 13.7207C434.12 14.3766 433.929 15.1078 433.92 15.9144V19.2516C433.92 20.262 434.106 21.1351 434.479 21.8708C434.86 22.6065 435.396 23.1738 436.087 23.5726C436.779 23.9715 437.599 24.1709 438.547 24.1709C439.176 24.1709 439.752 24.0823 440.275 23.905C440.798 23.7277 441.246 23.4618 441.618 23.1073C441.991 22.7527 442.274 22.3184 442.469 21.8043L447.708 22.15C447.442 23.4086 446.897 24.5077 446.072 25.4473C445.257 26.378 444.202 27.1048 442.908 27.6277C441.623 28.1418 440.138 28.3989 438.454 28.3989Z"/>
</mask>
<path d="M6.12352 0.770909H7.12352V-0.229091H6.12352V0.770909ZM6.12352 28V29H7.12352V28H6.12352ZM0.366591 28H-0.633409V29H0.366591V28ZM0.366591 0.770909V-0.229091H-0.633409V0.770909H0.366591ZM5.12352 0.770909V28H7.12352V0.770909H5.12352ZM6.12352 27H0.366591V29H6.12352V27ZM1.36659 28V0.770909H-0.633409V28H1.36659ZM0.366591 1.77091H6.12352V-0.229091H0.366591V1.77091ZM19.0383 16.1936L18.0383 16.1835V16.1936H19.0383ZM19.0383 28V29H20.0383V28H19.0383ZM13.3745 28H12.3745V29H13.3745V28ZM13.3745 7.57818V6.57818H12.3745V7.57818H13.3745ZM18.7724 7.57818H19.7724V6.57818H18.7724V7.57818ZM18.7724 11.1813H17.7724V12.1813H18.7724V11.1813ZM19.0117 11.1813V12.1813H19.7011L19.9463 11.537L19.0117 11.1813ZM21.2853 8.36261L21.8303 9.20107L21.8351 9.19786L21.2853 8.36261ZM31.3233 10.902L30.4317 11.3547L30.4331 11.3575L31.3233 10.902ZM32.2008 28V29H33.2008V28H32.2008ZM26.537 28H25.537V29H26.537V28ZM26.537 16.0075L25.537 16.0004V16.0075H26.537ZM25.5797 13.0825L24.841 13.7566L24.8452 13.7612L25.5797 13.0825ZM20.8864 12.5108L20.3974 11.6385L20.3917 11.6417L20.8864 12.5108ZM19.5303 13.9467L18.6434 13.4846L18.641 13.4894L19.5303 13.9467ZM18.0383 16.1936V28H20.0383V16.1936H18.0383ZM19.0383 27H13.3745V29H19.0383V27ZM14.3745 28V7.57818H12.3745V28H14.3745ZM13.3745 8.57818H18.7724V6.57818H13.3745V8.57818ZM17.7724 7.57818V11.1813H19.7724V7.57818H17.7724ZM18.7724 12.1813H19.0117V10.1813H18.7724V12.1813ZM19.9463 11.537C20.3231 10.547 20.9447 9.77666 21.8302 9.20106L20.7403 7.52417C19.4985 8.3313 18.6045 9.44005 18.0771 10.8255L19.9463 11.537ZM21.8351 9.19786C22.7066 8.62416 23.7962 8.31227 25.1542 8.31227V6.31227C23.4809 6.31227 21.9912 6.70062 20.7354 7.52736L21.8351 9.19786ZM25.1542 8.31227C26.4228 8.31227 27.4785 8.58836 28.3566 9.10489L29.3707 7.38102C28.1392 6.65664 26.722 6.31227 25.1542 6.31227V8.31227ZM28.3566 9.10489C29.2373 9.62294 29.9281 10.3628 30.4317 11.3547L32.215 10.4494C31.5486 9.13673 30.5996 8.10388 29.3707 7.38102L28.3566 9.10489ZM30.4331 11.3575C30.9309 12.3306 31.2008 13.5322 31.2008 14.997H33.2008C33.2008 13.2887 32.8857 11.7603 32.2136 10.4466L30.4331 11.3575ZM31.2008 14.997V28H33.2008V14.997H31.2008ZM32.2008 27H26.537V29H32.2008V27ZM27.537 28V16.0075H25.537V28H27.537ZM27.5369 16.0146C27.547 14.5921 27.1818 13.3428 26.3141 12.4038L24.8452 13.7612C25.2717 14.2227 25.5446 14.9234 25.537 16.0004L27.5369 16.0146ZM26.3184 12.4084C25.4473 11.4538 24.2671 11.0189 22.9073 11.0189V13.0189C23.8166 13.0189 24.418 13.293 24.841 13.7566L26.3184 12.4084ZM22.9073 11.0189C21.9975 11.0189 21.1512 11.2159 20.3974 11.6385L21.3754 13.3831C21.7916 13.1498 22.2925 13.0189 22.9073 13.0189V11.0189ZM20.3917 11.6417C19.6366 12.0716 19.0537 12.6973 18.6435 13.4846L20.4171 14.4088C20.6627 13.9375 20.984 13.6059 21.3811 13.3799L20.3917 11.6417ZM18.641 13.4894C18.2347 14.2793 18.0484 15.1895 18.0384 16.1835L20.0383 16.2037C20.046 15.4428 20.1876 14.855 20.4195 14.4041L18.641 13.4894ZM57.5934 7.57818L58.5374 7.9082L59.0024 6.57818H57.5934V7.57818ZM50.4538 28V29H51.1635L51.3977 28.33L50.4538 28ZM44.0719 28L43.128 28.33L43.3622 29H44.0719V28ZM36.9323 7.57818V6.57818H35.5233L35.9883 7.9082L36.9323 7.57818ZM42.9152 7.57818L43.8756 7.29942L43.6662 6.57818H42.9152V7.57818ZM47.1565 22.1899L46.1961 22.4686L46.4055 23.1899H47.1565V22.1899ZM47.3692 22.1899V23.1899H48.1209L48.3298 22.4678L47.3692 22.1899ZM51.5972 7.57818V6.57818H50.8455L50.6366 7.30023L51.5972 7.57818ZM56.6494 7.24816L49.5098 27.67L51.3977 28.33L58.5374 7.9082L56.6494 7.24816ZM50.4538 27H44.0719V29H50.4538V27ZM45.0159 27.67L37.8763 7.24816L35.9883 7.9082L43.128 28.33L45.0159 27.67ZM36.9323 8.57818H42.9152V6.57818H36.9323V8.57818ZM41.9549 7.85694L46.1961 22.4686L48.1168 21.9111L43.8756 7.29942L41.9549 7.85694ZM47.1565 23.1899H47.3692V21.1899H47.1565V23.1899ZM48.3298 22.4678L52.5578 7.85613L50.6366 7.30023L46.4086 21.9119L48.3298 22.4678ZM51.5972 8.57818H57.5934V6.57818H51.5972V8.57818ZM66.3368 27.1225L65.8412 27.9911L65.8472 27.9945L66.3368 27.1225ZM62.8534 23.4795L61.965 23.9387L61.9661 23.9407L62.8534 23.4795ZM62.8534 12.3512L61.964 11.8941L62.8534 12.3512ZM66.2969 8.64182L65.7854 7.78252L65.7831 7.78387L66.2969 8.64182ZM75.2979 7.96375L74.9476 8.90041L74.9562 8.90354L75.2979 7.96375ZM78.3559 9.89159L77.6524 10.6023L77.656 10.6059L78.3559 9.89159ZM80.4034 13.1357L79.4668 13.4861L79.4676 13.4882L80.4034 13.1357ZM81.1346 19.2383V20.2383H82.1346V19.2383H81.1346ZM63.8904 19.2383H62.8904V20.2383H63.8904V19.2383ZM63.8904 15.7283V14.7283H62.8904V15.7283H63.8904ZM75.8031 15.7283V16.7283H76.8031V15.7283H75.8031ZM75.2713 13.5611L74.4001 14.052V14.052L75.2713 13.5611ZM73.7955 12.0853L73.2901 12.9482L73.2974 12.9525L73.3047 12.9566L73.7955 12.0853ZM69.3415 12.1385L69.8526 12.9981L69.856 12.996L69.3415 12.1385ZM67.7993 13.7207L68.669 14.2143L68.6718 14.2093L67.7993 13.7207ZM67.2276 15.9144L66.2276 15.9034V15.9144H67.2276ZM67.786 21.8708L66.8937 22.3223L66.8981 22.3308L67.786 21.8708ZM73.5828 23.905L73.2618 22.9579L73.5828 23.905ZM74.9256 23.1073L74.236 22.3831V22.3831L74.9256 23.1073ZM75.7766 21.8043L75.8424 20.8065L75.104 20.7578L74.8416 21.4497L75.7766 21.8043ZM81.015 22.15L81.9934 22.3567L82.2318 21.2281L81.0808 21.1522L81.015 22.15ZM79.3796 25.4473L78.6279 24.7878L78.6275 24.7883L79.3796 25.4473ZM76.2153 27.6277L76.5867 28.5562L76.59 28.5549L76.2153 27.6277ZM71.7613 27.3989C69.7965 27.3989 68.1642 27.0016 66.8263 26.2505L65.8472 27.9945C67.5407 28.9452 69.5248 29.3989 71.7613 29.3989V27.3989ZM66.8324 26.2539C65.4959 25.4914 64.4692 24.4201 63.7407 23.0183L61.9661 23.9407C62.8684 25.6768 64.164 27.0341 65.8412 27.9911L66.8324 26.2539ZM63.7417 23.0204C63.0136 21.6117 62.6302 19.9099 62.6302 17.8822H60.6302C60.6302 20.1622 61.0622 22.1919 61.965 23.9387L63.7417 23.0204ZM62.6302 17.8822C62.6302 15.9123 63.0119 14.2305 63.7428 12.8084L61.964 11.8941C61.064 13.6452 60.6302 15.6506 60.6302 17.8822H62.6302ZM63.7428 12.8084C64.4759 11.3819 65.4962 10.2868 66.8106 9.49976L65.7831 7.78387C64.1371 8.76952 62.8617 10.1474 61.964 11.8941L63.7428 12.8084ZM66.8084 9.50111C68.12 8.72041 69.6837 8.31227 71.5353 8.31227V6.31227C69.3806 6.31227 67.452 6.7905 65.7854 7.78252L66.8084 9.50111ZM71.5353 8.31227C72.7733 8.31227 73.9078 8.51146 74.9476 8.90037L75.6482 7.02713C74.3657 6.5474 72.9918 6.31227 71.5353 6.31227V8.31227ZM74.9562 8.90354C75.9931 9.2806 76.8883 9.84605 77.6524 10.6023L79.0593 9.18087C78.0861 8.21758 76.9427 7.49781 75.6397 7.02396L74.9562 8.90354ZM77.656 10.6059C78.4159 11.3504 79.0238 12.3021 79.4668 13.4861L81.34 12.7853C80.808 11.3634 80.0509 10.1524 79.0557 9.17731L77.656 10.6059ZM79.4676 13.4882C79.9033 14.6449 80.1346 16.0363 80.1346 17.6827H82.1346C82.1346 15.8547 81.8784 14.2147 81.3392 12.7832L79.4676 13.4882ZM80.1346 17.6827V19.2383H82.1346V17.6827H80.1346ZM81.1346 18.2383H63.8904V20.2383H81.1346V18.2383ZM64.8904 19.2383V15.7283H62.8904V19.2383H64.8904ZM63.8904 16.7283H75.8031V14.7283H63.8904V16.7283ZM76.8031 15.7283C76.8031 14.7634 76.5919 13.8679 76.1426 13.0703L74.4001 14.052C74.6598 14.513 74.8031 15.0622 74.8031 15.7283H76.8031ZM76.1426 13.0703C75.6983 12.2818 75.0749 11.6583 74.2864 11.2141L73.3047 12.9566C73.7748 13.2215 74.1352 13.5818 74.4001 14.052L76.1426 13.0703ZM74.3009 11.2225C73.5059 10.7568 72.6039 10.5402 71.6284 10.5402V12.5402C72.3015 12.5402 72.8443 12.6871 73.2901 12.9482L74.3009 11.2225ZM71.6284 10.5402C70.6077 10.5402 69.6638 10.779 68.827 11.281L69.856 12.996C70.3489 12.7003 70.9295 12.5402 71.6284 12.5402V10.5402ZM68.8305 11.279C68.0238 11.7586 67.385 12.4138 66.9268 13.2321L68.6718 14.2093C68.9581 13.698 69.3474 13.2984 69.8526 12.9981L68.8305 11.279ZM66.9296 13.2271C66.4679 14.0404 66.2382 14.9397 66.2276 15.9034L68.2275 15.9254C68.2346 15.276 68.3861 14.7127 68.669 14.2143L66.9296 13.2271ZM66.2276 15.9144V19.2516H68.2276V15.9144H66.2276ZM66.2276 19.2516C66.2276 20.3841 66.4364 21.4186 66.8937 22.3223L68.6782 21.4193C68.391 20.8516 68.2276 20.14 68.2276 19.2516H66.2276ZM66.8981 22.3308C67.3636 23.2294 68.0316 23.9407 68.895 24.4388L69.8945 22.7064C69.3752 22.4068 68.9706 21.9836 68.6739 21.4108L66.8981 22.3308ZM68.895 24.4388C69.7647 24.9405 70.7637 25.1709 71.8544 25.1709V23.1709C71.0483 23.1709 70.4075 23.0024 69.8945 22.7064L68.895 24.4388ZM71.8544 25.1709C72.5779 25.1709 73.2642 25.0689 73.9038 24.8521L73.2618 22.9579C72.8555 23.0956 72.3895 23.1709 71.8544 23.1709V25.1709ZM73.9038 24.8521C74.554 24.6317 75.1301 24.2934 75.6153 23.8314L74.236 22.3831C73.9766 22.6302 73.6575 22.8238 73.2618 22.9579L73.9038 24.8521ZM75.6153 23.8314C76.1034 23.3665 76.4672 22.8031 76.7115 22.159L74.8416 21.4497C74.6959 21.8337 74.4924 22.1389 74.236 22.3831L75.6153 23.8314ZM75.7107 22.8021L80.9491 23.1478L81.0808 21.1522L75.8424 20.8065L75.7107 22.8021ZM80.0366 21.9433C79.805 23.0392 79.3357 23.9811 78.6279 24.7878L80.1313 26.1068C81.0722 25.0344 81.6931 23.7781 81.9934 22.3567L80.0366 21.9433ZM78.6275 24.7883C77.9277 25.587 77.0084 26.2287 75.8406 26.7006L76.59 28.5549C78.0104 27.9809 79.2006 27.169 80.1318 26.1063L78.6275 24.7883ZM75.8439 26.6992C74.6994 27.1571 73.345 27.3989 71.7613 27.3989V29.3989C73.5458 29.3989 75.1608 29.1266 76.5867 28.5562L75.8439 26.6992ZM104.443 13.4016L104.505 14.3997L105.575 14.3338L105.435 13.2707L104.443 13.4016ZM99.2579 13.7207L98.2773 13.9168L98.4484 14.7724L99.3193 14.7188L99.2579 13.7207ZM98.6862 12.5241L97.9071 13.1511L97.9148 13.1605L98.6862 12.5241ZM97.5295 11.6599L97.1029 12.5643L97.1131 12.5691L97.1234 12.5737L97.5295 11.6599ZM93.6206 11.8859L94.137 12.7423L94.1461 12.7367L93.6206 11.8859ZM93.3016 14.5849L92.6479 15.3417V15.3417L93.3016 14.5849ZM95.3092 15.3959L95.099 16.3737L95.1117 16.3762L95.3092 15.3959ZM99.0053 16.1405L99.2065 15.1609L99.2028 15.1601L99.0053 16.1405ZM103.446 18.1082L102.766 18.8414L103.446 18.1082ZM103.725 25.1947L102.937 24.5793L102.934 24.5836L103.725 25.1947ZM100.508 27.5612L100.888 28.4859L100.891 28.4847L100.508 27.5612ZM89.3528 26.7103L88.7733 27.5253L88.7784 27.5289L89.3528 26.7103ZM86.5475 22.0835L86.495 21.0849L85.4049 21.1421L85.5572 22.2231L86.5475 22.0835ZM92.1183 21.791L93.098 21.5909L92.9257 20.7472L92.0658 20.7924L92.1183 21.791ZM93.3414 23.679L92.7841 24.5093L92.792 24.5145L93.3414 23.679ZM98.2209 23.7455L98.7553 24.5907L98.7585 24.5886L98.2209 23.7455ZM99.1516 22.2431L100.151 22.2576L100.152 22.2417L100.151 22.2258L99.1516 22.2431ZM98.5001 20.98L97.8793 21.7641L97.8896 21.772L98.5001 20.98ZM96.5323 20.2089L96.7285 19.2283L96.7278 19.2281L96.5323 20.2089ZM92.9958 19.5042L92.7996 20.4848L92.8003 20.4849L92.9958 19.5042ZM88.5418 17.4301L87.8283 18.1308L87.8315 18.134L88.5418 17.4301ZM88.1562 10.2772L87.3589 9.67358L87.3553 9.67836L88.1562 10.2772ZM91.1743 8.08341L90.8073 7.15319L90.8051 7.15406L91.1743 8.08341ZM101.837 8.94761L101.244 9.75279L101.246 9.75448L101.837 8.94761ZM104.382 12.4035L99.1965 12.7226L99.3193 14.7188L104.505 14.3997L104.382 12.4035ZM100.238 13.5246C100.117 12.9168 99.8532 12.3673 99.4576 11.8877L97.9148 13.1605C98.1042 13.39 98.2216 13.6382 98.2773 13.9168L100.238 13.5246ZM99.4652 11.8971C99.0613 11.3953 98.5416 11.0154 97.9356 10.7461L97.1234 12.5737C97.4747 12.7299 97.7261 12.9261 97.9072 13.1511L99.4652 11.8971ZM97.9561 10.7555C97.3227 10.4567 96.6068 10.3275 95.841 10.3275V12.3275C96.387 12.3275 96.7968 12.4199 97.1029 12.5643L97.9561 10.7555ZM95.841 10.3275C94.822 10.3275 93.8896 10.5444 93.0951 11.0351L94.1461 12.7367C94.5572 12.4828 95.1049 12.3275 95.841 12.3275V10.3275ZM93.1043 11.0295C92.2551 11.5415 91.7166 12.3279 91.7166 13.3484H93.7166C93.7166 13.1458 93.7807 12.9571 94.137 12.7423L93.1043 11.0295ZM91.7166 13.3484C91.7166 14.1449 92.0523 14.8273 92.6479 15.3417L93.9552 13.8281C93.7708 13.6689 93.7166 13.5269 93.7166 13.3484H91.7166ZM92.6479 15.3417C93.2337 15.8476 94.1076 16.1605 95.099 16.3736L95.5193 14.4182C94.6139 14.2236 94.1494 13.9958 93.9552 13.8281L92.6479 15.3417ZM95.1117 16.3762L98.8078 17.1208L99.2028 15.1601L95.5066 14.4156L95.1117 16.3762ZM98.8041 17.12C100.697 17.5088 101.978 18.1106 102.766 18.8414L104.126 17.3749C102.964 16.2976 101.284 15.5876 99.2065 15.1609L98.8041 17.12ZM102.766 18.8414C103.514 19.535 103.908 20.4454 103.908 21.6714H105.908C105.908 19.9546 105.328 18.4895 104.126 17.3749L102.766 18.8414ZM103.908 21.6714C103.908 22.7973 103.582 23.7528 102.937 24.5793L104.513 25.81C105.446 24.6157 105.908 23.2222 105.908 21.6714H103.908ZM102.934 24.5836C102.276 25.4357 101.354 26.1267 100.124 26.6378L100.891 28.4847C102.392 27.8613 103.615 26.9745 104.517 25.8057L102.934 24.5836ZM100.127 26.6366C98.914 27.136 97.4831 27.3989 95.8144 27.3989V29.3989C97.6911 29.3989 99.3891 29.1033 100.888 28.4859L100.127 26.6366ZM95.8144 27.3989C93.2406 27.3989 91.3102 26.8622 89.9272 25.8917L88.7784 27.5289C90.604 28.8099 92.9814 29.3989 95.8144 29.3989V27.3989ZM89.9323 25.8954C88.5622 24.9211 87.7744 23.6238 87.5377 21.944L85.5572 22.2231C85.8701 24.4432 86.9525 26.2305 88.7733 27.5253L89.9323 25.8954ZM86.5999 23.0821L92.1707 22.7896L92.0658 20.7924L86.495 21.0849L86.5999 23.0821ZM91.1385 21.9912C91.3549 23.0503 91.9005 23.9162 92.7841 24.5093L93.8988 22.8487C93.4882 22.5731 93.2185 22.1804 93.098 21.5909L91.1385 21.9912ZM92.792 24.5145C93.6452 25.0755 94.6807 25.3172 95.8277 25.3172V23.3172C94.9538 23.3172 94.3318 23.1334 93.8908 22.8434L92.792 24.5145ZM95.8277 25.3172C96.9384 25.3172 97.9416 25.1052 98.7553 24.5906L97.6864 22.9003C97.2947 23.148 96.7024 23.3172 95.8277 23.3172V25.3172ZM98.7585 24.5886C99.5928 24.0566 100.137 23.2719 100.151 22.2576L98.1517 22.2286C98.1486 22.4374 98.0721 22.6543 97.6832 22.9023L98.7585 24.5886ZM100.151 22.2258C100.137 21.3923 99.7644 20.692 99.1106 20.188L97.8896 21.772C98.0867 21.924 98.1483 22.0656 98.1517 22.2603L100.151 22.2258ZM99.1208 20.196C98.5149 19.7163 97.6792 19.4184 96.7285 19.2283L96.3362 21.1894C97.1582 21.3538 97.6344 21.5701 97.8794 21.764L99.1208 20.196ZM96.7278 19.2281L93.1912 18.5235L92.8003 20.4849L96.3369 21.1896L96.7278 19.2281ZM93.1919 18.5236C91.3061 18.1465 90.0357 17.5169 89.2521 16.7262L87.8315 18.134C88.9979 19.311 90.6967 20.0642 92.7996 20.4848L93.1919 18.5236ZM89.2553 16.7295C88.4929 15.9531 88.0926 14.9603 88.0926 13.6675H86.0926C86.0926 15.4238 86.6583 16.9394 87.8283 18.1308L89.2553 16.7295ZM88.0926 13.6675C88.0926 12.547 88.3912 11.6328 88.9571 10.876L87.3553 9.67836C86.503 10.8183 86.0926 12.1643 86.0926 13.6675H88.0926ZM88.9535 10.8807C89.5436 10.1013 90.3898 9.47106 91.5435 9.01276L90.8051 7.15406C89.3706 7.72394 88.2047 8.55625 87.3589 9.67359L88.9535 10.8807ZM91.5413 9.01362C92.7025 8.55547 94.0975 8.31227 95.7479 8.31227V6.31227C93.906 6.31227 92.252 6.58317 90.8073 7.1532L91.5413 9.01362ZM95.7479 8.31227C98.1975 8.31227 99.9928 8.83107 101.244 9.75279L102.43 8.14244C100.721 6.8837 98.457 6.31227 95.7479 6.31227V8.31227ZM101.246 9.75448C102.509 10.6787 103.238 11.9157 103.452 13.5325L105.435 13.2707C105.152 11.1293 104.144 9.39703 102.428 8.14075L101.246 9.75448ZM121.958 7.57818H122.958V6.57818H121.958V7.57818ZM121.958 11.8327V12.8327H122.958V11.8327H121.958ZM109.66 11.8327H108.66V12.8327H109.66V11.8327ZM109.66 7.57818V6.57818H108.66V7.57818H109.66ZM112.452 2.68546V1.68546H111.452V2.68546H112.452ZM118.116 2.68546H119.116V1.68546H118.116V2.68546ZM118.355 22.9477L117.477 23.4266L117.484 23.438L118.355 22.9477ZM119.02 23.546L118.643 24.4725L118.653 24.4764L119.02 23.546ZM120.828 23.6524L120.992 24.6388L121.008 24.6361L121.024 24.633L120.828 23.6524ZM121.44 23.5327L122.418 23.3259L122.216 22.3697L121.255 22.5499L121.44 23.5327ZM122.33 27.7474L122.629 28.7019L123.497 28.4305L123.309 27.5406L122.33 27.7474ZM121.134 28.0532L120.915 27.0774L120.907 27.0792L120.899 27.0811L121.134 28.0532ZM119.259 28.2792L119.223 27.2799L119.22 27.28L119.259 28.2792ZM115.669 27.7341L115.291 28.6598L115.294 28.6609L115.669 27.7341ZM113.29 25.793L114.129 25.2501L113.29 25.793ZM112.452 22.4691L113.452 22.4757V22.4691H112.452ZM120.958 7.57818V11.8327H122.958V7.57818H120.958ZM121.958 10.8327H109.66V12.8327H121.958V10.8327ZM110.66 11.8327V7.57818H108.66V11.8327H110.66ZM109.66 8.57818H121.958V6.57818H109.66V8.57818ZM112.452 3.68546H118.116V1.68546H112.452V3.68546ZM117.116 2.68546V21.7245H119.116V2.68546H117.116ZM117.116 21.7245C117.116 22.3286 117.204 22.9266 117.477 23.4266L119.233 22.4689C119.187 22.3839 119.116 22.1664 119.116 21.7245H117.116ZM117.484 23.438C117.747 23.9055 118.136 24.2665 118.644 24.4725L119.396 22.6196C119.336 22.5951 119.283 22.5572 119.227 22.4575L117.484 23.438ZM118.653 24.4764C119.084 24.6463 119.55 24.7189 120.03 24.7189V22.7189C119.749 22.7189 119.54 22.6762 119.386 22.6156L118.653 24.4764ZM120.03 24.7189C120.352 24.7189 120.673 24.692 120.992 24.6388L120.664 22.666C120.451 22.7014 120.24 22.7189 120.03 22.7189V24.7189ZM121.024 24.633C121.289 24.58 121.488 24.5411 121.624 24.5156L121.255 22.5499C121.108 22.5776 120.899 22.6184 120.632 22.6718L121.024 24.633ZM120.461 23.7395L121.352 27.9542L123.309 27.5406L122.418 23.3259L120.461 23.7395ZM122.032 26.7929C121.787 26.8694 121.419 26.9644 120.915 27.0774L121.353 29.029C121.876 28.9116 122.306 28.8026 122.629 28.7019L122.032 26.7929ZM120.899 27.0811C120.47 27.1847 119.916 27.2548 119.223 27.2799L119.295 29.2786C120.074 29.2504 120.77 29.1698 121.368 29.0253L120.899 27.0811ZM119.22 27.28C117.965 27.3289 116.915 27.1598 116.045 26.8073L115.294 28.6609C116.48 29.1416 117.823 29.3359 119.298 29.2784L119.22 27.28ZM116.048 26.8084C115.207 26.4648 114.579 25.9462 114.129 25.2501L112.45 26.3359C113.134 27.3947 114.093 28.1702 115.291 28.6598L116.048 26.8084ZM114.129 25.2501C113.694 24.5765 113.444 23.6736 113.452 22.4757L111.452 22.4625C111.442 23.9414 111.751 25.2544 112.45 26.3359L114.129 25.2501ZM113.452 22.4691V2.68546H111.452V22.4691H113.452ZM128.268 28H127.268V29H128.268V28ZM128.268 7.57818V6.57818H127.268V7.57818H128.268ZM133.666 7.57818H134.666V6.57818H133.666V7.57818ZM133.666 11.1813H132.666V12.1813H133.666V11.1813ZM133.906 11.1813V12.1813H134.612L134.848 11.5163L133.906 11.1813ZM136.033 8.34932L135.462 7.52871L136.033 8.34932ZM143.173 8.36261L142.593 9.17735L142.598 9.18081L143.173 8.36261ZM145.14 11.1813L144.176 11.4474L144.379 12.1813H145.14V11.1813ZM145.353 11.1813V12.1813H146.059L146.295 11.5167L145.353 11.1813ZM147.613 8.37591L148.154 9.21731L148.155 9.21621L147.613 8.37591ZM156.149 9.13375L155.434 9.83301L155.439 9.83824L156.149 9.13375ZM157.944 28V29H158.944V28H157.944ZM152.293 28H151.293V29H152.293V28ZM151.389 12.8299L150.704 13.5581V13.5581L151.389 12.8299ZM146.723 12.9628L147.469 13.6279L147.474 13.6228L146.723 12.9628ZM145.858 28V29H146.858V28H145.858ZM140.367 28H139.367V29H140.367V28ZM139.503 12.8698L138.78 13.5605L138.785 13.5661L139.503 12.8698ZM135.554 12.4576L136.084 13.3056L136.088 13.3031L135.554 12.4576ZM134.371 13.7739L135.257 14.2379L135.26 14.2322L134.371 13.7739ZM133.932 28V29H134.932V28H133.932ZM129.268 28V7.57818H127.268V28H129.268ZM128.268 8.57818H133.666V6.57818H128.268V8.57818ZM132.666 7.57818V11.1813H134.666V7.57818H132.666ZM133.666 12.1813H133.906V10.1813H133.666V12.1813ZM134.848 11.5163C135.207 10.5058 135.792 9.7359 136.605 9.16992L135.462 7.52871C134.289 8.34547 133.455 9.46348 132.964 10.8462L134.848 11.5163ZM136.605 9.16992C137.406 8.61151 138.388 8.31227 139.596 8.31227V6.31227C138.039 6.31227 136.645 6.7044 135.462 7.52871L136.605 9.16992ZM139.596 8.31227C140.823 8.31227 141.804 8.61609 142.593 9.17734L143.753 7.54789C142.573 6.70868 141.17 6.31227 139.596 6.31227V8.31227ZM142.598 9.18081C143.387 9.73529 143.909 10.4772 144.176 11.4474L146.104 10.9151C145.716 9.50982 144.926 8.37266 143.748 7.54442L142.598 9.18081ZM145.14 12.1813H145.353V10.1813H145.14V12.1813ZM146.295 11.5167C146.634 10.5646 147.241 9.80353 148.154 9.21731L147.073 7.53451C145.805 8.34875 144.905 9.45787 144.411 10.8458L146.295 11.5167ZM148.155 9.21621C149.07 8.62589 150.175 8.31227 151.509 8.31227V6.31227C149.847 6.31227 148.354 6.70775 147.071 7.53561L148.155 9.21621ZM151.509 8.31227C153.182 8.31227 154.458 8.83528 155.434 9.83299L156.864 8.43451C155.464 7.00358 153.648 6.31227 151.509 6.31227V8.31227ZM155.439 9.83824C156.398 10.8044 156.944 12.2302 156.944 14.2658H158.944C158.944 11.8696 158.293 9.87402 156.859 8.42926L155.439 9.83824ZM156.944 14.2658V28H158.944V14.2658H156.944ZM157.944 27H152.293V29H157.944V27ZM153.293 28V15.3826H151.293V28H153.293ZM153.293 15.3826C153.293 14.0779 152.944 12.9198 152.075 12.1017L150.704 13.5581C151.04 13.8745 151.293 14.4182 151.293 15.3826H153.293ZM152.075 12.1017C151.269 11.343 150.262 10.979 149.129 10.979V12.979C149.804 12.979 150.305 13.1822 150.704 13.5581L152.075 12.1017ZM149.129 10.979C147.869 10.979 146.771 11.3919 145.971 12.3029L147.474 13.6228C147.826 13.222 148.332 12.979 149.129 12.979V10.979ZM145.976 12.2978C145.202 13.1673 144.858 14.2783 144.858 15.5289H146.858C146.858 14.6521 147.091 14.0524 147.469 13.6278L145.976 12.2978ZM144.858 15.5289V28H146.858V15.5289H144.858ZM145.858 27H140.367V29H145.858V27ZM141.367 28V15.263H139.367V28H141.367ZM141.367 15.263C141.367 14.0595 141.015 12.9919 140.221 12.1735L138.785 13.5661C139.144 13.9354 139.367 14.4632 139.367 15.263H141.367ZM140.226 12.179C139.444 11.3605 138.42 10.979 137.256 10.979V12.979C137.954 12.979 138.427 13.1913 138.78 13.5605L140.226 12.179ZM137.256 10.979C136.448 10.979 135.694 11.1866 135.02 11.6121L136.088 13.3031C136.425 13.0904 136.805 12.979 137.256 12.979V10.979ZM135.024 11.6096C134.362 12.0236 133.849 12.6034 133.482 13.3156L135.26 14.2322C135.478 13.8098 135.754 13.512 136.084 13.3056L135.024 11.6096ZM133.485 13.3099C133.104 14.0369 132.932 14.8579 132.932 15.7416H134.932C134.932 15.1184 135.053 14.6277 135.257 14.2379L133.485 13.3099ZM132.932 15.7416V28H134.932V15.7416H132.932ZM133.932 27H128.268V29H133.932V27ZM168.921 27.1225L168.425 27.9911L168.431 27.9945L168.921 27.1225ZM165.438 23.4795L164.549 23.9387L164.55 23.9407L165.438 23.4795ZM165.438 12.3512L164.548 11.8941L165.438 12.3512ZM168.881 8.64182L168.37 7.78252L168.367 7.78387L168.881 8.64182ZM177.882 7.96375L177.532 8.90041L177.54 8.90354L177.882 7.96375ZM180.94 9.89159L180.237 10.6023L180.24 10.6059L180.94 9.89159ZM182.988 13.1357L182.051 13.4861L182.052 13.4882L182.988 13.1357ZM183.719 19.2383V20.2383H184.719V19.2383H183.719ZM166.475 19.2383H165.475V20.2383H166.475V19.2383ZM166.475 15.7283V14.7283H165.475V15.7283H166.475ZM178.387 15.7283V16.7283H179.387V15.7283H178.387ZM177.855 13.5611L176.984 14.052V14.052L177.855 13.5611ZM176.38 12.0853L175.874 12.9482L175.882 12.9525L175.889 12.9566L176.38 12.0853ZM171.926 12.1385L172.437 12.9981L172.44 12.996L171.926 12.1385ZM170.383 13.7207L171.253 14.2143L171.256 14.2093L170.383 13.7207ZM169.812 15.9144L168.812 15.9034V15.9144H169.812ZM170.37 21.8708L169.478 22.3223L169.482 22.3308L170.37 21.8708ZM176.167 23.905L175.846 22.9579L176.167 23.905ZM177.51 23.1073L176.82 22.3831V22.3831L177.51 23.1073ZM178.361 21.8043L178.427 20.8065L177.688 20.7578L177.426 21.4497L178.361 21.8043ZM183.599 22.15L184.577 22.3567L184.816 21.2281L183.665 21.1522L183.599 22.15ZM181.964 25.4473L181.212 24.7878L181.212 24.7883L181.964 25.4473ZM178.799 27.6277L179.171 28.5562L179.174 28.5549L178.799 27.6277ZM174.345 27.3989C172.381 27.3989 170.748 27.0016 169.41 26.2505L168.431 27.9945C170.125 28.9452 172.109 29.3989 174.345 29.3989V27.3989ZM169.417 26.2539C168.08 25.4914 167.053 24.4201 166.325 23.0183L164.55 23.9407C165.453 25.6768 166.748 27.0341 168.425 27.9911L169.417 26.2539ZM166.326 23.0204C165.598 21.6117 165.214 19.9099 165.214 17.8822H163.214C163.214 20.1622 163.646 22.1919 164.549 23.9387L166.326 23.0204ZM165.214 17.8822C165.214 15.9123 165.596 14.2305 166.327 12.8084L164.548 11.8941C163.648 13.6452 163.214 15.6506 163.214 17.8822H165.214ZM166.327 12.8084C167.06 11.3819 168.08 10.2868 169.395 9.49976L168.367 7.78387C166.721 8.76952 165.446 10.1474 164.548 11.8941L166.327 12.8084ZM169.393 9.50111C170.704 8.72041 172.268 8.31227 174.119 8.31227V6.31227C171.965 6.31227 170.036 6.7905 168.37 7.78252L169.393 9.50111ZM174.119 8.31227C175.357 8.31227 176.492 8.51146 177.532 8.90037L178.232 7.02713C176.95 6.5474 175.576 6.31227 174.119 6.31227V8.31227ZM177.54 8.90354C178.577 9.2806 179.472 9.84605 180.237 10.6023L181.643 9.18087C180.67 8.21758 179.527 7.49781 178.224 7.02396L177.54 8.90354ZM180.24 10.6059C181 11.3504 181.608 12.3021 182.051 13.4861L183.924 12.7853C183.392 11.3634 182.635 10.1524 181.64 9.17731L180.24 10.6059ZM182.052 13.4882C182.487 14.6449 182.719 16.0363 182.719 17.6827H184.719C184.719 15.8547 184.463 14.2147 183.923 12.7832L182.052 13.4882ZM182.719 17.6827V19.2383H184.719V17.6827H182.719ZM183.719 18.2383H166.475V20.2383H183.719V18.2383ZM167.475 19.2383V15.7283H165.475V19.2383H167.475ZM166.475 16.7283H178.387V14.7283H166.475V16.7283ZM179.387 15.7283C179.387 14.7634 179.176 13.8679 178.727 13.0703L176.984 14.052C177.244 14.513 177.387 15.0622 177.387 15.7283H179.387ZM178.727 13.0703C178.282 12.2818 177.659 11.6583 176.87 11.2141L175.889 12.9566C176.359 13.2215 176.719 13.5818 176.984 14.052L178.727 13.0703ZM176.885 11.2225C176.09 10.7568 175.188 10.5402 174.213 10.5402V12.5402C174.886 12.5402 175.428 12.6871 175.874 12.9482L176.885 11.2225ZM174.213 10.5402C173.192 10.5402 172.248 10.779 171.411 11.281L172.44 12.996C172.933 12.7003 173.514 12.5402 174.213 12.5402V10.5402ZM171.415 11.279C170.608 11.7586 169.969 12.4138 169.511 13.2321L171.256 14.2093C171.542 13.698 171.932 13.2984 172.437 12.9981L171.415 11.279ZM169.514 13.2271C169.052 14.0404 168.822 14.9397 168.812 15.9034L170.812 15.9254C170.819 15.276 170.97 14.7127 171.253 14.2143L169.514 13.2271ZM168.812 15.9144V19.2516H170.812V15.9144H168.812ZM168.812 19.2516C168.812 20.3841 169.021 21.4186 169.478 22.3223L171.262 21.4193C170.975 20.8516 170.812 20.14 170.812 19.2516H168.812ZM169.482 22.3308C169.948 23.2294 170.616 23.9407 171.479 24.4388L172.479 22.7064C171.959 22.4068 171.555 21.9836 171.258 21.4108L169.482 22.3308ZM171.479 24.4388C172.349 24.9405 173.348 25.1709 174.439 25.1709V23.1709C173.632 23.1709 172.992 23.0024 172.479 22.7064L171.479 24.4388ZM174.439 25.1709C175.162 25.1709 175.848 25.0689 176.488 24.8521L175.846 22.9579C175.44 23.0956 174.974 23.1709 174.439 23.1709V25.1709ZM176.488 24.8521C177.138 24.6317 177.714 24.2934 178.199 23.8314L176.82 22.3831C176.561 22.6302 176.242 22.8238 175.846 22.9579L176.488 24.8521ZM178.199 23.8314C178.688 23.3665 179.051 22.8031 179.296 22.159L177.426 21.4497C177.28 21.8337 177.077 22.1389 176.82 22.3831L178.199 23.8314ZM178.295 22.8021L183.533 23.1478L183.665 21.1522L178.427 20.8065L178.295 22.8021ZM182.621 21.9433C182.389 23.0392 181.92 23.9811 181.212 24.7878L182.715 26.1068C183.656 25.0344 184.277 23.7781 184.577 22.3567L182.621 21.9433ZM181.212 24.7883C180.512 25.587 179.593 26.2287 178.425 26.7006L179.174 28.5549C180.595 27.9809 181.785 27.169 182.716 26.1063L181.212 24.7883ZM178.428 26.6992C177.284 27.1571 175.929 27.3989 174.345 27.3989V29.3989C176.13 29.3989 177.745 29.1266 179.171 28.5562L178.428 26.6992ZM195.7 16.1936L194.7 16.1835V16.1936H195.7ZM195.7 28V29H196.7V28H195.7ZM190.036 28H189.036V29H190.036V28ZM190.036 7.57818V6.57818H189.036V7.57818H190.036ZM195.434 7.57818H196.434V6.57818H195.434V7.57818ZM195.434 11.1813H194.434V12.1813H195.434V11.1813ZM195.673 11.1813V12.1813H196.362L196.608 11.537L195.673 11.1813ZM197.946 8.36261L198.491 9.20107L198.496 9.19786L197.946 8.36261ZM207.985 10.902L207.093 11.3547L207.094 11.3575L207.985 10.902ZM208.862 28V29H209.862V28H208.862ZM203.198 28H202.198V29H203.198V28ZM203.198 16.0075L202.198 16.0004V16.0075H203.198ZM202.241 13.0825L201.502 13.7566L201.506 13.7612L202.241 13.0825ZM197.548 12.5108L197.059 11.6385L197.053 11.6417L197.548 12.5108ZM196.191 13.9467L195.305 13.4846L195.302 13.4894L196.191 13.9467ZM194.7 16.1936V28H196.7V16.1936H194.7ZM195.7 27H190.036V29H195.7V27ZM191.036 28V7.57818H189.036V28H191.036ZM190.036 8.57818H195.434V6.57818H190.036V8.57818ZM194.434 7.57818V11.1813H196.434V7.57818H194.434ZM195.434 12.1813H195.673V10.1813H195.434V12.1813ZM196.608 11.537C196.984 10.547 197.606 9.77666 198.491 9.20106L197.401 7.52417C196.16 8.3313 195.266 9.44005 194.738 10.8255L196.608 11.537ZM198.496 9.19786C199.368 8.62416 200.457 8.31227 201.815 8.31227V6.31227C200.142 6.31227 198.652 6.70062 197.397 7.52736L198.496 9.19786ZM201.815 8.31227C203.084 8.31227 204.14 8.58836 205.018 9.10489L206.032 7.38102C204.8 6.65664 203.383 6.31227 201.815 6.31227V8.31227ZM205.018 9.10489C205.899 9.62294 206.589 10.3628 207.093 11.3547L208.876 10.4494C208.21 9.13673 207.261 8.10388 206.032 7.38102L205.018 9.10489ZM207.094 11.3575C207.592 12.3306 207.862 13.5322 207.862 14.997H209.862C209.862 13.2887 209.547 11.7603 208.875 10.4466L207.094 11.3575ZM207.862 14.997V28H209.862V14.997H207.862ZM208.862 27H203.198V29H208.862V27ZM204.198 28V16.0075H202.198V28H204.198ZM204.198 16.0146C204.208 14.5921 203.843 13.3428 202.975 12.4038L201.506 13.7612C201.933 14.2227 202.206 14.9234 202.198 16.0004L204.198 16.0146ZM202.98 12.4084C202.108 11.4538 200.928 11.0189 199.569 11.0189V13.0189C200.478 13.0189 201.079 13.293 201.502 13.7566L202.98 12.4084ZM199.569 11.0189C198.659 11.0189 197.812 11.2159 197.059 11.6385L198.037 13.3831C198.453 13.1498 198.954 13.0189 199.569 13.0189V11.0189ZM197.053 11.6417C196.298 12.0716 195.715 12.6973 195.305 13.4846L197.078 14.4088C197.324 13.9375 197.645 13.6059 198.042 13.3799L197.053 11.6417ZM195.302 13.4894C194.896 14.2793 194.71 15.1895 194.7 16.1835L196.699 16.2037C196.707 15.4428 196.849 14.855 197.081 14.4041L195.302 13.4894ZM226.809 7.57818H227.809V6.57818H226.809V7.57818ZM226.809 11.8327V12.8327H227.809V11.8327H226.809ZM214.511 11.8327H213.511V12.8327H214.511V11.8327ZM214.511 7.57818V6.57818H213.511V7.57818H214.511ZM217.303 2.68546V1.68546H216.303V2.68546H217.303ZM222.967 2.68546H223.967V1.68546H222.967V2.68546ZM223.206 22.9477L222.328 23.4266L222.335 23.438L223.206 22.9477ZM223.871 23.546L223.494 24.4725L223.504 24.4764L223.871 23.546ZM225.679 23.6524L225.843 24.6388L225.859 24.6361L225.875 24.633L225.679 23.6524ZM226.291 23.5327L227.269 23.3259L227.067 22.3697L226.106 22.5499L226.291 23.5327ZM227.181 27.7474L227.48 28.7019L228.348 28.4305L228.16 27.5406L227.181 27.7474ZM225.985 28.0532L225.766 27.0774L225.758 27.0792L225.75 27.0811L225.985 28.0532ZM224.11 28.2792L224.074 27.2799L224.071 27.28L224.11 28.2792ZM220.52 27.7341L220.142 28.6598L220.145 28.6609L220.52 27.7341ZM218.141 25.793L218.98 25.2501L218.141 25.793ZM217.303 22.4691L218.303 22.4757V22.4691H217.303ZM225.809 7.57818V11.8327H227.809V7.57818H225.809ZM226.809 10.8327H214.511V12.8327H226.809V10.8327ZM215.511 11.8327V7.57818H213.511V11.8327H215.511ZM214.511 8.57818H226.809V6.57818H214.511V8.57818ZM217.303 3.68546H222.967V1.68546H217.303V3.68546ZM221.967 2.68546V21.7245H223.967V2.68546H221.967ZM221.967 21.7245C221.967 22.3286 222.055 22.9266 222.328 23.4266L224.084 22.4689C224.038 22.3839 223.967 22.1664 223.967 21.7245H221.967ZM222.335 23.438C222.598 23.9055 222.987 24.2665 223.495 24.4725L224.247 22.6196C224.187 22.5951 224.134 22.5572 224.078 22.4575L222.335 23.438ZM223.504 24.4764C223.936 24.6463 224.401 24.7189 224.881 24.7189V22.7189C224.6 22.7189 224.391 22.6762 224.237 22.6156L223.504 24.4764ZM224.881 24.7189C225.203 24.7189 225.524 24.692 225.843 24.6388L225.515 22.666C225.302 22.7014 225.091 22.7189 224.881 22.7189V24.7189ZM225.875 24.633C226.14 24.58 226.339 24.5411 226.475 24.5156L226.106 22.5499C225.959 22.5776 225.75 22.6184 225.483 22.6718L225.875 24.633ZM225.312 23.7395L226.203 27.9542L228.16 27.5406L227.269 23.3259L225.312 23.7395ZM226.883 26.7929C226.638 26.8694 226.27 26.9644 225.766 27.0774L226.204 29.029C226.727 28.9116 227.157 28.8026 227.48 28.7019L226.883 26.7929ZM225.75 27.0811C225.321 27.1847 224.767 27.2548 224.074 27.2799L224.146 29.2786C224.925 29.2504 225.621 29.1698 226.219 29.0253L225.75 27.0811ZM224.071 27.28C222.816 27.3289 221.766 27.1598 220.896 26.8073L220.145 28.6609C221.331 29.1416 222.674 29.3359 224.149 29.2784L224.071 27.28ZM220.899 26.8084C220.058 26.4648 219.43 25.9462 218.98 25.2501L217.301 26.3359C217.985 27.3947 218.944 28.1702 220.142 28.6598L220.899 26.8084ZM218.98 25.2501C218.545 24.5765 218.295 23.6736 218.303 22.4757L216.303 22.4625C216.293 23.9414 216.602 25.2544 217.301 26.3359L218.98 25.2501ZM218.303 22.4691V2.68546H216.303V22.4691H218.303ZM259.283 8.60193L258.288 8.70062L258.377 9.60193H259.283V8.60193ZM252.25 5.61045L252.619 6.53987L252.63 6.53539L252.25 5.61045ZM250.761 6.68739L249.961 6.08734L249.953 6.09737L250.761 6.68739ZM250.256 8.25625L251.255 8.29259L251.256 8.27443V8.25625H250.256ZM250.561 9.53261L249.708 10.0532L249.712 10.0607L249.717 10.0682L250.561 9.53261ZM251.505 10.4766L250.951 11.3086L250.957 11.313L250.964 11.3172L251.505 10.4766ZM252.888 11.1547L252.539 12.0916L252.546 12.0943L252.553 12.0968L252.888 11.1547ZM254.563 11.6333L254.796 10.6607L254.789 10.659L254.782 10.6575L254.563 11.6333ZM257.01 12.2183L256.777 13.1909L256.784 13.1926L256.791 13.1941L257.01 12.2183ZM260.28 13.2819L259.873 14.1951L260.28 13.2819ZM262.86 14.9173L263.525 14.1704L262.86 14.9173ZM264.548 17.2041L263.638 17.6179L263.641 17.6255L264.548 17.2041ZM265.173 20.2222L266.173 20.2275L266.173 20.2143L265.173 20.2222ZM263.897 24.5565L263.073 23.9894L263.072 23.9907L263.897 24.5565ZM260.28 27.3884L260.671 28.3092L260.673 28.3081L260.28 27.3884ZM248.86 27.3751L248.476 28.2986L248.478 28.2994L248.86 27.3751ZM245.057 24.3836L244.23 24.946L244.234 24.9523L245.057 24.3836ZM243.634 19.451V18.451H242.612L242.635 19.4736L243.634 19.451ZM249.205 19.451L250.203 19.3832L250.14 18.451H249.205V19.451ZM249.99 21.7378L249.191 22.3397L249.196 22.3462L249.201 22.3526L249.99 21.7378ZM251.864 23.1073L251.495 24.0366L251.507 24.0414L251.864 23.1073ZM257.076 23.1339L256.713 22.2023L256.709 22.2038L257.076 23.1339ZM258.765 21.9506L259.55 22.5702L258.765 21.9506ZM258.818 18.6666L258.056 19.3148L258.064 19.324L258.818 18.6666ZM257.249 17.603L256.855 18.5221L256.859 18.5239L257.249 17.603ZM254.736 16.8052L254.493 17.7752L254.502 17.7774L254.736 16.8052ZM251.771 16.0607L252.015 15.0908L252.008 15.089L251.771 16.0607ZM246.333 13.4415L245.667 14.1872L246.333 13.4415ZM244.352 8.64182L245.352 8.64622L245.352 8.63644L244.352 8.64182ZM245.669 4.3208L244.86 3.73297L244.857 3.7368L245.669 4.3208ZM259.961 1.43568L259.544 2.34458L259.546 2.3455L259.961 1.43568ZM263.498 4.3208L262.672 4.88505V4.88506L263.498 4.3208ZM264.801 8.60193V9.60193H265.817L265.801 8.58554L264.801 8.60193ZM260.278 8.50324C260.146 7.17297 259.56 6.07274 258.507 5.29711L257.321 6.90766C257.881 7.31976 258.207 7.8859 258.288 8.70062L260.278 8.50324ZM258.507 5.29711C257.474 4.53662 256.146 4.21159 254.63 4.21159V6.21159C255.879 6.21159 256.741 6.48042 257.321 6.90766L258.507 5.29711ZM254.63 4.21159C253.602 4.21159 252.671 4.35621 251.87 4.68551L252.63 6.53539C253.123 6.33288 253.778 6.21159 254.63 6.21159V4.21159ZM251.881 4.6811C251.098 4.99192 250.438 5.45105 249.961 6.08739L251.561 7.28739C251.775 7.00191 252.107 6.74308 252.619 6.53981L251.881 4.6811ZM249.953 6.09737C249.488 6.73404 249.256 7.46476 249.256 8.25625H251.256C251.256 7.87774 251.36 7.56255 251.568 7.2774L249.953 6.09737ZM249.256 8.21991C249.232 8.87388 249.37 9.49895 249.708 10.0532L251.415 9.01201C251.31 8.83945 251.243 8.61362 251.255 8.29259L249.256 8.21991ZM249.717 10.0682C250.03 10.5624 250.449 10.9741 250.951 11.3086L252.06 9.64454C251.764 9.44727 251.553 9.22969 251.406 8.99707L249.717 10.0682ZM250.964 11.3172C251.432 11.6193 251.96 11.8758 252.539 12.0916L253.237 10.2177C252.77 10.0435 252.376 9.848 252.047 9.63602L250.964 11.3172ZM252.553 12.0968C253.117 12.2977 253.715 12.4682 254.345 12.6091L254.782 10.6575C254.224 10.5325 253.705 10.3839 253.223 10.2126L252.553 12.0968ZM254.331 12.6059L256.777 13.1909L257.242 11.2457L254.796 10.6607L254.331 12.6059ZM256.791 13.1941C257.922 13.4472 258.948 13.782 259.873 14.1951L260.688 12.3688C259.628 11.8955 258.473 11.5212 257.228 11.2425L256.791 13.1941ZM259.873 14.1951C260.783 14.6012 261.553 15.0929 262.195 15.6642L263.525 14.1704C262.713 13.4475 261.764 12.849 260.688 12.3688L259.873 14.1951ZM262.195 15.6642C262.818 16.2194 263.297 16.8686 263.638 17.6179L265.459 16.7903C265.001 15.7846 264.355 14.9092 263.525 14.1704L262.195 15.6642ZM263.641 17.6255C263.979 18.3529 264.165 19.2139 264.173 20.23L266.173 20.2143C266.163 18.9613 265.933 17.8103 265.455 16.7827L263.641 17.6255ZM264.173 20.2168C264.165 21.708 263.788 22.9514 263.073 23.9894L264.72 25.1235C265.69 23.7152 266.163 22.0691 266.173 20.2275L264.173 20.2168ZM263.072 23.9907C262.363 25.0241 261.32 25.8571 259.888 26.4687L260.673 28.3081C262.396 27.5724 263.764 26.5175 264.721 25.1222L263.072 23.9907ZM259.89 26.4677C258.476 27.067 256.724 27.3856 254.603 27.3856V29.3856C256.915 29.3856 258.947 29.0394 260.671 28.3092L259.89 26.4677ZM254.603 27.3856C252.505 27.3856 250.725 27.0638 249.241 26.4509L248.478 28.2994C250.256 29.0337 252.305 29.3856 254.603 29.3856V27.3856ZM249.243 26.4516C247.781 25.8444 246.673 24.9629 245.88 23.815L244.234 24.9523C245.267 26.4457 246.694 27.5585 248.476 28.2986L249.243 26.4516ZM245.884 23.8213C245.11 22.6831 244.675 21.2369 244.634 19.4284L242.635 19.4736C242.682 21.5829 243.196 23.4251 244.23 24.9459L245.884 23.8213ZM243.634 20.451H249.205V18.451H243.634V20.451ZM248.208 19.5188C248.28 20.5871 248.592 21.5452 249.191 22.3397L250.788 21.136C250.465 20.7073 250.254 20.1409 250.203 19.3832L248.208 19.5188ZM249.201 22.3526C249.791 23.1091 250.566 23.6672 251.495 24.0365L252.234 22.1781C251.602 21.9269 251.128 21.5721 250.778 21.1231L249.201 22.3526ZM251.507 24.0414C252.428 24.3932 253.443 24.5593 254.537 24.5593V22.5593C253.645 22.5593 252.878 22.424 252.221 22.1731L251.507 24.0414ZM254.537 24.5593C255.606 24.5593 256.582 24.4042 257.444 24.0639L256.709 22.2038C256.134 22.4308 255.418 22.5593 254.537 22.5593V24.5593ZM257.44 24.0654C258.297 23.7308 259.019 23.2419 259.55 22.5702L257.98 21.3309C257.712 21.6697 257.309 21.9696 256.713 22.2023L257.44 24.0654ZM259.55 22.5702C260.091 21.8849 260.363 21.085 260.363 20.2089H258.363C258.363 20.6445 258.236 21.0058 257.98 21.3309L259.55 22.5702ZM260.363 20.2089C260.363 19.3832 260.111 18.6277 259.571 18.0092L258.064 19.324C258.252 19.5386 258.363 19.8114 258.363 20.2089H260.363ZM259.579 18.0185C259.093 17.4474 258.423 17.0138 257.639 16.682L256.859 18.5239C257.458 18.7771 257.833 19.0526 258.056 19.3147L259.579 18.0185ZM257.643 16.6838C256.894 16.3627 255.999 16.081 254.971 15.8331L254.502 17.7774C255.459 18.008 256.239 18.2582 256.855 18.5221L257.643 16.6838ZM254.98 15.8353L252.015 15.0908L251.528 17.0306L254.493 17.7751L254.98 15.8353ZM252.008 15.089C249.822 14.5573 248.173 13.7442 247 12.6957L245.667 14.1872C247.153 15.5142 249.13 16.4473 251.535 17.0323L252.008 15.089ZM247 12.6957C245.912 11.7244 245.345 10.4129 245.352 8.64622L243.352 8.63741C243.342 10.8948 244.095 12.7831 245.667 14.1872L247 12.6957ZM245.352 8.63644C245.345 7.17998 245.728 5.95023 246.48 4.90479L244.857 3.7368C243.836 5.15545 243.343 6.80639 243.352 8.64719L245.352 8.63644ZM246.478 4.90862C247.257 3.83561 248.338 2.97872 249.757 2.34992L248.946 0.521442C247.245 1.27538 245.87 2.3419 244.86 3.73297L246.478 4.90862ZM249.757 2.34992C251.17 1.72361 252.801 1.39864 254.67 1.39864V-0.601363C252.567 -0.601363 250.653 -0.23497 248.946 0.521442L249.757 2.34992ZM254.67 1.39864C256.578 1.39864 258.194 1.72491 259.544 2.34458L260.378 0.526786C258.715 -0.236268 256.804 -0.601363 254.67 -0.601363V1.39864ZM259.546 2.3455C260.916 2.97028 261.945 3.82047 262.672 4.88505L264.323 3.75654C263.367 2.35703 262.038 1.28382 260.376 0.525863L259.546 2.3455ZM262.672 4.88506C263.394 5.94138 263.777 7.17423 263.801 8.61832L265.801 8.58554C265.771 6.78555 265.286 5.1643 264.323 3.75654L262.672 4.88506ZM264.801 7.60193H259.283V9.60193H264.801V7.60193ZM277.224 16.1936L276.224 16.1835V16.1936H277.224ZM277.224 28V29H278.224V28H277.224ZM271.56 28H270.56V29H271.56V28ZM271.56 0.770909V-0.229091H270.56V0.770909H271.56ZM277.064 0.770909H278.064V-0.229091H277.064V0.770909ZM277.064 11.1813H276.064V12.1813H277.064V11.1813ZM277.303 11.1813V12.1813H277.992L278.238 11.5384L277.303 11.1813ZM279.537 8.34932L280.09 9.18249L280.095 9.17916L279.537 8.34932ZM287.116 8.24295L286.608 9.10493L286.617 9.10986L287.116 8.24295ZM289.588 10.8888L288.697 11.3415L288.701 11.3497L289.588 10.8888ZM290.466 14.997L289.466 14.9915V14.997H290.466ZM290.466 28V29H291.466V28H290.466ZM284.802 28H283.802V29H284.802V28ZM284.802 16.0075L283.802 16.0005V16.0075H284.802ZM283.845 13.0692L283.106 13.7428L283.11 13.7479L283.845 13.0692ZM279.112 12.5108L278.628 11.6354L278.623 11.6385L279.112 12.5108ZM277.729 13.9467L276.847 13.4748L276.845 13.4794L277.729 13.9467ZM276.224 16.1936V28H278.224V16.1936H276.224ZM277.224 27H271.56V29H277.224V27ZM272.56 28V0.770909H270.56V28H272.56ZM271.56 1.77091H277.064V-0.229091H271.56V1.77091ZM276.064 0.770909V11.1813H278.064V0.770909H276.064ZM277.064 12.1813H277.303V10.1813H277.064V12.1813ZM278.238 11.5384C278.628 10.5179 279.244 9.74435 280.09 9.18247L278.984 7.51616C277.774 8.31929 276.901 9.43366 276.369 10.8241L278.238 11.5384ZM280.095 9.17916C280.921 8.62375 282.004 8.31227 283.406 8.31227V6.31227C281.706 6.31227 280.209 6.69216 278.979 7.51947L280.095 9.17916ZM283.406 8.31227C284.675 8.31227 285.73 8.58836 286.608 9.10489L287.623 7.38102C286.391 6.65664 284.974 6.31227 283.406 6.31227V8.31227ZM286.617 9.10986C287.503 9.61925 288.195 10.3528 288.697 11.3414L290.48 10.4361C289.812 9.12014 288.855 8.08984 287.614 7.37605L286.617 9.10986ZM288.701 11.3497C289.204 12.3187 289.474 13.5203 289.466 14.9915L291.466 15.0026C291.475 13.2829 291.16 11.7456 290.476 10.4278L288.701 11.3497ZM289.466 14.997V28H291.466V14.997H289.466ZM290.466 27H284.802V29H290.466V27ZM285.802 28V16.0075H283.802V28H285.802ZM285.802 16.0145C285.812 14.5854 285.448 13.3307 284.579 12.3905L283.11 13.7479C283.536 14.2081 283.81 14.9123 283.802 16.0005L285.802 16.0145ZM284.584 12.3956C283.716 11.4433 282.527 11.0189 281.159 11.0189V13.0189C282.096 13.0189 282.697 13.2946 283.106 13.7428L284.584 12.3956ZM281.159 11.0189C280.242 11.0189 279.389 11.2151 278.628 11.6354L279.595 13.3862C280.022 13.1506 280.534 13.0189 281.159 13.0189V11.0189ZM278.623 11.6385C277.86 12.0658 277.268 12.6886 276.847 13.4748L278.611 14.4186C278.863 13.9461 279.193 13.6117 279.601 13.3831L278.623 11.6385ZM276.845 13.4794C276.426 14.2718 276.234 15.1857 276.224 16.1835L278.224 16.2037C278.231 15.4466 278.376 14.8626 278.613 14.414L276.845 13.4794ZM301.413 27.0826L300.904 27.9433L300.91 27.9468L301.413 27.0826ZM297.943 23.3865L297.053 23.8436L297.055 23.8456L297.943 23.3865ZM297.943 12.338L298.831 12.7971L298.832 12.7951L297.943 12.338ZM301.413 8.64182L301.918 9.50467L301.92 9.50375L301.413 8.64182ZM312.116 8.64182L311.607 9.50246L311.613 9.50596L312.116 8.64182ZM315.599 12.338L314.71 12.7951L314.711 12.7971L315.599 12.338ZM315.599 23.3865L316.488 23.8456L316.489 23.8436L315.599 23.3865ZM312.116 27.0826L312.621 27.9455L312.623 27.9445L312.116 27.0826ZM309.151 23.2136L309.796 23.9775L309.803 23.9721L309.151 23.2136ZM310.574 21.0066L309.63 20.6742L309.628 20.6823L310.574 21.0066ZM310.574 14.6514L309.628 14.9757L309.63 14.9837L310.574 14.6514ZM304.405 12.4443L303.763 11.6769L303.758 11.6813L304.405 12.4443ZM302.955 14.6514L302.012 14.319L302.009 14.327L302.955 14.6514ZM302.955 21.0066L302.009 21.3309L302.012 21.3389L302.955 21.0066ZM304.405 23.2136L303.758 23.9766L303.764 23.9814L303.77 23.9862L304.405 23.2136ZM306.771 27.3989C304.85 27.3989 303.244 26.9918 301.916 26.2185L300.91 27.9468C302.595 28.9284 304.562 29.3989 306.771 29.3989V27.3989ZM301.922 26.222C300.589 25.4333 299.562 24.3419 298.831 22.9273L297.055 23.8456C297.954 25.5865 299.241 26.9592 300.904 27.9432L301.922 26.222ZM298.832 22.9294C298.101 21.5067 297.72 19.8291 297.72 17.8689H295.72C295.72 20.0923 296.154 22.0931 297.053 23.8436L298.832 22.9294ZM297.72 17.8689C297.72 15.8892 298.102 14.2086 298.831 12.7971L297.055 11.8788C296.153 13.6228 295.72 15.6294 295.72 17.8689H297.72ZM298.832 12.7951C299.563 11.3725 300.589 10.2834 301.918 9.50467L300.908 7.77896C299.241 8.75525 297.953 10.1302 297.053 11.8808L298.832 12.7951ZM301.92 9.50375C303.247 8.72299 304.852 8.31227 306.771 8.31227V6.31227C304.56 6.31227 302.592 6.78792 300.906 7.77988L301.92 9.50375ZM306.771 8.31227C308.691 8.31227 310.289 8.72305 311.607 9.50244L312.625 7.78119C310.946 6.78786 308.982 6.31227 306.771 6.31227V8.31227ZM311.613 9.50596C312.951 10.2851 313.98 11.3741 314.71 12.7951L316.489 11.8808C315.588 10.1286 314.295 8.75353 312.619 7.77767L311.613 9.50596ZM314.711 12.7971C315.44 14.2086 315.822 15.8892 315.822 17.8689H317.822C317.822 15.6294 317.389 13.6228 316.488 11.8788L314.711 12.7971ZM315.822 17.8689C315.822 19.8291 315.441 21.5067 314.71 22.9294L316.489 23.8436C317.388 22.0931 317.822 20.0923 317.822 17.8689H315.822ZM314.711 22.9273C313.981 24.3403 312.95 25.4315 311.609 26.2207L312.623 27.9445C314.295 26.961 315.587 25.5881 316.488 23.8456L314.711 22.9273ZM311.61 26.2198C310.293 26.9918 308.693 27.3989 306.771 27.3989V29.3989C308.98 29.3989 310.943 28.9285 312.621 27.9455L311.61 26.2198ZM306.798 25.0114C307.938 25.0114 308.961 24.683 309.796 23.9774L308.506 22.4498C308.082 22.8079 307.536 23.0114 306.798 23.0114V25.0114ZM309.803 23.9721C310.59 23.2956 311.154 22.3985 311.52 21.3309L309.628 20.6823C309.355 21.4761 308.97 22.0503 308.499 22.4551L309.803 23.9721ZM311.517 21.3389C311.889 20.2823 312.066 19.1075 312.066 17.829H310.066C310.066 18.9259 309.914 19.8696 309.63 20.6742L311.517 21.3389ZM312.066 17.829C312.066 16.5504 311.889 15.3757 311.517 14.319L309.63 14.9837C309.914 15.7884 310.066 16.7321 310.066 17.829H312.066ZM311.52 14.327C311.154 13.2595 310.59 12.3624 309.803 11.6858L308.499 13.2028C308.97 13.6076 309.355 14.1819 309.628 14.9757L311.52 14.327ZM309.803 11.6858C308.968 10.9687 307.943 10.6333 306.798 10.6333V12.6333C307.532 12.6333 308.075 12.8386 308.499 13.2028L309.803 11.6858ZM306.798 10.6333C305.646 10.6333 304.613 10.9672 303.763 11.677L305.046 13.2117C305.49 12.8401 306.053 12.6333 306.798 12.6333V10.6333ZM303.758 11.6813C302.962 12.3558 302.388 13.2513 302.012 14.319L303.898 14.9837C304.178 14.1901 304.571 13.6142 305.051 13.2073L303.758 11.6813ZM302.009 14.327C301.648 15.3812 301.477 16.553 301.477 17.829H303.477C303.477 16.7295 303.624 15.7829 303.901 14.9757L302.009 14.327ZM301.477 17.829C301.477 19.1049 301.648 20.2768 302.009 21.3309L303.901 20.6823C303.624 19.875 303.477 18.9285 303.477 17.829H301.477ZM302.012 21.3389C302.388 22.4067 302.962 23.3021 303.758 23.9766L305.051 22.4507C304.571 22.0438 304.178 21.4679 303.898 20.6742L302.012 21.3389ZM303.77 23.9862C304.619 24.6844 305.65 25.0114 306.798 25.0114V23.0114C306.048 23.0114 305.484 22.8065 305.039 22.4411L303.77 23.9862ZM326.643 28L325.678 28.2626L325.879 29H326.643V28ZM321.085 7.57818V6.57818H319.777L320.12 7.84077L321.085 7.57818ZM326.816 7.57818L327.79 7.35346L327.611 6.57818H326.816V7.57818ZM329.98 21.2991L329.005 21.5238L329.184 22.2991H329.98V21.2991ZM330.166 21.2991V22.2991H330.954L331.138 21.5327L330.166 21.2991ZM333.463 7.57818V6.57818H332.675L332.491 7.34452L333.463 7.57818ZM339.087 7.57818L340.058 7.33966L339.871 6.57818H339.087V7.57818ZM342.438 21.2193L341.467 21.4578L341.654 22.2193H342.438V21.2193ZM342.611 21.2193V22.2193H343.408L343.586 21.4417L342.611 21.2193ZM345.722 7.57818V6.57818H344.924L344.747 7.35582L345.722 7.57818ZM351.439 7.57818L352.404 7.84018L352.746 6.57818H351.439V7.57818ZM345.895 28V29H346.659L346.86 28.262L345.895 28ZM339.898 28L338.934 28.2636L339.135 29H339.898V28ZM336.388 15.1566L337.353 14.893L337.152 14.1566H336.388V15.1566ZM336.136 15.1566V14.1566H335.372L335.171 14.893L336.136 15.1566ZM332.626 28V29H333.389L333.59 28.2636L332.626 28ZM327.608 27.7374L322.05 7.3156L320.12 7.84077L325.678 28.2626L327.608 27.7374ZM321.085 8.57818H326.816V6.57818H321.085V8.57818ZM325.841 7.8029L329.005 21.5238L330.954 21.0744L327.79 7.35346L325.841 7.8029ZM329.98 22.2991H330.166V20.2991H329.98V22.2991ZM331.138 21.5327L334.436 7.81184L332.491 7.34452L329.194 21.0654L331.138 21.5327ZM333.463 8.57818H339.087V6.57818H333.463V8.57818ZM338.116 7.81671L341.467 21.4578L343.409 20.9808L340.058 7.33966L338.116 7.81671ZM342.438 22.2193H342.611V20.2193H342.438V22.2193ZM343.586 21.4417L346.697 7.80054L344.747 7.35582L341.636 20.997L343.586 21.4417ZM345.722 8.57818H351.439V6.57818H345.722V8.57818ZM350.474 7.31618L344.93 27.738L346.86 28.262L352.404 7.84018L350.474 7.31618ZM345.895 27H339.898V29H345.895V27ZM340.863 27.7364L337.353 14.893L335.424 15.4202L338.934 28.2636L340.863 27.7364ZM336.388 14.1566H336.136V16.1566H336.388V14.1566ZM335.171 14.893L331.661 27.7364L333.59 28.2636L337.1 15.4202L335.171 14.893ZM332.626 27H326.643V29H332.626V27ZM360.398 27.0693L359.885 27.9277L359.891 27.9313L360.398 27.0693ZM356.941 23.3466L356.048 23.7958L356.05 23.7998L356.941 23.3466ZM356.955 12.3645L356.065 11.9074L356.064 11.9093L356.955 12.3645ZM360.425 8.65511L360.934 9.51574L360.938 9.5135L360.425 8.65511ZM370.45 8.28284L370.885 7.38253L370.45 8.28284ZM374.917 15.13V16.13H375.969L375.916 15.0795L374.917 15.13ZM369.572 15.13L368.583 15.2762L368.709 16.13H369.572V15.13ZM368.375 12.6703L367.673 13.3824L367.683 13.3921L368.375 12.6703ZM363.562 12.4443L364.15 13.2535L364.152 13.2521L363.562 12.4443ZM362.034 21.113L361.101 21.475L361.104 21.4828L362.034 21.113ZM363.562 23.2003L364.152 22.3926L363.562 23.2003ZM367.604 23.5194L367.151 22.628L367.145 22.6312L367.604 23.5194ZM368.894 22.3627L368.064 21.8047L368.062 21.808L368.894 22.3627ZM369.572 20.5147V19.5147H368.709L368.583 20.3681L369.572 20.5147ZM374.917 20.5147L375.915 20.5714L375.975 19.5147H374.917V20.5147ZM373.64 24.6362L372.799 24.0961L372.798 24.0977L373.64 24.6362ZM370.516 27.4017L370.069 26.5073L370.516 27.4017ZM365.796 27.3989C363.847 27.3989 362.231 26.987 360.905 26.2074L359.891 27.9313C361.579 28.9243 363.561 29.3989 365.796 29.3989V27.3989ZM360.911 26.2109C359.578 25.4144 358.556 24.3155 357.833 22.8934L356.05 23.7998C356.94 25.5509 358.222 26.9338 359.885 27.9277L360.911 26.2109ZM357.835 22.8974C357.118 21.4712 356.745 19.8035 356.745 17.8689H354.745C354.745 20.0647 355.17 22.0488 356.048 23.7958L357.835 22.8974ZM356.745 17.8689C356.745 15.9069 357.122 14.2332 357.845 12.8197L356.064 11.9093C355.174 13.6513 354.745 15.6472 354.745 17.8689H356.745ZM357.844 12.8217C358.576 11.3983 359.602 10.3036 360.934 9.51574L359.916 7.79449C358.251 8.77933 356.965 10.1576 356.065 11.9074L357.844 12.8217ZM360.938 9.5135C362.254 8.72671 363.852 8.31227 365.77 8.31227V6.31227C363.557 6.31227 361.591 6.79306 359.912 7.79672L360.938 9.5135ZM365.77 8.31227C367.43 8.31227 368.836 8.61347 370.014 9.18315L370.885 7.38253C369.386 6.65812 367.672 6.31227 365.77 6.31227V8.31227ZM370.014 9.18315C371.202 9.75711 372.12 10.5503 372.795 11.5631L374.459 10.4537C373.574 9.12655 372.374 8.10266 370.885 7.38253L370.014 9.18315ZM372.795 11.5631C373.463 12.5652 373.846 13.76 373.918 15.1805L375.916 15.0795C375.828 13.3445 375.351 11.7916 374.459 10.4537L372.795 11.5631ZM374.917 14.13H369.572V16.13H374.917V14.13ZM370.561 14.9838C370.383 13.7793 369.898 12.745 369.068 11.9486L367.683 13.3921C368.147 13.8366 368.46 14.4421 368.583 15.2762L370.561 14.9838ZM369.078 11.9583C368.223 11.1154 367.118 10.7264 365.863 10.7264V12.7264C366.681 12.7264 367.252 12.9667 367.673 13.3824L369.078 11.9583ZM365.863 10.7264C364.791 10.7264 363.814 11.0227 362.973 11.6365L364.152 13.2521C364.623 12.9086 365.179 12.7264 365.863 12.7264V10.7264ZM362.975 11.6351C362.145 12.2374 361.537 13.0918 361.119 14.1322L362.975 14.8781C363.283 14.1102 363.685 13.5908 364.15 13.2535L362.975 11.6351ZM361.119 14.1322C360.695 15.186 360.502 16.4147 360.502 17.7891H362.502C362.502 16.593 362.671 15.6324 362.975 14.8781L361.119 14.1322ZM360.502 17.7891C360.502 19.1773 360.69 20.4154 361.101 21.475L362.966 20.7509C362.668 19.9846 362.502 19.0068 362.502 17.7891H360.502ZM361.104 21.4828C361.523 22.5338 362.136 23.3971 362.973 24.0081L364.152 22.3926C363.678 22.0463 363.271 21.518 362.963 20.7431L361.104 21.4828ZM362.973 24.0081C363.814 24.6219 364.791 24.9183 365.863 24.9183V22.9183C365.179 22.9183 364.623 22.736 364.152 22.3926L362.973 24.0081ZM365.863 24.9183C366.65 24.9183 367.392 24.7553 368.064 24.4076L367.145 22.6312C366.789 22.8154 366.369 22.9183 365.863 22.9183V24.9183ZM368.058 24.4108C368.739 24.0643 369.297 23.5603 369.726 22.9174L368.062 21.808C367.817 22.1756 367.515 22.4428 367.151 22.628L368.058 24.4108ZM369.724 22.9207C370.166 22.2636 370.437 21.5014 370.561 20.6612L368.583 20.3681C368.495 20.9639 368.314 21.4337 368.064 21.8047L369.724 22.9207ZM369.572 21.5147H374.917V19.5147H369.572V21.5147ZM373.918 20.4579C373.839 21.8648 373.458 23.0684 372.799 24.0961L374.482 25.1764C375.347 23.8286 375.818 22.2845 375.915 20.5714L373.918 20.4579ZM372.798 24.0977C372.148 25.1148 371.247 25.918 370.069 26.5073L370.963 28.2961C372.444 27.5558 373.626 26.5154 374.483 25.1748L372.798 24.0977ZM370.069 26.5073C368.906 27.0889 367.492 27.3989 365.796 27.3989V29.3989C367.734 29.3989 369.467 29.0441 370.963 28.2961L370.069 26.5073ZM383.504 27.7075L383.092 28.6187L383.099 28.6216L383.504 27.7075ZM381.084 25.6733L380.245 26.2166L380.251 26.2261L381.084 25.6733ZM380.832 19.4377L379.952 18.9624L380.832 19.4377ZM382.533 17.5764L381.986 16.7396L382.533 17.5764ZM384.98 16.5127L384.728 15.5448L384.726 15.5454L384.98 16.5127ZM387.878 16.0075L387.974 17.0029L387.982 17.0021L387.878 16.0075ZM390.75 15.6618L390.895 16.6514L390.907 16.6495L390.75 15.6618ZM392.332 15.1566L391.772 14.328V14.328L392.332 15.1566ZM392.026 12.1385L391.365 12.8888L391.371 12.8942L392.026 12.1385ZM387.36 12.1252L387.952 12.9309L387.96 12.9252L387.36 12.1252ZM386.163 13.8005L386.082 14.7972L386.896 14.8633L387.124 14.0785L386.163 13.8005ZM380.925 13.375L379.947 13.1655L379.708 14.2795L380.844 14.3717L380.925 13.375ZM382.493 10.1575L383.251 10.8107L383.254 10.8071L382.493 10.1575ZM385.512 8.05682L385.879 8.98668L385.883 8.98529L385.512 8.05682ZM393.077 7.71114L392.828 8.6798L392.83 8.6803L393.077 7.71114ZM395.855 8.94761L395.286 9.76982L395.29 9.7727L395.855 8.94761ZM397.783 11.1015L396.902 11.5735L396.904 11.5772L397.783 11.1015ZM398.488 28V29H399.488V28H398.488ZM393.117 28H392.117V29H393.117V28ZM393.117 25.1681H394.117V24.1681H393.117V25.1681ZM392.957 25.1681V24.1681H392.347L392.068 24.711L392.957 25.1681ZM391.641 26.8566L392.298 27.6107L392.304 27.6047L391.641 26.8566ZM389.66 27.9867L389.986 28.9321L389.995 28.9287L389.66 27.9867ZM390.816 23.9848L391.274 24.8743L391.283 24.8692L390.816 23.9848ZM392.319 22.6286L391.477 22.0892L392.319 22.6286ZM392.864 18.5336H393.864V16.691L392.319 17.6952L392.864 18.5336ZM392.133 18.8527L392.415 19.8121L392.424 19.8095L392.433 19.8067L392.133 18.8527ZM391.109 19.1053L391.292 20.0885L391.303 20.0864L391.314 20.0841L391.109 19.1053ZM389.966 19.3048L390.104 20.2952L390.115 20.2936L390.126 20.2918L389.966 19.3048ZM388.928 19.451L388.787 18.4611L388.783 18.4616L388.928 19.451ZM387.187 19.9164L387.581 20.8355L387.187 19.9164ZM386.03 20.7806L386.821 21.3932L386.828 21.3837L386.03 20.7806ZM386.456 23.8784L385.866 24.686L385.873 24.6913L385.88 24.6964L386.456 23.8784ZM386.987 27.3856C385.801 27.3856 384.781 27.1801 383.909 26.7934L383.099 28.6216C384.265 29.139 385.568 29.3856 386.987 29.3856V27.3856ZM383.916 26.7963C383.061 26.4095 382.403 25.8524 381.917 25.1205L380.251 26.2261C380.953 27.2847 381.909 28.0837 383.092 28.6187L383.916 26.7963ZM381.924 25.13C381.467 24.4241 381.207 23.4991 381.207 22.2962H379.207C379.207 23.788 379.531 25.1143 380.245 26.2165L381.924 25.13ZM381.207 22.2962C381.207 21.2802 381.393 20.5014 381.711 19.913L379.952 18.9624C379.436 19.9163 379.207 21.0432 379.207 22.2962H381.207ZM381.711 19.913C382.051 19.2849 382.505 18.7899 383.081 18.4132L381.986 16.7396C381.126 17.3024 380.446 18.0483 379.952 18.9624L381.711 19.913ZM383.081 18.4132C383.7 18.0081 384.414 17.6947 385.233 17.48L384.726 15.5454C383.719 15.8094 382.803 16.2051 381.986 16.7396L383.081 18.4132ZM385.231 17.4806C386.099 17.2554 387.013 17.0957 387.974 17.0029L387.782 15.0121C386.723 15.1143 385.704 15.2914 384.728 15.5448L385.231 17.4806ZM387.982 17.0021C389.176 16.8773 390.149 16.7605 390.895 16.6513L390.605 14.6724C389.898 14.7759 388.956 14.8895 387.774 15.0129L387.982 17.0021ZM390.907 16.6495C391.674 16.5277 392.379 16.3319 392.892 15.9852L391.772 14.328C391.63 14.4244 391.279 14.5654 390.593 14.6742L390.907 16.6495ZM392.892 15.9852C393.525 15.5573 393.824 14.9011 393.824 14.1727H391.824C391.824 14.2631 391.808 14.2955 391.807 14.2972C391.806 14.2992 391.805 14.3007 391.802 14.3035C391.799 14.3066 391.791 14.3153 391.772 14.328L392.892 15.9852ZM393.824 14.1727V14.093H391.824V14.1727H393.824ZM393.824 14.093C393.824 13.0234 393.475 12.0711 392.681 11.3828L391.371 12.8942C391.641 13.1277 391.824 13.4784 391.824 14.093H393.824ZM392.688 11.3883C391.922 10.7136 390.908 10.4472 389.793 10.4472V12.4472C390.609 12.4472 391.085 12.6416 391.365 12.8887L392.688 11.3883ZM389.793 10.4472C388.632 10.4472 387.587 10.7044 386.76 11.3252L387.96 12.9252C388.337 12.642 388.914 12.4472 389.793 12.4472V10.4472ZM386.767 11.3196C386 11.884 385.463 12.6225 385.202 13.5224L387.124 14.0785C387.253 13.6311 387.514 13.2529 387.952 12.9309L386.767 11.3196ZM386.244 12.8037L381.006 12.3783L380.844 14.3717L386.082 14.7972L386.244 12.8037ZM381.902 13.5845C382.135 12.497 382.587 11.5798 383.251 10.8107L381.736 9.50427C380.84 10.5434 380.246 11.7711 379.947 13.1655L381.902 13.5845ZM383.254 10.8071C383.917 10.0306 384.783 9.42048 385.879 8.98667L385.144 7.12696C383.776 7.66816 382.63 8.45849 381.733 9.50793L383.254 10.8071ZM385.883 8.98529C386.983 8.54534 388.288 8.31227 389.819 8.31227V6.31227C388.088 6.31227 386.522 6.57557 385.14 7.12834L385.883 8.98529ZM389.819 8.31227C390.875 8.31227 391.877 8.4359 392.828 8.6798L393.325 6.74247C392.202 6.45455 391.033 6.31227 389.819 6.31227V8.31227ZM392.83 8.6803C393.772 8.91978 394.587 9.2857 395.286 9.76981L396.425 8.12542C395.511 7.49271 394.473 7.03431 393.323 6.74197L392.83 8.6803ZM395.29 9.7727C395.973 10.2398 396.507 10.8363 396.902 11.5735L398.665 10.6295C398.12 9.61166 397.369 8.77222 396.42 8.12253L395.29 9.7727ZM396.904 11.5772C397.278 12.2698 397.488 13.14 397.488 14.2259H399.488C399.488 12.8832 399.228 11.6704 398.663 10.6258L396.904 11.5772ZM397.488 14.2259V28H399.488V14.2259H397.488ZM398.488 27H393.117V29H398.488V27ZM394.117 28V25.1681H392.117V28H394.117ZM393.117 24.1681H392.957V26.1681H393.117V24.1681ZM392.068 24.711C391.798 25.2364 391.436 25.7012 390.977 26.1085L392.304 27.6047C392.944 27.037 393.461 26.3761 393.846 25.6251L392.068 24.711ZM390.984 26.1025C390.54 26.4895 389.992 26.8068 389.324 27.0447L389.995 28.9287C390.87 28.6171 391.643 28.181 392.298 27.6107L390.984 26.1025ZM389.334 27.0413C388.689 27.2636 387.912 27.3856 386.987 27.3856V29.3856C388.083 29.3856 389.088 29.2416 389.986 28.9321L389.334 27.0413ZM388.609 25.4767C389.576 25.4767 390.473 25.2857 391.273 24.8742L390.359 23.0953C389.884 23.3397 389.309 23.4767 388.609 23.4767V25.4767ZM391.283 24.8692C392.063 24.4576 392.698 23.8911 393.161 23.1681L391.477 22.0892C391.213 22.5007 390.846 22.8383 390.35 23.1004L391.283 24.8692ZM393.161 23.1681C393.634 22.4291 393.864 21.5968 393.864 20.7008H391.864C391.864 21.2407 391.73 21.6937 391.477 22.0892L393.161 23.1681ZM393.864 20.7008V18.5336H391.864V20.7008H393.864ZM392.319 17.6952C392.247 17.742 392.098 17.8155 391.833 17.8987L392.433 19.8067C392.788 19.6949 393.126 19.5558 393.409 19.3721L392.319 17.6952ZM391.851 17.8934C391.58 17.973 391.265 18.051 390.904 18.1266L391.314 20.0841C391.715 20.0001 392.083 19.9097 392.415 19.8121L391.851 17.8934ZM390.926 18.1222C390.552 18.1917 390.179 18.2569 389.805 18.3178L390.126 20.2918C390.515 20.2285 390.903 20.1608 391.292 20.0885L390.926 18.1222ZM389.827 18.3144C389.445 18.3677 389.099 18.4166 388.787 18.4611L389.07 20.441C389.379 20.3968 389.723 20.3482 390.104 20.2952L389.827 18.3144ZM388.783 18.4616C388.053 18.5687 387.385 18.7433 386.793 18.9972L387.581 20.8355C387.981 20.664 388.475 20.5283 389.074 20.4404L388.783 18.4616ZM386.793 18.9972C386.166 19.2657 385.63 19.6517 385.232 20.1775L386.828 21.3837C386.98 21.1826 387.214 20.9925 387.581 20.8355L386.793 18.9972ZM385.24 20.168C384.805 20.7288 384.618 21.3992 384.618 22.1101H386.618C386.618 21.7574 386.706 21.5414 386.82 21.3931L385.24 20.168ZM384.618 22.1101C384.618 23.158 385.017 24.0663 385.866 24.686L387.045 23.0708C386.777 22.8751 386.618 22.6045 386.618 22.1101H384.618ZM385.88 24.6964C386.654 25.2406 387.587 25.4767 388.609 25.4767V23.4767C387.894 23.4767 387.391 23.3139 387.031 23.0604L385.88 24.6964ZM422.494 13.4016L422.556 14.3997L423.626 14.3338L423.486 13.2707L422.494 13.4016ZM417.309 13.7207L416.329 13.9168L416.5 14.7724L417.371 14.7188L417.309 13.7207ZM416.738 12.5241L415.958 13.1511L415.966 13.1605L416.738 12.5241ZM415.581 11.6599L415.154 12.5643L415.164 12.5691L415.175 12.5737L415.581 11.6599ZM411.672 11.8859L412.188 12.7423L412.197 12.7367L411.672 11.8859ZM411.353 14.5849L410.699 15.3417V15.3417L411.353 14.5849ZM413.36 15.3959L413.15 16.3737L413.163 16.3762L413.36 15.3959ZM417.057 16.1405L417.258 15.1609L417.254 15.1601L417.057 16.1405ZM421.497 18.1082L420.817 18.8414L421.497 18.1082ZM421.777 25.1947L420.988 24.5793L420.985 24.5836L421.777 25.1947ZM418.559 27.5612L418.94 28.4859L418.943 28.4847L418.559 27.5612ZM407.404 26.7103L406.825 27.5253L406.83 27.5289L407.404 26.7103ZM404.599 22.0835L404.546 21.0849L403.456 21.1421L403.609 22.2231L404.599 22.0835ZM410.17 21.791L411.149 21.5909L410.977 20.7472L410.117 20.7924L410.17 21.791ZM411.393 23.679L410.835 24.5093L410.843 24.5145L411.393 23.679ZM416.272 23.7455L416.807 24.5907L416.81 24.5886L416.272 23.7455ZM417.203 22.2431L418.203 22.2576L418.203 22.2417L418.203 22.2258L417.203 22.2431ZM416.551 20.98L415.931 21.7641L415.941 21.772L416.551 20.98ZM414.584 20.2089L414.78 19.2283L414.779 19.2281L414.584 20.2089ZM411.047 19.5042L410.851 20.4848L410.852 20.4849L411.047 19.5042ZM406.593 17.4301L405.88 18.1308L405.883 18.134L406.593 17.4301ZM406.208 10.2772L405.41 9.67358L405.407 9.67836L406.208 10.2772ZM409.226 8.08341L408.859 7.15319L408.856 7.15406L409.226 8.08341ZM419.889 8.94761L419.296 9.75279L419.298 9.75448L419.889 8.94761ZM422.433 12.4035L417.248 12.7226L417.371 14.7188L422.556 14.3997L422.433 12.4035ZM418.29 13.5246C418.168 12.9168 417.905 12.3673 417.509 11.8877L415.966 13.1605C416.156 13.39 416.273 13.6382 416.329 13.9168L418.29 13.5246ZM417.517 11.8971C417.113 11.3953 416.593 11.0154 415.987 10.7461L415.175 12.5737C415.526 12.7299 415.777 12.9261 415.959 13.1511L417.517 11.8971ZM416.007 10.7555C415.374 10.4567 414.658 10.3275 413.892 10.3275V12.3275C414.438 12.3275 414.848 12.4199 415.154 12.5643L416.007 10.7555ZM413.892 10.3275C412.873 10.3275 411.941 10.5444 411.146 11.0351L412.197 12.7367C412.608 12.4828 413.156 12.3275 413.892 12.3275V10.3275ZM411.156 11.0295C410.306 11.5415 409.768 12.3279 409.768 13.3484H411.768C411.768 13.1458 411.832 12.9571 412.188 12.7423L411.156 11.0295ZM409.768 13.3484C409.768 14.1449 410.104 14.8273 410.699 15.3417L412.007 13.8281C411.822 13.6689 411.768 13.5269 411.768 13.3484H409.768ZM410.699 15.3417C411.285 15.8476 412.159 16.1605 413.15 16.3736L413.571 14.4182C412.665 14.2236 412.201 13.9958 412.007 13.8281L410.699 15.3417ZM413.163 16.3762L416.859 17.1208L417.254 15.1601L413.558 14.4156L413.163 16.3762ZM416.855 17.12C418.749 17.5088 420.029 18.1106 420.817 18.8414L422.177 17.3749C421.015 16.2976 419.336 15.5876 417.258 15.1609L416.855 17.12ZM420.817 18.8414C421.565 19.535 421.96 20.4454 421.96 21.6714H423.96C423.96 19.9546 423.379 18.4895 422.177 17.3749L420.817 18.8414ZM421.96 21.6714C421.96 22.7973 421.634 23.7528 420.988 24.5793L422.565 25.81C423.497 24.6157 423.96 23.2222 423.96 21.6714H421.96ZM420.985 24.5836C420.327 25.4357 419.405 26.1267 418.175 26.6378L418.943 28.4847C420.443 27.8613 421.666 26.9745 422.568 25.8057L420.985 24.5836ZM418.178 26.6366C416.965 27.136 415.534 27.3989 413.866 27.3989V29.3989C415.742 29.3989 417.44 29.1033 418.94 28.4859L418.178 26.6366ZM413.866 27.3989C411.292 27.3989 409.362 26.8622 407.978 25.8917L406.83 27.5289C408.655 28.8099 411.033 29.3989 413.866 29.3989V27.3989ZM407.984 25.8954C406.614 24.9211 405.826 23.6238 405.589 21.944L403.609 22.2231C403.921 24.4432 405.004 26.2305 406.825 27.5253L407.984 25.8954ZM404.651 23.0821L410.222 22.7896L410.117 20.7924L404.546 21.0849L404.651 23.0821ZM409.19 21.9912C409.406 23.0503 409.952 23.9162 410.835 24.5093L411.95 22.8487C411.54 22.5731 411.27 22.1804 411.149 21.5909L409.19 21.9912ZM410.843 24.5145C411.697 25.0755 412.732 25.3172 413.879 25.3172V23.3172C413.005 23.3172 412.383 23.1334 411.942 22.8434L410.843 24.5145ZM413.879 25.3172C414.99 25.3172 415.993 25.1052 416.807 24.5906L415.738 22.9003C415.346 23.148 414.754 23.3172 413.879 23.3172V25.3172ZM416.81 24.5886C417.644 24.0566 418.188 23.2719 418.203 22.2576L416.203 22.2286C416.2 22.4374 416.123 22.6543 415.735 22.9023L416.81 24.5886ZM418.203 22.2258C418.188 21.3923 417.816 20.692 417.162 20.188L415.941 21.772C416.138 21.924 416.2 22.0656 416.203 22.2603L418.203 22.2258ZM417.172 20.196C416.566 19.7163 415.73 19.4184 414.78 19.2283L414.388 21.1894C415.21 21.3538 415.686 21.5701 415.931 21.764L417.172 20.196ZM414.779 19.2281L411.242 18.5235L410.852 20.4849L414.388 21.1896L414.779 19.2281ZM411.243 18.5236C409.357 18.1465 408.087 17.5169 407.303 16.7262L405.883 18.134C407.049 19.311 408.748 20.0642 410.851 20.4848L411.243 18.5236ZM407.307 16.7295C406.544 15.9531 406.144 14.9603 406.144 13.6675H404.144C404.144 15.4238 404.71 16.9394 405.88 18.1308L407.307 16.7295ZM406.144 13.6675C406.144 12.547 406.443 11.6328 407.008 10.876L405.407 9.67836C404.554 10.8183 404.144 12.1643 404.144 13.6675H406.144ZM407.005 10.8807C407.595 10.1013 408.441 9.47106 409.595 9.01276L408.856 7.15406C407.422 7.72394 406.256 8.55625 405.41 9.67359L407.005 10.8807ZM409.593 9.01362C410.754 8.55547 412.149 8.31227 413.799 8.31227V6.31227C411.957 6.31227 410.303 6.58317 408.859 7.1532L409.593 9.01362ZM413.799 8.31227C416.249 8.31227 418.044 8.83107 419.296 9.75279L420.482 8.14244C418.773 6.8837 416.508 6.31227 413.799 6.31227V8.31227ZM419.298 9.75448C420.56 10.6787 421.29 11.9157 421.503 13.5325L423.486 13.2707C423.203 11.1293 422.195 9.39703 420.479 8.14075L419.298 9.75448ZM433.029 27.1225L432.534 27.9911L432.54 27.9945L433.029 27.1225ZM429.546 23.4795L428.658 23.9387L428.659 23.9407L429.546 23.4795ZM429.546 12.3512L428.657 11.8941L429.546 12.3512ZM432.989 8.64182L432.478 7.78252L432.476 7.78387L432.989 8.64182ZM441.991 7.96375L441.64 8.90041L441.649 8.90354L441.991 7.96375ZM445.048 9.89159L444.345 10.6023L444.349 10.6059L445.048 9.89159ZM447.096 13.1357L446.159 13.4861L446.16 13.4882L447.096 13.1357ZM447.827 19.2383V20.2383H448.827V19.2383H447.827ZM430.583 19.2383H429.583V20.2383H430.583V19.2383ZM430.583 15.7283V14.7283H429.583V15.7283H430.583ZM442.496 15.7283V16.7283H443.496V15.7283H442.496ZM441.964 13.5611L441.093 14.052V14.052L441.964 13.5611ZM440.488 12.0853L439.983 12.9482L439.99 12.9525L439.997 12.9566L440.488 12.0853ZM436.034 12.1385L436.545 12.9981L436.549 12.996L436.034 12.1385ZM434.492 13.7207L435.362 14.2143L435.364 14.2093L434.492 13.7207ZM433.92 15.9144L432.92 15.9034V15.9144H433.92ZM434.479 21.8708L433.586 22.3223L433.591 22.3308L434.479 21.8708ZM440.275 23.905L439.954 22.9579L440.275 23.905ZM441.618 23.1073L440.929 22.3831V22.3831L441.618 23.1073ZM442.469 21.8043L442.535 20.8065L441.797 20.7578L441.534 21.4497L442.469 21.8043ZM447.708 22.15L448.686 22.3567L448.924 21.2281L447.773 21.1522L447.708 22.15ZM446.072 25.4473L445.321 24.7878L445.32 24.7883L446.072 25.4473ZM442.908 27.6277L443.279 28.5562L443.283 28.5549L442.908 27.6277ZM438.454 27.3989C436.489 27.3989 434.857 27.0016 433.519 26.2505L432.54 27.9945C434.233 28.9452 436.217 29.3989 438.454 29.3989V27.3989ZM433.525 26.2539C432.189 25.4914 431.162 24.4201 430.433 23.0183L428.659 23.9407C429.561 25.6768 430.857 27.0341 432.534 27.9911L433.525 26.2539ZM430.434 23.0204C429.706 21.6117 429.323 19.9099 429.323 17.8822H427.323C427.323 20.1622 427.755 22.1919 428.658 23.9387L430.434 23.0204ZM429.323 17.8822C429.323 15.9123 429.704 14.2305 430.435 12.8084L428.657 11.8941C427.757 13.6452 427.323 15.6506 427.323 17.8822H429.323ZM430.435 12.8084C431.169 11.3819 432.189 10.2868 433.503 9.49976L432.476 7.78387C430.83 8.76952 429.554 10.1474 428.657 11.8941L430.435 12.8084ZM433.501 9.50111C434.813 8.72041 436.376 8.31227 438.228 8.31227V6.31227C436.073 6.31227 434.145 6.7905 432.478 7.78252L433.501 9.50111ZM438.228 8.31227C439.466 8.31227 440.6 8.51146 441.64 8.90037L442.341 7.02713C441.058 6.5474 439.684 6.31227 438.228 6.31227V8.31227ZM441.649 8.90354C442.686 9.2806 443.581 9.84605 444.345 10.6023L445.752 9.18087C444.779 8.21758 443.635 7.49781 442.332 7.02396L441.649 8.90354ZM444.349 10.6059C445.108 11.3504 445.716 12.3021 446.159 13.4861L448.033 12.7853C447.501 11.3634 446.743 10.1524 445.748 9.17731L444.349 10.6059ZM446.16 13.4882C446.596 14.6449 446.827 16.0363 446.827 17.6827H448.827C448.827 15.8547 448.571 14.2147 448.032 12.7832L446.16 13.4882ZM446.827 17.6827V19.2383H448.827V17.6827H446.827ZM447.827 18.2383H430.583V20.2383H447.827V18.2383ZM431.583 19.2383V15.7283H429.583V19.2383H431.583ZM430.583 16.7283H442.496V14.7283H430.583V16.7283ZM443.496 15.7283C443.496 14.7634 443.285 13.8679 442.835 13.0703L441.093 14.052C441.352 14.513 441.496 15.0622 441.496 15.7283H443.496ZM442.835 13.0703C442.391 12.2818 441.767 11.6583 440.979 11.2141L439.997 12.9566C440.467 13.2215 440.828 13.5818 441.093 14.052L442.835 13.0703ZM440.994 11.2225C440.198 10.7568 439.297 10.5402 438.321 10.5402V12.5402C438.994 12.5402 439.537 12.6871 439.983 12.9482L440.994 11.2225ZM438.321 10.5402C437.3 10.5402 436.356 10.779 435.52 11.281L436.549 12.996C437.041 12.7003 437.622 12.5402 438.321 12.5402V10.5402ZM435.523 11.279C434.716 11.7586 434.078 12.4138 433.619 13.2321L435.364 14.2093C435.651 13.698 436.04 13.2984 436.545 12.9981L435.523 11.279ZM433.622 13.2271C433.161 14.0404 432.931 14.9397 432.92 15.9034L434.92 15.9254C434.927 15.276 435.079 14.7127 435.362 14.2143L433.622 13.2271ZM432.92 15.9144V19.2516H434.92V15.9144H432.92ZM432.92 19.2516C432.92 20.3841 433.129 21.4186 433.586 22.3223L435.371 21.4193C435.084 20.8516 434.92 20.14 434.92 19.2516H432.92ZM433.591 22.3308C434.056 23.2294 434.724 23.9407 435.588 24.4388L436.587 22.7064C436.068 22.4068 435.663 21.9836 435.366 21.4108L433.591 22.3308ZM435.588 24.4388C436.457 24.9405 437.456 25.1709 438.547 25.1709V23.1709C437.741 23.1709 437.1 23.0024 436.587 22.7064L435.588 24.4388ZM438.547 25.1709C439.27 25.1709 439.957 25.0689 440.596 24.8521L439.954 22.9579C439.548 23.0956 439.082 23.1709 438.547 23.1709V25.1709ZM440.596 24.8521C441.247 24.6317 441.823 24.2934 442.308 23.8314L440.929 22.3831C440.669 22.6302 440.35 22.8238 439.954 22.9579L440.596 24.8521ZM442.308 23.8314C442.796 23.3665 443.16 22.8031 443.404 22.159L441.534 21.4497C441.388 21.8337 441.185 22.1389 440.929 22.3831L442.308 23.8314ZM442.403 22.8021L447.642 23.1478L447.773 21.1522L442.535 20.8065L442.403 22.8021ZM446.729 21.9433C446.498 23.0392 446.028 23.9811 445.321 24.7878L446.824 26.1068C447.765 25.0344 448.386 23.7781 448.686 22.3567L446.729 21.9433ZM445.32 24.7883C444.62 25.587 443.701 26.2287 442.533 26.7006L443.283 28.5549C444.703 27.9809 445.893 27.169 446.824 26.1063L445.32 24.7883ZM442.536 26.6992C441.392 27.1571 440.038 27.3989 438.454 27.3989V29.3989C440.238 29.3989 441.853 29.1266 443.279 28.5562L442.536 26.6992Z" fill="white" mask="url(#path-1-outside-1_694_2076)"/>
</svg>
