<svg width="301" height="37" viewBox="0 0 301 37" fill="none" xmlns="http://www.w3.org/2000/svg">
<mask id="path-1-outside-1_694_1990" maskUnits="userSpaceOnUse" x="-1" y="-1" width="303" height="39" fill="black">
<rect fill="white" x="-1" y="-1" width="303" height="39"/>
<path d="M16.1378 9.60193C16.0315 8.52943 15.575 7.69625 14.7684 7.10239C13.9618 6.50852 12.8672 6.21159 11.4844 6.21159C10.5449 6.21159 9.75159 6.34455 9.10455 6.61045C8.4575 6.8675 7.96114 7.22648 7.61545 7.68739C7.27864 8.1483 7.11023 8.67125 7.11023 9.25625C7.0925 9.74375 7.19443 10.1692 7.41602 10.5326C7.64648 10.896 7.96114 11.2107 8.36 11.4766C8.75886 11.7336 9.21977 11.9597 9.74273 12.1547C10.2657 12.3408 10.8241 12.5003 11.418 12.6333L13.8643 13.2183C15.052 13.4842 16.1423 13.8387 17.135 14.2819C18.1277 14.7251 18.9875 15.2702 19.7143 15.9173C20.4411 16.5643 21.004 17.3266 21.4028 18.2041C21.8106 19.0816 22.0189 20.0876 22.0277 21.2222C22.0189 22.8885 21.5934 24.3333 20.7514 25.5565C19.9182 26.7708 18.7127 27.7148 17.135 28.3884C15.5661 29.0532 13.6738 29.3856 11.4578 29.3856C9.25966 29.3856 7.34511 29.0487 5.7142 28.3751C4.09216 27.7015 2.82466 26.7043 1.9117 25.3836C1.00761 24.0541 0.533409 22.4099 0.489091 20.451H6.05989C6.12193 21.364 6.38341 22.1262 6.84432 22.7378C7.31409 23.3406 7.93898 23.797 8.71898 24.1073C9.50784 24.4086 10.3986 24.5593 11.3914 24.5593C12.3664 24.5593 13.2128 24.4175 13.9308 24.1339C14.6576 23.8502 15.2205 23.4558 15.6193 22.9506C16.0182 22.4453 16.2176 21.8648 16.2176 21.2089C16.2176 20.5973 16.0359 20.0832 15.6725 19.6666C15.318 19.25 14.795 18.8955 14.1036 18.603C13.4211 18.3105 12.5835 18.0445 11.5908 17.8052L8.62591 17.0607C6.33023 16.5023 4.51761 15.6292 3.18807 14.4415C1.85852 13.2537 1.19818 11.6539 1.20705 9.64182C1.19818 7.99318 1.63693 6.55284 2.5233 5.3208C3.41852 4.08875 4.64614 3.12705 6.20614 2.43568C7.76614 1.74432 9.53886 1.39864 11.5243 1.39864C13.5452 1.39864 15.3091 1.74432 16.8159 2.43568C18.3316 3.12705 19.5105 4.08875 20.3525 5.3208C21.1945 6.55284 21.6289 7.97989 21.6555 9.60193H16.1378ZM39.2768 8.57818V12.8327H26.9786V8.57818H39.2768ZM29.7706 3.68546H35.4345V22.7245C35.4345 23.2475 35.5142 23.6552 35.6738 23.9477C35.8333 24.2314 36.0549 24.4308 36.3386 24.546C36.6311 24.6613 36.9679 24.7189 37.349 24.7189C37.6149 24.7189 37.8808 24.6967 38.1467 24.6524C38.4126 24.5992 38.6165 24.5593 38.7583 24.5327L39.6491 28.7474C39.3655 28.836 38.9666 28.938 38.4525 29.0532C37.9384 29.1773 37.3136 29.2526 36.5779 29.2792C35.2129 29.3324 34.0163 29.1507 32.9881 28.7341C31.9688 28.3175 31.1755 27.6705 30.6082 26.793C30.0409 25.9155 29.7617 24.8075 29.7706 23.4691V3.68546ZM51.4105 29.3856C50.1076 29.3856 48.9465 29.1595 47.9271 28.7075C46.9078 28.2466 46.1012 27.5685 45.5074 26.6733C44.9224 25.7692 44.6299 24.6435 44.6299 23.2963C44.6299 22.1617 44.8382 21.2089 45.2548 20.4377C45.6713 19.6666 46.2386 19.0461 46.9566 18.5764C47.6745 18.1066 48.49 17.752 49.4029 17.5127C50.3248 17.2734 51.2909 17.105 52.3013 17.0075C53.4891 16.8834 54.4463 16.7682 55.1732 16.6618C55.9 16.5466 56.4274 16.3782 56.7553 16.1566C57.0833 15.935 57.2473 15.607 57.2473 15.1727V15.093C57.2473 14.2509 56.9813 13.5994 56.4495 13.1385C55.9266 12.6776 55.182 12.4472 54.2159 12.4472C53.1966 12.4472 52.3855 12.6732 51.7828 13.1252C51.1801 13.5684 50.7812 14.1268 50.5862 14.8005L45.3478 14.375C45.6137 13.1341 46.1367 12.0616 46.9167 11.1575C47.6967 10.2445 48.7027 9.54432 49.9348 9.05682C51.1757 8.56045 52.6116 8.31227 54.2425 8.31227C55.377 8.31227 56.4628 8.44523 57.4999 8.71114C58.5458 8.97705 59.472 9.3892 60.2786 9.94761C61.0941 10.506 61.7367 11.224 62.2065 12.1015C62.6762 12.9701 62.9111 14.0116 62.9111 15.2259V29H57.5398V26.1681H57.3802C57.0523 26.8063 56.6135 27.3691 56.064 27.8566C55.5144 28.3352 54.8541 28.7119 54.0829 28.9867C53.3118 29.2526 52.421 29.3856 51.4105 29.3856ZM53.0326 25.4767C53.8658 25.4767 54.6015 25.3127 55.2396 24.9848C55.8778 24.648 56.3786 24.1959 56.742 23.6286C57.1054 23.0614 57.2871 22.4188 57.2871 21.7008V19.5336C57.1099 19.6489 56.8661 19.7552 56.5559 19.8527C56.2545 19.9414 55.9133 20.0256 55.5321 20.1053C55.151 20.1762 54.7699 20.2427 54.3887 20.3048C54.0076 20.358 53.6619 20.4067 53.3517 20.451C52.6869 20.5485 52.1063 20.7036 51.61 20.9164C51.1136 21.1291 50.728 21.4172 50.4533 21.7806C50.1785 22.1351 50.0411 22.5783 50.0411 23.1101C50.0411 23.8813 50.3203 24.4707 50.8787 24.8784C51.446 25.2773 52.164 25.4767 53.0326 25.4767ZM69.9261 29V8.57818H75.4171V12.1414H75.6298C76.0021 10.8739 76.627 9.91659 77.5045 9.26955C78.382 8.61364 79.3924 8.28568 80.5358 8.28568C80.8195 8.28568 81.1253 8.30341 81.4532 8.33886C81.7812 8.37432 82.0692 8.42307 82.3174 8.48511V13.5108C82.0515 13.431 81.6837 13.3601 81.2139 13.2981C80.7441 13.236 80.3142 13.205 79.9242 13.205C79.0911 13.205 78.3465 13.3867 77.6906 13.7501C77.0436 14.1047 76.5295 14.601 76.1483 15.2392C75.7761 15.8774 75.5899 16.6131 75.5899 17.4463V29H69.9261ZM99.7527 8.57818V12.8327H87.4544V8.57818H99.7527ZM90.2464 3.68546H95.9103V22.7245C95.9103 23.2475 95.9901 23.6552 96.1496 23.9477C96.3092 24.2314 96.5308 24.4308 96.8144 24.546C97.1069 24.6613 97.4437 24.7189 97.8248 24.7189C98.0908 24.7189 98.3567 24.6967 98.6226 24.6524C98.8885 24.5992 99.0923 24.5593 99.2342 24.5327L100.125 28.7474C99.8413 28.836 99.4425 28.938 98.9284 29.0532C98.4143 29.1773 97.7894 29.2526 97.0537 29.2792C95.6887 29.3324 94.4921 29.1507 93.4639 28.7341C92.4446 28.3175 91.6513 27.6705 91.0841 26.793C90.5168 25.9155 90.2376 24.8075 90.2464 23.4691V3.68546ZM119.159 20.3048V8.57818H124.823V29H119.385V25.2906H119.172C118.711 26.4872 117.945 27.4489 116.872 28.1757C115.809 28.9025 114.51 29.2659 112.977 29.2659C111.612 29.2659 110.411 28.9557 109.374 28.3352C108.336 27.7148 107.525 26.8328 106.94 25.6894C106.364 24.546 106.072 23.1766 106.063 21.5811V8.57818H111.727V20.5707C111.736 21.7761 112.059 22.729 112.697 23.4292C113.336 24.1294 114.191 24.4795 115.263 24.4795C115.946 24.4795 116.584 24.3244 117.178 24.0142C117.772 23.6951 118.25 23.2253 118.614 22.6049C118.986 21.9844 119.168 21.2177 119.159 20.3048ZM131.974 36.6582V8.57818H137.558V12.0084H137.811C138.059 11.4589 138.418 10.9005 138.888 10.3332C139.366 9.75705 139.987 9.27841 140.749 8.89727C141.52 8.50727 142.477 8.31227 143.621 8.31227C145.11 8.31227 146.484 8.70227 147.742 9.48227C149.001 10.2534 150.007 11.419 150.761 12.979C151.514 14.5301 151.891 16.4757 151.891 18.8157C151.891 21.0936 151.523 23.017 150.787 24.5859C150.06 26.1459 149.068 27.3292 147.809 28.1358C146.559 28.9335 145.159 29.3324 143.608 29.3324C142.509 29.3324 141.573 29.1507 140.802 28.7873C140.04 28.4239 139.415 27.9674 138.928 27.4178C138.44 26.8594 138.068 26.2966 137.811 25.7293H137.638V36.6582H131.974ZM137.518 18.7891C137.518 20.0034 137.687 21.0626 138.024 21.9667C138.36 22.8708 138.848 23.5755 139.486 24.0807C140.124 24.577 140.9 24.8252 141.813 24.8252C142.735 24.8252 143.515 24.5726 144.153 24.0674C144.791 23.5533 145.274 22.8442 145.602 21.9401C145.939 21.0272 146.107 19.9768 146.107 18.7891C146.107 17.6102 145.943 16.5732 145.615 15.678C145.287 14.7827 144.804 14.0825 144.166 13.5773C143.528 13.072 142.743 12.8194 141.813 12.8194C140.891 12.8194 140.111 13.0632 139.473 13.5507C138.843 14.0382 138.36 14.7295 138.024 15.6248C137.687 16.52 137.518 17.5748 137.518 18.7891ZM169.68 29V1.77091H180.423C182.488 1.77091 184.247 2.16534 185.701 2.95421C187.155 3.73421 188.262 4.82 189.025 6.21159C189.796 7.59432 190.181 9.18977 190.181 10.998C190.181 12.8061 189.791 14.4016 189.011 15.7843C188.231 17.167 187.101 18.244 185.621 19.0151C184.15 19.7862 182.368 20.1718 180.276 20.1718H173.429V15.5583H179.346C180.454 15.5583 181.367 15.3677 182.085 14.9866C182.811 14.5966 183.352 14.0603 183.707 13.3778C184.07 12.6865 184.252 11.8932 184.252 10.998C184.252 10.0939 184.07 9.305 183.707 8.63136C183.352 7.94886 182.811 7.42148 182.085 7.0492C181.358 6.66807 180.436 6.4775 179.319 6.4775H175.437V29H169.68ZM196.435 29V8.57818H201.926V12.1414H202.139C202.511 10.8739 203.136 9.91659 204.014 9.26955C204.891 8.61364 205.902 8.28568 207.045 8.28568C207.329 8.28568 207.634 8.30341 207.962 8.33886C208.29 8.37432 208.578 8.42307 208.827 8.48511V13.5108C208.561 13.431 208.193 13.3601 207.723 13.2981C207.253 13.236 206.823 13.205 206.433 13.205C205.6 13.205 204.856 13.3867 204.2 13.7501C203.553 14.1047 203.039 14.601 202.658 15.2392C202.285 15.8774 202.099 16.6131 202.099 17.4463V29H196.435ZM222.652 29.3989C220.587 29.3989 218.801 28.9601 217.294 28.0826C215.796 27.1962 214.639 25.9642 213.824 24.3865C213.009 22.7999 212.601 20.9607 212.601 18.8689C212.601 16.7593 213.009 14.9157 213.824 13.338C214.639 11.7514 215.796 10.5193 217.294 9.64182C218.801 8.75545 220.587 8.31227 222.652 8.31227C224.717 8.31227 226.499 8.75545 227.997 9.64182C229.504 10.5193 230.665 11.7514 231.48 13.338C232.296 14.9157 232.704 16.7593 232.704 18.8689C232.704 20.9607 232.296 22.7999 231.48 24.3865C230.665 25.9642 229.504 27.1962 227.997 28.0826C226.499 28.9601 224.717 29.3989 222.652 29.3989ZM222.679 25.0114C223.618 25.0114 224.403 24.7455 225.032 24.2136C225.661 23.673 226.136 22.9373 226.455 22.0066C226.783 21.0759 226.947 20.0167 226.947 18.829C226.947 17.6413 226.783 16.582 226.455 15.6514C226.136 14.7207 225.661 13.985 225.032 13.4443C224.403 12.9036 223.618 12.6333 222.679 12.6333C221.73 12.6333 220.933 12.9036 220.286 13.4443C219.647 13.985 219.164 14.7207 218.836 15.6514C218.517 16.582 218.358 17.6413 218.358 18.829C218.358 20.0167 218.517 21.0759 218.836 22.0066C219.164 22.9373 219.647 23.673 220.286 24.2136C220.933 24.7455 221.73 25.0114 222.679 25.0114ZM249.989 8.57818V12.8327H237.385V8.57818H249.989ZM240.27 29V7.10239C240.27 5.62216 240.558 4.39454 241.134 3.41954C241.719 2.44454 242.517 1.71329 243.528 1.22579C244.538 0.738295 245.686 0.494545 246.971 0.494545C247.84 0.494545 248.633 0.561022 249.351 0.693978C250.078 0.826932 250.619 0.946591 250.973 1.05296L249.963 5.3075C249.741 5.23659 249.466 5.17011 249.138 5.10807C248.819 5.04602 248.491 5.015 248.154 5.015C247.321 5.015 246.741 5.21 246.413 5.6C246.085 5.98114 245.921 6.51739 245.921 7.20875V29H240.27ZM256.07 29V8.57818H261.734V29H256.07ZM258.915 5.94568C258.073 5.94568 257.351 5.66648 256.748 5.10807C256.154 4.5408 255.857 3.86273 255.857 3.07386C255.857 2.29386 256.154 1.62466 256.748 1.06625C257.351 0.498977 258.073 0.215341 258.915 0.215341C259.757 0.215341 260.475 0.498977 261.069 1.06625C261.672 1.62466 261.973 2.29386 261.973 3.07386C261.973 3.86273 261.672 4.5408 261.069 5.10807C260.475 5.66648 259.757 5.94568 258.915 5.94568ZM274.556 1.77091V29H268.892V1.77091H274.556ZM291.02 29.3989C288.92 29.3989 287.112 28.9734 285.596 28.1225C284.089 27.2627 282.928 26.0484 282.112 24.4795C281.297 22.9018 280.889 21.036 280.889 18.8822C280.889 16.7815 281.297 14.9378 282.112 13.3513C282.928 11.7647 284.076 10.5282 285.556 9.64182C287.045 8.75545 288.791 8.31227 290.794 8.31227C292.142 8.31227 293.396 8.52943 294.557 8.96375C295.727 9.3892 296.746 10.0318 297.615 10.8916C298.492 11.7514 299.175 12.8327 299.662 14.1357C300.15 15.4298 300.394 16.9455 300.394 18.6827V20.2383H283.15V16.7283H295.062C295.062 15.9128 294.885 15.1905 294.53 14.5611C294.176 13.9318 293.684 13.4399 293.055 13.0853C292.434 12.7219 291.712 12.5402 290.887 12.5402C290.028 12.5402 289.265 12.7397 288.601 13.1385C287.945 13.5285 287.431 14.0559 287.058 14.7207C286.686 15.3766 286.496 16.1078 286.487 16.9144V20.2516C286.487 21.262 286.673 22.1351 287.045 22.8708C287.426 23.6065 287.962 24.1738 288.654 24.5726C289.345 24.9715 290.165 25.1709 291.113 25.1709C291.743 25.1709 292.319 25.0823 292.842 24.905C293.365 24.7277 293.812 24.4618 294.185 24.1073C294.557 23.7527 294.841 23.3184 295.036 22.8043L300.274 23.15C300.008 24.4086 299.463 25.5077 298.639 26.4473C297.823 27.378 296.768 28.1048 295.474 28.6277C294.189 29.1418 292.705 29.3989 291.02 29.3989Z"/>
</mask>
<path d="M16.1378 9.60193L15.1427 9.70062L15.2321 10.6019H16.1378V9.60193ZM9.10455 6.61045L9.47377 7.53987L9.48466 7.53539L9.10455 6.61045ZM7.61545 7.68739L6.81539 7.08734L6.80806 7.09737L7.61545 7.68739ZM7.11023 9.25625L8.10957 9.29259L8.11023 9.27443V9.25625H7.11023ZM7.41602 10.5326L6.56223 11.0532L6.5668 11.0607L6.57151 11.0682L7.41602 10.5326ZM8.36 11.4766L7.8053 12.3086L7.81177 12.313L7.8183 12.3172L8.36 11.4766ZM9.74273 12.1547L9.39334 13.0916L9.40035 13.0943L9.4074 13.0968L9.74273 12.1547ZM11.418 12.6333L11.6505 11.6607L11.6435 11.659L11.6364 11.6575L11.418 12.6333ZM13.8643 13.2183L13.6317 14.1909L13.6388 14.1926L13.6458 14.1941L13.8643 13.2183ZM17.135 14.2819L16.7273 15.1951L17.135 14.2819ZM19.7143 15.9173L20.3792 15.1704L19.7143 15.9173ZM21.4028 18.2041L20.4924 18.6179L20.496 18.6255L21.4028 18.2041ZM22.0277 21.2222L23.0278 21.2275L23.0277 21.2143L22.0277 21.2222ZM20.7514 25.5565L19.9277 24.9894L19.9268 24.9907L20.7514 25.5565ZM17.135 28.3884L17.5252 29.3092L17.5277 29.3081L17.135 28.3884ZM5.7142 28.3751L5.33066 29.2986L5.33244 29.2994L5.7142 28.3751ZM1.9117 25.3836L1.08475 25.946L1.08912 25.9523L1.9117 25.3836ZM0.489091 20.451V19.451H-0.53379L-0.510653 20.4736L0.489091 20.451ZM6.05989 20.451L7.05758 20.3832L6.99423 19.451H6.05989V20.451ZM6.84432 22.7378L6.04571 23.3397L6.0506 23.3462L6.05559 23.3526L6.84432 22.7378ZM8.71898 24.1073L8.34937 25.0366L8.36211 25.0414L8.71898 24.1073ZM13.9308 24.1339L13.5672 23.2023L13.5634 23.2038L13.9308 24.1339ZM15.6193 22.9506L16.4042 23.5702L15.6193 22.9506ZM15.6725 19.6666L14.9109 20.3148L14.9189 20.324L15.6725 19.6666ZM14.1036 18.603L13.7097 19.5221L13.714 19.5239L14.1036 18.603ZM11.5908 17.8052L11.3472 18.7752L11.3564 18.7774L11.5908 17.8052ZM8.62591 17.0607L8.86947 16.0908L8.86226 16.089L8.62591 17.0607ZM3.18807 14.4415L2.52185 15.1872H2.52185L3.18807 14.4415ZM1.20705 9.64182L2.20708 9.64622L2.20703 9.63644L1.20705 9.64182ZM2.5233 5.3208L1.7143 4.73297L1.71154 4.7368L2.5233 5.3208ZM16.8159 2.43568L16.3989 3.34458L16.4009 3.3455L16.8159 2.43568ZM20.3525 5.3208L19.5269 5.88505L19.5269 5.88506L20.3525 5.3208ZM21.6555 9.60193V10.6019H22.672L22.6553 9.58554L21.6555 9.60193ZM17.133 9.50324C17.001 8.17297 16.4148 7.07274 15.3613 6.29711L14.1755 7.90766C14.7352 8.31976 15.0619 8.8859 15.1427 9.70062L17.133 9.50324ZM15.3613 6.29711C14.3284 5.53662 13.0011 5.21159 11.4844 5.21159V7.21159C12.7333 7.21159 13.5952 7.48042 14.1755 7.90766L15.3613 6.29711ZM11.4844 5.21159C10.4567 5.21159 9.52575 5.35621 8.72443 5.68551L9.48466 7.53539C9.97743 7.33288 10.6331 7.21159 11.4844 7.21159V5.21159ZM8.73535 5.6811C7.95294 5.99192 7.29271 6.45105 6.81545 7.08739L8.41545 8.28739C8.62956 8.00191 8.96206 7.74308 9.47374 7.53981L8.73535 5.6811ZM6.80806 7.09737C6.34281 7.73404 6.11023 8.46476 6.11023 9.25625H8.11023C8.11023 8.87774 8.21447 8.56255 8.42285 8.2774L6.80806 7.09737ZM6.11089 9.21991C6.08711 9.87388 6.22426 10.499 6.56223 11.0532L8.26982 10.012C8.1646 9.83945 8.09789 9.61362 8.10957 9.29259L6.11089 9.21991ZM6.57151 11.0682C6.88491 11.5624 7.30349 11.9741 7.8053 12.3086L8.9147 10.6445C8.61879 10.4473 8.40804 10.2297 8.26053 9.99707L6.57151 11.0682ZM7.8183 12.3172C8.28709 12.6193 8.81446 12.8758 9.39334 13.0916L10.0921 11.2177C9.62509 11.0435 9.23064 10.848 8.9017 10.636L7.8183 12.3172ZM9.4074 13.0968C9.97203 13.2977 10.5698 13.4682 11.1995 13.6091L11.6364 11.6575C11.0784 11.5325 10.5593 11.3839 10.0781 11.2126L9.4074 13.0968ZM11.1854 13.6059L13.6317 14.1909L14.0969 12.2457L11.6505 11.6607L11.1854 13.6059ZM13.6458 14.1941C14.7762 14.4472 15.8022 14.782 16.7273 15.1951L17.5427 13.3688C16.4824 12.8955 15.3279 12.5212 14.0828 12.2425L13.6458 14.1941ZM16.7273 15.1951C17.6372 15.6012 18.4077 16.0929 19.0494 16.6642L20.3792 15.1704C19.5673 14.4475 18.6183 13.849 17.5427 13.3688L16.7273 15.1951ZM19.0494 16.6642C19.6731 17.2194 20.1519 17.8686 20.4925 18.6179L22.3132 17.7903C21.8561 16.7846 21.2092 15.9092 20.3792 15.1704L19.0494 16.6642ZM20.496 18.6255C20.8339 19.3529 21.0198 20.2139 21.0278 21.23L23.0277 21.2143C23.0179 19.9613 22.7872 18.8103 22.3097 17.7827L20.496 18.6255ZM21.0277 21.2168C21.0198 22.708 20.6423 23.9514 19.9277 24.9894L21.5751 26.1235C22.5445 24.7152 23.0179 23.0691 23.0277 21.2275L21.0277 21.2168ZM19.9268 24.9907C19.2178 26.0241 18.1748 26.8571 16.7423 27.4687L17.5277 29.3081C19.2507 28.5724 20.6186 27.5175 21.5759 26.1222L19.9268 24.9907ZM16.7449 27.4677C15.3305 28.067 13.5781 28.3856 11.4578 28.3856V30.3856C13.7694 30.3856 15.8018 30.0394 17.5251 29.3092L16.7449 27.4677ZM11.4578 28.3856C9.35953 28.3856 7.58003 28.0638 6.09596 27.4509L5.33244 29.2994C7.1102 30.0337 9.15979 30.3856 11.4578 30.3856V28.3856ZM6.09774 27.4516C4.63577 26.8444 3.52782 25.9629 2.73429 24.815L1.08912 25.9523C2.1215 27.4457 3.54855 28.5585 5.33066 29.2986L6.09774 27.4516ZM2.73863 24.8213C1.96461 23.6831 1.52975 22.2369 1.48884 20.4284L-0.510653 20.4736C-0.462933 22.5829 0.0506148 24.4251 1.08478 25.9459L2.73863 24.8213ZM0.489091 21.451H6.05989V19.451H0.489091V21.451ZM5.06219 20.5188C5.13479 21.5871 5.44693 22.5452 6.04571 23.3397L7.64293 22.136C7.31989 21.7073 7.10908 21.1409 7.05758 20.3832L5.06219 20.5188ZM6.05559 23.3526C6.64521 24.1091 7.42096 24.6672 8.34941 25.0365L9.08855 23.1781C8.457 22.9269 7.98297 22.5721 7.63305 22.1231L6.05559 23.3526ZM8.36211 25.0414C9.28301 25.3932 10.2977 25.5593 11.3914 25.5593V23.5593C10.4996 23.5593 9.73267 23.424 9.07584 23.1731L8.36211 25.0414ZM11.3914 25.5593C12.4604 25.5593 13.437 25.4042 14.2982 25.0639L13.5634 23.2038C12.9887 23.4308 12.2723 23.5593 11.3914 23.5593V25.5593ZM14.2943 25.0654C15.1517 24.7308 15.8739 24.2419 16.4042 23.5702L14.8344 22.3309C14.567 22.6697 14.1635 22.9696 13.5673 23.2023L14.2943 25.0654ZM16.4042 23.5702C16.9452 22.8849 17.2176 22.085 17.2176 21.2089H15.2176C15.2176 21.6445 15.0911 22.0058 14.8344 22.3309L16.4042 23.5702ZM17.2176 21.2089C17.2176 20.3832 16.9656 19.6277 16.4261 19.0092L14.9189 20.324C15.1062 20.5386 15.2176 20.8114 15.2176 21.2089H17.2176ZM16.434 19.0185C15.9481 18.4474 15.2776 18.0138 14.4933 17.682L13.714 19.5239C14.3124 19.7771 14.6878 20.0526 14.911 20.3147L16.434 19.0185ZM14.4976 17.6838C13.7484 17.3627 12.8538 17.081 11.8252 16.8331L11.3564 18.7774C12.3133 19.008 13.0939 19.2582 13.7097 19.5221L14.4976 17.6838ZM11.8344 16.8353L8.86947 16.0908L8.38235 18.0306L11.3472 18.7751L11.8344 16.8353ZM8.86226 16.089C6.67626 15.5573 5.02792 14.7442 3.85428 13.6957L2.52185 15.1872C4.0073 16.5142 5.9842 17.4473 8.38956 18.0323L8.86226 16.089ZM3.85428 13.6957C2.76701 12.7244 2.19925 11.4129 2.20704 9.64622L0.207055 9.63741C0.197111 11.8948 0.950036 13.7831 2.52185 15.1872L3.85428 13.6957ZM2.20703 9.63644C2.1992 8.17998 2.58294 6.95023 3.33505 5.90479L1.71154 4.7368C0.690924 6.15545 0.197163 7.80639 0.20706 9.64719L2.20703 9.63644ZM3.33228 5.90862C4.11196 4.83561 5.19249 3.97872 6.61131 3.34992L5.80096 1.52144C4.09978 2.27538 2.72509 3.3419 1.71431 4.73297L3.33228 5.90862ZM6.61131 3.34992C8.02453 2.72361 9.6558 2.39864 11.5243 2.39864V0.398637C9.42193 0.398637 7.50774 0.76503 5.80096 1.52144L6.61131 3.34992ZM11.5243 2.39864C13.4322 2.39864 15.0483 2.72491 16.3989 3.34458L17.2329 1.52679C15.5699 0.763732 13.6583 0.398637 11.5243 0.398637V2.39864ZM16.4009 3.3455C17.7706 3.97028 18.7993 4.82047 19.5269 5.88505L21.1781 4.75654C20.2216 3.35703 18.8926 2.28382 17.2309 1.52586L16.4009 3.3455ZM19.5269 5.88506C20.2489 6.94138 20.6319 8.17423 20.6556 9.61832L22.6553 9.58554C22.6258 7.78555 22.1402 6.1643 21.1781 4.75654L19.5269 5.88506ZM21.6555 8.60193H16.1378V10.6019H21.6555V8.60193ZM39.2768 8.57818H40.2768V7.57818H39.2768V8.57818ZM39.2768 12.8327V13.8327H40.2768V12.8327H39.2768ZM26.9786 12.8327H25.9786V13.8327H26.9786V12.8327ZM26.9786 8.57818V7.57818H25.9786V8.57818H26.9786ZM29.7706 3.68546V2.68546H28.7706V3.68546H29.7706ZM35.4345 3.68546H36.4345V2.68546H35.4345V3.68546ZM35.6738 23.9477L34.7958 24.4266L34.8022 24.438L35.6738 23.9477ZM36.3386 24.546L35.9622 25.4725L35.972 25.4764L36.3386 24.546ZM38.1467 24.6524L38.3111 25.6388L38.327 25.6361L38.3428 25.633L38.1467 24.6524ZM38.7583 24.5327L39.7367 24.3259L39.5346 23.3697L38.574 23.5499L38.7583 24.5327ZM39.6491 28.7474L39.9474 29.7019L40.8156 29.4305L40.6275 28.5406L39.6491 28.7474ZM38.4525 29.0532L38.2338 28.0774L38.2258 28.0792L38.2179 28.0811L38.4525 29.0532ZM36.5779 29.2792L36.5418 28.2799L36.5389 28.28L36.5779 29.2792ZM32.9881 28.7341L32.6098 29.6598L32.6126 29.6609L32.9881 28.7341ZM30.6082 26.793L31.448 26.2501L30.6082 26.793ZM29.7706 23.4691L30.7706 23.4757V23.4691H29.7706ZM38.2768 8.57818V12.8327H40.2768V8.57818H38.2768ZM39.2768 11.8327H26.9786V13.8327H39.2768V11.8327ZM27.9786 12.8327V8.57818H25.9786V12.8327H27.9786ZM26.9786 9.57818H39.2768V7.57818H26.9786V9.57818ZM29.7706 4.68546H35.4345V2.68546H29.7706V4.68546ZM34.4345 3.68546V22.7245H36.4345V3.68546H34.4345ZM34.4345 22.7245C34.4345 23.3286 34.5232 23.9266 34.7959 24.4266L36.5517 23.4689C36.5053 23.3839 36.4345 23.1664 36.4345 22.7245H34.4345ZM34.8022 24.438C35.0652 24.9055 35.4551 25.2665 35.9622 25.4725L36.7149 23.6196C36.6547 23.5951 36.6015 23.5572 36.5454 23.4575L34.8022 24.438ZM35.972 25.4764C36.4032 25.6463 36.8683 25.7189 37.349 25.7189V23.7189C37.0674 23.7189 36.8589 23.6762 36.7051 23.6156L35.972 25.4764ZM37.349 25.7189C37.6708 25.7189 37.9916 25.692 38.3111 25.6388L37.9823 23.666C37.77 23.7014 37.5591 23.7189 37.349 23.7189V25.7189ZM38.3428 25.633C38.6076 25.58 38.8068 25.5411 38.9426 25.5156L38.574 23.5499C38.4262 23.5776 38.2177 23.6184 37.9506 23.6718L38.3428 25.633ZM37.7799 24.7395L38.6707 28.9542L40.6275 28.5406L39.7367 24.3259L37.7799 24.7395ZM39.3508 27.7929C39.106 27.8694 38.7382 27.9644 38.2338 28.0774L38.6712 30.029C39.1951 29.9116 39.625 29.8026 39.9474 29.7019L39.3508 27.7929ZM38.2179 28.0811C37.7886 28.1847 37.2344 28.2548 36.5418 28.2799L36.614 30.2786C37.3927 30.2504 38.0883 30.1698 38.6872 30.0253L38.2179 28.0811ZM36.5389 28.28C35.2837 28.3289 34.2336 28.1598 33.3636 27.8073L32.6126 29.6609C33.7989 30.1416 35.1421 30.3359 36.6168 30.2784L36.5389 28.28ZM33.3664 27.8084C32.5257 27.4648 31.8981 26.9462 31.448 26.2501L29.7684 27.3359C30.4529 28.3947 31.4119 29.1702 32.6098 29.6598L33.3664 27.8084ZM31.448 26.2501C31.0126 25.5765 30.7626 24.6736 30.7706 23.4757L28.7706 23.4625C28.7608 24.9414 29.0693 26.2544 29.7684 27.3359L31.448 26.2501ZM30.7706 23.4691V3.68546H28.7706V23.4691H30.7706ZM47.9271 28.7075L47.5151 29.6187L47.5217 29.6216L47.9271 28.7075ZM45.5074 26.6733L44.6677 27.2166L44.674 27.2261L45.5074 26.6733ZM45.2548 20.4377L44.3749 19.9624L45.2548 20.4377ZM46.9566 18.5764L46.409 17.7396L46.9566 18.5764ZM49.4029 17.5127L49.1516 16.5448L49.1494 16.5454L49.4029 17.5127ZM52.3013 17.0075L52.3974 18.0029L52.4053 18.0021L52.3013 17.0075ZM55.1732 16.6618L55.318 17.6514L55.3297 17.6495L55.1732 16.6618ZM56.7553 16.1566L56.1955 15.328L56.1955 15.328L56.7553 16.1566ZM56.4495 13.1385L55.7883 13.8888L55.7946 13.8942L56.4495 13.1385ZM51.7828 13.1252L52.3752 13.9309L52.3828 13.9252L51.7828 13.1252ZM50.5862 14.8005L50.5053 15.7972L51.3196 15.8633L51.5468 15.0785L50.5862 14.8005ZM45.3478 14.375L44.37 14.1655L44.1313 15.2795L45.2669 15.3717L45.3478 14.375ZM46.9167 11.1575L47.6739 11.8107L47.677 11.8071L46.9167 11.1575ZM49.9348 9.05682L50.3027 9.98668L50.3061 9.98529L49.9348 9.05682ZM57.4999 8.71114L57.2515 9.6798L57.2535 9.6803L57.4999 8.71114ZM60.2786 9.94761L59.7094 10.7698L59.7136 10.7727L60.2786 9.94761ZM62.2065 12.1015L61.3248 12.5735L61.3269 12.5772L62.2065 12.1015ZM62.9111 29V30H63.9111V29H62.9111ZM57.5398 29H56.5398V30H57.5398V29ZM57.5398 26.1681H58.5398V25.1681H57.5398V26.1681ZM57.3802 26.1681V25.1681H56.7698L56.4908 25.711L57.3802 26.1681ZM56.064 27.8566L56.7208 28.6107L56.7276 28.6047L56.064 27.8566ZM54.0829 28.9867L54.4089 29.9321L54.4186 29.9287L54.0829 28.9867ZM55.2396 24.9848L55.6967 25.8743L55.7064 25.8692L55.2396 24.9848ZM56.742 23.6286L55.9 23.0892L56.742 23.6286ZM57.2871 19.5336H58.2871V17.691L56.7422 18.6952L57.2871 19.5336ZM56.5559 19.8527L56.8381 20.8121L56.8469 20.8095L56.8557 20.8067L56.5559 19.8527ZM55.5321 20.1053L55.715 21.0885L55.726 21.0864L55.737 21.0841L55.5321 20.1053ZM54.3887 20.3048L54.5269 21.2952L54.5382 21.2936L54.5494 21.2918L54.3887 20.3048ZM53.3517 20.451L53.2103 19.4611L53.2066 19.4616L53.3517 20.451ZM51.61 20.9164L52.0039 21.8355L51.61 20.9164ZM50.4533 21.7806L51.2437 22.3932L51.2509 22.3837L50.4533 21.7806ZM50.8787 24.8784L50.289 25.686L50.2962 25.6913L50.3036 25.6964L50.8787 24.8784ZM51.4105 28.3856C50.2239 28.3856 49.2045 28.1801 48.3325 27.7934L47.5217 29.6216C48.6884 30.139 49.9912 30.3856 51.4105 30.3856V28.3856ZM48.3391 27.7963C47.4837 27.4095 46.8262 26.8524 46.3407 26.1205L44.674 27.2261C45.3763 28.2847 46.3319 29.0837 47.5151 29.6187L48.3391 27.7963ZM46.3469 26.13C45.8901 25.4241 45.6299 24.4991 45.6299 23.2962H43.6299C43.6299 24.788 43.9546 26.1143 44.6678 27.2165L46.3469 26.13ZM45.6299 23.2962C45.6299 22.2802 45.8167 21.5014 46.1346 20.913L44.3749 19.9624C43.8596 20.9163 43.6299 22.0432 43.6299 23.2962H45.6299ZM46.1346 20.913C46.4739 20.2849 46.9283 19.7899 47.5041 19.4132L46.409 17.7396C45.5489 18.3024 44.8688 19.0483 44.3749 19.9624L46.1346 20.913ZM47.5041 19.4132C48.1232 19.0081 48.8376 18.6947 49.6565 18.48L49.1494 16.5454C48.1424 16.8094 47.2259 17.2051 46.409 17.7396L47.5041 19.4132ZM49.6542 18.4806C50.5219 18.2554 51.4359 18.0957 52.3974 18.0029L52.2053 16.0121C51.1459 16.1143 50.1276 16.2914 49.1516 16.5448L49.6542 18.4806ZM52.4053 18.0021C53.5994 17.8773 54.5718 17.7605 55.318 17.6513L55.0284 15.6724C54.3208 15.7759 53.3788 15.8895 52.1974 16.0129L52.4053 18.0021ZM55.3297 17.6495C56.0977 17.5277 56.802 17.3319 57.3152 16.9852L56.1955 15.328C56.0527 15.4244 55.7023 15.5654 55.0166 15.6742L55.3297 17.6495ZM57.3152 16.9852C57.9485 16.5573 58.2473 15.9011 58.2473 15.1727H56.2473C56.2473 15.2631 56.2307 15.2955 56.2298 15.2972C56.2289 15.2992 56.228 15.3007 56.2255 15.3035C56.2227 15.3066 56.2143 15.3153 56.1955 15.328L57.3152 16.9852ZM58.2473 15.1727V15.093H56.2473V15.1727H58.2473ZM58.2473 15.093C58.2473 14.0234 57.8986 13.0711 57.1045 12.3828L55.7946 13.8942C56.0641 14.1277 56.2473 14.4784 56.2473 15.093H58.2473ZM57.1107 12.3883C56.3452 11.7136 55.3315 11.4472 54.2159 11.4472V13.4472C55.0325 13.4472 55.508 13.6416 55.7883 13.8887L57.1107 12.3883ZM54.2159 11.4472C53.0556 11.4472 52.0106 11.7044 51.1828 12.3252L52.3828 13.9252C52.7605 13.642 53.3375 13.4472 54.2159 13.4472V11.4472ZM51.1904 12.3196C50.4229 12.884 49.8862 13.6225 49.6257 14.5224L51.5468 15.0785C51.6763 14.6311 51.9373 14.2529 52.3752 13.9309L51.1904 12.3196ZM50.6672 13.8037L45.4288 13.3783L45.2669 15.3717L50.5053 15.7972L50.6672 13.8037ZM46.3256 14.5845C46.5587 13.497 47.0103 12.5798 47.6738 11.8107L46.1595 10.5043C45.263 11.5434 44.6688 12.7711 44.37 14.1655L46.3256 14.5845ZM47.677 11.8071C48.3404 11.0306 49.2063 10.4205 50.3027 9.98667L49.5668 8.12696C48.1991 8.66816 47.053 9.45849 46.1564 10.5079L47.677 11.8071ZM50.3061 9.98529C51.406 9.54534 52.7116 9.31227 54.2425 9.31227V7.31227C52.5116 7.31227 50.9453 7.57557 49.5634 8.12834L50.3061 9.98529ZM54.2425 9.31227C55.2982 9.31227 56.3003 9.4359 57.2515 9.6798L57.7482 7.74247C56.6254 7.45455 55.4558 7.31227 54.2425 7.31227V9.31227ZM57.2535 9.6803C58.1954 9.91978 59.0101 10.2857 59.7094 10.7698L60.8478 9.12542C59.9339 8.49271 58.8961 8.03431 57.7463 7.74197L57.2535 9.6803ZM59.7136 10.7727C60.3958 11.2398 60.9302 11.8363 61.3248 12.5735L63.0881 11.6295C62.5432 10.6117 61.7924 9.77222 60.8436 9.12253L59.7136 10.7727ZM61.3269 12.5772C61.7014 13.2698 61.9111 14.14 61.9111 15.2259H63.9111C63.9111 13.8832 63.651 12.6704 63.0861 11.6258L61.3269 12.5772ZM61.9111 15.2259V29H63.9111V15.2259H61.9111ZM62.9111 28H57.5398V30H62.9111V28ZM58.5398 29V26.1681H56.5398V29H58.5398ZM57.5398 25.1681H57.3802V27.1681H57.5398V25.1681ZM56.4908 25.711C56.2208 26.2364 55.8595 26.7012 55.4003 27.1085L56.7276 28.6047C57.3675 28.037 57.8837 27.3761 58.2696 26.6251L56.4908 25.711ZM55.4072 27.1025C54.9629 27.4895 54.415 27.8068 53.7473 28.0447L54.4186 29.9287C55.2931 29.6171 56.0659 29.181 56.7207 28.6107L55.4072 27.1025ZM53.7569 28.0413C53.1123 28.2636 52.3355 28.3856 51.4105 28.3856V30.3856C52.5065 30.3856 53.5113 30.2416 54.4089 29.9321L53.7569 28.0413ZM53.0326 26.4767C53.9991 26.4767 54.8959 26.2857 55.6967 25.8742L54.7826 24.0953C54.307 24.3397 53.7325 24.4767 53.0326 24.4767V26.4767ZM55.7064 25.8692C56.4861 25.4576 57.1208 24.8911 57.5841 24.1681L55.9 23.0892C55.6364 23.5007 55.2695 23.8383 54.7729 24.1004L55.7064 25.8692ZM57.5841 24.1681C58.0575 23.4291 58.2871 22.5968 58.2871 21.7008H56.2871C56.2871 22.2407 56.1534 22.6937 55.9 23.0892L57.5841 24.1681ZM58.2871 21.7008V19.5336H56.2871V21.7008H58.2871ZM56.7422 18.6952C56.6702 18.742 56.5209 18.8155 56.2561 18.8987L56.8557 20.8067C57.2114 20.6949 57.5495 20.5558 57.8321 20.3721L56.7422 18.6952ZM56.2737 18.8934C56.003 18.973 55.6883 19.051 55.3273 19.1266L55.737 21.0841C56.1383 21.0001 56.506 20.9097 56.8381 20.8121L56.2737 18.8934ZM55.3492 19.1222C54.9755 19.1917 54.6017 19.2569 54.2281 19.3178L54.5494 21.2918C54.938 21.2285 55.3265 21.1608 55.715 21.0885L55.3492 19.1222ZM54.2505 19.3144C53.8686 19.3677 53.5218 19.4166 53.2103 19.4611L53.4931 21.441C53.802 21.3968 54.1466 21.3482 54.5269 21.2952L54.2505 19.3144ZM53.2066 19.4616C52.4761 19.5687 51.8085 19.7433 51.2161 19.9972L52.0039 21.8355C52.4041 21.664 52.8978 21.5283 53.4968 21.4404L53.2066 19.4616ZM51.2161 19.9972C50.5897 20.2657 50.0531 20.6517 49.6556 21.1775L51.2509 22.3837C51.403 22.1826 51.6376 21.9925 52.0039 21.8355L51.2161 19.9972ZM49.6629 21.168C49.2282 21.7288 49.0411 22.3992 49.0411 23.1101H51.0411C51.0411 22.7574 51.1288 22.5414 51.2437 22.3931L49.6629 21.168ZM49.0411 23.1101C49.0411 24.158 49.4403 25.0663 50.289 25.686L51.4684 24.0708C51.2004 23.8751 51.0411 23.6045 51.0411 23.1101H49.0411ZM50.3036 25.6964C51.0775 26.2406 52.0104 26.4767 53.0326 26.4767V24.4767C52.3175 24.4767 51.8145 24.3139 51.4539 24.0604L50.3036 25.6964ZM69.9261 29H68.9261V30H69.9261V29ZM69.9261 8.57818V7.57818H68.9261V8.57818H69.9261ZM75.4171 8.57818H76.4171V7.57818H75.4171V8.57818ZM75.4171 12.1414H74.4171V13.1414H75.4171V12.1414ZM75.6298 12.1414V13.1414H76.3783L76.5893 12.4232L75.6298 12.1414ZM77.5045 9.26955L78.098 10.0744L78.1032 10.0705L77.5045 9.26955ZM81.4532 8.33886L81.5607 7.34466H81.5607L81.4532 8.33886ZM82.3174 8.48511H83.3174V7.70433L82.56 7.51497L82.3174 8.48511ZM82.3174 13.5108L82.0301 14.4686L83.3174 14.8548V13.5108H82.3174ZM77.6906 13.7501L78.1711 14.6271L78.1752 14.6248L77.6906 13.7501ZM76.1483 15.2392L75.2897 14.7264L75.2846 14.7353L76.1483 15.2392ZM75.5899 29V30H76.5899V29H75.5899ZM70.9261 29V8.57818H68.9261V29H70.9261ZM69.9261 9.57818H75.4171V7.57818H69.9261V9.57818ZM74.4171 8.57818V12.1414H76.4171V8.57818H74.4171ZM75.4171 13.1414H75.6298V11.1414H75.4171V13.1414ZM76.5893 12.4232C76.9134 11.3197 77.4311 10.5661 78.0979 10.0744L76.911 8.46469C75.8229 9.26703 75.0908 10.428 74.6703 11.8596L76.5893 12.4232ZM78.1032 10.0705C78.7999 9.54973 79.5982 9.28568 80.5358 9.28568V7.28568C79.1867 7.28568 77.964 7.67754 76.9058 8.46858L78.1032 10.0705ZM80.5358 9.28568C80.7783 9.28568 81.0479 9.30087 81.3457 9.33307L81.5607 7.34466C81.2026 7.30595 80.8606 7.28568 80.5358 7.28568V9.28568ZM81.3457 9.33307C81.6405 9.36493 81.8817 9.40695 82.0749 9.45526L82.56 7.51497C82.2568 7.43918 81.9219 7.38371 81.5607 7.34466L81.3457 9.33307ZM81.3174 8.48511V13.5108H83.3174V8.48511H81.3174ZM82.6048 12.553C82.2644 12.4508 81.8362 12.3716 81.3448 12.3067L81.083 14.2895C81.5312 14.3487 81.8387 14.4112 82.0301 14.4686L82.6048 12.553ZM81.3448 12.3067C80.8405 12.2401 80.3661 12.205 79.9242 12.205V14.205C80.2623 14.205 80.6477 14.232 81.083 14.2895L81.3448 12.3067ZM79.9242 12.205C78.9407 12.205 78.0261 12.421 77.206 12.8754L78.1752 14.6248C78.6669 14.3524 79.2414 14.205 79.9242 14.205V12.205ZM77.2101 12.8731C76.4056 13.3139 75.7615 13.9366 75.2898 14.7265L77.0069 15.7519C77.2974 15.2655 77.6815 14.8954 78.1711 14.6271L77.2101 12.8731ZM75.2846 14.7353C74.8121 15.5452 74.5899 16.4591 74.5899 17.4463H76.5899C76.5899 16.767 76.74 16.2095 77.0121 15.7431L75.2846 14.7353ZM74.5899 17.4463V29H76.5899V17.4463H74.5899ZM75.5899 28H69.9261V30H75.5899V28ZM99.7527 8.57818H100.753V7.57818H99.7527V8.57818ZM99.7527 12.8327V13.8327H100.753V12.8327H99.7527ZM87.4544 12.8327H86.4544V13.8327H87.4544V12.8327ZM87.4544 8.57818V7.57818H86.4544V8.57818H87.4544ZM90.2464 3.68546V2.68546H89.2464V3.68546H90.2464ZM95.9103 3.68546H96.9103V2.68546H95.9103V3.68546ZM96.1496 23.9477L95.2717 24.4266L95.278 24.438L96.1496 23.9477ZM96.8144 24.546L96.438 25.4725L96.4479 25.4764L96.8144 24.546ZM98.6226 24.6524L98.787 25.6388L98.8029 25.6361L98.8187 25.633L98.6226 24.6524ZM99.2342 24.5327L100.213 24.3259L100.01 23.3697L99.0499 23.5499L99.2342 24.5327ZM100.125 28.7474L100.423 29.7019L101.291 29.4305L101.103 28.5406L100.125 28.7474ZM98.9284 29.0532L98.7097 28.0774L98.7017 28.0792L98.6937 28.0811L98.9284 29.0532ZM97.0537 29.2792L97.0176 28.2799L97.0148 28.28L97.0537 29.2792ZM93.4639 28.7341L93.0856 29.6598L93.0884 29.6609L93.4639 28.7341ZM91.0841 26.793L91.9239 26.2501L91.0841 26.793ZM90.2464 23.4691L91.2464 23.4757V23.4691H90.2464ZM98.7527 8.57818V12.8327H100.753V8.57818H98.7527ZM99.7527 11.8327H87.4544V13.8327H99.7527V11.8327ZM88.4544 12.8327V8.57818H86.4544V12.8327H88.4544ZM87.4544 9.57818H99.7527V7.57818H87.4544V9.57818ZM90.2464 4.68546H95.9103V2.68546H90.2464V4.68546ZM94.9103 3.68546V22.7245H96.9103V3.68546H94.9103ZM94.9103 22.7245C94.9103 23.3286 94.999 23.9266 95.2717 24.4266L97.0275 23.4689C96.9812 23.3839 96.9103 23.1664 96.9103 22.7245H94.9103ZM95.278 24.438C95.541 24.9055 95.931 25.2665 96.438 25.4725L97.1908 23.6196C97.1306 23.5951 97.0773 23.5572 97.0212 23.4575L95.278 24.438ZM96.4479 25.4764C96.879 25.6463 97.3442 25.7189 97.8248 25.7189V23.7189C97.5433 23.7189 97.3348 23.6762 97.1809 23.6156L96.4479 25.4764ZM97.8248 25.7189C98.1466 25.7189 98.4675 25.692 98.787 25.6388L98.4582 23.666C98.2458 23.7014 98.0349 23.7189 97.8248 23.7189V25.7189ZM98.8187 25.633C99.0834 25.58 99.2826 25.5411 99.4184 25.5156L99.0499 23.5499C98.9021 23.5776 98.6935 23.6184 98.4265 23.6718L98.8187 25.633ZM98.2558 24.7395L99.1466 28.9542L101.103 28.5406L100.213 24.3259L98.2558 24.7395ZM99.8267 27.7929C99.5819 27.8694 99.214 27.9644 98.7097 28.0774L99.1471 30.029C99.6709 29.9116 100.101 29.8026 100.423 29.7019L99.8267 27.7929ZM98.6937 28.0811C98.2645 28.1847 97.7103 28.2548 97.0176 28.2799L97.0898 30.2786C97.8685 30.2504 98.5641 30.1698 99.163 30.0253L98.6937 28.0811ZM97.0148 28.28C95.7595 28.3289 94.7095 28.1598 93.8395 27.8073L93.0884 29.6609C94.2748 30.1416 95.6179 30.3359 97.0926 30.2784L97.0148 28.28ZM93.8423 27.8084C93.0015 27.4648 92.3739 26.9462 91.9239 26.2501L90.2443 27.3359C90.9287 28.3947 91.8877 29.1702 93.0856 29.6598L93.8423 27.8084ZM91.9239 26.2501C91.4884 25.5765 91.2385 24.6736 91.2464 23.4757L89.2465 23.4625C89.2367 24.9414 89.5451 26.2544 90.2443 27.3359L91.9239 26.2501ZM91.2464 23.4691V3.68546H89.2464V23.4691H91.2464ZM119.159 20.3048H118.159L118.159 20.3145L119.159 20.3048ZM119.159 8.57818V7.57818H118.159V8.57818H119.159ZM124.823 8.57818H125.823V7.57818H124.823V8.57818ZM124.823 29V30H125.823V29H124.823ZM119.385 29H118.385V30H119.385V29ZM119.385 25.2906H120.385V24.2906H119.385V25.2906ZM119.172 25.2906V24.2906H118.486L118.239 24.9311L119.172 25.2906ZM116.872 28.1757L116.311 27.3479L116.308 27.35L116.872 28.1757ZM109.374 28.3352L109.887 27.4771L109.374 28.3352ZM106.94 25.6894L106.047 26.1394L106.05 26.1449L106.94 25.6894ZM106.063 21.5811H105.063L105.063 21.5867L106.063 21.5811ZM106.063 8.57818V7.57818H105.063V8.57818H106.063ZM111.727 8.57818H112.727V7.57818H111.727V8.57818ZM111.727 20.5707H110.727L110.727 20.578L111.727 20.5707ZM112.697 23.4292L113.437 22.7556L112.697 23.4292ZM117.178 24.0142L117.641 24.9006L117.651 24.8951L117.178 24.0142ZM118.614 22.6049L117.756 22.0904L117.751 22.0995L118.614 22.6049ZM120.159 20.3048V8.57818H118.159V20.3048H120.159ZM119.159 9.57818H124.823V7.57818H119.159V9.57818ZM123.823 8.57818V29H125.823V8.57818H123.823ZM124.823 28H119.385V30H124.823V28ZM120.385 29V25.2906H118.385V29H120.385ZM119.385 24.2906H119.172V26.2906H119.385V24.2906ZM118.239 24.9311C117.852 25.9352 117.217 26.7343 116.311 27.3479L117.433 29.0035C118.673 28.1635 119.57 27.0391 120.105 25.65L118.239 24.9311ZM116.308 27.35C115.44 27.9431 114.348 28.2659 112.977 28.2659V30.2659C114.672 30.2659 116.177 29.8619 117.436 29.0013L116.308 27.35ZM112.977 28.2659C111.768 28.2659 110.75 27.9931 109.887 27.4771L108.86 29.1934C110.072 29.9182 111.455 30.2659 112.977 30.2659V28.2659ZM109.887 27.4771C109.021 26.959 108.336 26.2214 107.831 25.234L106.05 26.1449C106.715 27.4443 107.652 28.4705 108.86 29.1934L109.887 27.4771ZM107.834 25.2395C107.342 24.2637 107.071 23.0538 107.063 21.5756L105.063 21.5867C105.073 23.2994 105.387 24.8284 106.047 26.1394L107.834 25.2395ZM107.063 21.5811V8.57818H105.063V21.5811H107.063ZM106.063 9.57818H111.727V7.57818H106.063V9.57818ZM110.727 8.57818V20.5707H112.727V8.57818H110.727ZM110.727 20.578C110.737 21.9607 111.113 23.1748 111.958 24.1028L113.437 22.7556C113.006 22.2832 112.734 21.5915 112.727 20.5633L110.727 20.578ZM111.958 24.1028C112.812 25.0395 113.951 25.4795 115.263 25.4795V23.4795C114.431 23.4795 113.859 23.2194 113.437 22.7556L111.958 24.1028ZM115.263 25.4795C116.104 25.4795 116.901 25.2869 117.641 24.9006L116.715 23.1279C116.267 23.362 115.788 23.4795 115.263 23.4795V25.4795ZM117.651 24.8951C118.418 24.4832 119.027 23.8783 119.477 23.1103L117.751 22.0995C117.474 22.5723 117.126 22.907 116.705 23.1333L117.651 24.8951ZM119.471 23.1194C119.961 22.3041 120.169 21.3447 120.159 20.2951L118.159 20.3145C118.167 21.0908 118.012 21.6647 117.756 22.0904L119.471 23.1194ZM131.974 36.6582H130.974V37.6582H131.974V36.6582ZM131.974 8.57818V7.57818H130.974V8.57818H131.974ZM137.558 8.57818H138.558V7.57818H137.558V8.57818ZM137.558 12.0084H136.558V13.0084H137.558V12.0084ZM137.811 12.0084V13.0084H138.456L138.722 12.42L137.811 12.0084ZM138.888 10.3332L138.119 9.69416L138.118 9.69537L138.888 10.3332ZM140.749 8.89727L141.196 9.79171L141.2 9.78964L140.749 8.89727ZM147.742 9.48227L147.216 10.3323L147.22 10.335L147.742 9.48227ZM150.761 12.979L149.86 13.4139L149.861 13.4159L150.761 12.979ZM150.787 24.5859L149.882 24.1613L149.881 24.1636L150.787 24.5859ZM147.809 28.1358L148.347 28.9787L148.349 28.9777L147.809 28.1358ZM140.802 28.7873L140.372 29.6899L140.376 29.6919L140.802 28.7873ZM138.928 27.4178L138.174 28.0755L138.18 28.0815L138.928 27.4178ZM137.811 25.7293L138.722 25.3166L138.456 24.7293H137.811V25.7293ZM137.638 25.7293V24.7293H136.638V25.7293H137.638ZM137.638 36.6582V37.6582H138.638V36.6582H137.638ZM139.486 24.0807L138.865 24.8648L138.872 24.87L139.486 24.0807ZM144.153 24.0674L144.773 24.8515L144.78 24.8461L144.153 24.0674ZM145.602 21.9401L144.664 21.594L144.662 21.5991L145.602 21.9401ZM145.615 15.678L146.554 15.334L145.615 15.678ZM144.166 13.5773L144.787 12.7932L144.166 13.5773ZM139.473 13.5507L138.866 12.756L138.86 12.7601L139.473 13.5507ZM138.024 15.6248L137.088 15.2726L138.024 15.6248ZM132.974 36.6582V8.57818H130.974V36.6582H132.974ZM131.974 9.57818H137.558V7.57818H131.974V9.57818ZM136.558 8.57818V12.0084H138.558V8.57818H136.558ZM137.558 13.0084H137.811V11.0084H137.558V13.0084ZM138.722 12.42C138.927 11.9674 139.233 11.4841 139.658 10.971L138.118 9.69537C137.603 10.3168 137.191 10.9503 136.899 11.5968L138.722 12.42ZM139.657 10.9722C140.036 10.5163 140.541 10.1194 141.196 9.7917L140.302 8.00285C139.433 8.4374 138.697 8.99779 138.119 9.69416L139.657 10.9722ZM141.2 9.78964C141.794 9.48949 142.586 9.31227 143.621 9.31227V7.31227C142.369 7.31227 141.247 7.52506 140.298 8.00491L141.2 9.78964ZM143.621 9.31227C144.925 9.31227 146.116 9.65091 147.216 10.3323L148.269 8.63226C146.851 7.75363 145.295 7.31227 143.621 7.31227V9.31227ZM147.22 10.335C148.289 10.9896 149.175 11.996 149.86 13.4139L151.661 12.5441C150.839 10.842 149.714 9.51722 148.265 8.62959L147.22 10.335ZM149.861 13.4159C150.529 14.7913 150.891 16.5758 150.891 18.8157H152.891C152.891 16.3756 152.499 14.269 151.66 12.5421L149.861 13.4159ZM150.891 18.8157C150.891 20.9911 150.539 22.7602 149.882 24.1613L151.693 25.0105C152.507 23.2738 152.891 21.1962 152.891 18.8157H150.891ZM149.881 24.1636C149.222 25.5783 148.345 26.6043 147.269 27.2938L148.349 28.9777C149.79 28.0541 150.899 26.7135 151.694 25.0082L149.881 24.1636ZM147.271 27.2929C146.189 27.9832 144.977 28.3324 143.608 28.3324V30.3324C145.34 30.3324 146.929 29.8839 148.347 28.9787L147.271 27.2929ZM143.608 28.3324C142.615 28.3324 141.834 28.1678 141.229 27.8827L140.376 29.6919C141.313 30.1335 142.402 30.3324 143.608 30.3324V28.3324ZM141.233 27.8846C140.573 27.5703 140.062 27.1898 139.676 26.7542L138.18 28.0815C138.768 28.745 139.507 29.2775 140.372 29.6899L141.233 27.8846ZM139.681 26.7602C139.246 26.2618 138.932 25.78 138.722 25.3166L136.9 26.142C137.204 26.8132 137.634 27.4571 138.174 28.0755L139.681 26.7602ZM137.811 24.7293H137.638V26.7293H137.811V24.7293ZM136.638 25.7293V36.6582H138.638V25.7293H136.638ZM137.638 35.6582H131.974V37.6582H137.638V35.6582ZM136.518 18.7891C136.518 20.093 136.699 21.2753 137.086 22.3158L138.961 21.6176C138.675 20.8499 138.518 19.9138 138.518 18.7891H136.518ZM137.086 22.3158C137.475 23.3591 138.059 24.2267 138.865 24.8647L140.107 23.2966C139.636 22.9243 139.246 22.3825 138.961 21.6176L137.086 22.3158ZM138.872 24.87C139.708 25.5204 140.708 25.8252 141.813 25.8252V23.8252C141.092 23.8252 140.54 23.6337 140.1 23.2913L138.872 24.87ZM141.813 25.8252C142.928 25.8252 143.935 25.5149 144.773 24.8514L143.532 23.2833C143.094 23.6304 142.541 23.8252 141.813 23.8252V25.8252ZM144.78 24.8461C145.584 24.1988 146.163 23.3268 146.542 22.2811L144.662 21.5991C144.385 22.3616 143.998 22.9077 143.525 23.2886L144.78 24.8461ZM146.54 22.2862C146.926 21.2411 147.107 20.0697 147.107 18.7891H145.107C145.107 19.8839 144.952 20.8133 144.664 21.594L146.54 22.2862ZM147.107 18.7891C147.107 17.5196 146.931 16.362 146.554 15.334L144.676 16.0219C144.956 16.7844 145.107 17.7008 145.107 18.7891H147.107ZM146.554 15.334C146.174 14.2956 145.593 13.4314 144.787 12.7932L143.545 14.3613C144.016 14.7336 144.401 15.2699 144.676 16.0219L146.554 15.334ZM144.787 12.7932C143.947 12.1284 142.935 11.8194 141.813 11.8194V13.8194C142.552 13.8194 143.109 14.0157 143.545 14.3613L144.787 12.7932ZM141.813 11.8194C140.705 11.8194 139.703 12.1161 138.866 12.756L140.08 14.3454C140.518 14.0102 141.076 13.8194 141.813 13.8194V11.8194ZM138.86 12.7601C138.058 13.382 137.476 14.2393 137.088 15.2726L138.959 15.9769C139.244 15.2198 139.629 14.6944 140.085 14.3412L138.86 12.7601ZM137.088 15.2726C136.699 16.3062 136.518 17.4855 136.518 18.7891H138.518C138.518 17.664 138.675 16.7338 138.959 15.9769L137.088 15.2726ZM169.68 29H168.68V30H169.68V29ZM169.68 1.77091V0.770909H168.68V1.77091H169.68ZM185.701 2.95421L185.224 3.83313L185.228 3.83537L185.701 2.95421ZM189.025 6.21159L188.148 6.69202L188.151 6.69866L189.025 6.21159ZM185.621 19.0151L185.159 18.1282L185.157 18.1294L185.621 19.0151ZM173.429 20.1718H172.429V21.1718H173.429V20.1718ZM173.429 15.5583V14.5583H172.429V15.5583H173.429ZM182.085 14.9866L182.553 15.8699L182.557 15.8678L182.085 14.9866ZM183.707 13.3778L182.821 12.9126L182.819 12.9169L183.707 13.3778ZM183.707 8.63136L182.819 9.09235L182.823 9.09928L182.826 9.10615L183.707 8.63136ZM182.085 7.04921L181.62 7.93487L181.629 7.93925L182.085 7.04921ZM175.437 6.4775V5.4775H174.437V6.4775H175.437ZM175.437 29V30H176.437V29H175.437ZM170.68 29V1.77091H168.68V29H170.68ZM169.68 2.77091H180.423V0.770909H169.68V2.77091ZM180.423 2.77091C182.362 2.77091 183.949 3.14112 185.224 3.83312L186.178 2.07529C184.546 1.18957 182.614 0.770909 180.423 0.770909V2.77091ZM185.228 3.83537C186.518 4.5276 187.482 5.47732 188.148 6.69201L189.902 5.73117C189.043 4.16269 187.791 2.94081 186.174 2.07304L185.228 3.83537ZM188.151 6.69866C188.828 7.91242 189.181 9.33573 189.181 10.998H191.181C191.181 9.04382 190.763 7.27621 189.898 5.72452L188.151 6.69866ZM189.181 10.998C189.181 12.6583 188.825 14.08 188.14 15.293L189.882 16.2756C190.758 14.7232 191.181 12.954 191.181 10.998H189.181ZM188.14 15.293C187.461 16.4982 186.477 17.4417 185.159 18.1282L186.083 19.902C187.726 19.0462 189.002 17.8359 189.882 16.2756L188.14 15.293ZM185.157 18.1294C183.861 18.8085 182.247 19.1718 180.276 19.1718V21.1718C182.489 21.1718 184.438 20.764 186.085 19.9008L185.157 18.1294ZM180.276 19.1718H173.429V21.1718H180.276V19.1718ZM174.429 20.1718V15.5583H172.429V20.1718H174.429ZM173.429 16.5583H179.346V14.5583H173.429V16.5583ZM179.346 16.5583C180.561 16.5583 181.648 16.3504 182.553 15.8698L181.616 14.1033C181.085 14.3851 180.347 14.5583 179.346 14.5583V16.5583ZM182.557 15.8678C183.448 15.3899 184.14 14.7131 184.594 13.8388L182.819 12.9169C182.564 13.4076 182.175 13.8033 181.612 14.1054L182.557 15.8678ZM184.592 13.8431C185.041 12.9885 185.252 12.0314 185.252 10.998H183.252C183.252 11.7549 183.099 12.3844 182.821 12.9126L184.592 13.8431ZM185.252 10.998C185.252 9.95815 185.042 9.00042 184.587 8.15657L182.826 9.10615C183.098 9.60958 183.252 10.2296 183.252 10.998H185.252ZM184.594 8.17037C184.138 7.29179 183.44 6.61995 182.54 6.15916L181.629 7.93925C182.183 8.223 182.566 8.60594 182.819 9.09235L184.594 8.17037ZM182.549 6.16359C181.637 5.68516 180.542 5.4775 179.319 5.4775V7.4775C180.33 7.4775 181.079 7.65098 181.62 7.93483L182.549 6.16359ZM179.319 5.4775H175.437V7.4775H179.319V5.4775ZM174.437 6.4775V29H176.437V6.4775H174.437ZM175.437 28H169.68V30H175.437V28ZM196.435 29H195.435V30H196.435V29ZM196.435 8.57818V7.57818H195.435V8.57818H196.435ZM201.926 8.57818H202.926V7.57818H201.926V8.57818ZM201.926 12.1414H200.926V13.1414H201.926V12.1414ZM202.139 12.1414V13.1414H202.888L203.098 12.4232L202.139 12.1414ZM204.014 9.26955L204.607 10.0744L204.612 10.0705L204.014 9.26955ZM207.962 8.33886L208.07 7.34466L207.962 8.33886ZM208.827 8.48511H209.827V7.70433L209.069 7.51497L208.827 8.48511ZM208.827 13.5108L208.539 14.4686L209.827 14.8548V13.5108H208.827ZM204.2 13.7501L204.68 14.6271L204.684 14.6248L204.2 13.7501ZM202.658 15.2392L201.799 14.7264L201.794 14.7353L202.658 15.2392ZM202.099 29V30H203.099V29H202.099ZM197.435 29V8.57818H195.435V29H197.435ZM196.435 9.57818H201.926V7.57818H196.435V9.57818ZM200.926 8.57818V12.1414H202.926V8.57818H200.926ZM201.926 13.1414H202.139V11.1414H201.926V13.1414ZM203.098 12.4232C203.423 11.3197 203.94 10.5661 204.607 10.0744L203.42 8.46469C202.332 9.26703 201.6 10.428 201.18 11.8596L203.098 12.4232ZM204.612 10.0705C205.309 9.54973 206.107 9.28568 207.045 9.28568V7.28568C205.696 7.28568 204.473 7.67754 203.415 8.46858L204.612 10.0705ZM207.045 9.28568C207.288 9.28568 207.557 9.30087 207.855 9.33307L208.07 7.34466C207.712 7.30595 207.37 7.28568 207.045 7.28568V9.28568ZM207.855 9.33307C208.15 9.36493 208.391 9.40695 208.584 9.45526L209.069 7.51497C208.766 7.43918 208.431 7.38371 208.07 7.34466L207.855 9.33307ZM207.827 8.48511V13.5108H209.827V8.48511H207.827ZM209.114 12.553C208.774 12.4508 208.345 12.3716 207.854 12.3067L207.592 14.2895C208.04 14.3487 208.348 14.4112 208.539 14.4686L209.114 12.553ZM207.854 12.3067C207.35 12.2401 206.875 12.205 206.433 12.205V14.205C206.772 14.205 207.157 14.232 207.592 14.2895L207.854 12.3067ZM206.433 12.205C205.45 12.205 204.535 12.421 203.715 12.8754L204.684 14.6248C205.176 14.3524 205.751 14.205 206.433 14.205V12.205ZM203.719 12.8731C202.915 13.3139 202.271 13.9366 201.799 14.7265L203.516 15.7519C203.807 15.2655 204.191 14.8954 204.68 14.6271L203.719 12.8731ZM201.794 14.7353C201.321 15.5452 201.099 16.4591 201.099 17.4463H203.099C203.099 16.767 203.249 16.2095 203.521 15.7431L201.794 14.7353ZM201.099 17.4463V29H203.099V17.4463H201.099ZM202.099 28H196.435V30H202.099V28ZM217.294 28.0826L216.785 28.9433L216.791 28.9468L217.294 28.0826ZM213.824 24.3865L212.935 24.8436L212.936 24.8456L213.824 24.3865ZM213.824 13.338L214.712 13.7971L214.713 13.7951L213.824 13.338ZM217.294 9.64182L217.8 10.5047L217.801 10.5038L217.294 9.64182ZM227.997 9.64182L227.488 10.5025L227.494 10.506L227.997 9.64182ZM231.48 13.338L230.591 13.7951L230.592 13.7971L231.48 13.338ZM231.48 24.3865L232.369 24.8456L232.37 24.8436L231.48 24.3865ZM227.997 28.0826L228.502 28.9455L228.504 28.9445L227.997 28.0826ZM225.032 24.2136L225.678 24.9775L225.684 24.9721L225.032 24.2136ZM226.455 22.0066L225.511 21.6742L225.509 21.6823L226.455 22.0066ZM226.455 15.6514L225.509 15.9757L225.511 15.9837L226.455 15.6514ZM220.286 13.4443L219.644 12.6769L219.639 12.6813L220.286 13.4443ZM218.836 15.6514L217.893 15.319L217.89 15.327L218.836 15.6514ZM218.836 22.0066L217.89 22.3309L217.893 22.3389L218.836 22.0066ZM220.286 24.2136L219.639 24.9766L219.645 24.9814L219.651 24.9862L220.286 24.2136ZM222.652 28.3989C220.731 28.3989 219.125 27.9918 217.797 27.2185L216.791 28.9468C218.476 29.9284 220.443 30.3989 222.652 30.3989V28.3989ZM217.803 27.222C216.47 26.4333 215.443 25.3419 214.712 23.9273L212.936 24.8456C213.835 26.5865 215.122 27.9592 216.785 28.9432L217.803 27.222ZM214.713 23.9294C213.982 22.5067 213.601 20.8291 213.601 18.8689H211.601C211.601 21.0923 212.035 23.0931 212.935 24.8436L214.713 23.9294ZM213.601 18.8689C213.601 16.8892 213.983 15.2086 214.712 13.7971L212.936 12.8788C212.034 14.6228 211.601 16.6294 211.601 18.8689H213.601ZM214.713 13.7951C215.445 12.3725 216.47 11.2834 217.8 10.5047L216.789 8.77896C215.122 9.75525 213.834 11.1302 212.935 12.8808L214.713 13.7951ZM217.801 10.5038C219.128 9.72299 220.733 9.31227 222.652 9.31227V7.31227C220.441 7.31227 218.473 7.78792 216.787 8.77988L217.801 10.5038ZM222.652 9.31227C224.572 9.31227 226.171 9.72305 227.488 10.5024L228.506 8.78119C226.827 7.78786 224.863 7.31227 222.652 7.31227V9.31227ZM227.494 10.506C228.832 11.2851 229.861 12.3741 230.591 13.7951L232.37 12.8808C231.469 11.1286 230.176 9.75353 228.5 8.77767L227.494 10.506ZM230.592 13.7971C231.321 15.2086 231.704 16.8892 231.704 18.8689H233.704C233.704 16.6294 233.27 14.6228 232.369 12.8788L230.592 13.7971ZM231.704 18.8689C231.704 20.8291 231.322 22.5067 230.591 23.9294L232.37 24.8436C233.269 23.0931 233.704 21.0923 233.704 18.8689H231.704ZM230.592 23.9273C229.862 25.3403 228.831 26.4315 227.49 27.2207L228.504 28.9445C230.176 27.961 231.468 26.5881 232.369 24.8456L230.592 23.9273ZM227.491 27.2198C226.174 27.9918 224.574 28.3989 222.652 28.3989V30.3989C224.861 30.3989 226.824 29.9285 228.502 28.9455L227.491 27.2198ZM222.679 26.0114C223.819 26.0114 224.843 25.683 225.677 24.9774L224.387 23.4498C223.963 23.8079 223.417 24.0114 222.679 24.0114V26.0114ZM225.684 24.9721C226.471 24.2956 227.035 23.3985 227.401 22.3309L225.509 21.6823C225.237 22.4761 224.852 23.0503 224.38 23.4551L225.684 24.9721ZM227.398 22.3389C227.77 21.2823 227.947 20.1075 227.947 18.829H225.947C225.947 19.9259 225.795 20.8696 225.511 21.6742L227.398 22.3389ZM227.947 18.829C227.947 17.5504 227.77 16.3757 227.398 15.319L225.511 15.9837C225.795 16.7884 225.947 17.7321 225.947 18.829H227.947ZM227.401 15.327C227.035 14.2595 226.471 13.3624 225.684 12.6858L224.38 14.2028C224.852 14.6076 225.237 15.1819 225.509 15.9757L227.401 15.327ZM225.684 12.6858C224.849 11.9687 223.824 11.6333 222.679 11.6333V13.6333C223.413 13.6333 223.956 13.8386 224.38 14.2028L225.684 12.6858ZM222.679 11.6333C221.527 11.6333 220.494 11.9672 219.644 12.677L220.927 14.2117C221.371 13.8401 221.934 13.6333 222.679 13.6333V11.6333ZM219.639 12.6813C218.843 13.3558 218.269 14.2513 217.893 15.319L219.78 15.9837C220.059 15.1901 220.452 14.6142 220.932 14.2073L219.639 12.6813ZM217.89 15.327C217.529 16.3812 217.358 17.553 217.358 18.829H219.358C219.358 17.7295 219.506 16.7829 219.782 15.9757L217.89 15.327ZM217.358 18.829C217.358 20.1049 217.529 21.2768 217.89 22.3309L219.782 21.6823C219.506 20.875 219.358 19.9285 219.358 18.829H217.358ZM217.893 22.3389C218.269 23.4067 218.843 24.3021 219.639 24.9766L220.932 23.4507C220.452 23.0438 220.059 22.4679 219.78 21.6742L217.893 22.3389ZM219.651 24.9862C220.5 25.6844 221.531 26.0114 222.679 26.0114V24.0114C221.929 24.0114 221.365 23.8065 220.921 23.4411L219.651 24.9862ZM249.989 8.57818H250.989V7.57818H249.989V8.57818ZM249.989 12.8327V13.8327H250.989V12.8327H249.989ZM237.385 12.8327H236.385V13.8327H237.385V12.8327ZM237.385 8.57818V7.57818H236.385V8.57818H237.385ZM240.27 29H239.27V30H240.27V29ZM241.134 3.41954L240.277 2.90504L240.273 2.91082L241.134 3.41954ZM243.528 1.22579L243.093 0.325136L243.528 1.22579ZM249.351 0.693978L249.169 1.67726L249.171 1.67766L249.351 0.693978ZM250.973 1.05296L251.946 1.28403L252.164 0.366201L251.26 0.095129L250.973 1.05296ZM249.963 5.3075L249.658 6.25992L250.686 6.58897L250.936 5.53857L249.963 5.3075ZM249.138 5.10807L248.947 6.0897L248.952 6.09064L249.138 5.10807ZM246.413 5.6L247.171 6.25229L247.178 6.2436L246.413 5.6ZM245.921 29V30H246.921V29H245.921ZM248.989 8.57818V12.8327H250.989V8.57818H248.989ZM249.989 11.8327H237.385V13.8327H249.989V11.8327ZM238.385 12.8327V8.57818H236.385V12.8327H238.385ZM237.385 9.57818H249.989V7.57818H237.385V9.57818ZM241.27 29V7.10239H239.27V29H241.27ZM241.27 7.10239C241.27 5.74752 241.534 4.70881 241.995 3.92827L240.273 2.91082C239.582 4.08028 239.27 5.49679 239.27 7.10239H241.27ZM241.992 3.93404C242.478 3.12385 243.13 2.52802 243.962 2.12645L243.093 0.325136C241.904 0.898573 240.961 1.76524 240.277 2.90505L241.992 3.93404ZM243.962 2.12645C244.819 1.71324 245.814 1.49454 246.971 1.49454V-0.505455C245.557 -0.505455 244.258 -0.236653 243.093 0.325136L243.962 2.12645ZM246.971 1.49454C247.79 1.49454 248.521 1.55728 249.169 1.67726L249.533 -0.289304C248.745 -0.435236 247.89 -0.505455 246.971 -0.505455V1.49454ZM249.171 1.67766C249.89 1.80913 250.386 1.92089 250.686 2.01078L251.26 0.095129C250.851 -0.0277081 250.266 -0.155268 249.531 -0.2897L249.171 1.67766ZM250 0.821883L248.99 5.07643L250.936 5.53857L251.946 1.28403L250 0.821883ZM250.267 4.35508C249.994 4.26763 249.677 4.19218 249.324 4.1255L248.952 6.09064C249.256 6.14804 249.488 6.20555 249.658 6.25992L250.267 4.35508ZM249.329 4.12645C248.945 4.05175 248.553 4.015 248.154 4.015V6.015C248.429 6.015 248.693 6.0403 248.947 6.08968L249.329 4.12645ZM248.154 4.015C247.21 4.015 246.258 4.22998 245.647 4.9564L247.178 6.2436C247.223 6.19002 247.433 6.015 248.154 6.015V4.015ZM245.655 4.94776C245.121 5.56841 244.921 6.36774 244.921 7.20875H246.921C246.921 6.66703 247.049 6.39387 247.171 6.25224L245.655 4.94776ZM244.921 7.20875V29H246.921V7.20875H244.921ZM245.921 28H240.27V30H245.921V28ZM256.07 29H255.07V30H256.07V29ZM256.07 8.57818V7.57818H255.07V8.57818H256.07ZM261.734 8.57818H262.734V7.57818H261.734V8.57818ZM261.734 29V30H262.734V29H261.734ZM256.748 5.10807L256.057 5.83118L256.063 5.83644L256.069 5.84163L256.748 5.10807ZM256.748 1.06625L257.433 1.79477L257.434 1.79445L256.748 1.06625ZM261.069 1.06625L260.378 1.78936L260.384 1.79463L260.39 1.79981L261.069 1.06625ZM261.069 5.10807L261.754 5.83659L261.755 5.83627L261.069 5.10807ZM257.07 29V8.57818H255.07V29H257.07ZM256.07 9.57818H261.734V7.57818H256.07V9.57818ZM260.734 8.57818V29H262.734V8.57818H260.734ZM261.734 28H256.07V30H261.734V28ZM258.915 4.94568C258.318 4.94568 257.841 4.75699 257.428 4.37451L256.069 5.84163C256.861 6.57597 257.828 6.94568 258.915 6.94568V4.94568ZM257.439 4.38496C257.033 3.99766 256.857 3.57721 256.857 3.07386H254.857C254.857 4.14824 255.275 5.08393 256.057 5.83118L257.439 4.38496ZM256.857 3.07386C256.857 2.58345 257.03 2.17377 257.433 1.79477L256.063 0.337731C255.279 1.07554 254.857 2.00428 254.857 3.07386H256.857ZM257.434 1.79445C257.847 1.4051 258.323 1.21534 258.915 1.21534V-0.784659C257.823 -0.784659 256.855 -0.407145 256.063 0.338052L257.434 1.79445ZM258.915 1.21534C259.507 1.21534 259.976 1.40475 260.378 1.78936L261.76 0.343142C260.975 -0.406791 260.007 -0.784659 258.915 -0.784659V1.21534ZM260.39 1.79981C260.8 2.18035 260.973 2.58863 260.973 3.07386H262.973C262.973 1.99909 262.544 1.06897 261.749 0.332689L260.39 1.79981ZM260.973 3.07386C260.973 3.5721 260.797 3.99112 260.384 4.37987L261.755 5.83627C262.547 5.09048 262.973 4.15335 262.973 3.07386H260.973ZM260.384 4.37955C259.982 4.75731 259.512 4.94568 258.915 4.94568V6.94568C260.003 6.94568 260.968 6.57565 261.754 5.83659L260.384 4.37955ZM274.556 1.77091H275.556V0.770909H274.556V1.77091ZM274.556 29V30H275.556V29H274.556ZM268.892 29H267.892V30H268.892V29ZM268.892 1.77091V0.770909H267.892V1.77091H268.892ZM273.556 1.77091V29H275.556V1.77091H273.556ZM274.556 28H268.892V30H274.556V28ZM269.892 29V1.77091H267.892V29H269.892ZM268.892 2.77091H274.556V0.770909H268.892V2.77091ZM285.596 28.1225L285.1 28.9911L285.106 28.9945L285.596 28.1225ZM282.112 24.4795L281.224 24.9387L281.225 24.9407L282.112 24.4795ZM282.112 13.3512L281.223 12.8941L282.112 13.3512ZM285.556 9.64182L285.044 8.78252L285.042 8.78387L285.556 9.64182ZM294.557 8.96375L294.207 9.90041L294.215 9.90354L294.557 8.96375ZM297.615 10.8916L296.911 11.6023L296.915 11.6059L297.615 10.8916ZM299.662 14.1357L298.726 14.4861L298.727 14.4882L299.662 14.1357ZM300.394 20.2383V21.2383H301.394V20.2383H300.394ZM283.15 20.2383H282.15V21.2383H283.15V20.2383ZM283.15 16.7283V15.7283H282.15V16.7283H283.15ZM295.062 16.7283V17.7283H296.062V16.7283H295.062ZM294.53 14.5611L293.659 15.052V15.052L294.53 14.5611ZM293.055 13.0853L292.549 13.9482L292.556 13.9525L292.564 13.9566L293.055 13.0853ZM288.601 13.1385L289.112 13.9981L289.115 13.996L288.601 13.1385ZM287.058 14.7207L287.928 15.2143L287.931 15.2093L287.058 14.7207ZM286.487 16.9144L285.487 16.9034V16.9144H286.487ZM287.045 22.8708L286.153 23.3223L286.157 23.3308L287.045 22.8708ZM292.842 24.905L292.521 23.9579L292.842 24.905ZM294.185 24.1073L293.495 23.3831V23.3831L294.185 24.1073ZM295.036 22.8043L295.102 21.8065L294.363 21.7578L294.101 22.4497L295.036 22.8043ZM300.274 23.15L301.252 23.3567L301.491 22.2281L300.34 22.1522L300.274 23.15ZM298.639 26.4473L297.887 25.7878L297.887 25.7883L298.639 26.4473ZM295.474 28.6277L295.846 29.5562L295.849 29.5549L295.474 28.6277ZM291.02 28.3989C289.056 28.3989 287.423 28.0016 286.085 27.2505L285.106 28.9945C286.8 29.9452 288.784 30.3989 291.02 30.3989V28.3989ZM286.091 27.2539C284.755 26.4914 283.728 25.4201 283 24.0183L281.225 24.9407C282.128 26.6768 283.423 28.0341 285.1 28.9911L286.091 27.2539ZM283.001 24.0204C282.273 22.6117 281.889 20.9099 281.889 18.8822H279.889C279.889 21.1622 280.321 23.1919 281.224 24.9387L283.001 24.0204ZM281.889 18.8822C281.889 16.9123 282.271 15.2305 283.002 13.8084L281.223 12.8941C280.323 14.6452 279.889 16.6506 279.889 18.8822H281.889ZM283.002 13.8084C283.735 12.3819 284.755 11.2868 286.07 10.4998L285.042 8.78387C283.396 9.76952 282.121 11.1474 281.223 12.8941L283.002 13.8084ZM286.067 10.5011C287.379 9.72041 288.943 9.31227 290.794 9.31227V7.31227C288.64 7.31227 286.711 7.7905 285.044 8.78252L286.067 10.5011ZM290.794 9.31227C292.032 9.31227 293.167 9.51146 294.207 9.90037L294.907 8.02713C293.625 7.5474 292.251 7.31227 290.794 7.31227V9.31227ZM294.215 9.90354C295.252 10.2806 296.147 10.8461 296.911 11.6023L298.318 10.1809C297.345 9.21758 296.202 8.49781 294.899 8.02396L294.215 9.90354ZM296.915 11.6059C297.675 12.3504 298.283 13.3021 298.726 14.4861L300.599 13.7853C300.067 12.3634 299.31 11.1524 298.315 10.1773L296.915 11.6059ZM298.727 14.4882C299.162 15.6449 299.394 17.0363 299.394 18.6827H301.394C301.394 16.8547 301.138 15.2147 300.598 13.7832L298.727 14.4882ZM299.394 18.6827V20.2383H301.394V18.6827H299.394ZM300.394 19.2383H283.15V21.2383H300.394V19.2383ZM284.15 20.2383V16.7283H282.15V20.2383H284.15ZM283.15 17.7283H295.062V15.7283H283.15V17.7283ZM296.062 16.7283C296.062 15.7634 295.851 14.8679 295.402 14.0703L293.659 15.052C293.919 15.513 294.062 16.0622 294.062 16.7283H296.062ZM295.402 14.0703C294.957 13.2818 294.334 12.6583 293.545 12.2141L292.564 13.9566C293.034 14.2215 293.394 14.5818 293.659 15.052L295.402 14.0703ZM293.56 12.2225C292.765 11.7568 291.863 11.5402 290.887 11.5402V13.5402C291.561 13.5402 292.103 13.6871 292.549 13.9482L293.56 12.2225ZM290.887 11.5402C289.867 11.5402 288.923 11.779 288.086 12.281L289.115 13.996C289.608 13.7003 290.189 13.5402 290.887 13.5402V11.5402ZM288.09 12.279C287.283 12.7586 286.644 13.4138 286.186 14.2321L287.931 15.2093C288.217 14.698 288.607 14.2984 289.112 13.9981L288.09 12.279ZM286.189 14.2271C285.727 15.0404 285.497 15.9397 285.487 16.9034L287.487 16.9254C287.494 16.276 287.645 15.7127 287.928 15.2143L286.189 14.2271ZM285.487 16.9144V20.2516H287.487V16.9144H285.487ZM285.487 20.2516C285.487 21.3841 285.695 22.4186 286.153 23.3223L287.937 22.4193C287.65 21.8516 287.487 21.14 287.487 20.2516H285.487ZM286.157 23.3308C286.623 24.2294 287.291 24.9407 288.154 25.4388L289.154 23.7064C288.634 23.4068 288.23 22.9836 287.933 22.4108L286.157 23.3308ZM288.154 25.4388C289.024 25.9405 290.023 26.1709 291.113 26.1709V24.1709C290.307 24.1709 289.667 24.0024 289.154 23.7064L288.154 25.4388ZM291.113 26.1709C291.837 26.1709 292.523 26.0689 293.163 25.8521L292.521 23.9579C292.115 24.0956 291.649 24.1709 291.113 24.1709V26.1709ZM293.163 25.8521C293.813 25.6317 294.389 25.2934 294.874 24.8314L293.495 23.3831C293.236 23.6302 292.917 23.8238 292.521 23.9579L293.163 25.8521ZM294.874 24.8314C295.363 24.3665 295.726 23.8031 295.971 23.159L294.101 22.4497C293.955 22.8337 293.751 23.1389 293.495 23.3831L294.874 24.8314ZM294.97 23.8021L300.208 24.1478L300.34 22.1522L295.102 21.8065L294.97 23.8021ZM299.296 22.9433C299.064 24.0392 298.595 24.9811 297.887 25.7878L299.39 27.1068C300.331 26.0344 300.952 24.7781 301.252 23.3567L299.296 22.9433ZM297.887 25.7883C297.187 26.587 296.267 27.2287 295.1 27.7006L295.849 29.5549C297.27 28.9809 298.46 28.169 299.391 27.1063L297.887 25.7883ZM295.103 27.6992C293.958 28.1571 292.604 28.3989 291.02 28.3989V30.3989C292.805 30.3989 294.42 30.1266 295.846 29.5562L295.103 27.6992Z" fill="white" mask="url(#path-1-outside-1_694_1990)"/>
</svg>
