<svg width="40" height="41" viewBox="0 0 40 41" fill="none" xmlns="http://www.w3.org/2000/svg">
<path d="M19.8464 10.1321C14.2158 10.1321 9.6742 14.6738 9.6742 20.3043C9.6742 25.9349 14.2158 30.4765 19.8464 30.4765C25.4769 30.4765 30.0186 25.9349 30.0186 20.3043C30.0186 14.6738 25.4769 10.1321 19.8464 10.1321ZM19.8464 26.9176C16.2078 26.9176 13.2331 23.9518 13.2331 20.3043C13.2331 16.6569 16.1989 13.6911 19.8464 13.6911C23.4939 13.6911 26.4596 16.6569 26.4596 20.3043C26.4596 23.9518 23.485 26.9176 19.8464 26.9176ZM32.8073 9.71605C32.8073 11.0352 31.7449 12.0887 30.4347 12.0887C29.1156 12.0887 28.062 11.0263 28.062 9.71605C28.062 8.4058 29.1244 7.34343 30.4347 7.34343C31.7449 7.34343 32.8073 8.4058 32.8073 9.71605ZM39.5445 12.1241C39.394 8.94583 38.668 6.13055 36.3397 3.81105C34.0202 1.49154 31.2049 0.765588 28.0266 0.606233C24.751 0.420318 14.9329 0.420318 11.6573 0.606233C8.48789 0.756735 5.67261 1.48269 3.34425 3.80219C1.01589 6.1217 0.298791 8.93698 0.139436 12.1152C-0.0464787 15.3909 -0.0464787 25.2089 0.139436 28.4846C0.289938 31.6628 1.01589 34.4781 3.34425 36.7976C5.67261 39.1171 8.47904 39.8431 11.6573 40.0024C14.9329 40.1883 24.751 40.1883 28.0266 40.0024C31.2049 39.8519 34.0202 39.126 36.3397 36.7976C38.6592 34.4781 39.3851 31.6628 39.5445 28.4846C39.7304 25.2089 39.7304 15.3997 39.5445 12.1241ZM35.3127 31.9992C34.6222 33.7345 33.2854 35.0713 31.5413 35.7707C28.9296 36.8065 22.7325 36.5674 19.8464 36.5674C16.9603 36.5674 10.7543 36.7976 8.15147 35.7707C6.41627 35.0801 5.07945 33.7433 4.38006 31.9992C3.34425 29.3876 3.58328 23.1904 3.58328 20.3043C3.58328 17.4182 3.3531 11.2122 4.38006 8.60942C5.0706 6.87421 6.40742 5.5374 8.15147 4.838C10.7631 3.80219 16.9603 4.04123 19.8464 4.04123C22.7325 4.04123 28.9385 3.81105 31.5413 4.838C33.2765 5.52854 34.6133 6.86536 35.3127 8.60942C36.3485 11.2211 36.1095 17.4182 36.1095 20.3043C36.1095 23.1904 36.3485 29.3964 35.3127 31.9992Z" fill="#5C5C5C"/>
</svg>
