<svg width="75" height="119" viewBox="0 0 75 119" fill="none" xmlns="http://www.w3.org/2000/svg">
<path d="M5.64546 89.3812C6.81027 85.6837 8.11519 82.0208 9.62476 78.4318C11.1326 74.8349 12.8567 71.3308 14.7878 67.9386C16.8454 64.326 19.1656 60.8666 21.7299 57.588C25.1469 53.1716 29.1633 49.2446 33.6649 45.9184C35.9388 44.2507 38.3571 42.7857 40.8914 41.5405C42.1952 40.8862 43.5529 40.3433 44.9497 39.9178C46.438 39.4594 47.9925 39.2479 49.5503 39.2919C50.4067 39.3209 51.2538 39.477 52.0635 39.755C52.9713 40.0629 53.7921 40.5804 54.4583 41.2649C55.1437 41.9826 55.622 42.8696 55.8433 43.8332C56.0458 44.7225 56.0651 45.6432 55.9 46.5401C55.7517 47.3696 55.4855 48.174 55.1093 48.9294C54.7548 49.6301 54.3351 50.2965 53.8556 50.9199C52.9791 52.082 52.0072 53.1702 50.9496 54.1734C48.8608 56.1578 46.5118 57.8541 43.9661 59.2167C41.4107 60.5854 38.6694 61.5814 35.827 62.1739C32.2899 62.9219 28.6357 62.9443 25.0895 62.2397C24.6082 62.1362 24.1339 62.003 23.6694 61.8408C23.1892 61.6734 22.7238 61.4667 22.278 61.223C21.3605 60.7438 20.534 60.11 19.8358 59.3499C19.1304 58.5752 18.5789 57.6755 18.2102 56.698C17.8606 55.7653 17.6519 54.7866 17.5909 53.7935C17.4985 51.9458 17.7169 50.0957 18.2374 48.3191C18.4708 47.4625 18.7495 46.6186 19.0724 45.791C19.2327 45.3801 19.3985 44.9721 19.5772 44.5706C19.7532 44.1663 19.9367 43.7938 20.1164 43.404C21.5571 40.3188 23.2004 37.3308 25.0359 34.459C32.4333 22.9868 42.6029 13.5268 54.6222 6.937C55.0674 6.68169 55.5265 6.45019 55.9832 6.21367C56.4417 5.98066 56.8947 5.73677 57.3595 5.51515C58.2903 5.07462 59.2151 4.62229 60.1634 4.22336C62.0425 3.3885 63.9637 2.66881 65.8741 1.99994C67.4001 1.47131 68.9576 1.03648 70.5377 0.697919C71.1796 0.569318 71.7516 0.464315 72.2624 0.389552C72.7764 0.325697 73.2266 0.283765 73.6196 0.260761C74.7635 0.193855 74.8073 0.416119 73.9287 0.847039C73.709 0.954742 73.4315 1.07543 73.0988 1.20781C72.7655 1.33668 72.3799 1.4858 71.942 1.65518C71.505 1.82281 71.0162 2.00169 70.4758 2.19183C69.9395 2.3926 69.3562 2.61384 68.7234 2.84013C65.3972 4.06053 62.1409 5.46075 58.9692 7.03449C51.7215 10.6288 45.0894 15.3312 39.3161 20.9692C33.5465 26.5637 28.7274 33.0464 25.0455 40.166C24.7986 40.6572 24.5505 41.1505 24.3013 41.6461C24.0672 42.1482 23.8324 42.6517 23.5969 43.1565C23.3539 43.6573 23.1485 44.176 22.9231 44.6853C22.7014 45.198 22.4745 45.7081 22.2858 46.2029C21.5078 48.1127 21.0145 50.1246 20.8216 52.1753C20.7051 53.7041 20.9295 55.1818 21.6058 56.337C21.9517 56.9156 22.4084 57.4216 22.9503 57.8264C23.2335 58.0372 23.5343 58.2237 23.8494 58.3839C24.163 58.5532 24.4921 58.6927 24.8322 58.8006C25.1885 58.9159 25.552 59.0085 25.9202 59.0778L27.1293 59.2713C27.5375 59.3154 27.9454 59.364 28.3545 59.4022C28.7656 59.4214 29.1757 59.4563 29.5876 59.4643C31.2417 59.4991 32.895 59.364 34.5211 59.0612C37.7953 58.4449 40.9266 57.2346 43.7575 55.4911C45.1752 54.6175 46.5181 53.6299 47.7728 52.5383C49.0172 51.4661 50.1502 50.273 51.1548 48.977L51.4221 48.6156L51.5551 48.4345L51.6692 48.2654C51.8193 48.0434 51.9569 47.8132 52.0812 47.576C52.3214 47.1216 52.5006 46.6382 52.6144 46.1378C52.719 45.6871 52.7388 45.2211 52.673 44.7632C52.6442 44.5603 52.589 44.3619 52.5087 44.173C52.4376 43.9934 52.3403 43.8251 52.22 43.6735C52.1027 43.5169 51.9631 43.378 51.8055 43.2612C51.6376 43.1314 51.4551 43.0214 51.2615 42.9336C50.8129 42.7378 50.3361 42.6132 49.8484 42.5643C49.2997 42.5078 48.7466 42.5069 48.1977 42.5616C47.6219 42.6165 47.0511 42.7133 46.4897 42.8514C45.3139 43.1525 44.1684 43.5599 43.0677 44.0686C42.5003 44.3232 41.9347 44.5972 41.3682 44.8857C40.8074 45.1735 40.2521 45.4719 39.7024 45.7808C37.5024 47.0359 35.4032 48.4572 33.4234 50.032C29.8737 52.8643 26.6669 56.0947 23.8673 59.6588C21.051 63.2452 18.5634 67.0737 16.4342 71.0989C15.3609 73.1128 14.3598 75.165 13.4309 77.2553C12.9703 78.301 12.519 79.3505 12.1023 80.4162L11.4701 82.0119L10.8706 83.6211C10.4619 84.6907 10.1077 85.7813 9.72595 86.8616C9.37636 87.9537 9.00338 89.0378 8.67733 90.1384C7.99208 92.3284 7.38358 94.5446 6.79063 96.7655C4.93226 103.864 3.32485 110.621 1.39684 116.549C0.512786 119.275 -0.244018 118.941 0.16369 115.656C0.796974 111.015 1.59041 106.159 2.58959 101.349C3.40398 97.3927 4.50633 93.3773 5.68931 89.4324C5.67411 89.4159 5.66022 89.4005 5.64546 89.3812Z" fill="white"/>
</svg>
