<svg width="46" height="56" viewBox="0 0 46 56" fill="none" xmlns="http://www.w3.org/2000/svg">
<path d="M17.2754 26.072C14.8192 26.128 12.3675 26.4951 9.99759 27.1628L9.9839 27.1666C9.51724 27.2981 9.03236 27.0264 8.9009 26.5597C8.85093 26.3823 8.85916 26.2027 8.91426 26.0405C10.3835 21.6952 12.2664 17.4936 14.5203 13.5014L14.8711 12.8831L15.0466 12.5738L15.2298 12.269L15.9631 11.0491C16.472 10.248 16.9713 9.44016 17.5081 8.65693C18.0284 7.86269 18.5858 7.09396 19.132 6.31864L19.9787 5.17595L20.19 4.89023L20.4082 4.60989L20.844 4.04916C21.296 3.45348 21.7761 2.88018 22.2485 2.30074C22.482 2.00877 22.7294 1.72838 22.9729 1.44482L23.7051 0.595383C23.9777 0.279187 24.4549 0.243803 24.7711 0.516358C24.8043 0.5449 24.8343 0.575698 24.8612 0.608297L24.8729 0.622857L24.9973 0.775589C25.1132 0.917988 25.1691 1.08968 25.168 1.26001L25.1679 1.26563C25.151 3.68097 25.2558 6.09651 25.4814 8.50005L24.2338 7.92853C30.0832 3.71065 37.1115 1.155 44.3191 0.637968C44.7951 0.603832 45.2087 0.962013 45.2428 1.438C45.2691 1.80421 45.0631 2.13346 44.7499 2.28142L44.742 2.28491C40.7646 4.15161 37.055 6.58691 33.6569 9.39138C30.2589 12.1995 27.1646 15.3801 24.4211 18.8348L23.6586 19.808L22.8561 18.3077C27.2603 18.0202 31.7134 18.5321 35.941 19.8131C36.4419 19.9649 36.7249 20.494 36.5731 20.9949C36.4948 21.2532 36.3163 21.4535 36.093 21.5662L36.087 21.5692C33.261 22.9827 30.5735 24.6952 28.0167 26.587C25.46 28.4812 23.0319 30.5583 20.7267 32.7649C18.4226 34.9734 16.2435 37.3155 14.1952 39.7648C12.1486 42.2152 10.2324 44.7753 8.49187 47.4433L7.56457 45.9805C8.64332 45.8425 9.65949 45.8544 10.6661 45.8849C11.6712 45.9195 12.6609 45.9879 13.6466 46.0617C14.1701 46.1008 14.5627 46.5569 14.5235 47.0803C14.4998 47.3973 14.3232 47.6664 14.0712 47.8206L14.0654 47.824C12.0302 49.0506 10.005 50.2738 8.04418 51.5753C6.0812 52.8745 4.16649 54.2587 2.25913 55.6682L2.25444 55.6716C1.83563 55.9811 1.24525 55.8925 0.935762 55.4737C0.817356 55.3135 0.75732 55.1285 0.751654 54.9433L0.724348 54.0855C0.62037 50.3313 0.820657 46.5364 1.24152 42.8575C1.33278 42.0435 1.44214 41.2988 1.55125 40.6332L1.56221 40.5663C1.62739 40.1687 2.00249 39.8993 2.40004 39.9645C2.68707 40.0115 2.90738 40.2209 2.98312 40.4829C3.60108 42.6342 4.19868 44.0616 4.57734 45.0986C4.75558 45.5862 4.80875 45.859 4.72939 45.9323C4.65207 46.0044 4.44353 45.8781 4.12775 45.5501C3.81425 45.2213 3.38816 44.6892 2.92712 43.9262C2.46542 43.1648 1.98185 42.1701 1.5458 40.9737L3.05912 40.8148C3.05837 40.8231 3.05741 40.8336 3.05645 40.8442C2.74973 43.9575 2.52199 47.3669 2.46417 50.5995C2.43845 52.0275 2.44709 53.4559 2.48981 54.8789L1.22415 54.2703C3.15229 52.8626 5.09925 51.4673 7.10366 50.1488C9.1068 48.8276 11.1533 47.5958 13.189 46.3686L13.5187 47.7557C12.544 47.6828 11.5713 47.6166 10.6083 47.5847C9.64811 47.5549 8.68644 47.5532 7.79502 47.671L7.7918 47.6714C7.3792 47.7259 7.00053 47.4356 6.94603 47.023C6.92158 46.8379 6.96711 46.6588 7.06134 46.5135C8.9446 43.617 11.0127 40.8518 13.2233 38.2077C15.4354 35.5647 17.792 33.0427 20.2919 30.6627C20.6723 30.3047 21.0488 29.9386 21.4369 29.5821C21.8301 29.231 22.2246 28.8786 22.6199 28.5257L23.2136 27.9963L23.8253 27.4857C24.2338 27.146 24.6423 26.8062 25.0502 26.4669C26.7188 25.1552 28.4113 23.8876 30.1555 22.8188C31.7987 21.762 33.5285 20.8341 35.2803 19.9447L35.4137 21.5484C31.4136 20.295 27.1658 19.7898 22.9681 20.0565L22.9616 20.0569C22.5125 20.0854 22.1252 19.7445 22.0967 19.2953C22.0836 19.0893 22.149 18.8953 22.2661 18.744C23.2995 17.4122 24.3666 16.1062 25.4913 14.85C25.7678 14.5319 26.0611 14.2289 26.3452 13.9176C26.6311 13.6079 26.9161 13.2974 27.2141 12.9992L28.0984 12.0953L29.0071 11.2159C29.1593 11.0702 29.3086 10.9214 29.4633 10.7784L29.9303 10.352C30.2432 10.0696 30.5495 9.77991 30.868 9.5038C31.5074 8.95421 32.1409 8.39802 32.803 7.87564C33.4515 7.33693 34.1304 6.83619 34.8007 6.32558C35.1393 6.07467 35.4866 5.8353 35.8291 5.58998L36.3447 5.2244L36.8714 4.87462C39.1542 3.35015 41.5498 1.98095 44.0598 0.814658L44.4296 2.25491C37.7154 2.69888 31.1113 5.02259 25.5627 8.84807L25.1129 9.15592L25.0982 9.16599C24.7711 9.38988 24.3245 9.3062 24.1006 8.97911C24.0288 8.87429 23.9885 8.75406 23.9778 8.63597C23.764 6.17975 23.6739 3.7134 23.7077 1.25078L23.8621 1.69409L23.7387 1.54053L24.795 1.56537C18.3369 8.76765 13.3679 17.3103 10.3028 26.4977L9.58971 25.7589C12.637 24.886 15.8166 24.4913 18.98 24.5912C19.2811 24.6007 19.5176 24.8524 19.5081 25.1535C19.5033 25.3092 19.432 25.449 19.3242 25.5451C18.1965 26.5421 17.1082 27.5847 16.0692 28.6769C14.9134 29.9056 13.8277 31.1671 12.8054 32.4438C11.7882 33.7249 10.8476 35.0292 9.95997 36.3304C9.07946 37.6367 8.27512 38.9532 7.51759 40.2557C7.33532 40.5854 7.15422 40.9129 6.97436 41.2382C6.88538 41.4015 6.79036 41.5614 6.7065 41.7259C6.62149 41.89 6.53677 42.0535 6.45237 42.2165C6.28561 42.5435 6.10808 42.8635 5.95059 43.1897C5.79185 43.5159 5.63429 43.8398 5.47794 44.1611C5.32849 44.4549 5.21351 44.7158 5.1022 44.9314C4.99269 45.1478 4.89602 45.3224 4.81328 45.4555C4.64779 45.7216 4.53802 45.8212 4.49316 45.754C4.44829 45.6867 4.46835 45.4523 4.56251 45.0508C4.60958 44.85 4.67516 44.6074 4.76036 44.3233C4.8475 44.04 4.96891 43.7213 5.1052 43.359C6.67695 39.2669 8.96401 35.2293 11.7245 31.5758C12.6984 30.3033 13.7377 29.0563 14.8479 27.8633C15.964 26.6757 17.1394 25.5341 18.3645 24.4522L18.9394 26.0452C18.3933 26.0315 17.8496 26.029 17.3071 26.0443C17.2972 26.0537 17.2878 26.0623 17.2754 26.072Z" fill="white"/>
</svg>
