<svg width="40" height="40" viewBox="0 0 40 40" fill="none" xmlns="http://www.w3.org/2000/svg">
<path d="M35.0751 0.773926H5.3142C2.74732 0.773926 0.664062 2.85719 0.664062 5.42406V35.1849C0.664062 37.7518 2.74732 39.8351 5.3142 39.8351H35.0751C37.6419 39.8351 39.7252 37.7518 39.7252 35.1849V5.42406C39.7252 2.85719 37.6419 0.773926 35.0751 0.773926ZM12.7544 15.6544V33.3249H7.17425V15.6544H12.7544ZM7.17425 10.5113C7.17425 9.20927 8.29029 8.21414 9.96433 8.21414C11.6384 8.21414 12.6893 9.20927 12.7544 10.5113C12.7544 11.8133 11.7128 12.8643 9.96433 12.8643C8.29029 12.8643 7.17425 11.8133 7.17425 10.5113ZM33.215 33.3249H27.6349C27.6349 33.3249 27.6349 24.7128 27.6349 24.0246C27.6349 22.1646 26.7048 20.3045 24.3798 20.2673H24.3054C22.0547 20.2673 21.1247 22.1832 21.1247 24.0246C21.1247 24.8709 21.1247 33.3249 21.1247 33.3249H15.5445V15.6544H21.1247V18.0352C21.1247 18.0352 22.9196 15.6544 26.5281 15.6544C30.2203 15.6544 33.215 18.1933 33.215 23.3364V33.3249Z" fill="#5C5C5C"/>
</svg>
